<svg id="レイヤー_1" data-name="レイヤー 1" xmlns="http://www.w3.org/2000/svg" xmlns:xlink="http://www.w3.org/1999/xlink" viewBox="0 0 60 60"><defs><style>.cls-1{fill:none;}.cls-2{fill:#ffc248;}.cls-3{fill:#216ead;}.cls-4{clip-path:url(#clip-path);}.cls-5,.cls-7{opacity:0.7;}.cls-6,.cls-7,.cls-8,.cls-9{fill:#1faedb;}.cls-6{opacity:0.9;}.cls-9{opacity:0.5;}</style><clipPath id="clip-path"><path class="cls-1" d="M50,11.28A1.52,1.52,0,0,0,48.5,9.89H10.4a1.53,1.53,0,0,0-1.53,1.39l-1,11a1.53,1.53,0,0,0,.4,1.17,1.55,1.55,0,0,0,1.13.49h2.23a1.53,1.53,0,0,0,1.51-1.28c.43-2.58,1.36-4.42,2.79-5.48s3.11-1.72,6.62-1.72h2V41.69c0,1.07-.23,1.53-.36,1.63s-.82.51-4.52.76a1.53,1.53,0,0,0-1.42,1.53v1.8a1.52,1.52,0,0,0,1.53,1.53H39.07a1.52,1.52,0,0,0,1.53-1.53v-1.8a1.54,1.54,0,0,0-1.41-1.53c-3.59-.27-4.32-.65-4.4-.7-.31-.19-.49-.81-.49-1.69V15.43h2c3.37,0,4.9.54,6.46,1.59s2.49,2.91,2.95,5.62a1.53,1.53,0,0,0,1.51,1.27h2.23a1.55,1.55,0,0,0,1.13-.49,1.57,1.57,0,0,0,.4-1.17Z"/></clipPath></defs><path class="cls-2" d="M52.33,13.59a1.52,1.52,0,0,0-1.52-1.39H12.71a1.53,1.53,0,0,0-1.53,1.39l-1,11a1.53,1.53,0,0,0,.4,1.17,1.55,1.55,0,0,0,1.13.49H14a1.53,1.53,0,0,0,1.51-1.28c.43-2.58,1.36-4.42,2.79-5.48s3.11-1.72,6.62-1.72h2V44c0,1.07-.23,1.53-.36,1.63s-.82.51-4.52.76a1.54,1.54,0,0,0-1.42,1.53v1.8a1.52,1.52,0,0,0,1.53,1.53H41.38a1.52,1.52,0,0,0,1.53-1.53v-1.8a1.54,1.54,0,0,0-1.41-1.53c-3.59-.27-4.32-.65-4.4-.7-.31-.19-.49-.81-.49-1.69V17.74h2c3.37,0,4.91.54,6.46,1.59s2.49,2.91,3,5.62a1.53,1.53,0,0,0,1.51,1.27h2.23a1.55,1.55,0,0,0,1.13-.49,1.57,1.57,0,0,0,.4-1.17Z"/><path class="cls-3" d="M50,11.28A1.52,1.52,0,0,0,48.5,9.89H10.4a1.53,1.53,0,0,0-1.53,1.39l-1,11a1.53,1.53,0,0,0,.4,1.17,1.55,1.55,0,0,0,1.13.49h2.23a1.53,1.53,0,0,0,1.51-1.28c.43-2.58,1.36-4.42,2.79-5.48s3.11-1.72,6.62-1.72h2V41.69c0,1.07-.23,1.53-.36,1.63s-.82.51-4.52.76a1.53,1.53,0,0,0-1.42,1.53v1.8a1.52,1.52,0,0,0,1.53,1.53H39.07a1.52,1.52,0,0,0,1.53-1.53v-1.8a1.54,1.54,0,0,0-1.41-1.53c-3.59-.27-4.32-.65-4.4-.7-.31-.19-.49-.81-.49-1.69V15.43h2c3.37,0,4.9.54,6.46,1.59s2.49,2.91,2.95,5.62a1.53,1.53,0,0,0,1.51,1.27h2.23a1.55,1.55,0,0,0,1.13-.49,1.57,1.57,0,0,0,.4-1.17Z"/><g class="cls-4"><g class="cls-5"><rect class="cls-6" x="4.98" y="41.55" width="8.18" height="8.18"/><rect class="cls-6" x="13.16" y="33.37" width="8.18" height="8.18"/><rect class="cls-7" x="21.34" y="41.55" width="8.18" height="8.18"/><rect class="cls-8" x="4.98" y="25.19" width="8.18" height="8.18"/><rect class="cls-7" x="29.52" y="33.37" width="8.18" height="8.18"/><rect class="cls-9" x="37.7" y="41.55" width="8.18" height="8.18"/><rect class="cls-9" x="45.88" y="33.37" width="8.18" height="8.18"/><rect class="cls-8" x="4.98" y="8.83" width="8.18" height="8.18"/><rect class="cls-8" x="13.16" y="17.01" width="8.18" height="8.18"/><rect class="cls-6" x="21.34" y="25.19" width="8.18" height="8.18"/><rect class="cls-8" x="21.34" y="8.83" width="8.18" height="8.18"/><rect class="cls-6" x="29.52" y="17.01" width="8.18" height="8.18"/><rect class="cls-7" x="37.7" y="25.19" width="8.18" height="8.18"/><rect class="cls-6" x="37.7" y="8.83" width="8.18" height="8.18"/><rect class="cls-7" x="45.88" y="17.01" width="8.18" height="8.18"/></g></g></svg>