<svg xmlns="http://www.w3.org/2000/svg" viewBox="0 0 60 60"><defs><style>.cls-1{fill:#ffc248;}.cls-2{fill:#31394a;}.cls-3{fill:#1f2530;}.cls-4{fill:#1faedb;}.cls-5{fill:#216ead;}</style></defs><path class="cls-1" d="M27.3,30.67h-19a1.7,1.7,0,1,1,0-3.4h19a1.7,1.7,0,0,1,0,3.4Z"/><path class="cls-1" d="M38.67,15.21H13.36a1.7,1.7,0,0,1,0-3.4H38.67a1.7,1.7,0,0,1,0,3.4Z"/><path class="cls-1" d="M29.56,21.3H4.25a1.7,1.7,0,0,1,0-3.39H29.56a1.7,1.7,0,1,1,0,3.39Z"/><path class="cls-1" d="M38,48.27H12.73a1.7,1.7,0,0,1,0-3.39H38a1.7,1.7,0,1,1,0,3.39Z"/><path class="cls-1" d="M29.43,42.06H4.13a1.7,1.7,0,1,1,0-3.4h25.3a1.7,1.7,0,0,1,0,3.4Z"/><path class="cls-1" d="M56.61,30A18.33,18.33,0,1,1,38.29,11.72,18.33,18.33,0,0,1,56.61,30Z"/><path class="cls-2" d="M53.48,30A15.19,15.19,0,1,1,38.29,14.85,15.19,15.19,0,0,1,53.48,30Z"/><path class="cls-3" d="M42,32.9l5.68-9-8.92,5.64a2.84,2.84,0,0,0-.53.4,2.41,2.41,0,0,0,3.4,3.41A2.32,2.32,0,0,0,42,32.9Zm-2.86-.44a1,1,0,0,1,0-1.48,1,1,0,1,1,0,1.48Z"/><path class="cls-4" d="M40.47,31.38l5.67-9L37.23,28a2.55,2.55,0,0,0-.53.4,2.4,2.4,0,0,0,3.4,3.4A2.67,2.67,0,0,0,40.47,31.38Zm-2.83-.48a1,1,0,0,1,0-1.41,1,1,0,0,1,1.41,0,1,1,0,1,1-1.41,1.41Z"/><path class="cls-4" d="M25.5,28.27,18,23.16a.79.79,0,0,0-1.23.7V34.08a.8.8,0,0,0,1.23.71l7.49-5.11A.87.87,0,0,0,25.5,28.27Z"/><path class="cls-5" d="M16.65,39.54,8,33.61a.93.93,0,0,0-1.44.81V46.3A.93.93,0,0,0,8,47.12l8.69-5.94A1,1,0,0,0,16.65,39.54Z"/><path class="cls-5" d="M16,18.17l-5.32-3.63a.56.56,0,0,0-.87.5v7.27a.56.56,0,0,0,.87.5L16,19.18A.62.62,0,0,0,16,18.17Z"/></svg>