<svg id="レイヤー_1" data-name="レイヤー 1" xmlns="http://www.w3.org/2000/svg" xmlns:xlink="http://www.w3.org/1999/xlink" viewBox="0 0 60 60"><defs><style>.cls-1{fill:none;}.cls-2{fill:#1faedb;}.cls-3{clip-path:url(#clip-path);}.cls-4{fill:#216ead;}.cls-5{fill:#55e7ff;}.cls-6{fill:#ffca5f;}.cls-7{fill:#31394a;}</style><clipPath id="clip-path"><path class="cls-1" d="M43.31,20.32a12.82,12.82,0,0,0-2.49.24A16.52,16.52,0,0,0,27,13,16.81,16.81,0,0,0,10.64,26.83a10.8,10.8,0,0,0,2,21.33H43.31A13.72,13.72,0,0,0,56.82,34.24,13.72,13.72,0,0,0,43.31,20.32Z"/></clipPath></defs><path class="cls-2" d="M43.31,20.32a12.82,12.82,0,0,0-2.49.24,16.64,16.64,0,0,0-11.3-7.38l-3.26.19-3.57.19-.14,0a16.29,16.29,0,0,0-5.31,2.63l-1.86,2.27L12.72,21.3a17.32,17.32,0,0,0-2.08,5.53,10.8,10.8,0,0,0,2,21.33H43.31A13.72,13.72,0,0,0,56.82,34.24,13.72,13.72,0,0,0,43.31,20.32Z"/><g class="cls-3"><path class="cls-4" d="M47.61,34.73l-3.15-1.35.23-3.11-4.36-.12.1,3.09-3.18,1.27-2.08-2.4L32,35.1l2.31,2.16L33,40.41l-3.24-.24-.12,4.38,3.22-.11,1.27,3.18L31.6,49.76l3,3.17,2.2-2.36L40,51.92l-.23,3.25,4.37.08L44,52.06l3.17-1.27,2.09,2.41,3.14-3L50.15,48l1.34-3.15,3.12.23.08-4.36-3.06.1-1.27-3.18,2.34-2-3-3.16Zm-2.1,9.42a3.66,3.66,0,1,1-1.92-4.8A3.64,3.64,0,0,1,45.51,44.15Z"/><path class="cls-5" d="M26.9,10.53,24.68,8.59l1-2.49L22.16,4.84,21.41,7.4l-2.94.19L17.41,5.07,14,6.68l1.31,2.38-1.94,2.22-2.59-1.06L9.52,13.77l2.67.78.19,2.94-2.6,1.09L11.42,22l2.43-1.34,2.22,1.94L15,25.18l3.56,1.23.77-2.64,2.94-.19,1.07,2.53,3.38-1.65-1.3-2.35,1.94-2.22,2.5,1,1.22-3.54-2.53-.74-.19-2.94,2.45-1L29.2,9.26Zm-4.23,7.16a3.15,3.15,0,1,1-.29-4.45A3.15,3.15,0,0,1,22.67,17.69Z"/></g><path class="cls-6" d="M46.21,33.33,43.07,32l.22-3.1-4.36-.13.1,3.09-3.17,1.27-2.08-2.4-3.18,3,2.3,2.17L31.56,39l-3.24-.23-.12,4.37,3.21-.1,1.28,3.17-2.48,2.15,3,3.16,2.21-2.35,3.14,1.34-.23,3.25,4.37.08-.1-3.19,3.17-1.27,2.1,2.42,3.13-3-2.27-2.13,1.34-3.15,3.13.23.07-4.36-3,.1L49,36.28l2.33-2-3-3.15Zm-2.09,9.42A3.66,3.66,0,1,1,42.19,38,3.66,3.66,0,0,1,44.12,42.75Z"/><path class="cls-7" d="M17.64,39.23H16.12l-.54-2h-2l-.52,2H11.58l2.13-7.53h1.82Zm-2.26-3.08-.46-1.71c-.11-.47-.24-1.08-.34-1.54h0c-.1.47-.22,1.09-.33,1.53l-.45,1.72Z"/><path class="cls-7" d="M18.61,31.8a10.69,10.69,0,0,1,1.95-.15,3.24,3.24,0,0,1,2.15.59,2.18,2.18,0,0,1,.72,1.69c0,2.06-1.72,2.52-2.85,2.52a2.79,2.79,0,0,1-.53,0v2.82H18.61Zm1.44,3.48a2.45,2.45,0,0,0,.51,0A1.27,1.27,0,0,0,22,34a1.16,1.16,0,0,0-1.31-1.22,2.87,2.87,0,0,0-.63.06Z"/><path class="cls-7" d="M24.65,31.7H26.1v7.53H24.65Z"/></svg>