<svg xmlns="http://www.w3.org/2000/svg" viewBox="0 0 60 60"><defs><style>.cls-1{fill:#31394a;}.cls-2{fill:#576f82;}.cls-3{fill:#1faedb;}.cls-4{fill:#55e7ff;}.cls-5{fill:#fff;}.cls-6{fill:#1f2530;}.cls-7{fill:#4b576b;}.cls-8{fill:#ef9e11;}.cls-9{fill:#ffc248;}.cls-10{fill:#d88000;}</style></defs><path class="cls-1" d="M49.89,56.36H16.3a4.21,4.21,0,0,1-4.2-4.2V19.9a3.67,3.67,0,0,1,4-3.73l34,.2c2.31,0,4,1.22,4,3.53V52.16A4.21,4.21,0,0,1,49.89,56.36Z"/><path class="cls-2" d="M54.09,18.57a4.21,4.21,0,0,0-4.2-4.2H16.3a4.21,4.21,0,0,0-4.2,4.2V19.9h42Z"/><circle class="cls-3" cx="44.77" cy="17.25" r="1.6"/><circle class="cls-4" cx="49.8" cy="17.25" r="1.6"/><polygon class="cls-5" points="20.9 38.82 27.89 43.45 27.89 41.54 22.7 38.2 27.89 34.83 27.89 32.92 20.9 37.55 20.9 38.82"/><polygon class="cls-5" points="30.04 43.55 31.66 43.55 36.32 32.92 34.67 32.92 30.04 43.55"/><polygon class="cls-5" points="38.3 32.93 38.3 34.83 43.53 38.2 38.3 41.54 38.3 43.45 45.29 38.86 45.29 37.53 38.3 32.93"/><path class="cls-6" d="M26.56,16.23,16.1,16.17a3.67,3.67,0,0,0-4,3.73v8.23H26.56Z"/><path class="cls-7" d="M16.3,14.37a4.21,4.21,0,0,0-4.2,4.2V19.9H26.56V14.37Z"/><path class="cls-8" d="M18.73,8.94A4.83,4.83,0,0,0,9.38,10.6v9.53a1,1,0,0,1-2.07,0V10.6A6.9,6.9,0,0,1,20.9,8.93Z"/><path class="cls-9" d="M6.51,12.44H21.9A1.57,1.57,0,0,1,23.46,14V25a0,0,0,0,1,0,0H4.95a0,0,0,0,1,0,0V14A1.57,1.57,0,0,1,6.51,12.44Z"/><ellipse class="cls-10" cx="14.21" cy="17.65" rx="1.89" ry="1.88"/><rect class="cls-10" x="13.32" y="18.13" width="1.77" height="3.55"/></svg>