<svg xmlns="http://www.w3.org/2000/svg" xmlns:xlink="http://www.w3.org/1999/xlink" viewBox="0 0 60 60"><defs><style>.cls-1{fill:none;}.cls-2{fill:#31394a;}.cls-3{fill:#1faedb;}.cls-4{clip-path:url(#clip-path);}.cls-5{fill:#1f2530;}.cls-6{fill:#ffca5f;}.cls-7{fill:#fff;}</style><clipPath id="clip-path"><path class="cls-1" d="M52,55H18A2.1,2.1,0,0,1,15.91,53V7.14A2.1,2.1,0,0,1,18,5H45.86l2.56,5.39,5.63,2.8V53A2.1,2.1,0,0,1,52,55Z"/></clipPath></defs><path class="cls-2" d="M52,55H18A2.1,2.1,0,0,1,15.91,53V7.14A2.1,2.1,0,0,1,18,5H45.86l2.56,5.39,5.63,2.8V53A2.1,2.1,0,0,1,52,55Z"/><path class="cls-3" d="M45.86,5l8.19,8.19H47.92a2.06,2.06,0,0,1-2.06-2.06Z"/><g class="cls-4"><path class="cls-5" d="M34.54,39.18a13.91,13.91,0,1,1-13.9-13.9A13.9,13.9,0,0,1,34.54,39.18Z"/><path class="cls-5" d="M49.39,23.5a2.07,2.07,0,0,0-2.07-2.07H31.43a2.07,2.07,0,0,0,0,4.14H33c1.38,0,1.54,2.22.05,2.22H25.46a2.07,2.07,0,0,0,0,4.14H41.35a2.07,2.07,0,1,0,0-4.14h-2.6c-1,0-1.16-2.22.08-2.22h8.49A2.07,2.07,0,0,0,49.39,23.5Z"/></g><path class="cls-6" d="M32.8,37.44a13.91,13.91,0,1,1-13.9-13.9A13.91,13.91,0,0,1,32.8,37.44Z"/><path class="cls-7" d="M47.65,21.76a2.07,2.07,0,0,0-2.07-2.07H29.69a2.07,2.07,0,0,0,0,4.14h1.53c1.39,0,1.55,2.22.06,2.22H23.72a2.07,2.07,0,0,0,0,4.14H39.61a2.07,2.07,0,0,0,0-4.14H37c-1,0-1.16-2.22.08-2.22h8.49A2.07,2.07,0,0,0,47.65,21.76Z"/><path class="cls-2" d="M17,40.93H15.69l-.13-2.87c0-1-.09-2-.08-2.91h0c-.21.89-.48,1.87-.73,2.69l-.9,3H12.74l-.81-2.94c-.24-.84-.47-1.83-.65-2.74h0c0,.94-.07,2-.12,2.94L11,40.93H9.7l.5-7.38H12l.79,2.77c.24.9.45,1.76.62,2.61h0c.17-.83.39-1.72.64-2.61l.83-2.77h1.75Z"/><path class="cls-2" d="M18.29,33.65a10.14,10.14,0,0,1,1.91-.16,3.17,3.17,0,0,1,2.1.59A2.1,2.1,0,0,1,23,35.73c0,2-1.68,2.48-2.79,2.48a2.68,2.68,0,0,1-.52,0v2.76H18.29Zm1.41,3.4a2.35,2.35,0,0,0,.5,0,1.24,1.24,0,0,0,1.4-1.29,1.13,1.13,0,0,0-1.28-1.2,3.8,3.8,0,0,0-.62,0Z"/><path class="cls-2" d="M27.26,40.93H25.94V39.14H23v-.92l2.64-4.54h1.61v4.38h.83v1.08h-.83Zm-3-2.87h1.66v-1.8c0-.42,0-.88.06-1.32h0c-.22.46-.39.87-.61,1.28L24.28,38Z"/></svg>