<svg id="レイヤー_1" data-name="レイヤー 1" xmlns="http://www.w3.org/2000/svg" viewBox="0 0 60 60"><defs><style>.cls-1{fill:#216ead;}.cls-2{fill:#31394a;}.cls-3{fill:#1faedb;}.cls-4{fill:#55e7ff;}.cls-5{fill:#546277;}.cls-6{fill:#ffc248;}</style></defs><rect class="cls-1" x="23.26" y="39.2" width="11.15" height="3.85"/><path class="cls-1" d="M21.17,42.58H36.5a2.72,2.72,0,0,1,2.72,2.72v0a0,0,0,0,1,0,0H18.45a0,0,0,0,1,0,0v0a2.72,2.72,0,0,1,2.72-2.72Z"/><path class="cls-2" d="M46.8,38.46,11,38.52c-2,0-4-.53-4.44-2.29V12a3.58,3.58,0,0,1,3.57-3.57H47.5A3.59,3.59,0,0,1,51.07,12V36.23A4.39,4.39,0,0,1,46.8,38.46Z"/><path class="cls-3" d="M51.07,36.23A3.59,3.59,0,0,1,47.5,39.8H10.17A3.58,3.58,0,0,1,6.6,36.23"/><circle class="cls-4" cx="46.94" cy="37.99" r="1.21"/><path class="cls-5" d="M32.75,13.27a1.59,1.59,0,0,1,1.59-1.58H46.5a1.59,1.59,0,0,1,0,3.17H45.32c-1.06,0-1.18,1.7,0,1.7h5.79v3.16H38.9a1.58,1.58,0,0,1,0-3.16h2c.77,0,.89-1.7-.06-1.7H34.34A1.59,1.59,0,0,1,32.75,13.27Z"/><path class="cls-5" d="M20.34,27.52a1.19,1.19,0,0,1-1.19,1.19H10a1.19,1.19,0,1,1,0-2.38h.88c.8,0,.89-1.28,0-1.28H6.6V22.68h9.13a1.19,1.19,0,0,1,0,2.37h-1.5c-.57,0-.66,1.28,0,1.28h4.87A1.19,1.19,0,0,1,20.34,27.52Z"/><circle class="cls-6" cx="28.83" cy="22.68" r="6.97"/><path class="cls-2" d="M27.77,26h0a.79.79,0,0,1-.56-.23l-2.45-2.45a.8.8,0,0,1,0-1.13.79.79,0,0,1,1.13,0L27.77,24l4-4a.81.81,0,0,1,1.14,0,.8.8,0,0,1,0,1.13l-4.57,4.57A.79.79,0,0,1,27.77,26Z"/><path class="cls-2" d="M54.87,23.91h-17a1.63,1.63,0,0,0-1.62,1.62V48.16c.21.8.76,1.75,1.65,1.75l16.71,0c.89,0,1.39-.87,1.84-1.7V25.53A1.62,1.62,0,0,0,54.87,23.91Z"/><path class="cls-3" d="M36.28,49.1a1.63,1.63,0,0,0,1.62,1.62h17a1.62,1.62,0,0,0,1.61-1.62v-.94H36.28Z"/><circle class="cls-4" cx="46.38" cy="49.44" r="1.03"/><path class="cls-2" d="M15.23,31.18H4a2.12,2.12,0,0,0-1.48.89v17.8a1.37,1.37,0,0,0,1.3.89L15.18,51a1.64,1.64,0,0,0,1.37-1.11V32.07C16.09,31.49,15.84,31.18,15.23,31.18Z"/><path class="cls-5" d="M16.55,32.07c-.46-.58-.71-.89-1.32-.89H4a2.12,2.12,0,0,0-1.48.89V45.52"/><path class="cls-3" d="M2.56,50.52a1.12,1.12,0,0,0,1.12,1.12H15.43a1.12,1.12,0,0,0,1.12-1.12v-.65h-14Z"/><path class="cls-3" d="M16.55,31.42a1.12,1.12,0,0,0-1.12-1.12H3.68a1.12,1.12,0,0,0-1.12,1.12v.65h14Z"/><circle class="cls-4" cx="9.55" cy="50.76" r="0.71"/><path class="cls-5" d="M51.07,23.91H37.9a1.63,1.63,0,0,0-1.62,1.62v13Z"/><circle class="cls-6" cx="46.38" cy="36.79" r="5.05"/><path class="cls-2" d="M45.62,39.33a.71.71,0,0,1-.53-.22l-1.78-1.77a.75.75,0,0,1,1.06-1.06l1.25,1.24,2.77-2.78a.77.77,0,0,1,1.07,0,.75.75,0,0,1,0,1.06l-3.31,3.31A.74.74,0,0,1,45.62,39.33Z"/><circle class="cls-6" cx="9.55" cy="40.37" r="3.63"/><path class="cls-2" d="M9,42.36a.72.72,0,0,1-.5-.2L7.23,40.88a.7.7,0,0,1,1-1l.78.78,1.88-1.88a.7.7,0,1,1,1,1L9.49,42.16A.7.7,0,0,1,9,42.36Z"/></svg>