<svg id="レイヤー_1" data-name="レイヤー 1" xmlns="http://www.w3.org/2000/svg" xmlns:xlink="http://www.w3.org/1999/xlink" viewBox="0 0 60 60"><defs><style>.cls-1{fill:none;}.cls-2{fill:#31394a;}.cls-3{fill:#1faedb;}.cls-4{clip-path:url(#clip-path);}.cls-5{fill:#1f2530;}.cls-6{fill:#ffca5f;}.cls-7{fill:#fff;}</style><clipPath id="clip-path"><path class="cls-1" d="M52,55H18A2.1,2.1,0,0,1,15.91,53V7.14A2.1,2.1,0,0,1,18,5H45.86l2.56,5.39,5.63,2.8V53A2.1,2.1,0,0,1,52,55Z"/></clipPath></defs><path class="cls-2" d="M52,55H18A2.1,2.1,0,0,1,15.91,53V7.14A2.1,2.1,0,0,1,18,5H45.86l2.56,5.39,5.63,2.8V53A2.1,2.1,0,0,1,52,55Z"/><path class="cls-3" d="M45.86,5l8.19,8.19H47.92a2.06,2.06,0,0,1-2.06-2.06Z"/><g class="cls-4"><path class="cls-5" d="M34.54,39.18a13.91,13.91,0,1,1-13.9-13.9A13.9,13.9,0,0,1,34.54,39.18Z"/><path class="cls-5" d="M49.39,23.5a2.07,2.07,0,0,0-2.07-2.07H31.43a2.07,2.07,0,0,0,0,4.14H33c1.38,0,1.54,2.22.05,2.22H25.46a2.07,2.07,0,0,0,0,4.14H41.35a2.07,2.07,0,1,0,0-4.14h-2.6c-1,0-1.16-2.22.08-2.22h8.49A2.07,2.07,0,0,0,49.39,23.5Z"/></g><path class="cls-6" d="M32.8,37.44a13.91,13.91,0,1,1-13.9-13.9A13.91,13.91,0,0,1,32.8,37.44Z"/><path class="cls-7" d="M47.65,21.76a2.07,2.07,0,0,0-2.07-2.07H29.69a2.07,2.07,0,0,0,0,4.14h1.53c1.39,0,1.55,2.22.06,2.22H23.72a2.07,2.07,0,0,0,0,4.14H39.61a2.07,2.07,0,0,0,0-4.14H37c-1,0-1.16-2.22.08-2.22h8.49A2.07,2.07,0,0,0,47.65,21.76Z"/><path class="cls-2" d="M16.94,40.93H15.58l-.13-2.87c0-1-.09-2-.08-2.91h0c-.21.89-.48,1.87-.73,2.69l-.9,3H12.64l-.82-2.94c-.24-.84-.47-1.83-.64-2.74h0c0,.94-.07,2-.12,2.94l-.14,2.84H9.59l.5-7.38h1.76l.8,2.77c.24.9.45,1.76.61,2.61h0c.17-.83.39-1.72.64-2.61l.84-2.77h1.74Z"/><path class="cls-2" d="M18.19,33.65a10.06,10.06,0,0,1,1.91-.16,3.17,3.17,0,0,1,2.1.59,2.14,2.14,0,0,1,.71,1.65c0,2-1.69,2.48-2.8,2.48a2.51,2.51,0,0,1-.51,0v2.76H18.19Zm1.41,3.4a2.23,2.23,0,0,0,.5,0,1.25,1.25,0,0,0,1.4-1.29,1.14,1.14,0,0,0-1.29-1.2,3.54,3.54,0,0,0-.61,0Z"/><path class="cls-2" d="M26.4,37a1.83,1.83,0,0,1,1.48,1.82c0,1.21-1,2.19-2.66,2.19a3.61,3.61,0,0,1-1.83-.44l.32-1.08a3,3,0,0,0,1.41.39,1.15,1.15,0,0,0,1.31-1.13c0-.81-.71-1.2-1.49-1.2h-.49v-1h.46c.57,0,1.3-.31,1.3-1,0-.51-.34-.89-1-.89a2.51,2.51,0,0,0-1.27.4l-.3-1a3.75,3.75,0,0,1,1.9-.5c1.39,0,2.12.82,2.12,1.78A1.76,1.76,0,0,1,26.4,37Z"/></svg>