<svg id="レイヤー_1" data-name="レイヤー 1" xmlns="http://www.w3.org/2000/svg" xmlns:xlink="http://www.w3.org/1999/xlink" viewBox="0 0 1033.72 407.01"><defs><style>.cls-1{fill:none;}.cls-2{font-size:60px;}.cls-2,.cls-3{fill:#333;font-family:HiraKakuStd-W8-83pv-RKSJ-H, Hiragino Kaku Gothic Std;}.cls-3{font-size:25px;}.cls-4{opacity:0.2;}.cls-5{fill:#2176ab;}.cls-6{fill:#353535;}.cls-7{fill:#efc69b;}.cls-8{fill:#242c3d;}.cls-9{fill:#d3e1e2;}.cls-10{fill:#6242ba;}.cls-11{fill:#ffe7ce;}.cls-12{fill:#31394a;}.cls-13{fill:#fff;}.cls-14{fill:#7a54ce;}.cls-15{fill:#b6d6d6;}.cls-16{fill:#20b0d9;}.cls-17{fill:#2783c1;}.cls-18{fill:#1461a0;}.cls-19{fill:#ea9b1c;}.cls-20{fill:#fcd2ae;}.cls-21{fill:#51e4fd;}.cls-22{fill:#e7f1f2;}.cls-23{fill:#aaccce;}.cls-24{fill:#8d6ceb;}.cls-25{fill:#1cceed;}.cls-26{fill:#f2b326;}.cls-27{fill:#2787b6;}.cls-28{fill:#7bf6ff;}.cls-29{fill:#606f89;}.cls-30{fill:#5b3da3;}.cls-31{fill:#3ecced;}.cls-32{fill:#369ed8;}.cls-33{fill:#216ead;}.cls-34{fill:#ffc248;}.cls-35{fill:#ff7c79;}.cls-36{fill:#4a5272;}.cls-37{fill:#2abadb;}.cls-38{fill:#44d9f2;}.cls-39{fill:#197693;}.cls-40{fill:#319ec9;}.cls-41{fill:#1f7ea3;}.cls-42{fill:#22adbc;}.cls-43{fill:#55e7ff;}.cls-44{fill:#0b84a0;}.cls-45{fill:#1faedb;}.cls-46{fill:#16557c;}.cls-47{fill:#2b73aa;}.cls-48{fill:#46aec6;}.cls-49{fill:#27303f;}.cls-50{clip-path:url(#clip-path);}.cls-51{fill:#44b8ea;}</style><clipPath id="clip-path" transform="translate(-85.78 -78)"><path class="cls-1" d="M227.69,186.52,136.16,124c-6.5-4.44-15.1.47-15.1,8.62v125c0,8.15,8.6,13.06,15.1,8.62l91.53-62.51A10.57,10.57,0,0,0,227.69,186.52Z"/></clipPath></defs><text class="cls-2" transform="translate(269.18 89.66)">Next2D<tspan x="0" y="105">Libraries And Tool.</tspan></text><text class="cls-3" transform="translate(55.86 393.31)">2D entertainment development made easy! Fast! Comfortable!</text><path class="cls-4" d="M1038,214.1c0,8.78,11.81,15.9,26.37,15.9s26.37-7.12,26.37-15.9-11.8-15.9-26.37-15.9S1038,205.32,1038,214.1Z" transform="translate(-85.78 -78)"/><path class="cls-5" d="M1042.85,176.61c4.37-2.86,7.57-7.07,7.58-12.48-2.63,5.41-5.14,8.67-9.76,10.26l-4.25-5.44a18.76,18.76,0,0,0,9.91-9.68c3.64-8.27,2.25-20.21.89-35.84-1.39-15.92,7.41-28.06,23.1-28.06,16.8,0,22.6,11.59,23.64,27.49.89,13.62,1.43,27.61,6.46,39.19A38.42,38.42,0,0,0,1119.5,182l-6.22,4.63c-3.82-2.16-9.83-7.28-12.22-11.73,2,5.86,5.3,9.52,9.12,13.38l-7.8,3.09a45,45,0,0,1-9-16.94c-.44,5.35,2.76,13.23,4.53,17.48-4,1-11.39,1.15-15.67,0-1.39-4.25-4.24-13.08-4.92-19.38-.8,5.35,0,15.13,1,19.38-4.86.56-17.59-2.11-20.78-4.25,1.1-4.32,2.17-9.42,1.28-14.92-.64,6.4-2.53,9.29-5.48,12.77C1048.89,183.3,1045.24,180.83,1042.85,176.61Z" transform="translate(-85.78 -78)"/><path class="cls-6" d="M1047.35,169.4a34.06,34.06,0,0,1-4.66-4.74,17.74,17.74,0,0,0,3.64-5.39c3.64-8.27,2.25-20.21.89-35.84-1.39-15.92,7.41-28.06,23.1-28.06,16.8,0,22.6,11.59,23.64,27.49.89,13.62,1.43,27.61,6.46,39.19a39,39,0,0,0,9.23,13.2,40.55,40.55,0,0,1-6,3.23,20.83,20.83,0,0,1-2.58-3.62,28.54,28.54,0,0,0,1.72,4,43.51,43.51,0,0,1-6.93,2.18,37.91,37.91,0,0,1-2.43-6.63,22.32,22.32,0,0,0,.83,7,53.44,53.44,0,0,1-14.94.66,66.48,66.48,0,0,1-2-9.53,50.3,50.3,0,0,0-.21,9.29,63.05,63.05,0,0,1-18-5.08,26.31,26.31,0,0,0-.33-4,30.49,30.49,0,0,1-.58,3.58,51.7,51.7,0,0,1-9.53-5.78,13,13,0,0,0,1.69-6.37A33,33,0,0,1,1047.35,169.4Z" transform="translate(-85.78 -78)"/><path class="cls-7" d="M1052.49,174.59a4.34,4.34,0,1,0,4.14-4.57A4.36,4.36,0,0,0,1052.49,174.59Z" transform="translate(-85.78 -78)"/><path class="cls-7" d="M1050.42,192.85a4.66,4.66,0,1,0,4.45-4.92A4.68,4.68,0,0,0,1050.42,192.85Z" transform="translate(-85.78 -78)"/><polygon class="cls-7" points="975.38 96.2 973.96 114.43 964.64 114.85 966.76 95.75 975.38 96.2"/><path class="cls-7" d="M1050.42,192.85c-.74,4.74-2.94,13.72-5,17.74a1.92,1.92,0,0,0,.28,2.12,8.9,8.9,0,0,0,6.69,2.19c4.52-.25,6.81-2.33,6.78-4.22l.55-18.25Z" transform="translate(-85.78 -78)"/><path class="cls-7" d="M1050.42,192.85a4.66,4.66,0,1,0,4.45-4.92A4.68,4.68,0,0,0,1050.42,192.85Z" transform="translate(-85.78 -78)"/><path class="cls-8" d="M1049.85,218.48a12.87,12.87,0,0,0,2.32.16c5-.14,7.55-2.3,7.52-4.37l.18-3.1c0-.53-1.92-1.91-5.5-2.77s-8.67,1-9.54,2.59l-.56,4a2.22,2.22,0,0,0,.56,1.2A9.2,9.2,0,0,0,1049.85,218.48Z" transform="translate(-85.78 -78)"/><path class="cls-9" d="M1050.05,215.12a10.61,10.61,0,0,0,2.18.14c4.71-.18,7.16-2.37,7.15-4.43l.3-6.4a.33.33,0,0,0-.16-.28l-.09,0a.25.25,0,0,0-.23.06c-1.38,1.15-3.82,1.6-6.35,1.18a6.79,6.79,0,0,1-4.54-2.38.31.31,0,0,0-.19-.13H1048a.29.29,0,0,0-.24.21,45.07,45.07,0,0,1-2.74,7.32,2.19,2.19,0,0,0,.28,2.46A8.29,8.29,0,0,0,1050.05,215.12Z" transform="translate(-85.78 -78)"/><path class="cls-10" d="M1045.92,208.68h0a5.34,5.34,0,0,1,2.51,2.85,5.5,5.5,0,0,1,.18.88,7.19,7.19,0,0,1,3.43-1.27,7.71,7.71,0,0,1,3.15.36,5.07,5.07,0,0,1,2.69,2,.92.92,0,0,1-.25,1.26.91.91,0,0,1-1.27-.24l0,0c-.75-1.11-2.54-1.56-4.08-1.35a4.43,4.43,0,0,0-3.6,2.37v0l-.09.15a1.06,1.06,0,0,1-1.21.49,1.08,1.08,0,0,1-.76-1.34c.49-1.85.13-3.78-1.47-4.8a.8.8,0,0,1-.28-1A.77.77,0,0,1,1045.92,208.68Z" transform="translate(-85.78 -78)"/><polygon class="cls-11" points="988.39 99.27 990.39 118.8 980.63 121.06 979.21 100.48 988.39 99.27"/><path class="cls-11" d="M1065.09,179.37a4.66,4.66,0,1,0,3.5-5.63A4.66,4.66,0,0,0,1065.09,179.37Z" transform="translate(-85.78 -78)"/><path class="cls-11" d="M1066.41,199.06a5,5,0,0,0,6,3.8,5.06,5.06,0,1,0-6-3.8Z" transform="translate(-85.78 -78)"/><path class="cls-11" d="M1066.41,199.06c.12,5.15-.48,15.07-1.85,19.72a2,2,0,0,0,.69,2.18c1.21,1,4.21,1.8,7.49,1,4.73-1.15,6.75-3.81,6.34-5.8l-2.91-19.37Z" transform="translate(-85.78 -78)"/><path class="cls-11" d="M1066.41,199.06a5,5,0,0,0,6,3.8,5.06,5.06,0,1,0-6-3.8Z" transform="translate(-85.78 -78)"/><path class="cls-12" d="M1071,226.15a12.85,12.85,0,0,0,2.47-.32c5.19-1.2,7.44-4,7-6.17l-.45-3.3c-.09-.56-2.42-1.6-6.35-1.74s-8.89,2.9-9.47,4.74l.23,4.28a2.4,2.4,0,0,0,.84,1.14A9.85,9.85,0,0,0,1071,226.15Z" transform="translate(-85.78 -78)"/><path class="cls-13" d="M1070.49,222.59a11.37,11.37,0,0,0,2.32-.32c4.9-1.19,7-4,6.58-6.16l-1-6.78a.34.34,0,0,0-.23-.26h-.09a.35.35,0,0,0-.23.12c-1.22,1.5-3.67,2.49-6.42,2.59-2.27.07-4.24-.5-5.26-1.54a.32.32,0,0,0-.23-.09l-.09,0a.3.3,0,0,0-.21.27,48.2,48.2,0,0,1-1.35,8.25,2.36,2.36,0,0,0,.8,2.53A9,9,0,0,0,1070.49,222.59Z" transform="translate(-85.78 -78)"/><path class="cls-14" d="M1064.82,216.71h0a5.71,5.71,0,0,1,3.23,2.46,7,7,0,0,1,.38.89,7.64,7.64,0,0,1,3.33-2.06,8.13,8.13,0,0,1,3.37-.3,5.46,5.46,0,0,1,3.25,1.54,1,1,0,0,1,0,1.37,1,1,0,0,1-1.38,0l0,0c-1-1-3-1.09-4.57-.54a4.79,4.79,0,0,0-3.28,3.26h0l-.06.18a1.16,1.16,0,0,1-2.25-.47c.14-2.05-.64-4-2.54-4.73a.86.86,0,0,1-.51-1A.83.83,0,0,1,1064.82,216.71Z" transform="translate(-85.78 -78)"/><path class="cls-7" d="M1057.57,149.6a141.4,141.4,0,0,1-10.35,10.82l-4-5c4.43-2.82,8.38-6.72,10.83-8.67Z" transform="translate(-85.78 -78)"/><path class="cls-7" d="M1047.22,160.42a3.15,3.15,0,0,1-4.46-.52,3.22,3.22,0,0,1,.51-4.5,3.16,3.16,0,0,1,4.46.51A3.24,3.24,0,0,1,1047.22,160.42Z" transform="translate(-85.78 -78)"/><path class="cls-7" d="M1057.57,149.6a2.22,2.22,0,0,1-3.15.32,2.29,2.29,0,0,1-.32-3.19,2.22,2.22,0,0,1,3.16-.31A2.27,2.27,0,0,1,1057.57,149.6Z" transform="translate(-85.78 -78)"/><path class="cls-15" d="M1044.79,153.28c-2.4,1.73-4,3.18-3,5.89,1.18,3.14,4.33,5,8,2.09a33.45,33.45,0,0,0,8.29-10.93c2.32-4.65-2-5.83-4-4.18S1047.2,151.55,1044.79,153.28Z" transform="translate(-85.78 -78)"/><path class="cls-7" d="M1047.22,160.42a71.68,71.68,0,0,1-10.8,8.53c-2.1,1.26-5.09.39-6.76-1.61-2.17-2.6-2.55-5.58.91-6.82a112.5,112.5,0,0,0,12.7-5.12Z" transform="translate(-85.78 -78)"/><path class="cls-7" d="M1047.22,160.42a3.15,3.15,0,0,1-4.46-.52,3.22,3.22,0,0,1,.51-4.5,3.16,3.16,0,0,1,4.46.51A3.24,3.24,0,0,1,1047.22,160.42Z" transform="translate(-85.78 -78)"/><path class="cls-14" d="M1030.57,160.52c2.38,5.63-.16,13.8-.59,17.16a46.36,46.36,0,0,1,7.87-10.34c3-3.17,2.77-6.92,2.33-9.77l-8.41,1.24A1.64,1.64,0,0,0,1030.57,160.52Z" transform="translate(-85.78 -78)"/><path class="cls-15" d="M1031.77,158.81c-.33-.52-.35-2.24,2.79-2.47a22.66,22.66,0,0,0,9.21-2.29c2.35-1,5.62.73,5.61,5.68,0,2.21-1.09,10.26-1.77,16.59l-9,6.56-8.12-7.2C1032.49,169.24,1033.7,161.84,1031.77,158.81Z" transform="translate(-85.78 -78)"/><path class="cls-16" d="M1047.61,176.32c-.14,1.62-.29,3.45-.42,5.16l-10.73,7.22-7.83-7.1c.82-2.69,1.6-5.35,1.88-5.92C1034.19,177.68,1042.76,177.32,1047.61,176.32Z" transform="translate(-85.78 -78)"/><path class="cls-16" d="M1046.21,177.79l-7,0a2.74,2.74,0,0,1-3-2.58,3,3,0,0,1,3.15-2.61H1041a2.32,2.32,0,0,0,2.16-1.92v-.13c0-1.07-1.05-1.92-2.44-2l-8.5.15.14-.83,10-.22c2.09.21,3.52,1.37,3.47,2.81v.14c0,1.44-1.56,2.62-3.36,2.63h-1.1a2.34,2.34,0,0,0-2.49,1.95,2.14,2.14,0,0,0,2.36,1.92l3.49,0Z" transform="translate(-85.78 -78)"/><path class="cls-17" d="M1047.19,181.48c-.08,2.36-.07,4.53,0,6.37l-7.08,6.26-9.81-1.44-2.73-5c.25-1.65.64-3.91,1.11-6C1035,183.92,1042.76,183.32,1047.19,181.48Z" transform="translate(-85.78 -78)"/><path class="cls-18" d="M1047.14,187.85c.06,3.12.13,5.44-.21,6-1.14,1.82-11.09,3.17-18.17.63-1.11-.4-1.73-1.25-1.55-3.29.08-.84.15-2.13.31-3.54A27.26,27.26,0,0,0,1047.14,187.85Z" transform="translate(-85.78 -78)"/><path class="cls-19" d="M1043.76,171.46l-2.37,1.52a.4.4,0,0,0,0,.66l2.3,1.57a.37.37,0,0,0,.57-.32l.06-3.09A.36.36,0,0,0,1043.76,171.46Z" transform="translate(-85.78 -78)"/><path class="cls-19" d="M1036.73,162.63l-2.21,1.42a.37.37,0,0,0,0,.61l2.15,1.47a.34.34,0,0,0,.52-.3l.07-2.89A.34.34,0,0,0,1036.73,162.63Z" transform="translate(-85.78 -78)"/><path class="cls-11" d="M1068.2,146.09v-4.58a5,5,0,0,0-5-5h0a5,5,0,0,0-5,5v3.35c-3.21-.16-5,1.7-6.11,4.17a18,18,0,0,0-1.61,8.49c.22,2,1.13,5.35,1.59,7.95A8.84,8.84,0,0,1,1052,169a31.82,31.82,0,0,0-1.51,7.18c0,4,1.87,7,6.3,9.3a18.59,18.59,0,0,0,4.63,1.66c6.32,1.42,11.44-.57,13.6-4.33,1.6-2.78,1.92-7,0-9.68a10.48,10.48,0,0,1-.63-9.67,20.05,20.05,0,0,0,2-7.82C1076.38,149.8,1071.3,147.33,1068.2,146.09Z" transform="translate(-85.78 -78)"/><path class="cls-20" d="M1058.21,144.86v-3.35a5,5,0,1,1,10,0v4.58c3.61,2.32-.24,4.56-4.79,3.95S1053.64,146.61,1058.21,144.86Z" transform="translate(-85.78 -78)"/><path class="cls-16" d="M1068,154.14a17.17,17.17,0,0,1,11.36-3.48,5.2,5.2,0,0,1,4.32,5c.32,4.22-.4,8.76-3.64,15.56a2.65,2.65,0,0,1-4.17,1l-9.74-8.35" transform="translate(-85.78 -78)"/><path class="cls-21" d="M1069.56,146.51c-1.43-1.34-6.67.93-9.65,3.25a16.09,16.09,0,0,1-2-5l-1.19.12-1.55,3.29,3.67,5.76,11.49-6.75Z" transform="translate(-85.78 -78)"/><path class="cls-14" d="M1070.93,146.8c-1.62-1.17-7.33,1.22-11.15,4.24a16.82,16.82,0,0,1-2.65-6.3l-1.45.28,3.13,10,12.12-6.89Z" transform="translate(-85.78 -78)"/><path class="cls-22" d="M1065.39,188.25c4.53,0,8.33-1.91,10.17-5.1,1.59-2.76,2.14-7.32,0-10.36a9.82,9.82,0,0,1-.57-9,20.3,20.3,0,0,0,2-8.08c0-4.45-2.83-7.09-5.35-8.6a2.05,2.05,0,0,0-1.18-.29c-3.26.79-8.34,4.4-11,6.19-1.94-2-2.84-5.81-3-8,0-.23-.34-.41-1,0a8.61,8.61,0,0,0-4,3.82,19.11,19.11,0,0,0-1.65,8.82c.13,1.18.49,2.8.87,4.52.27,1.19.53,2.4.73,3.48a8.29,8.29,0,0,1-.08,3.29,31.45,31.45,0,0,0-1.52,7.32c0,4.33,2.1,7.46,6.63,9.86a19.31,19.31,0,0,0,4.79,1.71A18.46,18.46,0,0,0,1065.39,188.25Z" transform="translate(-85.78 -78)"/><path class="cls-23" d="M1071.16,150.23a26.68,26.68,0,0,0-4.21,2.4,60.32,60.32,0,0,0-7.51,6.31h0l0,0a.75.75,0,0,1-1.06-.1v0a24.82,24.82,0,0,1-3.8-7.25,23.28,23.28,0,0,1-1-4c-.06-.41-.1-.83-.13-1.26a9.71,9.71,0,0,1,1-.77,11.29,11.29,0,0,0,.22,1.83,21.34,21.34,0,0,0,1.11,3.71,25.17,25.17,0,0,0,3.34,6.07,59.7,59.7,0,0,1,7.29-5.59,28.07,28.07,0,0,1,4.49-2.33,10.22,10.22,0,0,1,3-.63c.29.27.56.55.83.85A7.41,7.41,0,0,0,1071.16,150.23Z" transform="translate(-85.78 -78)"/><path class="cls-14" d="M1051.43,165.93l-7,10.57a3.53,3.53,0,0,0-.51,3c1.15,3.67,5.94,7.91,15.47,9.54s20.34-1.9,23.94-8a4.29,4.29,0,0,0-.72-5.18l-8.4-8.35Z" transform="translate(-85.78 -78)"/><path class="cls-24" d="M1051.73,166.61c-.15.47-5.5,18.68-5.5,18.68,4.59,5.59,19.87,7.72,27.36,4L1069.46,168Z" transform="translate(-85.78 -78)"/><path class="cls-22" d="M1061.16,169.54l1.66,12.72.82.81s14.71-2.69,17.43-10.31l-.59-1.28-5.46-3.2Z" transform="translate(-85.78 -78)"/><path class="cls-25" d="M1062.82,182.26l.21,1.66c8-.62,16.28-5,19-11.53l-1.55-.91C1078,178.55,1068.11,181.64,1062.82,182.26Z" transform="translate(-85.78 -78)"/><path class="cls-22" d="M1057.57,168.89l-3.28,11.73a13.56,13.56,0,0,1-6-3.34c-1.82-1.74-3.06-5.41-2.51-7.52l4.63-3.89Z" transform="translate(-85.78 -78)"/><path class="cls-25" d="M1045.79,169.76c.71,4.18,4.74,8.57,8.5,10.86l-.46,1.64c-4-2.29-8.59-7.17-9-11.66Z" transform="translate(-85.78 -78)"/><path class="cls-19" d="M1053.87,178.91l.18,0c2.25-.52,7.21-2.41,9.09-4.3a.81.81,0,0,0,0-1.12.8.8,0,0,0-1.11,0c-1.5,1.52-6,3.34-8.33,3.88a.79.79,0,0,0-.59,1A.78.78,0,0,0,1053.87,178.91Z" transform="translate(-85.78 -78)"/><path class="cls-26" d="M1063.16,180.38a.77.77,0,0,0,.71-.47.78.78,0,0,0-.4-1c-3.79-1.68-6.32-3.77-7.52-6.19a.78.78,0,1,0-1.4.7c1.37,2.76,4.16,5.1,8.29,6.94A.87.87,0,0,0,1063.16,180.38Z" transform="translate(-85.78 -78)"/><path class="cls-27" d="M1053.06,154.43a9.59,9.59,0,0,1,5.61,3.45,17.54,17.54,0,0,1,7-1.29c5.11,0,9.25,1.62,9.25,3.63s-4.14,3.63-9.25,3.63c-3.88,0-7.19-.94-8.57-2.27a6.45,6.45,0,0,1-2.19-.12,8,8,0,0,1-5.53-5.39C1049.26,154.75,1050.15,153.81,1053.06,154.43Z" transform="translate(-85.78 -78)"/><path class="cls-28" d="M1049.41,156.07c-1.33-1.23-1.55,8.89-.16,11.74s17.11,7.68,26.54,1.84a1.31,1.31,0,0,0,.67-1.13l.57-9a.63.63,0,0,0-.76-.66C1069.76,161.72,1056,162.1,1049.41,156.07Z" transform="translate(-85.78 -78)"/><path class="cls-25" d="M1075.88,167.54h0v-4.7c.33-.07.67-.18,1-.26l-.31,4.83-.65.17Z" transform="translate(-85.78 -78)"/><path class="cls-25" d="M1072,168.2c1.27-.16,2.56-.38,3.84-.66v.05h0v2s-.05.06-.09.08a16.8,16.8,0,0,1-3.79,1.71V168.2Z" transform="translate(-85.78 -78)"/><path class="cls-25" d="M1075.84,162.88c-1.29.29-2.56.52-3.84.7v0h0v-3.42a22.39,22.39,0,0,0,3.88-1.13v3.89Z" transform="translate(-85.78 -78)"/><path class="cls-25" d="M1068.16,163.91c1.26-.07,2.53-.19,3.8-.37v0h0c0,1.54,0,3.08,0,4.62v.05q-1.9.24-3.81.33v0h0v-4.63Z" transform="translate(-85.78 -78)"/><path class="cls-25" d="M1064.41,168.56c1.24,0,2.5,0,3.75,0v0h0c0,1.19,0,2.39,0,3.58a28.09,28.09,0,0,1-3.78.21v-3.81Z" transform="translate(-85.78 -78)"/><path class="cls-25" d="M1068.16,164c-1.26.07-2.5.09-3.75.05v0h0v-3.15a36.22,36.22,0,0,0,3.78-.14V164Z" transform="translate(-85.78 -78)"/><path class="cls-25" d="M1060.68,163.7c1.22.14,2.46.22,3.7.26v0h0v4.6c-1.24,0-2.47-.14-3.7-.29v0h0V163.7Z" transform="translate(-85.78 -78)"/><path class="cls-25" d="M1057,167.68c1.21.24,2.42.44,3.64.58v.05h0v3.81a35.84,35.84,0,0,1-3.67-.65v-3.79Z" transform="translate(-85.78 -78)"/><path class="cls-25" d="M1060.68,163.74c-1.22-.13-2.43-.32-3.64-.56v0h0v-3.3a27.66,27.66,0,0,0,3.67.7v3.2Z" transform="translate(-85.78 -78)"/><path class="cls-25" d="M1053.44,162.33v0c1.18.33,2.37.61,3.57.85v0h0v4.54c-1.2-.25-2.39-.54-3.57-.88v0l0,0v-4.45Z" transform="translate(-85.78 -78)"/><path class="cls-25" d="M1050.7,165.63c.91.43,1.82.81,2.73,1.15v.05h0v3.56a16.15,16.15,0,0,1-2.77-1.29v-3.48Z" transform="translate(-85.78 -78)"/><path class="cls-25" d="M1053.43,162.29v0c-.91-.33-1.82-.71-2.73-1.13v0h0V157a15.34,15.34,0,0,0,2.76,1.61v3.71Z" transform="translate(-85.78 -78)"/><path class="cls-25" d="M1048.33,159.93c.78.43,1.56.85,2.35,1.22v0h0v4.47c-.74-.36-1.48-.76-2.21-1.18A33.16,33.16,0,0,1,1048.33,159.93Z" transform="translate(-85.78 -78)"/><path class="cls-26" d="M1047.52,160.51c1.3,2.74,3.84,4.26,6.26,5.27a27,27,0,0,0,7.68,1.79,31.84,31.84,0,0,0,7.86-.19,19.05,19.05,0,0,0,7.56-2.72,1.11,1.11,0,0,0,.31-1.54,1.13,1.13,0,0,0-1.55-.3h0l0,0a16.85,16.85,0,0,1-6.64,2.41,29.38,29.38,0,0,1-7.32.22,25.36,25.36,0,0,1-7.09-1.59c-2.2-.88-4.28-2.25-5.18-4.15l0-.07a1,1,0,0,0-1.35-.48A1,1,0,0,0,1047.52,160.51Z" transform="translate(-85.78 -78)"/><ellipse class="cls-12" cx="972.59" cy="88" rx="2.58" ry="2.61"/><path class="cls-29" d="M1057.68,165.08a1.29,1.29,0,1,0,1.29-1.3A1.29,1.29,0,0,0,1057.68,165.08Z" transform="translate(-85.78 -78)"/><path class="cls-11" d="M1070.32,154.35a176.88,176.88,0,0,0,8.33,16l6.22-4.44c-4.17-4.75-7.42-10.59-9.6-13.65Z" transform="translate(-85.78 -78)"/><path class="cls-11" d="M1078.65,170.31a3.8,3.8,0,0,0,5.31.92,3.86,3.86,0,0,0,.91-5.36,3.77,3.77,0,0,0-5.3-.92A3.87,3.87,0,0,0,1078.65,170.31Z" transform="translate(-85.78 -78)"/><path class="cls-11" d="M1070.32,154.35a2.68,2.68,0,0,0,3.53,1.43,2.71,2.71,0,0,0,1.42-3.56,2.68,2.68,0,0,0-3.53-1.44A2.74,2.74,0,0,0,1070.32,154.35Z" transform="translate(-85.78 -78)"/><path class="cls-13" d="M1084.87,171.48a4.46,4.46,0,0,0,.51-6,83.51,83.51,0,0,1-7.33-10.22c-.85-1.32-1.61-2.5-2.27-3.43a3.27,3.27,0,0,0-4.28-1.65,3.37,3.37,0,0,0-1.75,4.4l5.71,16.76C1076.84,174.39,1082.45,174,1084.87,171.48Z" transform="translate(-85.78 -78)"/><path class="cls-11" d="M1078.65,170.31a86.6,86.6,0,0,0,9.6,13.48c2,2.16,5.74,2.17,8.32.43,3.37-2.26,4.79-5.56,1.22-8.15a137.89,137.89,0,0,1-12.92-10.2Z" transform="translate(-85.78 -78)"/><path class="cls-11" d="M1078.65,170.31a3.8,3.8,0,0,0,5.31.92,3.86,3.86,0,0,0,.91-5.36,3.77,3.77,0,0,0-5.3-.92A3.87,3.87,0,0,0,1078.65,170.31Z" transform="translate(-85.78 -78)"/><path class="cls-30" d="M1088.25,183.79c2,2.16,5.74,2.17,8.32.43a8.83,8.83,0,0,0,.83-.6c2.12,6.16,2.43,14.94,1.2,18.77l-11.77-19.32.63-.19C1087.73,183.2,1088,183.52,1088.25,183.79Z" transform="translate(-85.78 -78)"/><path class="cls-14" d="M1094.8,172.92a1.25,1.25,0,0,1,.52,1.33c-.82-.35-3,2.2-2,7.18.91,4.33,5.25,10.17,5.24,18-1.72-5.84-4-8.16-6.76-14-2.59-5.4-1.87-9-1.07-11.57,1-3.37,4-1,4-1" transform="translate(-85.78 -78)"/><path class="cls-13" d="M1094.8,172.92c.77-1.23-1-2.93-2.67-3.85s-4.39-1.06-7.26-4.07c-2.36-2.48-8.5-1.65-9,3.28-.36,3.59.55,10.4,1.37,15.25l1.36,7.54,2.47,5.73,15.36,6.19,2.24-4a37.68,37.68,0,0,0-3.72-9.58c-1.89-3.52-3.9-7.49-3.67-11.37C1091.59,172.92,1093.49,172.24,1094.8,172.92Z" transform="translate(-85.78 -78)"/><path class="cls-31" d="M1098.68,199a27.31,27.31,0,0,1,.94,6.14l-4.23,2.48-14.31-7.49-1.95-4.29c-.09-1.2-.27-2.93-.52-4.78C1081.76,194.11,1091.92,199.89,1098.68,199Z" transform="translate(-85.78 -78)"/><path class="cls-32" d="M1079.13,195.85c.08,1.61.07,3,0,4.29,0,2.47,4.61,9.13,10.41,11.2s10.1,1.5,10.15-.41,0-3.76-.12-5.78C1091.14,205.58,1082.78,199.43,1079.13,195.85Z" transform="translate(-85.78 -78)"/><path class="cls-33" d="M1079.18,200.14c0,2.47-.14,4.27.27,5.49.9,2.67,10,11.23,18.07,11.67a1.84,1.84,0,0,0,2-1.67c.1-1.13.21-2.79.26-4.7C1093.89,210.31,1084.41,206.65,1079.18,200.14Z" transform="translate(-85.78 -78)"/><path class="cls-31" d="M1081.29,193.56l3.56,1.65c1.36.64,2.47,0,2.47-1.34a4.49,4.49,0,0,0-2.47-3.65l-1.12-.52a6.06,6.06,0,0,1-3.34-4.92v-.18c0-1.86,1.5-2.67,3.34-1.82l10.48,5.29.56,1-9.07-4.51c-1.41-.59-2.55,0-2.55,1.36v.17a4.64,4.64,0,0,0,2.15,3.47l1.66.78a5.79,5.79,0,0,1,3.13,4.79c0,1.85-1.4,2.7-3.13,1.9l-7.19-3.33Z" transform="translate(-85.78 -78)"/><path class="cls-34" d="M1088.94,178l-3.32,1.4c-.32.14-.32.61,0,.89l3.32,2.78c.34.29.79.13.79-.28v-4.18A.63.63,0,0,0,1088.94,178Z" transform="translate(-85.78 -78)"/><path class="cls-34" d="M1082,187.65l-2.28,1a.35.35,0,0,0,0,.61l2.28,1.92c.24.2.54.09.54-.19v-2.88A.43.43,0,0,0,1082,187.65Z" transform="translate(-85.78 -78)"/><path class="cls-11" d="M1051.72,85.38c-11.41,5.14-16.9,13.88-14.84,30.86a41,41,0,0,1,.13,10.14,8.79,8.79,0,0,0,2.38,7.19c3.72,4,11.45,9.4,26.36,10.52,16,1.2,32.08-7,34.08-29.86S1074,75.36,1051.72,85.38Z" transform="translate(-85.78 -78)"/><path class="cls-20" d="M1092.8,112.9c1.48-16.14-13.3-28.7-30.08-30.35,19.43-1.8,38.8,12.51,37.11,31.68-2,22.85-18,31.06-34.08,29.86a49.32,49.32,0,0,1-17.45-4.23,59.47,59.47,0,0,0,10.42,1.65C1074.76,142.66,1090.8,134.79,1092.8,112.9Z" transform="translate(-85.78 -78)"/><path class="cls-16" d="M1069.31,124.74c-4.37,0-4.92,11,0,11S1073.67,124.74,1069.31,124.74Z" transform="translate(-85.78 -78)"/><path class="cls-27" d="M1069.31,124.74c3.26,0,4.4,6.11,2.71,9.21l-6.1-2.24C1065.49,128.58,1066.72,124.74,1069.31,124.74Z" transform="translate(-85.78 -78)"/><path class="cls-6" d="M1069.31,124.74c2.22,0,3.45,2.83,3.48,5.61l-6.65-2.29C1066.64,126.2,1067.72,124.74,1069.31,124.74Z" transform="translate(-85.78 -78)"/><path class="cls-16" d="M1045.24,118.25c-3.93,0-4.43,11,0,11S1049.16,118.25,1045.24,118.25Z" transform="translate(-85.78 -78)"/><path class="cls-27" d="M1045.24,118.25c2.93,0,4,6.12,2.44,9.21l-5.49-2.23C1041.8,122.09,1042.91,118.25,1045.24,118.25Z" transform="translate(-85.78 -78)"/><path class="cls-6" d="M1045.24,118.25c2,0,3.1,2.83,3.13,5.62l-6-2.29C1042.83,119.72,1043.81,118.25,1045.24,118.25Z" transform="translate(-85.78 -78)"/><path class="cls-35" d="M1056,137.41a3.17,3.17,0,0,0,2.27-.87.78.78,0,1,0-1.1-1.12,1.8,1.8,0,0,1-1.5.39,1.93,1.93,0,0,1-1.44-1,.76.76,0,0,0-1-.33.79.79,0,0,0-.33,1.06,3.49,3.49,0,0,0,2.59,1.84A5.46,5.46,0,0,0,1056,137.41Z" transform="translate(-85.78 -78)"/><path class="cls-27" d="M1043.68,138.24c-2.08,6.65-1.38,17.52.34,24.27l-5.68-3.74a34.17,34.17,0,0,1,.75-19.66c.52-1.61,1-3,1.48-4.35a28.76,28.76,0,0,0,3.36,2.62C1043.85,137.67,1043.77,138,1043.68,138.24Z" transform="translate(-85.78 -78)"/><path class="cls-12" d="M1043.68,138.24c-1.39,4.44-1.54,10.78-1,16.51l-5.45-3.56a36.08,36.08,0,0,1,1.83-12.08c.52-1.61,1-3,1.48-4.35a28.76,28.76,0,0,0,3.36,2.62C1043.85,137.67,1043.77,138,1043.68,138.24Z" transform="translate(-85.78 -78)"/><path class="cls-36" d="M1038.83,139.91a37.36,37.36,0,0,0-1.42,7.19l5,3.54a49.4,49.4,0,0,1,.32-8.06Z" transform="translate(-85.78 -78)"/><path class="cls-27" d="M1079.94,120.87c.63,15.13-2.3,19.62-6.08,30.46-3.44,9.88-2.63,15.75-1.19,19.06l6.95-.78c-2-5.05-2.74-14.74-.08-22.58,3.54-10.39,5.34-20.19,3.47-26.85Z" transform="translate(-85.78 -78)"/><path class="cls-12" d="M1079.94,120.87c.63,15.13-2.3,19.62-6.08,30.46a37.64,37.64,0,0,0-2.42,12.52l6.67-.55a38,38,0,0,1,1.43-16.27c3.54-10.39,5.34-20.19,3.47-26.85Z" transform="translate(-85.78 -78)"/><path class="cls-36" d="M1073.54,152.28a43.5,43.5,0,0,0-1.86,7.84l6.15-.47a39.45,39.45,0,0,1,.52-7.84Z" transform="translate(-85.78 -78)"/><path class="cls-37" d="M1030.27,114a1.11,1.11,0,0,0,1.06,0c3.89-2.32,9-9.74,10.5-17.68a1.13,1.13,0,1,0-2.22-.42c-1.33,7.07-5.95,14.06-9.43,16.14a1.15,1.15,0,0,0-.39,1.56A1,1,0,0,0,1030.27,114Z" transform="translate(-85.78 -78)"/><path class="cls-37" d="M1025.47,113.52l4.65-1.09a.89.89,0,0,1,.62.06,1,1,0,0,1,.5,1.3v0l-1.8,4.07a1.28,1.28,0,0,1-.11.2,1.32,1.32,0,0,1-1.84.37,1.35,1.35,0,0,1-.37-1.87l.87-1.31-1.8.66-.15,0a1.26,1.26,0,0,1-.56-2.46Z" transform="translate(-85.78 -78)"/><path class="cls-21" d="M1027.39,117.47l3.54-3.61a.68.68,0,0,0,0-1,.65.65,0,0,0-.81-.09l-4.28,2.69a1.28,1.28,0,0,0-.4,1.74,1.24,1.24,0,0,0,1.72.4A1,1,0,0,0,1027.39,117.47Z" transform="translate(-85.78 -78)"/><path class="cls-26" d="M1028.82,112.11a2.3,2.3,0,0,0,1.08,3,2.25,2.25,0,0,0,3-1.09,2.3,2.3,0,0,0-1.08-3A2.25,2.25,0,0,0,1028.82,112.11Z" transform="translate(-85.78 -78)"/><path class="cls-27" d="M1029.1,95.43c2.6-2.32,8.05-2.56,12.12-.44.09.05.12.14.19.21s-.74,4-.74,4a10.24,10.24,0,0,1-3.29,3.73,7.06,7.06,0,0,1-6.07,1.08,4.48,4.48,0,0,1-.58-.24,5.52,5.52,0,0,1-2.84-3.39A4.43,4.43,0,0,1,1029.1,95.43Zm.93,4.26a3.21,3.21,0,0,0,2,2.2,4.86,4.86,0,0,0,4.09-.8,8.47,8.47,0,0,0,3.23-4.44c-3.44-1.34-7.18-.9-8.74.49A2.18,2.18,0,0,0,1030,99.69Z" transform="translate(-85.78 -78)"/><path class="cls-21" d="M1030.3,98.09a11.53,11.53,0,0,1,10.7-3.18,1.34,1.34,0,0,1,.43.22,1.36,1.36,0,0,1,.45,0l-1.4,5.37a15.27,15.27,0,0,1-2.48,3.91c-1.47,1.65-3.84,3.24-6.09,2.78a4.21,4.21,0,0,1-.85-.28,4.47,4.47,0,0,1-2.22-2.77A5.88,5.88,0,0,1,1030.3,98.09Zm.68,5.28c.46,1.37,1.15,1.51,1.38,1.56,1.05.22,2.68-.63,4-2.07a13.83,13.83,0,0,0,3-5.92,9.42,9.42,0,0,0-7.39,2.69A3.69,3.69,0,0,0,1031,103.37Z" transform="translate(-85.78 -78)"/><path class="cls-37" d="M1039.67,97.67a.71.71,0,0,0,.77-.11,2.78,2.78,0,0,0,.53-2.75.7.7,0,0,0-.92-.38.71.71,0,0,0-.38.93,1.5,1.5,0,0,1-.16,1.13.7.7,0,0,0-.07,1A.76.76,0,0,0,1039.67,97.67Z" transform="translate(-85.78 -78)"/><path class="cls-37" d="M1041.91,98.1a.71.71,0,0,0,.76-.1,2.19,2.19,0,0,0,.78-1.53,1.92,1.92,0,0,0-.38-1.33.71.71,0,0,0-1.08.92.75.75,0,0,1-.24.85.72.72,0,0,0-.07,1A.58.58,0,0,0,1041.91,98.1Z" transform="translate(-85.78 -78)"/><path class="cls-38" d="M1040.78,98a.72.72,0,0,0,.82-.16,3.27,3.27,0,0,0,.58-3.14.7.7,0,0,0-.91-.43.72.72,0,0,0-.42.91,1.83,1.83,0,0,1-.28,1.68.71.71,0,0,0,0,1A.75.75,0,0,0,1040.78,98Z" transform="translate(-85.78 -78)"/><path class="cls-12" d="M1030.08,116.57l.54-3.81c1.63-2.46,2.8-6,4.28-9.81,2.14-5.52,4.94-11.51,11.68-17.53,13.47-12,28.92-6.64,31.82-3.09,21.11-1,25.26,25.32,26.81,33.5a28,28,0,0,0,3.82,9.62L1104,134,1095.5,135c-.28-1-.62-2.06-1-3.07a21.15,21.15,0,0,1,0,3.38l-6,4.59-5.5-2.8a43.55,43.55,0,0,0-1.4-13.41,40.3,40.3,0,0,1,.43,6.79l-4.5,5.13-1.22-4.74c.73-8.91-2.93-20-7.37-25.73,2.39,7.63,2.72,15.88,1.6,18.55-2.5,0-5.14.14-8-.87-3.49-4-4.74-10-4.74-18-1.93,6.38-.79,12.66,0,17.09-4.11-.47-11.18-3.25-13.49-5.41a21,21,0,0,1-.87-7.58,46.23,46.23,0,0,1,1.23-7.35,42.8,42.8,0,0,0-6.12,18.09l-4.26,4.16Z" transform="translate(-85.78 -78)"/><path class="cls-36" d="M1070.43,105.89c13.22,0,24.28-5.46,27.25-12.79a46.86,46.86,0,0,1,5,11.47c-5.6,6.19-16.08,10.58-28.38,11.35a37.83,37.83,0,0,0-4.85-10.06C1069.76,105.87,1070.09,105.89,1070.43,105.89Z" transform="translate(-85.78 -78)"/><path class="cls-36" d="M1035.67,101a41.89,41.89,0,0,1,6.74-11.33c.46,8.73,12.13,15.75,26.72,16.15A50.28,50.28,0,0,1,1071,116l-.61,0a59.22,59.22,0,0,1-11.61-1.14,45.07,45.07,0,0,1-1-10,27.35,27.35,0,0,0-1,9.6,42.78,42.78,0,0,1-13.35-5.5,45.07,45.07,0,0,1,1.21-7.35,48.64,48.64,0,0,0-3.06,6.07A21.69,21.69,0,0,1,1035.67,101Z" transform="translate(-85.78 -78)"/><path class="cls-39" d="M1109,125.45a24.54,24.54,0,0,0,2.82,3.76c-2.47,2.58-5,3.42-7.89,4.74l-2.16-4.61A31.34,31.34,0,0,0,1109,125.45Z" transform="translate(-85.78 -78)"/><path class="cls-27" d="M1082.42,143.31a47.61,47.61,0,0,0,.58-6.17,41.41,41.41,0,0,0,11.46-1.8c-.13,1.57-.36,3.1-.56,4.57A24.1,24.1,0,0,1,1082.42,143.31Z" transform="translate(-85.78 -78)"/><path class="cls-27" d="M1096.24,138.82a22.3,22.3,0,0,0-.75-3.77,25.5,25.5,0,0,0,7.44-3.31l1,2.21.93,1.94A17.68,17.68,0,0,1,1096.24,138.82Z" transform="translate(-85.78 -78)"/><path class="cls-40" d="M1082,130.52a35.18,35.18,0,0,1-1.36,9.39c-2.27,1.5-5.32,1.4-8.2.93,2.35-2.47,3.52-6,3.84-9.93A24.51,24.51,0,0,0,1082,130.52Z" transform="translate(-85.78 -78)"/><path class="cls-41" d="M1028,115.37a8,8,0,0,0,2.6-2.62,21.79,21.79,0,0,0,4.39,6.74l-.65,4.38C1032.05,122.36,1028,117.76,1028,115.37Z" transform="translate(-85.78 -78)"/><path class="cls-40" d="M1038.36,130.22c-1.88-.43-3.54-2.68-4.17-4l.15-2.31.65-7.06a8.84,8.84,0,0,0,3.64,2.9A67.74,67.74,0,0,0,1038.36,130.22Z" transform="translate(-85.78 -78)"/><path class="cls-42" d="M1079.14,92a62.32,62.32,0,0,0-7-.28c-.87.15-1.83,2.47-1.5,3.27q1.38,3.33,2.77,6.75c.34.85,2,.52,2.64-.5,1.24-2.41,2.49-4.79,3.73-7.13C1080.43,93.15,1080.05,92,1079.14,92Z" transform="translate(-85.78 -78)"/><path class="cls-43" d="M1080.26,90.81a48.94,48.94,0,0,0-7.82.83,1.13,1.13,0,0,0-.82,1.54q1.47,3.57,3,7.25c.35.86,1.49.66,2.09-.36q2.14-3.64,4.29-7.14C1081.55,92,1081.17,90.79,1080.26,90.81Z" transform="translate(-85.78 -78)"/><path class="cls-44" d="M1086.24,95.49a49.57,49.57,0,0,0-9.32-1.2c-.88.06-2.14,2.25-1.81,3.08q1.91,4.74,3.81,9.67c.39,1,2.25.88,2.92-.17q2.6-4.56,5.17-8.89C1087.68,97,1087.26,95.6,1086.24,95.49Z" transform="translate(-85.78 -78)"/><path class="cls-45" d="M1087.35,94.44a49.65,49.65,0,0,0-10.34-.27,1.12,1.12,0,0,0-.93,1.53q2,5,4,10.15c.39,1,1.67,1,2.34-.1q2.88-4.55,5.74-8.79A1.59,1.59,0,0,0,1087.35,94.44Z" transform="translate(-85.78 -78)"/><path class="cls-46" d="M1094.28,99.7a50.13,50.13,0,0,0-12-2.6c-.83,0-1.93,1.75-1.61,2.58q2.26,6.52,4.52,13.32a1.34,1.34,0,0,0,2.45.16q3.78-5.59,7.47-10.69A1.85,1.85,0,0,0,1094.28,99.7Z" transform="translate(-85.78 -78)"/><path class="cls-47" d="M1095.07,99a46.84,46.84,0,0,0-12.17-2l-.86.11a1.32,1.32,0,0,0-.29,1.41q2.26,6.58,4.52,13.43a1.33,1.33,0,0,0,2.44.22c2.51-3.68,4.25-7.2,6.69-10.54C1096.08,100.69,1096.11,99.35,1095.07,99Z" transform="translate(-85.78 -78)"/><path class="cls-48" d="M1095,101.85a1.84,1.84,0,0,0-.76-2.72,48.73,48.73,0,0,0-12.19-2h0a1.07,1.07,0,0,1,.81-.37,49.56,49.56,0,0,1,12.53,2,1.89,1.89,0,0,1,.79,2.79q-3.67,5-7.45,10.54a1.36,1.36,0,0,1-1.77.52,1.42,1.42,0,0,0,.83-.58Q1091.43,106.73,1095,101.85Z" transform="translate(-85.78 -78)"/><path class="cls-37" d="M1084.3,132.89a1.26,1.26,0,0,0,1-.55c2.79-4.18,4.43-14,2.21-22.69a1.24,1.24,0,0,0-1.52-.9,1.26,1.26,0,0,0-.9,1.54c2,7.71.64,16.89-1.86,20.64a1.27,1.27,0,0,0,.33,1.75A1.22,1.22,0,0,0,1084.3,132.89Z" transform="translate(-85.78 -78)"/><path class="cls-37" d="M1079.29,134.75l4.14-3.32a1,1,0,0,1,.65-.23,1.07,1.07,0,0,1,1.1,1.07v0l.1,4.92a2.09,2.09,0,0,1,0,.25,1.48,1.48,0,0,1-1.68,1.26,1.5,1.5,0,0,1-1.24-1.69l.26-1.74-1.49,1.53-.12.11a1.37,1.37,0,0,1-1.94-.22A1.4,1.4,0,0,1,1079.29,134.75Z" transform="translate(-85.78 -78)"/><path class="cls-21" d="M1083.06,137.78l1.85-5.3a.73.73,0,0,0-1.3-.65l-3,4.73a1.41,1.41,0,0,0,.41,1.93,1.37,1.37,0,0,0,1.91-.42A1.11,1.11,0,0,0,1083.06,137.78Z" transform="translate(-85.78 -78)"/><path class="cls-34" d="M1082,131.74a2.5,2.5,0,1,0,2.5-2.53A2.51,2.51,0,0,0,1082,131.74Z" transform="translate(-85.78 -78)"/><path class="cls-37" d="M1094.45,130a1.23,1.23,0,0,0,.6-.95c.36-4.8-2.87-13.76-8.75-19.87a1.17,1.17,0,0,0-1.68,0,1.21,1.21,0,0,0,0,1.7c5.23,5.46,8.4,13.72,8.07,18a1.2,1.2,0,0,0,1.1,1.29A1.22,1.22,0,0,0,1094.45,130Z" transform="translate(-85.78 -78)"/><path class="cls-37" d="M1091.16,134l1.88-4.72a1,1,0,0,1,.43-.5,1,1,0,0,1,1.42.36v0l2.38,4a1.39,1.39,0,0,1,.11.21,1.43,1.43,0,0,1-.81,1.84,1.4,1.4,0,0,1-1.81-.81l-.6-1.56-.52,2s0,.11-.05.15a1.32,1.32,0,1,1-2.44-1Z" transform="translate(-85.78 -78)"/><path class="cls-21" d="M1095.7,134.68l-.94-5.28a.69.69,0,0,0-1.38.09l-.29,5.35a1.31,1.31,0,1,0,2.62.15A1.58,1.58,0,0,0,1095.7,134.68Z" transform="translate(-85.78 -78)"/><path class="cls-26" d="M1092,130.18a2.36,2.36,0,0,0,3.24.91,2.43,2.43,0,0,0,.9-3.29,2.37,2.37,0,0,0-3.25-.9A2.42,2.42,0,0,0,1092,130.18Z" transform="translate(-85.78 -78)"/><path class="cls-27" d="M1074.45,114.93c1.52-3.56,6.85-6.41,11.91-6.22.11,0,.19.08.29.11s.08-.15.15-.19c3.41-2,8.09-2.08,10.92-.11a5.19,5.19,0,0,1,2.23,5.31,4.75,4.75,0,0,1-2.73,3.85,4.9,4.9,0,0,1-2,.39,7.44,7.44,0,0,1-4.07-1.34,11.76,11.76,0,0,1-3.38-3.51,11.47,11.47,0,0,1-1.54,5.3,7.88,7.88,0,0,1-5.57,4,4.93,4.93,0,0,1-.69,0,6,6,0,0,1-4.43-2A4.9,4.9,0,0,1,1074.45,114.93Zm18.12-.3a4.17,4.17,0,0,0,3.66.73,2.38,2.38,0,0,0,1.26-2,2.64,2.64,0,0,0-1.19-2.79,6.48,6.48,0,0,0-3.69-1,9.34,9.34,0,0,0-3.56.71A10.12,10.12,0,0,0,1092.57,114.63Zm-15.2,4.12a3.55,3.55,0,0,0,3,1.25,5.41,5.41,0,0,0,3.71-2.76,9.45,9.45,0,0,0,1.15-6c-4.07.3-7.6,2.53-8.51,4.66A2.42,2.42,0,0,0,1077.37,118.75Z" transform="translate(-85.78 -78)"/><path class="cls-21" d="M1076.89,117a12.9,12.9,0,0,1,9.21-8.28,1.39,1.39,0,0,1,.54,0,1.37,1.37,0,0,1,.43-.23c3.15-1,7.59.25,10.32,2.86a6.45,6.45,0,0,1,2.18,6.24,3.68,3.68,0,0,1-2.63,2.82,4.52,4.52,0,0,1-1.12.14,7.23,7.23,0,0,1-5-2.42,17.54,17.54,0,0,1-2.64-3.61,16.57,16.57,0,0,1-.65,5.1c-.69,2.34-2.31,5.07-4.78,5.68a4.17,4.17,0,0,1-1,.12,4.86,4.86,0,0,1-3.52-1.7A6.5,6.5,0,0,1,1076.89,117Zm15.73-.61a4.32,4.32,0,0,0,3.67,1.59,1.17,1.17,0,0,0,.85-1,4.07,4.07,0,0,0-1.47-3.8,9.5,9.5,0,0,0-6.21-2.51h-.35A16.71,16.71,0,0,0,1092.62,116.4ZM1080,122c1.11,1.15,1.87,1,2.12.9,1.15-.29,2.38-1.91,3-4a15.48,15.48,0,0,0,.25-7.38,10.51,10.51,0,0,0-6.12,6.23A4.08,4.08,0,0,0,1080,122Z" transform="translate(-85.78 -78)"/><path class="cls-37" d="M1086.07,112.12a.79.79,0,0,0,.71-.47,3.06,3.06,0,0,0-.75-3,.79.79,0,0,0-1.11.06.8.8,0,0,0,.06,1.12,1.64,1.64,0,0,1,.37,1.2.79.79,0,0,0,.4,1A.71.71,0,0,0,1086.07,112.12Z" transform="translate(-85.78 -78)"/><path class="cls-37" d="M1088.51,111.48a.77.77,0,0,0,.71-.47,2.39,2.39,0,0,0,.06-1.89,2,2,0,0,0-1-1.15.77.77,0,0,0-1,.41.8.8,0,0,0,.37,1,.81.81,0,0,1,.16,1,.79.79,0,0,0,.4,1A.71.71,0,0,0,1088.51,111.48Z" transform="translate(-85.78 -78)"/><path class="cls-38" d="M1087.33,111.93a.79.79,0,0,0,.75-.55,3.62,3.62,0,0,0-.89-3.42.78.78,0,0,0-1.11,0,.79.79,0,0,0,0,1.11,2.05,2.05,0,0,1,.5,1.81.8.8,0,0,0,.5,1A1.09,1.09,0,0,0,1087.33,111.93Z" transform="translate(-85.78 -78)"/><rect class="cls-12" y="10" width="215" height="215" rx="25.19"/><path class="cls-49" d="M283.22,146.75H271.35a34,34,0,0,0-61,5.39l-29.77-20.33c-6.5-4.44-15.1.46-15.1,8.61v8.75L140,131.81c-6.5-4.44-15.1.46-15.1,8.61v125c0,8.15,8.6,13.05,15.1,8.61l25.42-17.36v8.75c0,8.15,8.6,13.05,15.1,8.61l15.38-10.5L192,276.29l3.13-.05C207.48,276,220.83,266.12,225,254l.18-.77h34.79v-4.54H226.25l2.09-7.22,43.75-29.87a10.58,10.58,0,0,0,0-17.24l-7-4.79a34,34,0,0,0,11.28-25.21,34.49,34.49,0,0,0-.85-7.38h7.72a5.09,5.09,0,0,0,0-10.18Zm-85,124.64L202,259.44l9.16-6.26h9.23C217,262.22,207.68,269.82,198.27,271.39Zm23.33-22.75h-3.83l4.75-3.24Z" transform="translate(-85.78 -78)"/><path class="cls-33" d="M268.21,186.52,176.68,124c-6.5-4.44-15.1.47-15.1,8.62v125c0,8.15,8.6,13.06,15.1,8.62l91.53-62.51A10.57,10.57,0,0,0,268.21,186.52Z" transform="translate(-85.78 -78)"/><path class="cls-34" d="M272.46,156.51a34.17,34.17,0,1,1-34.17-34.17A34.17,34.17,0,0,1,272.46,156.51Z" transform="translate(-85.78 -78)"/><path class="cls-32" d="M227.69,186.52,136.16,124c-6.5-4.44-15.1.47-15.1,8.62v125c0,8.15,8.6,13.06,15.1,8.62l91.53-62.51A10.57,10.57,0,0,0,227.69,186.52Z" transform="translate(-85.78 -78)"/><path class="cls-13" d="M284.43,144a5.09,5.09,0,0,0-5.09-5.08H240.28a5.09,5.09,0,0,0,0,10.17h3.78c3.41,0,3.79,5.47.12,5.47H225.61a5.09,5.09,0,1,0,0,10.17h39.06a5.09,5.09,0,0,0,0-10.17h-6.39c-2.47,0-2.85-5.47.2-5.47h20.86A5.09,5.09,0,0,0,284.43,144Z" transform="translate(-85.78 -78)"/><g class="cls-50"><path class="cls-51" d="M96.35,184.3a6.39,6.39,0,0,0,6.39,6.38h49.05a6.39,6.39,0,0,0,0-12.77h-4.74c-4.29,0-4.77-8.62-.16-8.62h23.32a6.39,6.39,0,0,0,0-12.78h-49a6.39,6.39,0,0,0,0,12.78h8c3.09,0,3.57,8.62-.25,8.62h-26.2A6.4,6.4,0,0,0,96.35,184.3Z" transform="translate(-85.78 -78)"/></g><path class="cls-13" d="M256.05,240.85H222.37l4-13.92A17.6,17.6,0,0,0,224,210.57c-3-4.17-8-6.44-14-6.44h-.38l-1.65,0-11.32,36.69H178.57l32.06-54.72a12.72,12.72,0,0,0-.5-14.33,16.3,16.3,0,0,0-16-6.79c-4,.76-11.05,3.88-14,16.36l-5.6,17.81-10.73-33L141,240.85H121.06v4.54h23.3l19.52-64.09,10.67,32.78,9.91-31.5c1.79-7.51,5.52-12.16,10.48-13.09a11.63,11.63,0,0,1,11.46,4.9,8.29,8.29,0,0,1,.33,9.41l-36.09,61.59h24.62l-7.13,23.11,3.12-.05c12.35-.21,25.7-10.12,29.84-22.3l.18-.76h34.78ZM194.39,263.6l16.94-54.88a11.89,11.89,0,0,1,9,4.52c2.29,3.17,2.7,7.95,1.7,12.33l-4.37,15.28h-9.84l-1.67,4.54h10.27C213.12,254.43,203.8,262,194.39,263.6Z" transform="translate(-85.78 -78)"/></svg>