<svg xmlns="http://www.w3.org/2000/svg" viewBox="0 0 60 60"><path d="M52.71,28.35a3.79,3.79,0,0,0-3.56,2.51H38.29a9,9,0,0,0-.82-2.52l9.76-5.26V18.82a3.8,3.8,0,1,0-2.57,0v2.73L36,26.22a8.9,8.9,0,0,0-5.17-2.69V12.84a3.79,3.79,0,1,0-2.58,0V23.53A8.89,8.89,0,0,0,23,26.26l-8.65-4.59V18.82a3.8,3.8,0,1,0-2.57,0v4.39l9.74,5.17a9.11,9.11,0,0,0-.8,2.48H9.89a3.8,3.8,0,1,0,0,2.57H20.71A8.88,8.88,0,0,0,26,40.52V33.16a3.69,3.69,0,0,1,7.38,0v7.16a8.9,8.9,0,0,0,4.92-6.89H49.15a3.79,3.79,0,1,0,3.56-5.08Z" style="fill:#fff;stroke:#fff;stroke-linecap:round;stroke-linejoin:round;stroke-width:3px"/><path d="M38.35,42.21H31.86v-9a2.19,2.19,0,0,0-4.37,0V48.73L25,46.27A2.18,2.18,0,1,0,22,49.36l5.23,5.23h13.7L42.12,46A3.77,3.77,0,0,0,38.35,42.21Z" style="fill:#fff;stroke:#fff;stroke-linecap:round;stroke-linejoin:round;stroke-width:3px"/><path d="M28.23,10.77h2.58V27a6.94,6.94,0,0,0-1.11-.1,6.7,6.7,0,0,0-1.47.17Z" style="fill:#31394a"/><path d="M35.1,29.62a6.33,6.33,0,0,0-2-1.85l11.56-6.22v-6h2.57v7.52Z" style="fill:#31394a"/><path d="M11.81,23.21V15.56h2.57v6.11l11.73,6.22a6.08,6.08,0,0,0-1.91,1.9Z" style="fill:#31394a"/><path d="M6.63,33.43V30.86h17a5.55,5.55,0,0,0-.37,2,5.4,5.4,0,0,0,0,.56Z" style="fill:#31394a"/><path d="M36.09,33.43a5.4,5.4,0,0,0,0-.56,5.55,5.55,0,0,0-.37-2H52.41v2.57Z" style="fill:#31394a"/><circle cx="45.95" cy="15.26" r="3.79" style="fill:#1faedb"/><circle cx="29.52" cy="9.28" r="3.79" style="fill:#1faedb"/><circle cx="13.09" cy="15.26" r="3.79" style="fill:#1faedb"/><circle cx="52.71" cy="32.15" r="3.79" style="fill:#1faedb"/><circle cx="6.33" cy="32.15" r="3.79" style="fill:#1faedb"/><path d="M38.42,32.33A8.9,8.9,0,1,0,26,40.52V33.16a3.69,3.69,0,0,1,7.38,0v7.16A8.9,8.9,0,0,0,38.42,32.33Z" style="fill:#216ead"/><path d="M38.35,42.21H31.86v-9a2.19,2.19,0,0,0-4.37,0V48.73L25,46.27A2.18,2.18,0,1,0,22,49.36l5.23,5.23h13.7L42.12,46A3.77,3.77,0,0,0,38.35,42.21Z" style="fill:#ffc248"/></svg>