<svg xmlns="http://www.w3.org/2000/svg" xmlns:xlink="http://www.w3.org/1999/xlink" viewBox="0 0 60 60"><defs><clipPath id="a"><rect x="3.62" y="11.01" width="51.8" height="38.07" rx="4.53" style="fill:none"/></clipPath></defs><rect x="3.62" y="11.01" width="51.8" height="38.07" rx="4.53" style="fill:#fff;stroke:#fff;stroke-linecap:round;stroke-linejoin:round;stroke-width:3px"/><g style="clip-path:url(#a)"><rect x="3.62" y="11.01" width="51.8" height="38.07" rx="4.53" style="fill:#31394a"/><rect x="26.33" y="15.12" width="24.87" height="29.72" rx="2.6" style="fill:#546277"/><rect x="29.17" y="22.69" width="19.34" height="2.03" rx="1.01" style="fill:#7c8fa5"/><rect x="29.17" y="27.23" width="19.34" height="2.03" rx="1.01" style="fill:#7c8fa5"/><rect x="29.17" y="18.19" width="10.16" height="2.03" rx="1.01" style="fill:#7c8fa5"/><path d="M25.6,41.31,23,50.11h4.19l1-6.59c2.74,0,4-1.47,4-2.68Z" style="fill:#1faedb"/><path d="M20.33,46.41l-3.88-1.68V42.27a5.76,5.76,0,0,0,2.75-4.89V34.46a5.74,5.74,0,0,0-5.72-5.72H13a5.74,5.74,0,0,0-5.73,5.72v2.92a5.73,5.73,0,0,0,2.9,5v2.38L6.29,46.41a2.91,2.91,0,0,0-1.76,2.67H22.08A2.91,2.91,0,0,0,20.33,46.41Z" style="fill:#1faedb"/><path d="M22.06,22.61a1.59,1.59,0,0,1-1.59,1.58H8.3A1.59,1.59,0,1,1,8.3,21H9.47c1.07,0,1.19-1.7,0-1.7H3.72V16.15H15.9a1.59,1.59,0,0,1,0,3.17h-2c-.77,0-.89,1.7.06,1.7h6.5A1.59,1.59,0,0,1,22.06,22.61Z" style="fill:#546277"/><path d="M39,31.49A8.07,8.07,0,0,0,31,23.42a8.75,8.75,0,0,0-1.14.09l-.23,0a7.87,7.87,0,0,0-1.09.26h0a9.63,9.63,0,0,0-1,.43l-.09.05a8.06,8.06,0,1,0,11.54,8.76h0A8.2,8.2,0,0,0,39,31.49Z" style="fill:#1f2530;opacity:0.6000000000000001"/><path d="M37.58,30A8.06,8.06,0,1,1,29.52,22,8.06,8.06,0,0,1,37.58,30Z" style="fill:#ffca5f"/><path d="M33.31,29.58l-4.89-3.34a.52.52,0,0,0-.8.46v6.68a.52.52,0,0,0,.8.46l4.89-3.34A.56.56,0,0,0,33.31,29.58Z" style="fill:#fff"/></g></svg>