<svg xmlns="http://www.w3.org/2000/svg" viewBox="0 0 60 60"><path d="M40.67,31.72l-1.39-3.53-2.43,1.14-2.1-2.1L36,24.75l-3.48-1.52-.94,2.58h-3l-.92-2.67-3.53,1.4,1.18,2.54-2.1,2.1-2.56-1.25-1.49,3.49,2.63,1v3l-2.67.93,1.43,3.51,2.51-1.17,2.1,2.1-1.21,2.5,3.49,1.47.93-2.55h3l.88,2.57,3.51-1.43-1.12-2.4,2.1-2.1L39.11,40l1.49-3.48-2.48-.9v-3Zm-10.79,5.4a3.18,3.18,0,1,1,3.17-3.18A3.18,3.18,0,0,1,29.88,37.12Z" style="fill:#fff;stroke:#fff;stroke-linecap:round;stroke-linejoin:round;stroke-width:3px"/><path d="M23.22,18c.12-.07.24-.14.37-.2l2.23-1v-.13a6.16,6.16,0,0,1-2.11-3.17A21.05,21.05,0,0,0,8.88,37.13a6.11,6.11,0,0,1,2.1-.38h.41a6.16,6.16,0,0,1,1.55.21,16.91,16.91,0,0,1-.29-3A17.26,17.26,0,0,1,23.22,18Z" style="fill:#fff;stroke:#fff;stroke-linecap:round;stroke-linejoin:round;stroke-width:3px"/><path d="M47.54,36.75h.4a6.21,6.21,0,0,1,2.91.73,21.9,21.9,0,0,0,.32-3.55A21.32,21.32,0,0,0,36,13.54a6.11,6.11,0,0,1-2,3.1v.24l2.24,1h0l.36.19a17.29,17.29,0,0,1,10.57,15.9,16.9,16.9,0,0,1-.26,2.86C47.09,36.77,47.31,36.75,47.54,36.75Z" style="fill:#fff;stroke:#fff;stroke-linecap:round;stroke-linejoin:round;stroke-width:3px"/><path d="M43.24,50.48l.45-.39a6.21,6.21,0,0,1-2.17-3.48,17.13,17.13,0,0,1-24-.71,6.22,6.22,0,0,1-1.86,3.81,21.68,21.68,0,0,0,1.91,1.53,3.91,3.91,0,0,1,1.07.71,21.09,21.09,0,0,0,21.09.83,3.91,3.91,0,0,1,1.76-1.55Z" style="fill:#fff;stroke:#fff;stroke-linecap:round;stroke-linejoin:round;stroke-width:3px"/><path d="M16.94,52.62,13.8,51.26v-2a4.67,4.67,0,0,0,2.24-4V42.92a4.67,4.67,0,0,0-4.65-4.65H11a4.66,4.66,0,0,0-4.65,4.65v2.37a4.67,4.67,0,0,0,2.36,4v1.93L5.54,52.62a2.36,2.36,0,0,0-1.42,2.17H18.37A2.37,2.37,0,0,0,16.94,52.62Z" style="fill:#fff;stroke:#fff;stroke-linecap:round;stroke-linejoin:round;stroke-width:3px"/><path d="M34.69,11.9V9.53A4.67,4.67,0,0,0,30,4.88h-.41A4.66,4.66,0,0,0,25,9.53V11.9a4.67,4.67,0,0,0,2.36,4v1.93l-3.15,1.36a2.37,2.37,0,0,0-1.43,2.17H37a2.37,2.37,0,0,0-1.43-2.17l-3.14-1.36v-2A4.67,4.67,0,0,0,34.69,11.9Z" style="fill:#fff;stroke:#fff;stroke-linecap:round;stroke-linejoin:round;stroke-width:3px"/><path d="M53.5,52.62l-3.15-1.36v-2a4.67,4.67,0,0,0,2.24-4V42.92A4.67,4.67,0,0,0,48,38.27h-.41a4.66,4.66,0,0,0-4.65,4.65v2.37a4.68,4.68,0,0,0,2.35,4v1.93L42.1,52.62a2.37,2.37,0,0,0-1.43,2.17H54.93A2.37,2.37,0,0,0,53.5,52.62Z" style="fill:#fff;stroke:#fff;stroke-linecap:round;stroke-linejoin:round;stroke-width:3px"/><path d="M38.12,35.57v-3l2.55-.88-1.39-3.53-2.43,1.14-2.1-2.1L36,24.75l-3.48-1.52-.94,2.58h-3l-.92-2.66-3.53,1.39,1.18,2.54-2.1,2.1-2.56-1.25-1.49,3.49,2.63,1v3l-2.67.93,1.43,3.51,2.51-1.17,2.1,2.1-1.21,2.5,3.49,1.47.93-2.55h3l.88,2.57,3.51-1.43-1.12-2.4,2.1-2.1L39.11,40l1.49-3.48Zm-8.24,1.55a3.18,3.18,0,1,1,3.17-3.18A3.18,3.18,0,0,1,29.88,37.12Z" style="fill:#ffc248"/><path d="M11.39,36.75a6.16,6.16,0,0,1,1.55.21,16.91,16.91,0,0,1-.29-3A17.26,17.26,0,0,1,23.22,18c.12-.07.24-.14.37-.2l2.23-1v-.13a6.16,6.16,0,0,1-2.11-3.17A21.05,21.05,0,0,0,8.88,37.13a6.11,6.11,0,0,1,2.1-.38Z" style="fill:#1faedb"/><path d="M34,16.64v.24l2.24,1h0l.36.19a17.29,17.29,0,0,1,10.57,15.9,16.9,16.9,0,0,1-.26,2.86c.22,0,.44,0,.67,0h.4a6.21,6.21,0,0,1,2.91.73,21.9,21.9,0,0,0,.32-3.55A21.32,21.32,0,0,0,36,13.54,6.11,6.11,0,0,1,34,16.64Z" style="fill:#1faedb"/><path d="M41.49,51.23l1.75-.75.45-.39a6.21,6.21,0,0,1-2.17-3.48,17.13,17.13,0,0,1-24-.71,6.22,6.22,0,0,1-1.86,3.81,21.68,21.68,0,0,0,1.91,1.53,3.91,3.91,0,0,1,1.07.71,21.09,21.09,0,0,0,21.09.83A3.91,3.91,0,0,1,41.49,51.23Z" style="fill:#1faedb"/><path d="M16.94,52.62,13.8,51.26v-2a4.67,4.67,0,0,0,2.24-4V42.92a4.67,4.67,0,0,0-4.65-4.65H11a4.66,4.66,0,0,0-4.65,4.65v2.37a4.67,4.67,0,0,0,2.36,4v1.93L5.54,52.62a2.36,2.36,0,0,0-1.42,2.17H18.37A2.37,2.37,0,0,0,16.94,52.62Z" style="fill:#31394a"/><path d="M35.59,19.23l-3.14-1.36v-2a4.67,4.67,0,0,0,2.24-4V9.53A4.67,4.67,0,0,0,30,4.88h-.41A4.66,4.66,0,0,0,25,9.53V11.9a4.67,4.67,0,0,0,2.36,4v1.93l-3.15,1.36a2.37,2.37,0,0,0-1.43,2.17H37A2.37,2.37,0,0,0,35.59,19.23Z" style="fill:#31394a"/><path d="M53.5,52.62l-3.15-1.36v-2a4.67,4.67,0,0,0,2.24-4V42.92A4.67,4.67,0,0,0,48,38.27h-.41a4.66,4.66,0,0,0-4.65,4.65v2.37a4.68,4.68,0,0,0,2.35,4v1.93L42.1,52.62a2.37,2.37,0,0,0-1.43,2.17H54.93A2.37,2.37,0,0,0,53.5,52.62Z" style="fill:#31394a"/></svg>