<svg xmlns="http://www.w3.org/2000/svg" xmlns:xlink="http://www.w3.org/1999/xlink" viewBox="0 0 60 60"><defs><clipPath id="a"><path d="M9.65,11.53l39.43-.09c3,0,6,.8,6.71,3.46V38.84a4.81,4.81,0,0,1-4.8,4.8H8.6a5.4,5.4,0,0,1-5.39-5.38V14.9C4.63,12.44,6.69,11.53,9.65,11.53Z" style="fill:none"/></clipPath></defs><path d="M9.65,11.53l39.43-.09c3,0,6,.8,6.71,3.46V38.84a4.81,4.81,0,0,1-4.8,4.8H8.6a5.4,5.4,0,0,1-5.39-5.38V14.9C4.63,12.44,6.69,11.53,9.65,11.53Z" style="fill:#fff;stroke:#fff;stroke-linecap:round;stroke-linejoin:round;stroke-width:3px"/><path d="M3.21,14.9A5.41,5.41,0,0,1,8.6,9.51H50.41a5.4,5.4,0,0,1,5.38,5.39" style="fill:#fff;stroke:#fff;stroke-linecap:round;stroke-linejoin:round;stroke-width:3px"/><path d="M9.65,11.53l39.43-.09c3,0,6,.8,6.71,3.46V38.84a4.81,4.81,0,0,1-4.8,4.8H8.6a5.4,5.4,0,0,1-5.39-5.38V14.9C4.63,12.44,6.69,11.53,9.65,11.53Z" style="fill:#31394a"/><g style="clip-path:url(#a)"><g style="opacity:0.5"><rect x="8.99" y="43.86" width="8.21" height="8.21" style="fill:#1faedb;opacity:0.9"/><rect x="17.2" y="35.65" width="8.21" height="8.21" style="fill:#1faedb;opacity:0.8"/><rect x="25.41" y="43.86" width="8.21" height="8.21" style="fill:#1faedb;opacity:0.7000000000000001"/><rect x="8.99" y="27.43" width="8.21" height="8.21" style="fill:#1faedb;opacity:0.6000000000000001"/><rect x="33.63" y="35.65" width="8.21" height="8.21" style="fill:#1faedb;opacity:0.8"/><rect x="41.84" y="43.86" width="8.21" height="8.21" style="fill:#1faedb;opacity:0.5"/><rect x="50.05" y="35.65" width="8.21" height="8.21" style="fill:#1faedb;opacity:0.8"/><rect x="8.99" y="11.01" width="8.21" height="8.21" style="fill:#1faedb;opacity:0.2"/><rect x="17.2" y="19.22" width="8.21" height="8.21" style="fill:#1faedb;opacity:0.5"/><rect x="0.78" y="35.65" width="8.21" height="8.21" style="fill:#1faedb;opacity:0.8"/><rect x="0.78" y="19.22" width="8.21" height="8.21" style="fill:#1faedb;opacity:0.5"/><rect x="25.41" y="27.43" width="8.21" height="8.21" style="fill:#1faedb;opacity:0.6000000000000001"/><rect x="25.41" y="11.01" width="8.21" height="8.21" style="fill:#1faedb;opacity:0.2"/><rect x="33.63" y="19.22" width="8.21" height="8.21" style="fill:#1faedb;opacity:0.5"/><rect x="41.84" y="27.43" width="8.21" height="8.21" style="fill:#1faedb;opacity:0.6000000000000001"/><rect x="41.84" y="11.01" width="8.21" height="8.21" style="fill:#1faedb;opacity:0.2"/><rect x="50.05" y="19.22" width="8.21" height="8.21" style="fill:#1faedb;opacity:0.5"/></g></g><path d="M3.21,14.9A5.41,5.41,0,0,1,8.6,9.51H50.41a5.4,5.4,0,0,1,5.38,5.39" style="fill:#576f82"/><circle cx="45.74" cy="12.24" r="1.73" style="fill:#1faedb"/><circle cx="50.64" cy="12.24" r="1.73" style="fill:#55e7ff"/><rect x="6.42" y="18.05" width="46.16" height="10.22" rx="2.88" style="fill:#ffca5f"/><path d="M24.08,20.92l1.11.63-1.43,1.74v0l2.13-.39V24.2l-2.13-.34v0l1.44,1.69-1.13.65-.81-2.09,0,0-.83,2.07-1.06-.66,1.43-1.72v0l-2.1.37V22.94l2.08.37v0l-1.41-1.73,1.12-.63L23.25,23h0Z" style="fill:#31394a"/><path d="M18,20.92l1.11.63-1.43,1.74v0l2.13-.39V24.2l-2.13-.34v0l1.44,1.69L18,26.23l-.81-2.09,0,0-.83,2.07-1.06-.66,1.43-1.72v0l-2.1.37V22.94l2.08.37v0L15.3,21.56l1.12-.63L17.21,23h0Z" style="fill:#31394a"/><path d="M12,20.92l1.11.63-1.43,1.74v0l2.13-.39V24.2l-2.13-.34v0l1.44,1.69L12,26.23l-.81-2.09,0,0-.83,2.07-1.06-.66,1.43-1.72v0l-2.1.37V22.94l2.08.37v0L9.26,21.56l1.12-.63L11.17,23h0Z" style="fill:#31394a"/><path d="M28.44,25.14a.8.8,0,0,1,.79-.84.85.85,0,0,1,0,1.69A.79.79,0,0,1,28.44,25.14Z" style="fill:#31394a"/><path d="M34.25,25.76a3,3,0,0,1-1.19.22,2.28,2.28,0,0,1-2.39-2.51,2.46,2.46,0,0,1,2.59-2.62,3.08,3.08,0,0,1,1,.18l-.21,1a1.74,1.74,0,0,0-.77-.16A1.35,1.35,0,0,0,32,23.41a1.35,1.35,0,0,0,1.31,1.53,1.83,1.83,0,0,0,.8-.16Z" style="fill:#31394a"/><path d="M39.41,23.38A2.31,2.31,0,0,1,37.11,26a2.27,2.27,0,0,1-2.29-2.55,2.32,2.32,0,0,1,2.34-2.6A2.27,2.27,0,0,1,39.41,23.38Zm-2.28-1.57c-.73,0-1,.85-1,1.6s.33,1.61,1,1.61,1-.74,1-1.62S37.81,21.81,37.13,21.81Z" style="fill:#31394a"/><path d="M47.21,25.89H45.92v-2.8c0-.71-.2-1.18-.72-1.18-.36,0-.77.29-.77,1v3H43.14V23c0-.59-.18-1.06-.7-1.06a.9.9,0,0,0-.79,1v3H40.37V22.44c0-.58,0-1.05,0-1.48h1.12l.06.65h0a1.62,1.62,0,0,1,1.4-.76,1.3,1.3,0,0,1,1.26.82h0a1.67,1.67,0,0,1,1.46-.82c.86,0,1.53.61,1.53,2Z" style="fill:#31394a"/></svg>