<svg xmlns="http://www.w3.org/2000/svg" viewBox="0 0 60 60"><defs><style>.cls-1{fill:#31394a;}.cls-2{fill:#1f2530;}.cls-3{fill:#ffc248;}.cls-4{fill:#216ead;}.cls-5{fill:#1faedb;}.cls-6{fill:#fff;}</style></defs><path class="cls-1" d="M49.77,55H24.89l-6.05-1.41L14.54,55H9.27a4.77,4.77,0,0,1-4.75-4.75V9.8A4.77,4.77,0,0,1,9.27,5H34.8l4.63,2.51L45.33,5h4.44A4.77,4.77,0,0,1,54.52,9.8V50.29A4.77,4.77,0,0,1,49.77,55Z"/><rect class="cls-2" x="8.53" y="35.87" width="18.77" height="14.83" rx="2"/><rect class="cls-3" x="8.53" y="32.15" width="18.77" height="10.45" rx="2"/><rect class="cls-2" x="31.64" y="9.01" width="18.77" height="15.71" rx="2"/><rect class="cls-4" x="31.64" y="34.37" width="18.77" height="16.33" rx="1.91"/><rect class="cls-3" x="31.64" y="19.96" width="18.77" height="10.86" rx="1.91"/><path class="cls-5" d="M23.24,17.23v-2l1.69-.59L24,12.35l-1.6.76L21,11.72l.79-1.64-2.29-1-.63,1.71h-2L16.32,9,14,9.94l.79,1.67L13.38,13l-1.7-.82-1,2.31,1.74.64v2l-1.77.61L11.62,20l1.65-.78,1.39,1.39-.8,1.65,2.31,1,.62-1.68h2l.59,1.7,2.32-.94-.75-1.59,1.39-1.39,1.6.77,1-2.3Zm-5.45,1a2.11,2.11,0,1,1,2.1-2.1A2.1,2.1,0,0,1,17.79,18.26Z"/><path class="cls-5" d="M35.71,42A1.27,1.27,0,0,1,37,40.71h9.76a1.27,1.27,0,0,1,0,2.54h-1c-.85,0-.94,1.36,0,1.36H50.4v2.54H40.65a1.27,1.27,0,0,1,0-2.54h1.59c.62,0,.71-1.36-.05-1.36H37A1.27,1.27,0,0,1,35.71,42Z"/><rect class="cls-4" x="8.53" y="25.39" width="18.77" height="2.98" rx="1.49"/><path class="cls-6" d="M36.57,14.24h4.9V21a1.65,1.65,0,0,0,3.3,0V9.31l1.85,1.86a1.65,1.65,0,0,0,2.33,0,1.64,1.64,0,0,0,0-2.33L45.16,5H34.64l-.92,6.35A2.86,2.86,0,0,0,36.57,14.24Z"/><path class="cls-6" d="M22.81,45.69h-4.9v-6.8a1.65,1.65,0,0,0-3.29,0V50.62l-1.86-1.86a1.65,1.65,0,1,0-2.33,2.33l4,3.95H24.72l.94-6.5A2.86,2.86,0,0,0,22.81,45.69Z"/></svg>