<svg xmlns="http://www.w3.org/2000/svg" xmlns:xlink="http://www.w3.org/1999/xlink" viewBox="0 0 21 21"><defs><clipPath id="a"><path d="M13.84,9.63,5,3.58a.94.94,0,0,0-1.46.83V16.53A.94.94,0,0,0,5,17.36l8.88-6.06A1,1,0,0,0,13.84,9.63Z" style="fill:none"/></clipPath></defs><rect x="0.08" y="0.09" width="20.84" height="20.84" rx="3.25" style="fill:#31394a"/><path d="M19.22,5.78H18.07a3.3,3.3,0,0,0-5.92.52l-2.88-2a1,1,0,0,0-1.47.84V6L5.34,4.33a1,1,0,0,0-1.46.84V17.28a1,1,0,0,0,1.46.84L7.8,16.43v.85a1,1,0,0,0,1.47.84l1.49-1-.38,1.23h.3a3.35,3.35,0,0,0,2.89-2.16l0-.08H17v-.44H13.7l.2-.7,4.24-2.89a1,1,0,0,0,0-1.67l-.68-.47a3.26,3.26,0,0,0,1-3.15h.75a.5.5,0,0,0,.49-.5A.49.49,0,0,0,19.22,5.78ZM11,17.86l.36-1.16.89-.61h.89A2.9,2.9,0,0,1,11,17.86Zm2.26-2.21h-.37l.46-.31Z" style="fill:#27303f"/><path d="M17.76,9.63,8.89,3.58a.94.94,0,0,0-1.46.83V16.53a.94.94,0,0,0,1.46.83l8.87-6.06A1,1,0,0,0,17.76,9.63Z" style="fill:#216ead"/><path d="M18.17,6.73a3.31,3.31,0,1,1-3.31-3.32A3.31,3.31,0,0,1,18.17,6.73Z" style="fill:#ffc248"/><path d="M13.84,9.63,5,3.58a.94.94,0,0,0-1.46.83V16.53A.94.94,0,0,0,5,17.36l8.88-6.06A1,1,0,0,0,13.84,9.63Z" style="fill:#369ed8"/><path d="M19.33,5.52a.49.49,0,0,0-.49-.5H15.06a.5.5,0,1,0,0,1h.36c.33,0,.37.53,0,.53h-1.8a.49.49,0,0,0-.49.49.5.5,0,0,0,.49.5h3.79a.5.5,0,0,0,.49-.5.49.49,0,0,0-.49-.49H16.8c-.24,0-.28-.53,0-.53h2A.49.49,0,0,0,19.33,5.52Z" style="fill:#fff"/><g style="clip-path:url(#a)"><path d="M1.11,9.42a.62.62,0,0,0,.62.62H6.48a.62.62,0,0,0,0-1.24H6C5.6,8.8,5.56,8,6,8H8.27a.62.62,0,0,0,0-1.23H3.51A.62.62,0,1,0,3.51,8h.78c.3,0,.35.84,0,.84H1.73A.62.62,0,0,0,1.11,9.42Z" style="fill:#44b8ea"/></g><path d="M16.58,14.9H13.32l.39-1.35A1.72,1.72,0,0,0,13.48,12a1.61,1.61,0,0,0-1.36-.62h-.19l-1.1,3.56H9.08l3.1-5.3a1.24,1.24,0,0,0,0-1.39,1.57,1.57,0,0,0-1.55-.66c-.38.07-1.07.38-1.36,1.58l-.54,1.73-1-3.2L5.43,14.9H3.5v.44H5.76L7.65,9.13l1,3.17,1-3.05c.17-.73.53-1.18,1-1.27a1.12,1.12,0,0,1,1.11.48.78.78,0,0,1,0,.91l-3.49,6h2.38L10,17.58h.3a3.37,3.37,0,0,0,2.9-2.16v-.07h3.37Zm-6,2.2,1.64-5.31a1.15,1.15,0,0,1,.88.43,1.53,1.53,0,0,1,.16,1.2l-.42,1.48h-1l-.16.44h1A2.92,2.92,0,0,1,10.61,17.1Z" style="fill:#fff"/></svg>