<svg id="レイヤー_1" data-name="レイヤー 1" xmlns="http://www.w3.org/2000/svg" viewBox="0 0 60 60"><defs><style>.cls-1{fill:#ffc257;}.cls-2{fill:#1faedb;}.cls-3{fill:#ffeb99;}.cls-4{fill:#ed8d24;}.cls-5{fill:#31394a;}.cls-6{fill:#fff;}</style></defs><path class="cls-1" d="M44.87,55H10.92A2.1,2.1,0,0,1,8.82,53V7.14A2.1,2.1,0,0,1,10.92,5H38.77l2.56,5.39L47,13.23V53A2.1,2.1,0,0,1,44.87,55Z"/><path class="cls-2" d="M38.77,5,47,13.23H40.84a2.07,2.07,0,0,1-2.07-2.06Z"/><path class="cls-3" d="M30.19,12.53a2.07,2.07,0,0,0-2.06-2.07H12.23a2.07,2.07,0,1,0,0,4.14h1.54c1.39,0,1.54,2.22.05,2.22H6.26a2.07,2.07,0,1,0,0,4.14H22.15a2.07,2.07,0,0,0,0-4.14h-2.6c-1,0-1.15-2.22.09-2.22h8.49A2.07,2.07,0,0,0,30.19,12.53Z"/><path class="cls-3" d="M54.85,35.29a2.07,2.07,0,0,0-2.07-2.07H37.89a2.07,2.07,0,0,0,0,4.14h1.53c1.39,0,1.55,2.22.06,2.22H31.92a2.07,2.07,0,0,0,0,4.14H47.81a2.07,2.07,0,0,0,0-4.14h-2.6c-1,0-1.16-2.22.08-2.22h7.49A2.08,2.08,0,0,0,54.85,35.29Z"/><path class="cls-4" d="M38.61,22.41V17.79c-4.47,0-10.37,2.27-13.07,13.1C23.6,38.67,21,39.67,19,39.67v4.62c7.85,0,10.18-9,11-12.18h7.52V27.5H31.6C34.08,22.41,37.37,22.41,38.61,22.41Z"/><path class="cls-5" d="M36.75,20.55V15.93c-4.47,0-10.37,2.27-13.07,13.1-1.94,7.78-4.5,8.78-6.51,8.78v4.62c7.85,0,10.18-9,11-12.18h7.52V25.64H29.74C32.22,20.55,35.51,20.55,36.75,20.55Z"/><path class="cls-6" d="M23.7,48.29A2.26,2.26,0,0,0,22.65,48c-.59,0-.86.32-.86.65s.29.61,1,.94c.94.42,1.36,1,1.36,1.73,0,1-.77,1.77-2.14,1.77a3.09,3.09,0,0,1-1.44-.33l.22-.94a2.64,2.64,0,0,0,1.27.33c.62,0,.95-.3.95-.74s-.28-.67-.93-1c-.89-.38-1.44-.93-1.44-1.7,0-1,.76-1.7,2-1.7a2.85,2.85,0,0,1,1.26.27Z"/><path class="cls-6" d="M31.39,47.18,30,53.06H28.8l-.51-2.49A17.84,17.84,0,0,1,28,48.7h0c-.1.66-.21,1.25-.35,1.87l-.57,2.49H25.87l-1.3-5.88h1.2l.45,2.54c.13.7.24,1.43.32,2.05h0c.08-.65.23-1.33.38-2.07l.53-2.52H28.6l.5,2.55c.13.69.24,1.34.32,2h0c.09-.7.2-1.36.33-2.06l.48-2.52Z"/><path class="cls-6" d="M32.06,53.06V47.18h3.15v1h-2v1.55h1.88v.93H33.19v2.45Z"/></svg>