<svg xmlns="http://www.w3.org/2000/svg" xmlns:xlink="http://www.w3.org/1999/xlink" viewBox="0 0 60 60"><defs><clipPath id="a"><path d="M52,55H18A2.1,2.1,0,0,1,15.91,53V7.14A2.1,2.1,0,0,1,18,5H45.86l2.56,5.39,5.63,2.8V53A2.1,2.1,0,0,1,52,55Z" style="fill:none"/></clipPath></defs><path d="M10,48.1A13.15,13.15,0,0,0,15.91,51V53A2.1,2.1,0,0,0,18,55H52A2.1,2.1,0,0,0,54.05,53V13.23L45.86,5H18a2.1,2.1,0,0,0-2.09,2.1V23.87A13.89,13.89,0,0,0,10,48.1Z" style="fill:#fff;stroke:#fff;stroke-linecap:round;stroke-linejoin:round;stroke-width:3px"/><path d="M52,55H18A2.1,2.1,0,0,1,15.91,53V7.14A2.1,2.1,0,0,1,18,5H45.86l2.56,5.39,5.63,2.8V53A2.1,2.1,0,0,1,52,55Z" style="fill:#1faedb"/><path d="M45.86,5l8.19,8.19H47.92a2.06,2.06,0,0,1-2.06-2.06Z" style="fill:#31394a"/><g style="clip-path:url(#a)"><path d="M34.54,39.18a13.91,13.91,0,1,1-13.9-13.9A13.9,13.9,0,0,1,34.54,39.18Z" style="fill:#216ead"/><path d="M49.39,23.5a2.07,2.07,0,0,0-2.07-2.07H31.43a2.07,2.07,0,0,0,0,4.14H33c1.38,0,1.54,2.22.05,2.22H25.46a2.07,2.07,0,0,0,0,4.14H41.35a2.07,2.07,0,1,0,0-4.14h-2.6c-1,0-1.16-2.22.08-2.22h8.49A2.07,2.07,0,0,0,49.39,23.5Z" style="fill:#216ead"/></g><path d="M32.8,37.44a13.91,13.91,0,1,1-13.9-13.9A13.91,13.91,0,0,1,32.8,37.44Z" style="fill:#ffca5f"/><path d="M47.65,21.76a2.07,2.07,0,0,0-2.07-2.07H29.69a2.07,2.07,0,0,0,0,4.14h1.53c1.39,0,1.55,2.22.06,2.22H23.72a2.07,2.07,0,0,0,0,4.14H39.61a2.07,2.07,0,0,0,0-4.14H37c-1,0-1.16-2.22.08-2.22h8.49A2.07,2.07,0,0,0,47.65,21.76Z" style="fill:#fff"/><path d="M16.43,40.78a6.51,6.51,0,0,1-2.08.36,3.43,3.43,0,0,1-2.56-.89,3.82,3.82,0,0,1-1-2.76,3.52,3.52,0,0,1,3.73-3.78,4.22,4.22,0,0,1,1.71.3l-.3,1.16a3.18,3.18,0,0,0-1.39-.27c-1.3,0-2.28.8-2.28,2.56s.9,2.54,2.1,2.54a1.84,1.84,0,0,0,.72-.11V38.11H14V37h2.39Z" style="fill:#31394a"/><path d="M18.68,33.79h1.4v7.28h-1.4Z" style="fill:#31394a"/><path d="M22.5,41.07V33.79h3.9V35H23.9v1.92h2.33V38H23.9v3Z" style="fill:#31394a"/></svg>