<svg xmlns="http://www.w3.org/2000/svg" viewBox="0 0 60 60"><path d="M50.47,14.22H49.23V45.4h-1.5V8.21a3.12,3.12,0,0,0-3.1-3.1H14.45a3.11,3.11,0,0,0-3.09,3.1V45.4H9.85V14.22H8.58a4,4,0,0,0-4,4V45.4h0a4,4,0,0,0,4,4H22.26v2.52H20.92a3.06,3.06,0,0,0-3.05,3h23.3a3.06,3.06,0,0,0-3.05-3H36.79V49.4H50.47a4,4,0,0,0,4-4h0V18.22A4,4,0,0,0,50.47,14.22Z" style="fill:#fff;stroke:#fff;stroke-linecap:round;stroke-linejoin:round;stroke-width:3px"/><path d="M50.47,14.22H49.23V46.79H9.85V14.22H8.58a4,4,0,0,0-4,4V45.4c.52,2,2.78,2.57,5,2.57l40.12-.07c2.2,0,3.73-.67,4.79-2.5V18.22A4,4,0,0,0,50.47,14.22Z" style="fill:#576f82"/><path d="M47.73,46.4l-17.47,1-18.9-1V11.34s2.4-4.83,4.45-4.83l27.27-.06c2.05,0,4.65,4.89,4.65,4.89Z" style="fill:#31394a"/><path d="M44.63,5.11H14.45a3.11,3.11,0,0,0-3.09,3.1v3.13H47.73V8.21A3.12,3.12,0,0,0,44.63,5.11Z" style="fill:#1faedb"/><circle cx="40.77" cy="7" r="1.19" style="fill:#216ead"/><circle cx="44.16" cy="7" r="1.19" style="fill:#55e7ff"/><rect x="13.06" y="8.96" width="32.82" height="1.39" rx="0.7" style="fill:#fff"/><rect x="19" y="14.22" width="25.95" height="23.34" style="fill:#fff"/><rect x="14.1" y="14.22" width="4.9" height="23.34" style="fill:#576f82"/><rect x="14.1" y="39.87" width="30.85" height="3.34" style="fill:#576f82"/><circle cx="16.11" cy="41.54" r="1.07" style="fill:#ffca5f"/><circle cx="23.51" cy="41.54" r="1.07" style="fill:#ffca5f"/><circle cx="39.32" cy="41.54" r="1.07" style="fill:#ffca5f"/><circle cx="27.39" cy="41.54" r="1.07" style="fill:#ffca5f"/><circle cx="39.36" cy="28.9" r="4.39" style="fill:#55e7ff"/><circle cx="33.82" cy="25.41" r="5.07" style="fill:#1faedb"/><circle cx="26.16" cy="23.85" r="5.96" style="fill:#216ead"/><rect x="22.26" y="48.73" width="14.53" height="3.72" style="fill:#216ead"/><path d="M20.92,51.92h17.2a3,3,0,0,1,3,3v0a0,0,0,0,1,0,0H17.87a0,0,0,0,1,0,0v0A3,3,0,0,1,20.92,51.92Z" style="fill:#216ead"/><path d="M54.47,45.4a4,4,0,0,1-4,4H8.58a4,4,0,0,1-4-4" style="fill:#1faedb"/><circle cx="49.83" cy="47.37" r="1.36" style="fill:#55e7ff"/></svg>