<svg xmlns="http://www.w3.org/2000/svg" xmlns:xlink="http://www.w3.org/1999/xlink" viewBox="0 0 60 60"><defs><style>.cls-1{fill:none;}.cls-2{fill:#1faedb;}.cls-3{fill:#31394a;}.cls-4{clip-path:url(#clip-path);}.cls-5{fill:#216ead;}.cls-6{fill:#ffca5f;}.cls-7{fill:#fff;}</style><clipPath id="clip-path"><path class="cls-1" d="M52,55H18A2.1,2.1,0,0,1,15.91,53V7.14A2.1,2.1,0,0,1,18,5H45.86l2.56,5.39,5.63,2.8V53A2.1,2.1,0,0,1,52,55Z"/></clipPath></defs><path class="cls-2" d="M52,55H18A2.1,2.1,0,0,1,15.91,53V7.14A2.1,2.1,0,0,1,18,5H45.86l2.56,5.39,5.63,2.8V53A2.1,2.1,0,0,1,52,55Z"/><path class="cls-3" d="M45.86,5l8.19,8.19H47.92a2.06,2.06,0,0,1-2.06-2.06Z"/><g class="cls-4"><path class="cls-5" d="M34.54,39.18a13.91,13.91,0,1,1-13.9-13.9A13.9,13.9,0,0,1,34.54,39.18Z"/><path class="cls-5" d="M49.39,23.5a2.07,2.07,0,0,0-2.07-2.07H31.43a2.07,2.07,0,0,0,0,4.14H33c1.38,0,1.54,2.22.05,2.22H25.46a2.07,2.07,0,0,0,0,4.14H41.35a2.07,2.07,0,1,0,0-4.14h-2.6c-1,0-1.16-2.22.08-2.22h8.49A2.07,2.07,0,0,0,49.39,23.5Z"/></g><path class="cls-6" d="M32.8,37.44a13.91,13.91,0,1,1-13.9-13.9A13.91,13.91,0,0,1,32.8,37.44Z"/><path class="cls-7" d="M47.65,21.76a2.07,2.07,0,0,0-2.07-2.07H29.69a2.07,2.07,0,0,0,0,4.14h1.53c1.39,0,1.55,2.22.06,2.22H23.72a2.07,2.07,0,0,0,0,4.14H39.61a2.07,2.07,0,0,0,0-4.14H37c-1,0-1.16-2.22.08-2.22h8.49A2.07,2.07,0,0,0,47.65,21.76Z"/><path class="cls-3" d="M14.33,33.82,12.83,41h-1.3L11,38c-.14-.75-.24-1.48-.32-2.3h0c-.11.82-.22,1.54-.38,2.3L9.65,41H8.36L7,33.82H8.26l.49,3.12c.13.86.26,1.75.35,2.52h0c.09-.81.25-1.64.41-2.54l.58-3.1h1.21L11.85,37c.14.84.27,1.64.35,2.48h0c.1-.85.22-1.67.35-2.53l.52-3.09Z"/><path class="cls-3" d="M18.61,41H15.06V33.82h3.42V35h-2.2v1.74h2.07v1.14H16.28v2h2.33Z"/><path class="cls-3" d="M22.51,37.18A1.76,1.76,0,0,1,23.75,39a2.13,2.13,0,0,1-.58,1.48,3,3,0,0,1-2.27.67A8.42,8.42,0,0,1,19.55,41V33.92a7.58,7.58,0,0,1,1.61-.15,2.66,2.66,0,0,1,1.75.46,1.67,1.67,0,0,1,.62,1.36,1.64,1.64,0,0,1-1,1.55Zm-1.3-.42a1,1,0,0,0,1.1-1,.88.88,0,0,0-1-1,2.94,2.94,0,0,0-.54,0v1.92ZM20.76,40a2.08,2.08,0,0,0,.49,0,1.09,1.09,0,0,0,1.22-1.15,1.12,1.12,0,0,0-1.26-1.14h-.45Z"/><path class="cls-3" d="M30.84,41H29.68l-.12-2.81c0-.95-.07-1.93-.06-2.84h0c-.18.86-.41,1.82-.62,2.63l-.78,2.91h-.92l-.71-2.87c-.2-.81-.4-1.79-.55-2.67h0c0,.91-.06,2-.1,2.87L25.64,41H24.53L25,33.82h1.51l.68,2.71c.21.88.39,1.72.53,2.55h0c.15-.81.34-1.68.55-2.55L29,33.82h1.5Z"/></svg>