<svg id="レイヤー_1" data-name="レイヤー 1" xmlns="http://www.w3.org/2000/svg" xmlns:xlink="http://www.w3.org/1999/xlink" viewBox="0 0 60 60"><defs><style>.cls-1{fill:none;}.cls-2{fill:#1faedb;}.cls-3{fill:#31394a;}.cls-4{clip-path:url(#clip-path);}.cls-5{fill:#216ead;}.cls-6{fill:#ffca5f;}.cls-7{fill:#fff;}</style><clipPath id="clip-path"><path class="cls-1" d="M52,55H18A2.1,2.1,0,0,1,15.91,53V7.14A2.1,2.1,0,0,1,18,5H45.86l2.56,5.39,5.63,2.8V53A2.1,2.1,0,0,1,52,55Z"/></clipPath></defs><path class="cls-2" d="M52,55H18A2.1,2.1,0,0,1,15.91,53V7.14A2.1,2.1,0,0,1,18,5H45.86l2.56,5.39,5.63,2.8V53A2.1,2.1,0,0,1,52,55Z"/><path class="cls-3" d="M45.86,5l8.19,8.19H47.92a2.06,2.06,0,0,1-2.06-2.06Z"/><g class="cls-4"><path class="cls-5" d="M34.54,39.18a13.91,13.91,0,1,1-13.9-13.9A13.9,13.9,0,0,1,34.54,39.18Z"/><path class="cls-5" d="M49.39,23.5a2.07,2.07,0,0,0-2.07-2.07H31.43a2.07,2.07,0,0,0,0,4.14H33c1.38,0,1.54,2.22.05,2.22H25.46a2.07,2.07,0,0,0,0,4.14H41.35a2.07,2.07,0,1,0,0-4.14h-2.6c-1,0-1.16-2.22.08-2.22h8.49A2.07,2.07,0,0,0,49.39,23.5Z"/></g><path class="cls-6" d="M32.8,37.44a13.91,13.91,0,1,1-13.9-13.9A13.91,13.91,0,0,1,32.8,37.44Z"/><path class="cls-7" d="M47.65,21.76a2.07,2.07,0,0,0-2.07-2.07H29.69a2.07,2.07,0,0,0,0,4.14h1.53c1.39,0,1.55,2.22.06,2.22H23.72a2.07,2.07,0,0,0,0,4.14H39.61a2.07,2.07,0,0,0,0-4.14H37c-1,0-1.16-2.22.08-2.22h8.49A2.07,2.07,0,0,0,47.65,21.76Z"/><path class="cls-3" d="M10.93,38.57c0,2-1,2.57-2.3,2.57a3.48,3.48,0,0,1-1-.14l.15-1.13a2.53,2.53,0,0,0,.69.1c.63,0,1-.28,1-1.41V33.82h1.39Z"/><path class="cls-3" d="M15.78,35.18a2.77,2.77,0,0,0-1.29-.31c-.73,0-1.06.4-1.06.8s.36.75,1.24,1.15c1.16.52,1.67,1.19,1.67,2.14,0,1.25-.94,2.17-2.62,2.17a4,4,0,0,1-1.78-.4l.27-1.17a3.21,3.21,0,0,0,1.56.41c.77,0,1.17-.37,1.17-.9s-.34-.83-1.14-1.18C12.71,37.42,12,36.75,12,35.81c0-1.18.92-2.09,2.48-2.09a3.47,3.47,0,0,1,1.55.33Z"/><path class="cls-3" d="M23.1,37.34c0,2.52-1.28,3.8-3.07,3.8s-3-1.59-3-3.69,1.2-3.74,3.08-3.74S23.1,35.42,23.1,37.34Zm-4.6.08c0,1.42.55,2.59,1.57,2.59s1.57-1.16,1.57-2.61-.5-2.56-1.56-2.56S18.5,36.1,18.5,37.42Z"/><path class="cls-3" d="M29.41,41H28l-1.55-3a25.27,25.27,0,0,1-1.11-2.42h0c.05.89.08,1.91.08,3.19V41H24.15V33.82h1.5l1.52,2.93a21.58,21.58,0,0,1,1.08,2.35h0c-.08-.91-.12-1.94-.12-3.11V33.82h1.26Z"/></svg>