<svg id="レイヤー_1" data-name="レイヤー 1" xmlns="http://www.w3.org/2000/svg" viewBox="0 0 130 70"><defs><style>.cls-1,.cls-4{fill:none;stroke-miterlimit:10;}.cls-1{stroke:#333;stroke-width:0.25px;}.cls-2{fill:#333;}.cls-3{fill:#0071bc;}.cls-4{stroke:#0071bc;}</style></defs><rect class="cls-1" x="16.86" y="7.89" width="33.04" height="49.25" transform="translate(65.89 -0.86) rotate(90)"/><line class="cls-1" x1="16" y1="16.34" x2="16" y2="23.26"/><polygon class="cls-2" points="15.58 16.83 16 16.41 16.42 16.83 16.42 16.47 16 16.05 15.58 16.47 15.58 16.83"/><polygon class="cls-2" points="15.58 22.77 16 23.19 16.42 22.77 16.42 23.13 16 23.55 15.58 23.13 15.58 22.77"/><path class="cls-2" d="M11.45,25.35a.58.58,0,0,1,.49.58.68.68,0,0,1-.77.67,1,1,0,0,1-.53-.14l.08-.19a.94.94,0,0,0,.46.13.46.46,0,0,0,.5-.47c0-.33-.28-.48-.58-.48H11v-.19h.14a.46.46,0,0,0,.5-.42.35.35,0,0,0-.39-.36.72.72,0,0,0-.41.15l-.08-.19a1,1,0,0,1,.54-.16.53.53,0,0,1,.59.53.56.56,0,0,1-.4.53Z"/><path class="cls-2" d="M12.27,25.45c0-.79.31-1.17.73-1.17s.69.4.69,1.14S13.42,26.6,13,26.6,12.27,26.2,12.27,25.45Zm1.17,0c0-.56-.14-.95-.45-.95s-.46.36-.46.95.17,1,.45,1S13.44,26,13.44,25.43Z"/><rect class="cls-1" x="22.6" y="16.92" width="22.98" height="36.17" transform="translate(69.09 0.92) rotate(90)"/><rect class="cls-1" x="33.33" y="28.29" width="12.34" height="19.43" transform="translate(77.5 -1.5) rotate(90)"/><line class="cls-1" x1="15.49" y1="23.71" x2="9.07" y2="23.71"/><polygon class="cls-2" points="15 23.28 15.42 23.71 15 24.13 15.36 24.13 15.78 23.71 15.36 23.28 15 23.28"/><polygon class="cls-2" points="9.56 23.28 9.14 23.71 9.56 24.13 9.2 24.13 8.78 23.71 9.2 23.28 9.56 23.28"/><path class="cls-2" d="M17.88,19.3a.58.58,0,0,1,.49.58.68.68,0,0,1-.76.67,1.06,1.06,0,0,1-.54-.14l.08-.19a.94.94,0,0,0,.46.13.45.45,0,0,0,.5-.47c0-.33-.28-.48-.57-.48h-.15v-.19h.15a.46.46,0,0,0,.49-.42.34.34,0,0,0-.38-.36.73.73,0,0,0-.42.15l-.07-.18a.9.9,0,0,1,.53-.17.53.53,0,0,1,.6.53.57.57,0,0,1-.41.53Z"/><path class="cls-2" d="M18.71,19.4c0-.79.31-1.17.73-1.17s.68.4.68,1.14-.27,1.18-.72,1.18S18.71,20.15,18.71,19.4Zm1.16,0c0-.56-.13-.95-.45-.95s-.46.36-.46.95.17,1,.45,1S19.87,19.92,19.87,19.38Z"/><line class="cls-1" x1="29.67" y1="24.04" x2="29.67" y2="30.97"/><polygon class="cls-2" points="29.25 24.54 29.67 24.11 30.1 24.54 30.1 24.18 29.67 23.75 29.25 24.18 29.25 24.54"/><polygon class="cls-2" points="29.25 30.47 29.67 30.89 30.1 30.47 30.1 30.83 29.67 31.25 29.25 30.83 29.25 30.47"/><line class="cls-1" x1="28.71" y1="32" x2="16.29" y2="32"/><polygon class="cls-2" points="28.22 31.58 28.64 32 28.22 32.42 28.58 32.42 29 32 28.58 31.58 28.22 31.58"/><polygon class="cls-2" points="16.78 31.58 16.36 32 16.78 32.42 16.42 32.42 16 32 16.42 31.58 16.78 31.58"/><path class="cls-2" d="M21.71,34.12a.61.61,0,0,1,.52-.27.63.63,0,0,1,.64.71.72.72,0,0,1-.69.79c-.44,0-.73-.36-.73-.94a1.25,1.25,0,0,1,1-1.36l.21,0v.21a.94.94,0,0,0-1,.88Zm.91.46c0-.34-.19-.54-.46-.54a.48.48,0,0,0-.46.42c0,.41.17.7.49.7S22.62,34.92,22.62,34.58Z"/><path class="cls-2" d="M23.1,34.2c0-.79.31-1.17.73-1.17s.69.4.69,1.14-.27,1.18-.72,1.18S23.1,35,23.1,34.2Zm1.17,0c0-.56-.14-1-.46-1s-.45.36-.45,1,.16,1,.45,1S24.27,34.71,24.27,34.18Z"/><path class="cls-2" d="M32.27,27.1a.57.57,0,0,1,.49.58.68.68,0,0,1-.76.67,1,1,0,0,1-.53-.14l.07-.19a.94.94,0,0,0,.46.13.45.45,0,0,0,.5-.47c0-.33-.27-.48-.57-.48h-.15V27h.15a.46.46,0,0,0,.5-.42.35.35,0,0,0-.39-.36.69.69,0,0,0-.41.15l-.08-.19a1,1,0,0,1,.54-.16.53.53,0,0,1,.59.53.55.55,0,0,1-.41.53Z"/><path class="cls-2" d="M33.1,27.2c0-.79.31-1.17.73-1.17s.69.4.69,1.14-.27,1.18-.72,1.18S33.1,28,33.1,27.2Zm1.17,0c0-.56-.14-.95-.46-.95s-.45.36-.45.95.16,1,.45,1S34.27,27.72,34.27,27.18Z"/><path class="cls-2" d="M34.75,37.68l-.54.79.56.85h-.29l-.25-.39-.17-.29h0c0,.1-.11.19-.17.29l-.24.39h-.28l.56-.84-.53-.8h.28l.24.36c.06.09.11.18.16.27h0c.05-.09.11-.18.17-.27l.23-.36Z"/><path class="cls-2" d="M35,37.93a.17.17,0,0,1,.17-.19.18.18,0,0,1,.18.19.18.18,0,0,1-.18.2A.18.18,0,0,1,35,37.93Zm0,1.23a.17.17,0,0,1,.17-.19.19.19,0,0,1,0,.38A.17.17,0,0,1,35,39.16Z"/><path class="cls-2" d="M35.84,38.12a.61.61,0,0,1,.52-.27.63.63,0,0,1,.64.71.72.72,0,0,1-.69.79c-.44,0-.73-.36-.73-.94a1.25,1.25,0,0,1,1-1.36l.21,0v.21a.94.94,0,0,0-1,.88Zm.91.46c0-.34-.19-.54-.46-.54a.48.48,0,0,0-.46.42c0,.41.17.7.49.7S36.75,38.92,36.75,38.58Z"/><path class="cls-2" d="M37.23,38.2c0-.79.31-1.17.73-1.17s.69.4.69,1.14-.28,1.18-.72,1.18S37.23,39,37.23,38.2Zm1.17,0c0-.56-.14-1-.46-1s-.45.36-.45,1,.16,1,.45,1S38.4,38.71,38.4,38.18Z"/><path class="cls-2" d="M39.32,38.92a4.06,4.06,0,0,1-.31.8l-.18,0A5.21,5.21,0,0,0,39,39Z"/><path class="cls-2" d="M41.61,37.68l-.44,1.16a2.64,2.64,0,0,1-.54,1,.72.72,0,0,1-.33.19l-.07-.21a1,1,0,0,0,.53-.59l0-.07-.58-1.51h.27l.36,1,.11.35h0a3.21,3.21,0,0,1,.1-.35l.33-1Z"/><path class="cls-2" d="M41.81,37.93a.18.18,0,1,1,.36,0,.18.18,0,0,1-.18.2A.19.19,0,0,1,41.81,37.93Zm0,1.23a.18.18,0,1,1,.18.19A.18.18,0,0,1,41.81,39.16Z"/><path class="cls-2" d="M43.23,38.1a.58.58,0,0,1,.49.58.68.68,0,0,1-.76.67,1.06,1.06,0,0,1-.54-.14L42.5,39a.94.94,0,0,0,.46.13.45.45,0,0,0,.5-.47c0-.33-.28-.48-.57-.48h-.15V38h.15a.46.46,0,0,0,.49-.42.34.34,0,0,0-.38-.36.73.73,0,0,0-.42.15l-.07-.19A1,1,0,0,1,43,37a.53.53,0,0,1,.6.53.57.57,0,0,1-.41.53Z"/><path class="cls-2" d="M44.06,38.2c0-.79.31-1.17.73-1.17s.69.4.69,1.14-.28,1.18-.73,1.18S44.06,39,44.06,38.2Zm1.16,0c0-.56-.13-1-.45-1s-.46.36-.46,1,.17,1,.45,1S45.22,38.71,45.22,38.18Z"/><rect class="cls-1" x="79.12" y="7.64" width="33.04" height="49.25" transform="translate(127.9 -63.37) rotate(90)"/><line class="cls-1" x1="78.26" y1="16.09" x2="78.26" y2="23.01"/><polygon class="cls-2" points="77.84 16.58 78.26 16.16 78.68 16.58 78.68 16.22 78.26 15.8 77.84 16.22 77.84 16.58"/><polygon class="cls-2" points="77.84 22.52 78.26 22.94 78.68 22.52 78.68 22.88 78.26 23.3 77.84 22.88 77.84 22.52"/><rect class="cls-1" x="84.86" y="16.67" width="22.98" height="36.17" transform="translate(131.1 -61.59) rotate(90)"/><rect class="cls-1" x="95.59" y="28.04" width="12.34" height="19.43" transform="translate(139.51 -64.01) rotate(90)"/><line class="cls-1" x1="77.75" y1="23.46" x2="71.33" y2="23.46"/><polygon class="cls-2" points="77.26 23.03 77.68 23.46 77.26 23.88 77.62 23.88 78.04 23.46 77.62 23.03 77.26 23.03"/><polygon class="cls-2" points="71.82 23.03 71.4 23.46 71.82 23.88 71.46 23.88 71.04 23.46 71.46 23.03 71.82 23.03"/><line class="cls-1" x1="91.93" y1="23.79" x2="91.93" y2="30.72"/><polygon class="cls-2" points="91.51 24.29 91.93 23.86 92.36 24.29 92.36 23.93 91.93 23.5 91.51 23.93 91.51 24.29"/><polygon class="cls-2" points="91.51 30.22 91.93 30.64 92.36 30.22 92.36 30.58 91.93 31 91.51 30.58 91.51 30.22"/><line class="cls-1" x1="90.97" y1="31.75" x2="78.55" y2="31.75"/><polygon class="cls-2" points="90.48 31.33 90.9 31.75 90.48 32.17 90.84 32.17 91.26 31.75 90.84 31.33 90.48 31.33"/><polygon class="cls-2" points="79.04 31.33 78.62 31.75 79.04 32.17 78.68 32.17 78.26 31.75 78.68 31.33 79.04 31.33"/><path class="cls-3" d="M80.87,35a.64.64,0,0,1-1.14-.43.74.74,0,0,1,.71-.79c.42,0,.69.37.69.94a1.24,1.24,0,0,1-.95,1.36,1.48,1.48,0,0,1-.27,0v-.21a1,1,0,0,0,.23,0,.93.93,0,0,0,.74-.88ZM80,34.55c0,.31.17.51.43.51s.47-.18.47-.36c0-.44-.16-.73-.46-.73S80,34.22,80,34.55Z"/><path class="cls-3" d="M81.37,35c0-.79.3-1.17.72-1.17s.69.4.69,1.14-.27,1.18-.72,1.18S81.37,35.7,81.37,35Zm1.16,0c0-.56-.14-1-.45-1s-.46.36-.46,1,.17,1,.45,1S82.53,35.47,82.53,34.93Z"/><path class="cls-3" d="M94,21.87a.61.61,0,0,1,.52-.27.64.64,0,0,1,.64.72.71.71,0,0,1-.69.78c-.44,0-.73-.36-.73-.94a1.25,1.25,0,0,1,1-1.36l.21,0V21a.94.94,0,0,0-1,.88Zm.91.46c0-.34-.19-.54-.46-.54a.48.48,0,0,0-.46.42c0,.41.17.7.49.7S94.88,22.67,94.88,22.33Z"/><path class="cls-3" d="M95.36,22c0-.79.31-1.17.73-1.17s.69.4.69,1.14-.28,1.18-.72,1.18S95.36,22.7,95.36,22Zm1.17,0c0-.56-.14-.95-.46-.95s-.45.36-.45.95.16,1,.45,1S96.53,22.47,96.53,21.93Z"/><path class="cls-2" d="M97,37.43l-.54.79.56.85h-.29l-.25-.39c-.06-.09-.11-.18-.17-.29h0c0,.1-.11.19-.17.29l-.24.39h-.28l.56-.84-.53-.8h.28l.24.36c.06.1.11.18.16.28h0a2.61,2.61,0,0,1,.17-.28l.23-.36Z"/><path class="cls-2" d="M97.25,37.68a.17.17,0,0,1,.17-.19.18.18,0,0,1,.18.19.18.18,0,0,1-.18.2A.18.18,0,0,1,97.25,37.68Zm0,1.23a.17.17,0,0,1,.17-.19.19.19,0,0,1,0,.38A.17.17,0,0,1,97.25,38.91Z"/><path class="cls-2" d="M99,38a.64.64,0,0,1-1.14-.43.74.74,0,0,1,.71-.79c.42,0,.69.37.69.94a1.23,1.23,0,0,1-1,1.36,1.33,1.33,0,0,1-.26,0v-.21a1,1,0,0,0,.23,0A.93.93,0,0,0,99,38Zm-.89-.45c0,.31.17.51.43.51s.47-.18.47-.36c0-.44-.16-.73-.46-.73S98.11,37.22,98.11,37.55Z"/><path class="cls-2" d="M99.49,38c0-.79.31-1.17.73-1.17s.69.4.69,1.14-.27,1.18-.72,1.18S99.49,38.7,99.49,38Zm1.17,0c0-.56-.14-1-.45-1s-.46.36-.46,1,.17,1,.45,1S100.66,38.47,100.66,37.93Z"/><path class="cls-2" d="M101.58,38.67a4.12,4.12,0,0,1-.3.8l-.19,0a5.21,5.21,0,0,0,.2-.78Z"/><path class="cls-2" d="M103.87,37.43l-.44,1.16a2.51,2.51,0,0,1-.54,1,.67.67,0,0,1-.33.19l-.07-.21A.93.93,0,0,0,103,39l0-.07-.58-1.51h.28l.35,1a3.42,3.42,0,0,1,.11.35h0c0-.1.06-.23.1-.35l.33-1Z"/><path class="cls-2" d="M104.08,37.68a.17.17,0,0,1,.17-.19.18.18,0,0,1,.18.19.18.18,0,0,1-.18.2A.18.18,0,0,1,104.08,37.68Zm0,1.23a.17.17,0,0,1,.17-.19.19.19,0,0,1,0,.38A.17.17,0,0,1,104.08,38.91Z"/><path class="cls-2" d="M104.93,37.87a.61.61,0,0,1,.52-.27.63.63,0,0,1,.64.71.72.72,0,0,1-.69.79c-.44,0-.73-.36-.73-.94a1.25,1.25,0,0,1,1-1.36l.21,0V37a.94.94,0,0,0-1,.88Zm.91.46c0-.34-.19-.54-.46-.54a.48.48,0,0,0-.46.42c0,.41.17.7.49.7S105.84,38.67,105.84,38.33Z"/><path class="cls-2" d="M106.32,38c0-.79.31-1.17.73-1.17s.69.4.69,1.14-.28,1.18-.72,1.18S106.32,38.7,106.32,38Zm1.17,0c0-.56-.14-1-.46-1s-.45.36-.45,1,.16,1,.45,1S107.49,38.47,107.49,37.93Z"/><rect class="cls-4" x="73.33" y="13.33" width="16.45" height="20.89" transform="translate(105.33 -57.78) rotate(90)"/><path class="cls-3" d="M74.05,12.44a2.54,2.54,0,0,0,0,.3v.64c0,.19,0,.62-.52.62a.75.75,0,0,1-.35-.08l0-.13a.6.6,0,0,0,.3.08c.2,0,.35-.11.35-.39v-.13h0a.39.39,0,0,1-.34.18.48.48,0,0,1-.45-.53.52.52,0,0,1,.47-.58.34.34,0,0,1,.33.19h0v-.17Zm-.18.42a.3.3,0,0,0-.29-.31c-.19,0-.33.17-.33.44s.11.41.33.41a.3.3,0,0,0,.29-.32Z"/><path class="cls-3" d="M74.53,13.53h-.17V11.94h.17Z"/><path class="cls-3" d="M75.79,13a.52.52,0,0,1-.51.58.51.51,0,0,1-.5-.56.51.51,0,0,1,.51-.58A.51.51,0,0,1,75.79,13Zm-.51-.43c-.23,0-.33.23-.33.44s.13.44.33.44.34-.2.34-.44S75.52,12.55,75.28,12.55Z"/><path class="cls-3" d="M76.21,12.62a.4.4,0,0,1,.36-.2c.26,0,.44.22.44.56s-.24.58-.47.58a.37.37,0,0,1-.35-.21h0v.18H76c0-.07,0-.18,0-.27V11.94h.16v.68Zm0,.49a.31.31,0,0,0,.31.31c.21,0,.33-.18.33-.44s-.11-.42-.32-.42a.33.33,0,0,0-.32.33Z"/><path class="cls-3" d="M78,13.27a2,2,0,0,0,0,.26h-.15l0-.14h0a.39.39,0,0,1-.33.17.3.3,0,0,1-.31-.31c0-.26.22-.4.63-.4,0-.1,0-.3-.25-.3a.52.52,0,0,0-.27.07l0-.11a.62.62,0,0,1,.34-.09c.3,0,.38.22.38.43Zm-.16-.3c-.21,0-.46,0-.46.26a.17.17,0,0,0,.18.2.26.26,0,0,0,.28-.26Z"/><path class="cls-3" d="M78.46,13.53h-.17V11.94h.17Z"/><path class="cls-3" d="M80,13.49a.58.58,0,0,1-.29.07.51.51,0,0,1-.52-.56.55.55,0,0,1,.56-.58.61.61,0,0,1,.26.06l0,.13a.44.44,0,0,0-.23,0,.43.43,0,0,0,0,.86.61.61,0,0,0,.23-.05Z"/><path class="cls-3" d="M81.15,13a.52.52,0,0,1-.51.58.51.51,0,0,1-.5-.56.52.52,0,0,1,.51-.58A.51.51,0,0,1,81.15,13Zm-.5-.43c-.24,0-.34.23-.34.44s.14.44.33.44.34-.2.34-.44S80.89,12.55,80.65,12.55Z"/><path class="cls-3" d="M82.33,13a.52.52,0,0,1-.51.58.51.51,0,0,1-.5-.56.51.51,0,0,1,.51-.58A.51.51,0,0,1,82.33,13Zm-.5-.43c-.24,0-.34.23-.34.44s.14.44.33.44.34-.2.34-.44S82.06,12.55,81.83,12.55Z"/><path class="cls-3" d="M83.08,12.58H83c-.18,0-.27.18-.27.36v.59h-.17v-.76c0-.11,0-.22,0-.32h.15v.21h0a.33.33,0,0,1,.3-.24h0Z"/><path class="cls-3" d="M84.15,13.26c0,.09,0,.2,0,.27H84v-.18h0a.4.4,0,0,1-.36.21c-.25,0-.45-.22-.45-.56a.52.52,0,0,1,.47-.58.35.35,0,0,1,.32.17h0v-.65h.16ZM84,12.88a.3.3,0,0,0-.3-.32c-.2,0-.33.19-.33.44s.11.42.33.42a.31.31,0,0,0,.3-.33Z"/><path class="cls-3" d="M84.56,12.25a.11.11,0,1,1,0-.22.1.1,0,0,1,.11.11A.1.1,0,0,1,84.56,12.25Zm.09,1.28h-.17V12.45h.17Z"/><path class="cls-3" d="M85.85,13.53h-.17v-.64c0-.18-.06-.33-.25-.33a.3.3,0,0,0-.29.31v.66H85v-.8c0-.12,0-.2,0-.29h.15v.18h0a.39.39,0,0,1,.35-.2c.14,0,.37.08.37.45Z"/><path class="cls-3" d="M86.88,13.27a2,2,0,0,0,0,.26h-.15l0-.14h0a.39.39,0,0,1-.33.17.3.3,0,0,1-.31-.31c0-.26.22-.4.63-.4,0-.1,0-.3-.25-.3a.52.52,0,0,0-.27.07l0-.11a.62.62,0,0,1,.34-.09c.3,0,.38.22.38.43Zm-.16-.3c-.21,0-.46,0-.46.26a.17.17,0,0,0,.18.2.26.26,0,0,0,.28-.26Z"/><path class="cls-3" d="M87.25,12.25l.16-.06v.26h.28v.13h-.28v.63c0,.13,0,.21.15.21l.11,0v.13a.32.32,0,0,1-.16,0c-.26,0-.27-.24-.27-.36v-.62h-.17v-.13h.17Z"/><path class="cls-3" d="M88.68,13.49a.75.75,0,0,1-.34.07.5.5,0,0,1-.51-.55.53.53,0,0,1,.49-.59.44.44,0,0,1,.42.5V13H88c0,.3.17.41.37.41a.67.67,0,0,0,.28-.05Zm-.1-.6c0-.15-.06-.34-.28-.34s-.28.18-.3.34Z"/><path class="cls-3" d="M89.5,12.61a.35.35,0,0,0-.21-.06c-.12,0-.19.07-.19.16s.07.14.21.2.27.16.27.32-.14.33-.38.33a.55.55,0,0,1-.29-.08l0-.13a.46.46,0,0,0,.24.08c.15,0,.22-.08.22-.18s-.06-.16-.2-.21-.28-.18-.28-.31a.33.33,0,0,1,.36-.31.46.46,0,0,1,.25.07Z"/><path class="cls-3" d="M32.35,35.26h-.17V33.67h.17Z"/><path class="cls-3" d="M33.61,34.71a.52.52,0,0,1-.51.58.51.51,0,0,1-.5-.56.51.51,0,0,1,.51-.58A.51.51,0,0,1,33.61,34.71Zm-.51-.43c-.23,0-.33.23-.33.44s.13.44.33.44.34-.2.34-.44S33.34,34.28,33.1,34.28Z"/><path class="cls-3" d="M34.59,35.22a.55.55,0,0,1-.29.07.52.52,0,0,1-.52-.56.54.54,0,0,1,.56-.58.49.49,0,0,1,.26.06l0,.13a.42.42,0,0,0-.23-.06.4.4,0,0,0-.38.44.39.39,0,0,0,.38.43.56.56,0,0,0,.23,0Z"/><path class="cls-3" d="M35.54,35a1.06,1.06,0,0,0,0,.26H35.4v-.14h0a.37.37,0,0,1-.32.17.3.3,0,0,1-.32-.31c0-.26.23-.41.63-.4,0-.1,0-.3-.24-.3a.47.47,0,0,0-.27.07l0-.11a.6.6,0,0,1,.33-.09c.31,0,.39.22.39.43Zm-.16-.3c-.21,0-.47,0-.47.26a.18.18,0,0,0,.19.2.27.27,0,0,0,.28-.26Z"/><path class="cls-3" d="M36,35.26h-.17V33.67H36Z"/><path class="cls-3" d="M37.56,35.22a.62.62,0,0,1-.3.07.52.52,0,0,1-.52-.56.55.55,0,0,1,.56-.58.49.49,0,0,1,.26.06l0,.13a.39.39,0,0,0-.22-.06.4.4,0,0,0-.39.44.39.39,0,0,0,.38.43.67.67,0,0,0,.24,0Z"/><path class="cls-3" d="M38.72,34.71a.52.52,0,0,1-.51.58.51.51,0,0,1-.5-.56.51.51,0,0,1,.51-.58A.51.51,0,0,1,38.72,34.71Zm-.51-.43c-.23,0-.33.23-.33.44s.13.44.33.44.34-.2.34-.44S38.45,34.28,38.21,34.28Z"/><path class="cls-3" d="M39.89,34.71a.51.51,0,0,1-.51.58.5.5,0,0,1-.49-.56.51.51,0,0,1,.51-.58A.5.5,0,0,1,39.89,34.71Zm-.5-.43c-.23,0-.33.23-.33.44s.13.44.33.44.33-.2.33-.44S39.63,34.28,39.39,34.28Z"/><path class="cls-3" d="M40.64,34.31h-.06c-.18,0-.27.18-.27.36v.59h-.16V34.5c0-.12,0-.22,0-.33h.14v.21h0a.33.33,0,0,1,.29-.23h0Z"/><path class="cls-3" d="M41.72,35v.27h-.14v-.18h0a.38.38,0,0,1-.35.21c-.25,0-.45-.22-.45-.56a.52.52,0,0,1,.47-.58.35.35,0,0,1,.32.17h0v-.65h.17Zm-.17-.38a.3.3,0,0,0-.29-.33c-.21,0-.33.2-.33.45s.11.42.32.42a.31.31,0,0,0,.3-.33Z"/><path class="cls-3" d="M42.13,34a.1.1,0,0,1-.11-.11.11.11,0,0,1,.11-.11.11.11,0,0,1,0,.22Zm.08,1.28h-.16V34.17h.16Z"/><path class="cls-3" d="M43.41,35.26h-.16v-.64c0-.18-.07-.33-.26-.33a.29.29,0,0,0-.28.31v.66h-.17v-.81a2.44,2.44,0,0,0,0-.28h.15v.18h0a.37.37,0,0,1,.34-.2c.14,0,.37.08.37.45Z"/><path class="cls-3" d="M44.45,35a2.09,2.09,0,0,0,0,.26h-.15v-.14h0a.38.38,0,0,1-.32.17.3.3,0,0,1-.32-.31c0-.26.23-.41.63-.4,0-.1,0-.3-.24-.3a.47.47,0,0,0-.27.07l0-.11a.6.6,0,0,1,.33-.09c.31,0,.39.22.39.43Zm-.17-.3c-.2,0-.46,0-.46.26a.18.18,0,0,0,.19.2.26.26,0,0,0,.27-.26Z"/><path class="cls-3" d="M44.81,34l.17-.06v.25h.28v.13H45v.63c0,.14,0,.22.14.22l.12,0v.13a.37.37,0,0,1-.17,0c-.26,0-.27-.24-.27-.36V34.3h-.16v-.13h.16Z"/><path class="cls-3" d="M46.25,35.22a.79.79,0,0,1-.34.07.5.5,0,0,1-.51-.55c0-.35.19-.59.49-.59a.45.45,0,0,1,.42.5s0,.06,0,.09h-.74a.36.36,0,0,0,.37.41.69.69,0,0,0,.29,0Zm-.11-.61a.29.29,0,0,0-.27-.34.33.33,0,0,0-.3.34Z"/><path class="cls-3" d="M47.07,34.34a.39.39,0,0,0-.22-.06.16.16,0,0,0-.18.16c0,.09.06.14.2.2s.28.16.28.32-.15.33-.39.33a.51.51,0,0,1-.28-.08l0-.13a.49.49,0,0,0,.25.08c.15,0,.22-.08.22-.18s-.06-.16-.2-.21-.28-.18-.28-.31a.32.32,0,0,1,.35-.31.51.51,0,0,1,.25.06Z"/></svg>