<svg xmlns="http://www.w3.org/2000/svg" viewBox="0 0 153.24 60.18"><defs><style>.cls-1{fill:#fff;}.cls-2,.cls-3{fill:#333;}.cls-3{font-size:4px;font-family:Osaka;}.cls-4{fill:none;stroke:#333;stroke-miterlimit:10;stroke-width:0.5px;}</style></defs><rect class="cls-1" x="0.25" y="0.43" width="59.5" height="59.5" rx="11.12"/><path class="cls-2" d="M52.63,6.5A10.89,10.89,0,0,1,63.5,17.37V54.63A10.89,10.89,0,0,1,52.63,65.5H15.37A10.89,10.89,0,0,1,4.5,54.63V17.37A10.89,10.89,0,0,1,15.37,6.5H52.63m0-.5H15.37A11.37,11.37,0,0,0,4,17.37V54.63A11.37,11.37,0,0,0,15.37,66H52.63A11.37,11.37,0,0,0,64,54.63V17.37A11.37,11.37,0,0,0,52.63,6Z" transform="translate(-4 -5.82)"/><rect class="cls-1" x="10.25" y="11.43" width="39.5" height="39.5"/><path class="cls-2" d="M53.5,17.5v39h-39v-39h39M54,17H14V57H54V17Z" transform="translate(-4 -5.82)"/><text class="cls-3" transform="translate(7.36 9.93)">x,y</text><text class="cls-3" transform="translate(21.35 32.7)">Rectangle</text><line class="cls-4" x1="10.57" y1="52.68" x2="49.93" y2="52.68"/><polygon class="cls-2" points="11.57 53.53 10.72 52.68 11.57 51.83 10.85 51.83 10 52.68 10.85 53.53 11.57 53.53"/><polygon class="cls-2" points="48.93 53.53 49.78 52.68 48.93 51.83 49.65 51.83 50.5 52.68 49.65 53.53 48.93 53.53"/><line class="cls-4" x1="51.5" y1="11.4" x2="51.5" y2="50.76"/><polygon class="cls-2" points="50.65 12.4 51.5 11.55 52.35 12.4 52.35 11.68 51.5 10.83 50.65 11.68 50.65 12.4"/><polygon class="cls-2" points="50.65 49.76 51.5 50.61 52.35 49.76 52.35 50.48 51.5 51.33 50.65 50.48 50.65 49.76"/><text class="cls-3" transform="translate(24.52 57.98)">width</text><text class="cls-3" transform="translate(61.77 31.98)">height</text><path class="cls-2" d="M145.87,6.32a10.89,10.89,0,0,1,10.87,10.87V54.45a10.89,10.89,0,0,1-10.87,10.87H108.61A10.88,10.88,0,0,1,97.74,54.45V17.19A10.88,10.88,0,0,1,108.61,6.32h37.26m0-.5H108.61A11.37,11.37,0,0,0,97.24,17.19V54.45a11.37,11.37,0,0,0,11.37,11.37h37.26a11.37,11.37,0,0,0,11.37-11.37V17.19A11.37,11.37,0,0,0,145.87,5.82Z" transform="translate(-4 -5.82)"/><line class="cls-4" x1="142.5" y1="0.18" x2="142.5" y2="59.68"/><line class="cls-4" x1="104.07" y1="0.33" x2="104.07" y2="59.83"/><line class="cls-4" x1="152.82" y1="11.08" x2="93.32" y2="11.08"/><line class="cls-4" x1="152.82" y1="49.08" x2="93.32" y2="49.08"/><text class="cls-3" transform="translate(97.44 8.21)">fix</text><line class="cls-4" x1="99.04" y1="13.64" x2="99.04" y2="46.11"/><polygon class="cls-2" points="98.2 14.63 99.05 13.78 99.89 14.63 99.89 13.91 99.05 13.06 98.2 13.91 98.2 14.63"/><polygon class="cls-2" points="98.2 45.11 99.05 45.96 99.89 45.11 99.89 45.83 99.05 46.68 98.2 45.83 98.2 45.11"/><line class="cls-4" x1="148.04" y1="14.08" x2="148.04" y2="46.55"/><polygon class="cls-2" points="147.2 15.07 148.04 14.23 148.89 15.07 148.89 14.36 148.04 13.51 147.2 14.36 147.2 15.07"/><polygon class="cls-2" points="147.2 45.55 148.04 46.4 148.89 45.55 148.89 46.27 148.04 47.12 147.2 46.27 147.2 45.55"/><line class="cls-4" x1="139.28" y1="5.31" x2="106.81" y2="5.31"/><polygon class="cls-2" points="138.28 4.47 139.13 5.32 138.28 6.16 139 6.16 139.85 5.32 139 4.47 138.28 4.47"/><polygon class="cls-2" points="107.81 4.47 106.96 5.32 107.81 6.16 107.08 6.16 106.24 5.32 107.08 4.47 107.81 4.47"/><line class="cls-4" x1="139.28" y1="54.31" x2="106.81" y2="54.31"/><polygon class="cls-2" points="138.28 53.47 139.13 54.31 138.28 55.16 139 55.16 139.85 54.31 139 53.47 138.28 53.47"/><polygon class="cls-2" points="107.81 53.47 106.96 54.31 107.81 55.16 107.08 55.16 106.24 54.31 107.08 53.47 107.81 53.47"/><line class="cls-4" x1="139.28" y1="30.31" x2="106.81" y2="30.31"/><polygon class="cls-2" points="138.28 29.47 139.13 30.32 138.28 31.16 139 31.16 139.85 30.32 139 29.47 138.28 29.47"/><polygon class="cls-2" points="107.81 29.47 106.96 30.32 107.81 31.16 107.08 31.16 106.24 30.32 107.08 29.47 107.81 29.47"/><line class="cls-4" x1="123.04" y1="14.08" x2="123.04" y2="46.55"/><polygon class="cls-2" points="122.2 15.07 123.05 14.23 123.89 15.07 123.89 14.36 123.05 13.51 122.2 14.36 122.2 15.07"/><polygon class="cls-2" points="122.2 45.55 123.05 46.4 123.89 45.55 123.89 46.27 123.05 47.12 122.2 46.27 122.2 45.55"/><line class="cls-4" x1="111.56" y1="18.83" x2="134.53" y2="41.8"/><polygon class="cls-2" points="111.67 20.14 111.67 18.94 112.87 18.94 112.36 18.43 111.16 18.43 111.16 19.63 111.67 20.14"/><polygon class="cls-2" points="133.22 41.69 134.42 41.69 134.42 40.49 134.93 41 134.93 42.2 133.73 42.2 133.22 41.69"/><line class="cls-4" x1="134.53" y1="18.83" x2="111.56" y2="41.8"/><polygon class="cls-2" points="133.22 18.94 134.42 18.94 134.42 20.14 134.93 19.63 134.93 18.43 133.73 18.43 133.22 18.94"/><polygon class="cls-2" points="111.67 40.49 111.67 41.69 112.87 41.69 112.36 42.2 111.16 42.2 111.16 41 111.67 40.49"/><text class="cls-3" transform="translate(144.81 8.58)">fix</text><text class="cls-3" transform="translate(97.81 54.58)">fix</text><text class="cls-3" transform="translate(144.81 54.58)">fix</text></svg>