<svg xmlns="http://www.w3.org/2000/svg" xmlns:xlink="http://www.w3.org/1999/xlink" xmlns:lucid="lucid" width="820" height="217.22"><g transform="translate(-20 -160)" lucid:page-tab-id="0_0"><path d="M320 180c22.1 0 40 17.9 40 40s-17.9 40-40 40H200c-22.1 0-40-17.9-40-40s17.9-40 40-40z" stroke="#5e5e5e" stroke-width="3" fill="#fff"/><use xlink:href="#a" transform="matrix(1,0,0,1,165,185) translate(37.222222222222214 43.27777777777777)"/><path d="M660 180c22.1 0 40 17.9 40 40s-17.9 40-40 40H540c-22.1 0-40-17.9-40-40s17.9-40 40-40z" fill="#fff"/><path d="M676.88 183.8l2.27 1.07 3.78 2.4m9.78 9.83l.98 1.32 2.43 4.35.14.33m3.58 13.42l.08.6.1 2.88-.22 3.48m-3.6 13.4l-1.05 2.27-2.4 3.78m-9.83 9.78l-1.32.98-4.35 2.43-.33.14m-13.42 3.58l-.6.08-2.88.1h-2.86m-11.43 0H640m-11.43 0h-5.7m-11.44 0h-5.72m-11.4 0h-5.73m-11.43 0h-5.7M560 260h-5.7m-11.44 0H540l-3.48-.22m-13.4-3.6l-2.27-1.05-3.78-2.4m-9.78-9.83l-.98-1.32-2.43-4.35-.14-.33m-3.58-13.42l-.08-.6-.1-2.88.22-3.48m3.6-13.4l1.05-2.27 2.4-3.78m9.83-9.78l1.32-.98 4.35-2.43.33-.14m13.42-3.58l.6-.08 2.88-.1h2.86m11.43 0h5.7m11.43 0h5.7m11.44 0h5.72m11.4 0h5.73m11.43 0h5.7m11.44 0h5.7m11.44 0H660l3.48.22" stroke="#5e5e5e" stroke-width="3" fill="none"/><use xlink:href="#b" transform="matrix(1,0,0,1,505,185) translate(34.222222222222214 43.27777777777777)"/><path d="M266.66 260.66v.67H266l-.68.02v8.04l-.64-.03h-.66l-.02-.67v-.66h-2.64V269.4H264v1.32h1.32V272h1.34v-10.65h2.66v8.04h1.36V266.7h2.66V269.4h1.34V266.7h1.3v-1.34H270.68v-4.02h-1.34v-.68l-.02-.66h-2.66v.66zM276 268.04v1.35h1.34V268.03h1.32v6.67H280v-6.66h-1.3c-.02 0-.04-.15-.04-.66v-.7H276v1.36zM260 270.72v1.35h1.34v1.33h1.32v2.68H264v1.35h1.32v1.33h1.34V281.45h6.66v-1.33H268v-1.34h-1.34v-1.33l-.66-.02h-.66l-.02-.65v-.67H264v-2.68h-1.34V272.04H262l-.66.03v-2.68H260v1.32z" stroke="#000" stroke-opacity="0" stroke-width=".04"/><path d="M269.32 274.73v2.68h1.36v-5.35h-1.36v2.68zM272 274.73v2.68h1.34v-5.35H272v2.68zM274.66 274.73v2.68H276V280.1h-1.32v-1.34h-1.34v1.33h1.34v1.34h2.66V277.4h1.32v-2.67h-1.32v2.68H276v-5.35h-1.34v2.68z" stroke="#000" stroke-opacity="0" stroke-width=".04"/><path d="M600 260v16.08l4.82-2.14 3.22 7.5 2.68-1.33-3.16-7.4 4.5-1.98L600 260z" stroke="#000" stroke-opacity="0" stroke-width="9.38" fill="#030104"/><path d="M40 306c0-3.3 2.7-6 6-6h768c3.3 0 6 2.7 6 6v45.22c0 3.32-2.7 6-6 6H46c-3.3 0-6-2.68-6-6z" stroke="#000" stroke-opacity="0" stroke-width="3" fill="#fff" fill-opacity="0"/><use xlink:href="#c" transform="matrix(1,0,0,1,45,305) translate(17.955555555555577 34.77777777777777)"/><use xlink:href="#d" transform="matrix(1,0,0,1,45,305) translate(100.13333333333335 34.77777777777777)"/><use xlink:href="#e" transform="matrix(1,0,0,1,45,305) translate(182.28888888888892 34.77777777777777)"/><use xlink:href="#f" transform="matrix(1,0,0,1,45,305) translate(261.5777777777778 34.77777777777777)"/><use xlink:href="#g" transform="matrix(1,0,0,1,45,305) translate(301.22222222222223 34.77777777777777)"/><use xlink:href="#h" transform="matrix(1,0,0,1,45,305) translate(352.4888888888889 34.77777777777777)"/><use xlink:href="#i" transform="matrix(1,0,0,1,45,305) translate(427.4888888888889 34.77777777777777)"/><use xlink:href="#j" transform="matrix(1,0,0,1,45,305) translate(482.6222222222222 34.77777777777777)"/><use xlink:href="#k" transform="matrix(1,0,0,1,45,305) translate(512 34.77777777777777)"/><use xlink:href="#l" transform="matrix(1,0,0,1,45,305) translate(594.8666666666666 34.77777777777777)"/><use xlink:href="#m" transform="matrix(1,0,0,1,45,305) translate(642.1777777777777 34.77777777777777)"/><use xlink:href="#n" transform="matrix(1,0,0,1,45,305) translate(688.5111111111112 34.77777777777777)"/><use xlink:href="#o" transform="matrix(1,0,0,1,45,305) translate(718.8222222222223 34.77777777777777)"/><defs><path fill="#333" d="M209 0L13-543h95c51 155 104 312 153 469h4c48-158 101-314 153-469h90L315 0H209" id="p"/><path fill="#333" d="M92 0v-543h91V0H92zm46-655c-36 0-63-25-63-59 0-37 27-59 63-59s63 22 63 59c0 34-27 59-63 59" id="q"/><path fill="#333" d="M234 13C157 13 83-19 31-62l45-60c47 38 96 64 161 64 72 0 107-38 107-85 0-55-64-80-124-103-76-28-162-65-162-157 0-86 69-154 187-154 67 0 126 28 169 61l-44 59c-38-28-76-48-125-48-68 0-99 36-99 78 0 52 59 71 120 94 79 30 166 62 166 165 0 88-70 161-198 161" id="r"/><path fill="#333" d="M567-281C567-18 341 97 176-56h-3l-8 56H92v-796h91c0 106 2 214-3 316 49-43 110-77 170-77 141 0 217 110 217 276zM183-120C317-1 471-73 472-279c0-120-40-201-143-201-46 0-94 26-146 75v285" id="s"/><path fill="#333" d="M241 5C155 32 92-8 92-108v-688h91v694c3 37 15 43 45 37" id="t"/><path fill="#333" d="M311 13C167 13 51-92 51-271c0-176 119-286 245-286 154-3 234 132 212 307H142c6 116 77 190 180 190 53 0 96-16 136-43l33 60c-48 31-106 56-180 56zM141-315h291c0-110-50-169-135-169-77 0-145 62-156 169" id="u"/><path fill="#333" d="M139-390c-36 0-66-29-66-69 0-42 30-71 66-71s66 29 66 71c0 40-30 69-66 69zm0 403c-36 0-66-28-66-69s30-71 66-71 66 30 66 71-30 69-66 69" id="v"/><path fill="#333" d="M263 13c-116 0-155-72-155-181v-301H27v-69l85-5 11-152h76v152h147v74H199v303c0 67 21 105 84 105 19 0 44-7 62-14l18 68c-31 10-67 20-100 20" id="w"/><path fill="#333" d="M92 0v-543h75l8 99h3c50-86 117-137 212-101l-17 80c-18-7-31-9-53-9-45 0-101 32-137 125V0H92" id="x"/><path fill="#333" d="M250 13C136 13 85-61 85-199v-344h91v333c0 101 30 144 102 144 56 0 95-27 147-92v-385h91V0h-76l-7-85h-3c-51 59-105 98-180 98" id="y"/><g id="a"><use transform="matrix(0.022222222222222223,0,0,0.022222222222222223,0,0)" xlink:href="#p"/><use transform="matrix(0.022222222222222223,0,0,0.022222222222222223,11.577777777777778,0)" xlink:href="#q"/><use transform="matrix(0.022222222222222223,0,0,0.022222222222222223,17.68888888888889,0)" xlink:href="#r"/><use transform="matrix(0.022222222222222223,0,0,0.022222222222222223,28.08888888888889,0)" xlink:href="#q"/><use transform="matrix(0.022222222222222223,0,0,0.022222222222222223,34.2,0)" xlink:href="#s"/><use transform="matrix(0.022222222222222223,0,0,0.022222222222222223,47.93333333333334,0)" xlink:href="#t"/><use transform="matrix(0.022222222222222223,0,0,0.022222222222222223,54.266666666666666,0)" xlink:href="#u"/><use transform="matrix(0.022222222222222223,0,0,0.022222222222222223,66.57777777777778,0)" xlink:href="#v"/><use transform="matrix(0.022222222222222223,0,0,0.022222222222222223,72.75555555555556,0)" xlink:href="#w"/><use transform="matrix(0.022222222222222223,0,0,0.022222222222222223,81.13333333333334,0)" xlink:href="#x"/><use transform="matrix(0.022222222222222223,0,0,0.022222222222222223,89.75555555555556,0)" xlink:href="#y"/><use transform="matrix(0.022222222222222223,0,0,0.022222222222222223,103.24444444444445,0)" xlink:href="#u"/></g><path fill="#333" d="M356-791l-20 69c-75-34-144-8-138 93v86h115v74H198V0h-91v-469H33v-69l74-5v-87c0-110 50-179 158-179 33 0 65 7 91 18" id="z"/><path fill="#333" d="M217 13C126 13 58-43 58-141c0-118 103-177 334-203 0-70-23-137-112-137-63 0-120 29-163 58l-36-63c50-32 127-71 214-71 132 0 188 89 188 223V0h-75l-8-65h-3c-52 43-113 78-180 78zm26-73c53 0 96-25 149-72v-152c-183 22-245 67-245 137 0 62 42 87 96 87" id="A"/><g id="b"><use transform="matrix(0.022222222222222223,0,0,0.022222222222222223,0,0)" xlink:href="#p"/><use transform="matrix(0.022222222222222223,0,0,0.022222222222222223,11.577777777777778,0)" xlink:href="#q"/><use transform="matrix(0.022222222222222223,0,0,0.022222222222222223,17.68888888888889,0)" xlink:href="#r"/><use transform="matrix(0.022222222222222223,0,0,0.022222222222222223,28.08888888888889,0)" xlink:href="#q"/><use transform="matrix(0.022222222222222223,0,0,0.022222222222222223,34.2,0)" xlink:href="#s"/><use transform="matrix(0.022222222222222223,0,0,0.022222222222222223,47.93333333333334,0)" xlink:href="#t"/><use transform="matrix(0.022222222222222223,0,0,0.022222222222222223,54.266666666666666,0)" xlink:href="#u"/><use transform="matrix(0.022222222222222223,0,0,0.022222222222222223,66.57777777777778,0)" xlink:href="#v"/><use transform="matrix(0.022222222222222223,0,0,0.022222222222222223,72.75555555555556,0)" xlink:href="#z"/><use transform="matrix(0.022222222222222223,0,0,0.022222222222222223,79.97777777777779,0)" xlink:href="#A"/><use transform="matrix(0.022222222222222223,0,0,0.022222222222222223,92.51111111111112,0)" xlink:href="#t"/><use transform="matrix(0.022222222222222223,0,0,0.022222222222222223,98.84444444444445,0)" xlink:href="#r"/><use transform="matrix(0.022222222222222223,0,0,0.022222222222222223,109.24444444444445,0)" xlink:href="#u"/></g><path fill="#333" d="M100 0v-733h93v307h342v-307h92V0h-92v-346H193V0h-93" id="B"/><path fill="#333" d="M277 13C141 13 53-90 53-271c-5-249 231-368 388-222-8-95-4-201-5-303h91V0h-74c-4-21-4-46-11-64-43 42-100 77-165 77zm20-76c50 0 94-25 139-75v-285c-123-120-291-42-289 151 0 131 54 209 150 209" id="C"/><path fill="#333" d="M92 0v-543h75l8 78h3c52-51 108-92 182-92 114 0 166 74 166 213V0h-91v-332c0-102-31-145-103-145-56 0-94 28-149 83V0H92" id="D"/><g id="c"><use transform="matrix(0.022222222222222223,0,0,0.022222222222222223,0,0)" xlink:href="#B"/><use transform="matrix(0.022222222222222223,0,0,0.022222222222222223,16.177777777777777,0)" xlink:href="#q"/><use transform="matrix(0.022222222222222223,0,0,0.022222222222222223,22.288888888888888,0)" xlink:href="#C"/><use transform="matrix(0.022222222222222223,0,0,0.022222222222222223,36.06666666666666,0)" xlink:href="#C"/><use transform="matrix(0.022222222222222223,0,0,0.022222222222222223,49.84444444444445,0)" xlink:href="#u"/><use transform="matrix(0.022222222222222223,0,0,0.022222222222222223,62.155555555555544,0)" xlink:href="#D"/></g><path fill="#333" d="M303 13C170 13 51-91 51-271c0-181 119-286 252-286s252 105 252 286C555-91 436 13 303 13zm0-76c94 0 158-83 158-208s-64-210-158-210-157 85-157 210S209-63 303-63" id="E"/><path fill="#333" d="M36 243c-33 0-61-7-80-14l18-70c14 5 32 10 51 10 55 0 68-41 68-107v-605h91V62c0 111-41 181-148 181zm103-898c-36 0-63-25-63-59 0-37 27-59 63-59 35 0 63 22 63 59 0 34-28 59-63 59" id="F"/><path fill="#333" d="M306 13C162 13 51-91 51-271c0-181 123-286 262-286 71 0 120 30 159 64l-47 61c-32-29-65-49-109-49-98 0-170 85-170 210S214-63 314-63c50 0 94-23 128-54l39 61c-48 44-110 69-175 69" id="G"/><g id="d"><use transform="matrix(0.022222222222222223,0,0,0.022222222222222223,0,0)" xlink:href="#E"/><use transform="matrix(0.022222222222222223,0,0,0.022222222222222223,13.466666666666667,0)" xlink:href="#s"/><use transform="matrix(0.022222222222222223,0,0,0.022222222222222223,27.2,0)" xlink:href="#F"/><use transform="matrix(0.022222222222222223,0,0,0.022222222222222223,33.31111111111112,0)" xlink:href="#u"/><use transform="matrix(0.022222222222222223,0,0,0.022222222222222223,45.62222222222223,0)" xlink:href="#G"/><use transform="matrix(0.022222222222222223,0,0,0.022222222222222223,56.93333333333334,0)" xlink:href="#w"/><use transform="matrix(0.022222222222222223,0,0,0.022222222222222223,65.31111111111112,0)" xlink:href="#r"/></g><g id="e"><use transform="matrix(0.022222222222222223,0,0,0.022222222222222223,0,0)" xlink:href="#G"/><use transform="matrix(0.022222222222222223,0,0,0.022222222222222223,11.311111111111112,0)" xlink:href="#A"/><use transform="matrix(0.022222222222222223,0,0,0.022222222222222223,23.844444444444445,0)" xlink:href="#D"/><use transform="matrix(0.022222222222222223,0,0,0.022222222222222223,37.422222222222224,0)" xlink:href="#D"/><use transform="matrix(0.022222222222222223,0,0,0.022222222222222223,51,0)" xlink:href="#E"/><use transform="matrix(0.022222222222222223,0,0,0.022222222222222223,64.46666666666667,0)" xlink:href="#w"/></g><path fill="#333" d="M275 250c-133 0-225-52-225-146 0-46 30-90 81-123v-4c-29-17-50-46-50-89 0-45 33-81 61-101v-4c-36-29-71-81-71-146-2-145 144-228 280-180h189v70H429c26 25 44 65 44 112 4 144-147 228-279 170-52 42-57 131 60 124h106c126 0 189 40 189 129 0 101-106 188-274 188zm0-484c62 0 115-50 115-129s-51-127-115-127-116 47-116 127c0 79 53 129 116 129zm13 422c104 0 173-55 173-112 0-103-183-49-275-76-106 75-57 194 102 188" id="H"/><g id="f"><use transform="matrix(0.022222222222222223,0,0,0.022222222222222223,0,0)" xlink:href="#H"/><use transform="matrix(0.022222222222222223,0,0,0.022222222222222223,12.511111111111111,0)" xlink:href="#u"/><use transform="matrix(0.022222222222222223,0,0,0.022222222222222223,24.822222222222223,0)" xlink:href="#w"/></g><g id="g"><use transform="matrix(0.022222222222222223,0,0,0.022222222222222223,0,0)" xlink:href="#y"/><use transform="matrix(0.022222222222222223,0,0,0.022222222222222223,13.488888888888889,0)" xlink:href="#r"/><use transform="matrix(0.022222222222222223,0,0,0.022222222222222223,23.88888888888889,0)" xlink:href="#u"/><use transform="matrix(0.022222222222222223,0,0,0.022222222222222223,36.2,0)" xlink:href="#x"/></g><g id="h"><use transform="matrix(0.022222222222222223,0,0,0.022222222222222223,0,0)" xlink:href="#u"/><use transform="matrix(0.022222222222222223,0,0,0.022222222222222223,12.311111111111112,0)" xlink:href="#p"/><use transform="matrix(0.022222222222222223,0,0,0.022222222222222223,23.88888888888889,0)" xlink:href="#u"/><use transform="matrix(0.022222222222222223,0,0,0.022222222222222223,36.2,0)" xlink:href="#D"/><use transform="matrix(0.022222222222222223,0,0,0.022222222222222223,49.77777777777778,0)" xlink:href="#w"/><use transform="matrix(0.022222222222222223,0,0,0.022222222222222223,58.15555555555556,0)" xlink:href="#r"/></g><path fill="#333" d="M92 0v-796h91c0 111 1 223-3 330 50-50 106-91 180-91 114 0 166 74 166 213V0h-91v-332c0-102-31-145-103-145-56 0-94 28-149 83V0H92" id="I"/><g id="i"><use transform="matrix(0.022222222222222223,0,0,0.022222222222222223,0,0)" xlink:href="#r"/><use transform="matrix(0.022222222222222223,0,0,0.022222222222222223,10.4,0)" xlink:href="#y"/><use transform="matrix(0.022222222222222223,0,0,0.022222222222222223,23.88888888888889,0)" xlink:href="#G"/><use transform="matrix(0.022222222222222223,0,0,0.022222222222222223,35.2,0)" xlink:href="#I"/></g><g id="j"><use transform="matrix(0.022222222222222223,0,0,0.022222222222222223,0,0)" xlink:href="#A"/><use transform="matrix(0.022222222222222223,0,0,0.022222222222222223,12.533333333333333,0)" xlink:href="#r"/></g><path fill="#333" d="M92 0v-543h75l8 79h3c47-52 104-93 169-93 83 0 128 40 150 104 56-61 113-104 179-104 112 0 165 74 165 213V0h-91v-332c0-102-32-145-101-145-42 0-86 27-137 83V0h-91v-332c0-102-32-145-101-145-41 0-87 27-137 83V0H92" id="J"/><path fill="#333" d="M75 190l-22-54c62-27 99-75 100-136-42 5-77-17-78-63 0-39 32-64 69-64 48 0 77 41 77 108 0 96-56 171-146 209" id="K"/><g id="k"><use transform="matrix(0.022222222222222223,0,0,0.022222222222222223,0,0)" xlink:href="#J"/><use transform="matrix(0.022222222222222223,0,0,0.022222222222222223,20.57777777777778,0)" xlink:href="#E"/><use transform="matrix(0.022222222222222223,0,0,0.022222222222222223,34.044444444444444,0)" xlink:href="#y"/><use transform="matrix(0.022222222222222223,0,0,0.022222222222222223,47.53333333333334,0)" xlink:href="#r"/><use transform="matrix(0.022222222222222223,0,0,0.022222222222222223,57.93333333333332,0)" xlink:href="#u"/><use transform="matrix(0.022222222222222223,0,0,0.022222222222222223,70.24444444444444,0)" xlink:href="#K"/></g><path fill="#333" d="M92 229v-772h75l8 62h3c49-40 110-76 173-76 140 0 216 110 216 277C567-22 349 94 181-50c3 91 2 185 2 279H92zm91-349C317-1 471-73 472-279c0-120-40-201-143-201-46 0-93 26-146 75v285" id="L"/><g id="l"><use transform="matrix(0.022222222222222223,0,0,0.022222222222222223,0,0)" xlink:href="#w"/><use transform="matrix(0.022222222222222223,0,0,0.022222222222222223,8.377777777777778,0)" xlink:href="#A"/><use transform="matrix(0.022222222222222223,0,0,0.022222222222222223,20.91111111111111,0)" xlink:href="#L"/><use transform="matrix(0.022222222222222223,0,0,0.022222222222222223,34.68888888888889,0)" xlink:href="#K"/></g><g id="m"><use transform="matrix(0.022222222222222223,0,0,0.022222222222222223,0,0)" xlink:href="#A"/><use transform="matrix(0.022222222222222223,0,0,0.022222222222222223,12.533333333333333,0)" xlink:href="#D"/><use transform="matrix(0.022222222222222223,0,0,0.022222222222222223,26.11111111111111,0)" xlink:href="#C"/></g><g id="n"><use transform="matrix(0.022222222222222223,0,0,0.022222222222222223,0,0)" xlink:href="#r"/><use transform="matrix(0.022222222222222223,0,0,0.022222222222222223,10.4,0)" xlink:href="#E"/></g><path fill="#333" d="M139 13c-36 0-66-28-66-69s30-71 66-71 66 30 66 71-30 69-66 69" id="M"/><g id="o"><use transform="matrix(0.022222222222222223,0,0,0.022222222222222223,0,0)" xlink:href="#E"/><use transform="matrix(0.022222222222222223,0,0,0.022222222222222223,13.466666666666667,0)" xlink:href="#D"/><use transform="matrix(0.022222222222222223,0,0,0.022222222222222223,27.044444444444444,0)" xlink:href="#M"/></g></defs></g></svg>