<svg id="レイヤー_1" data-name="レイヤー 1" xmlns="http://www.w3.org/2000/svg" viewBox="0 0 60 60"><defs><style>.cls-1{fill:#1f2530;}.cls-2{fill:#fff;}.cls-3{fill:#1faedb;}.cls-4{fill:#ffc248;}.cls-5{fill:#31394a;}.cls-6{fill:#546277;}.cls-7{fill:#216ead;}</style></defs><path class="cls-1" d="M50.19,6.71H36.73a3,3,0,0,0-2.32,1.11l-2.23,2.76H10.23a3.53,3.53,0,0,0-3.54,3.53V38a3.53,3.53,0,0,0,3.54,3.53H48.82A3.53,3.53,0,0,0,52.35,38V8.87A2.16,2.16,0,0,0,50.19,6.71Z"/><rect class="cls-2" x="34.96" y="17.67" width="14.16" height="10.52"/><rect class="cls-3" x="23.07" y="15.74" width="17.33" height="10.52"/><rect class="cls-4" x="10.3" y="13.62" width="20.3" height="11.55"/><path class="cls-5" d="M10.23,41.48H48.82A3.53,3.53,0,0,0,52.35,38V20.36H6.69V38A3.53,3.53,0,0,0,10.23,41.48Z"/><path class="cls-6" d="M41.49,34.93a2.77,2.77,0,0,1-2.78,2.78H17.38a2.78,2.78,0,0,1,0-5.55h2.07c1.86,0,2.07-3,.06-3H6.69V23.61h24a2.78,2.78,0,0,1,0,5.56H27.21c-1.34,0-1.55,3,.11,3H38.71A2.77,2.77,0,0,1,41.49,34.93Z"/><path class="cls-3" d="M28.55,35.29l-7,10.31a1.1,1.1,0,0,0,1,1.71H36.56a1.11,1.11,0,0,0,1-1.71l-7-10.31A1.19,1.19,0,0,0,28.55,35.29Z"/><path class="cls-7" d="M28.76,43.92,23.22,52A.86.86,0,0,0,24,53.37H35.06A.87.87,0,0,0,35.83,52l-5.55-8.11A.93.93,0,0,0,28.76,43.92Z"/></svg>