<svg xmlns="http://www.w3.org/2000/svg" xmlns:xlink="http://www.w3.org/1999/xlink" viewBox="0 0 60 60"><defs><clipPath id="a"><circle cx="28.96" cy="28.72" r="22.68" style="fill:none"/></clipPath><clipPath id="b"><path d="M33.13,50.67V36.31A2.91,2.91,0,0,1,36,33.4H50.4a2.94,2.94,0,0,1,2.91,3V50.77a2.9,2.9,0,0,1-2.91,2.82H36A2.91,2.91,0,0,1,33.13,50.67Z" style="fill:none"/></clipPath></defs><path d="M51.13,33.51A22.68,22.68,0,0,0,29,6.05,22.46,22.46,0,0,0,18.53,8.6V5.33a1.41,1.41,0,0,0-2.17-1.24l-13.15,9a1.52,1.52,0,0,0,0,2.47L8.43,19.1A22.68,22.68,0,0,0,29,51.4a22.32,22.32,0,0,0,4.2-.4A2.92,2.92,0,0,0,36,53.59H50.4a2.9,2.9,0,0,0,2.91-2.82V36.31A2.9,2.9,0,0,0,51.13,33.51Z" style="fill:#fff;stroke:#fff;stroke-linecap:round;stroke-linejoin:round;stroke-width:3px"/><circle cx="28.86" cy="28.62" r="22.68" style="fill:#1faedb"/><g style="clip-path:url(#a)"><path d="M51.22,15.08a1.91,1.91,0,0,0-1.91-1.91H34.64a1.91,1.91,0,0,0,0,3.82h1.42c1.28,0,1.42,2.05,0,2.05H31a1.91,1.91,0,0,0,0,3.82H43.79a1.91,1.91,0,1,0,0-3.82h-2.4c-.92,0-1.06-2.05.08-2.05h7.84A1.92,1.92,0,0,0,51.22,15.08Z" style="fill:#55e7ff"/><path d="M5.46,35.43a2.07,2.07,0,0,1,2.07-2.07H23.42a2.07,2.07,0,0,1,0,4.14H21.88c-1.38,0-1.54,2.22-.05,2.22h7.56a2.07,2.07,0,0,1,0,4.14H14.5a2.07,2.07,0,0,1,0-4.14h1.6c1,0,1.16-2.22-.08-2.22H7.53A2.07,2.07,0,0,1,5.46,35.43Z" style="fill:#55e7ff"/></g><path d="M23.79,30.35l-3.6-3.6a5.12,5.12,0,0,1,7.24-7.24l4.14,4.15a5.12,5.12,0,0,1,0,7.24c-.55.56-2.58-1.47-2-2a2.26,2.26,0,0,0,0-3.19L25.4,21.54a2.26,2.26,0,1,0-3.19,3.19l2,2A5.14,5.14,0,0,0,23.79,30.35Z" style="fill:#fff"/><path d="M30.67,37.23l-4.15-4.14a5.12,5.12,0,0,1,0-7.24c.56-.56,2.58,1.46,2,2a2.26,2.26,0,0,0,0,3.19l4.15,4.15A2.26,2.26,0,0,0,35.88,32l-2-2a4.39,4.39,0,0,0,.37-3.67L37.91,30a5.12,5.12,0,0,1-7.24,7.24Z" style="fill:#fff"/><path d="M23.79,8.52l-5.26,3.6V5.33a1.41,1.41,0,0,0-2.17-1.24l-13.15,9a1.52,1.52,0,0,0,0,2.47l13.15,9a1.41,1.41,0,0,0,2.17-1.24V16.49l5.26,3.6a.8.8,0,0,0,1.23-.7V9.22A.8.8,0,0,0,23.79,8.52Z" style="fill:#31394a"/><path d="M9.89,15.84a1.54,1.54,0,1,1,1.54-1.54A1.54,1.54,0,0,1,9.89,15.84Z" style="fill:#ffc248"/><path d="M33.13,50.67V36.31A2.91,2.91,0,0,1,36,33.4H50.4a2.91,2.91,0,0,1,2.91,2.91V50.67a2.91,2.91,0,0,1-2.91,2.92H36A2.91,2.91,0,0,1,33.13,50.67Z" style="fill:#31394a"/><g style="clip-path:url(#b)"><path d="M46.09,55.24,49,55.09l.45,1.12L50,57.57,53.42,56l-1.24-2.34,2-2.18,2.51,1.06L58,49.06l-.6-.18-2-.61-.15-2.93,2.58-1-1.56-3.41-2.43,1.29-2.18-2,1.1-2.58-3.52-1.3L48.41,39l-2.93.15-1-2.6L41,38.12l1.28,2.42-2,2.17-2.52-1.07-1.27,3.52,2.56.79.15,2.93-2.49,1,1.58,3.38L40.68,52l2.17,2-1,2.44,3.5,1.29Zm-1.94-8.05a3.13,3.13,0,1,1,3.29,3A3.13,3.13,0,0,1,44.15,47.19Z" style="fill:#ffc248"/></g></svg>