<svg xmlns="http://www.w3.org/2000/svg" viewBox="0 0 60 60"><polygon points="29.52 12.34 17.26 5.26 5 12.34 5 26.5 17.26 33.58 17.26 47.74 29.52 54.82 41.78 47.74 41.78 33.58 54.04 26.5 54.04 12.34 41.78 5.26 29.52 12.34" style="fill:#fff;stroke:#fff;stroke-linecap:round;stroke-linejoin:round;stroke-width:3px"/><polygon points="17.26 47.74 29.52 54.82 41.78 47.74 41.78 33.58 29.52 26.5 17.26 33.58 17.26 47.74" style="fill:#277db7"/><polygon points="41.78 33.58 29.52 40.66 29.52 54.82 41.78 47.74 41.78 33.58" style="fill:#135c8e"/><polygon points="17.26 33.58 17.26 47.74 29.52 54.82 29.52 40.66 17.26 33.58" style="fill:#216ead"/><polygon points="7.82 25.39 17.26 33.58 29.52 26.5 29.52 12.34 17.26 5.26 5 12.34 7.82 25.39" style="fill:#ffd576"/><polygon points="29.52 12.34 17.26 19.42 17.26 33.58 29.52 26.5 29.52 12.34" style="fill:#ffab31"/><polygon points="5 12.34 5 26.5 17.26 33.58 17.26 19.42 5 12.34" style="fill:#ffc248"/><path d="M21.39,23.91H19.87l-.15-3.23c0-1.1-.1-2.22-.09-3.27h0c-.24,1-.54,2.09-.82,3l-1,3.36H16.55l-.92-3.3c-.27-.94-.53-2.07-.72-3.08h0c0,1.05-.08,2.28-.13,3.3l-.17,3.2H13.13l.56-8.31h2l.89,3.13c.27,1,.51,2,.69,2.92h0c.19-.92.44-1.93.72-2.92L19,15.6h2Z" style="fill:#fff"/><polygon points="29.52 26.5 41.78 33.58 50.94 25.55 54.04 12.34 41.78 5.26 29.52 12.34 29.52 26.5" style="fill:#2fcdf2"/><polygon points="54.04 12.34 41.78 19.42 41.78 33.58 54.04 26.5 54.04 12.34" style="fill:#0e93c1"/><polygon points="29.52 12.34 29.52 26.5 41.78 33.58 41.78 19.42 29.52 12.34" style="fill:#1faedb"/><path d="M45.16,15.6l-2.52,8.31H40.81L38.4,15.6h1.75l.94,3.68c.25,1,.5,2,.67,3h0c.19-1,.44-2,.69-3l1-3.68Z" style="fill:#fff"/><path d="M28.5,37.69,26,46H24.14l-2.41-8.31h1.75l.94,3.67c.25,1,.5,2,.67,3h0c.19-1,.44-2,.7-3l1-3.67Z" style="fill:#fff"/><path d="M37.39,46H35.87l-.15-3.23c0-1.11-.1-2.23-.09-3.28h0c-.24,1-.54,2.1-.82,3l-1,3.36H32.55l-.92-3.31c-.27-.94-.53-2.06-.72-3.08h0c0,1-.08,2.28-.13,3.31L30.58,46H29.13l.56-8.31h2l.89,3.12c.27,1,.51,2,.69,2.93h0c.19-.93.44-1.94.72-2.93L35,37.69h2Z" style="fill:#fff"/></svg>