<svg xmlns="http://www.w3.org/2000/svg" viewBox="0 0 60 60"><path d="M31.26,5.83a1.63,1.63,0,0,0-1.74,1.62A1.61,1.61,0,0,0,31,9.06a20.93,20.93,0,1,1-16.22,6l1.44,1.44a.56.56,0,0,0,1-.39v-5a.55.55,0,0,0-.55-.55h-5a.56.56,0,0,0-.39.95l1.28,1.28a24.13,24.13,0,1,0,18.77-7Z" style="fill:#fff;stroke:#fff;stroke-linecap:round;stroke-linejoin:round;stroke-width:3px"/><path d="M14.52,28.58V25.75a.56.56,0,0,0-.95-.4L9.4,29.52a.56.56,0,0,0,0,.79l4.17,4.17a.56.56,0,0,0,.95-.39V31.25H26.36l-5.51,5.51-1-1a.56.56,0,0,0-.95.4V40a.55.55,0,0,0,.56.55h3.8a.55.55,0,0,0,.39-1l-1-1,5.51-5.51V44.92H25.35a.55.55,0,0,0-.39.95L29.13,50a.54.54,0,0,0,.78,0l4.17-4.17a.55.55,0,0,0-.39-.95H30.86V33.14l5.47,5.48-.95,1a.55.55,0,0,0,.39,1h3.8a.55.55,0,0,0,.56-.55v-3.8a.56.56,0,0,0-1-.4l-1,1-5.48-5.48H44.52v2.84a.56.56,0,0,0,.95.39l4.17-4.17a.56.56,0,0,0,0-.79l-4.17-4.17a.56.56,0,0,0-.95.4v2.83H32.68l5.51-5.51,1,1a.56.56,0,0,0,1-.4v-3.8a.56.56,0,0,0-.56-.55h-3.8a.55.55,0,0,0-.39,1l1,1-5.51,5.51V14.91h2.83a.55.55,0,0,0,.39-.95L29.91,9.79a.54.54,0,0,0-.78,0L25,14a.55.55,0,0,0,.39.95h2.83V26.69l-5.47-5.47.95-1a.55.55,0,0,0-.39-1h-3.8a.56.56,0,0,0-.56.55v3.8a.56.56,0,0,0,.95.4l1-1,5.48,5.48Z" style="fill:#fff;stroke:#fff;stroke-linecap:round;stroke-linejoin:round;stroke-width:3px"/><path d="M26.33,53.85A24.14,24.14,0,0,1,14.16,11.29l2.06,2.49A20.91,20.91,0,1,0,31,9.06a1.61,1.61,0,0,1-1.48-1.61h0a1.63,1.63,0,0,1,1.74-1.62,24.15,24.15,0,1,1-4.93,48Z" style="fill:#ffc248"/><path d="M11.6,10.58h5a.55.55,0,0,1,.55.55v5a.56.56,0,0,1-1,.39l-5-5A.56.56,0,0,1,11.6,10.58Z" style="fill:#ffc248"/><path d="M13.57,34.48,9.4,30.31a.56.56,0,0,1,0-.79l4.17-4.17a.56.56,0,0,1,.95.4v8.34A.56.56,0,0,1,13.57,34.48Z" style="fill:#216ead"/><path d="M45.47,25.35l4.17,4.17a.56.56,0,0,1,0,.79l-4.17,4.17a.56.56,0,0,1-.95-.39V25.75A.56.56,0,0,1,45.47,25.35Z" style="fill:#216ead"/><rect x="13.15" y="28.58" width="32.87" height="2.67" style="fill:#216ead"/><path d="M25,14l4.17-4.17a.54.54,0,0,1,.78,0L34.08,14a.55.55,0,0,1-.39.95H25.35A.55.55,0,0,1,25,14Z" style="fill:#216ead"/><path d="M34.08,45.87,29.91,50a.54.54,0,0,1-.78,0L25,45.87a.55.55,0,0,1,.39-.95h8.34A.55.55,0,0,1,34.08,45.87Z" style="fill:#216ead"/><rect x="13.08" y="28.64" width="32.87" height="2.67" transform="translate(59.5 0.46) rotate(90)" style="fill:#216ead"/><path d="M18.91,23.67V19.86a.56.56,0,0,1,.56-.55h3.8a.55.55,0,0,1,.39,1l-3.8,3.8A.56.56,0,0,1,18.91,23.67Z" style="fill:#1faedb"/><path d="M40.13,36.17V40a.55.55,0,0,1-.56.55h-3.8a.55.55,0,0,1-.39-1l3.8-3.8A.56.56,0,0,1,40.13,36.17Z" style="fill:#1faedb"/><rect x="17.53" y="28.61" width="24.04" height="2.67" transform="translate(29.83 -12.12) rotate(45)" style="fill:#1faedb"/><path d="M35.77,19.31h3.8a.56.56,0,0,1,.56.55v3.81a.56.56,0,0,1-1,.39l-3.8-3.8A.55.55,0,0,1,35.77,19.31Z" style="fill:#1faedb"/><path d="M23.27,40.52h-3.8a.55.55,0,0,1-.56-.55v-3.8a.56.56,0,0,1,.95-.4l3.8,3.8A.55.55,0,0,1,23.27,40.52Z" style="fill:#1faedb"/><rect x="17.47" y="28.66" width="24.04" height="2.58" transform="translate(71.52 30.27) rotate(135)" style="fill:#1faedb"/></svg>