<svg xmlns="http://www.w3.org/2000/svg" viewBox="0 0 60 60"><path d="M48.87,18.12a5.57,5.57,0,0,0-4.11,5.81A7.43,7.43,0,0,0,32.9,29.17l-5-9a12.51,12.51,0,0,0-.13-2.36H43a2.07,2.07,0,1,0,0-4.14h-2.6c-1,0-1.16-2.23.08-2.23H49a2.07,2.07,0,1,0,0-4.14H33.09a2.07,2.07,0,0,0,0,4.14h1.53c1.39,0,1.55,2.23.06,2.23H27.12a2.21,2.21,0,0,0-.68.12l0-.07A12.26,12.26,0,1,0,9.06,30l5.19,9.36a1.12,1.12,0,0,0,1.51.43,1.1,1.1,0,0,0,.43-1.51l-3.76-6.79a11.49,11.49,0,0,0,2,.38l.41.74,1.11,2h0l4.33,7.8A9.17,9.17,0,1,0,31,34.7l-3.4-6.12h0L26.17,26a12.94,12.94,0,0,0,1.12-2.42l.17.32,1.18,2.13h0L31,30.3a1.1,1.1,0,0,0,1.51.43,1.12,1.12,0,0,0,.38-.37,7,7,0,0,0,.23,1.43,7.44,7.44,0,0,0,14.46-3.45,5.5,5.5,0,0,0,4.17.53,5.56,5.56,0,1,0-2.87-10.75ZM27,34.86a9.65,9.65,0,0,0-2.11.87L23.35,33h0l-1.49-2.67A12.19,12.19,0,0,0,24.72,28l3.67,6.63A9.66,9.66,0,0,0,27,34.86Zm-5.78,4.68-2.73-4.92h0L17,31.89a12.08,12.08,0,0,0,2.87-.67l1.5,2.7h0L23.08,37A9.11,9.11,0,0,0,21.22,39.54Z" style="fill:#fff;stroke:#fff;stroke-linecap:round;stroke-linejoin:round;stroke-width:3px"/><path d="M51.05,9.4A2.07,2.07,0,0,0,49,7.33H33.09a2.07,2.07,0,0,0,0,4.14h1.53c1.39,0,1.55,2.23.06,2.23H27.12a2.07,2.07,0,0,0,0,4.14H43a2.07,2.07,0,1,0,0-4.14h-2.6c-1,0-1.16-2.23.08-2.23H49A2.07,2.07,0,0,0,51.05,9.4Z" style="fill:#55e7ff"/><path d="M55.68,22.06a5.56,5.56,0,1,1-6.81-3.94A5.56,5.56,0,0,1,55.68,22.06Z" style="fill:#1faedb"/><path d="M47.48,28a7.44,7.44,0,1,1-9.1-5.26A7.44,7.44,0,0,1,47.48,28Z" style="fill:#216ead"/><path d="M38.23,41.36A9.17,9.17,0,1,1,27,34.86,9.18,9.18,0,0,1,38.23,41.36Z" style="fill:#0e5177"/><path d="M19.29,25.64l6,10.86A1.12,1.12,0,0,1,24.88,38a1.1,1.1,0,0,1-1.5-.43l-6-10.86a1.12,1.12,0,0,1,.43-1.51A1.1,1.1,0,0,1,19.29,25.64Z" style="fill:#ffc248"/><path d="M8.18,23.85l8,14.45a1.1,1.1,0,0,1-.43,1.51,1.12,1.12,0,0,1-1.51-.43l-8-14.46a1.09,1.09,0,0,1,.43-1.5A1.11,1.11,0,0,1,8.18,23.85Z" style="fill:#ffc248"/><path d="M14.33,27.12l8,14.45a1.12,1.12,0,0,1-.44,1.51,1.1,1.1,0,0,1-1.5-.43l-8-14.46a1.11,1.11,0,0,1,1.94-1.07Z" style="fill:#ffc248"/><path d="M24.91,14.77l8,14.46A1.11,1.11,0,0,1,31,30.3L23,15.85a1.12,1.12,0,0,1,.44-1.51A1.1,1.1,0,0,1,24.91,14.77Z" style="fill:#ffc248"/><path d="M24.59,23.18l8,14.46a1.11,1.11,0,0,1-1.94,1.08l-8-14.46a1.11,1.11,0,1,1,1.94-1.08Z" style="fill:#ffc248"/><path d="M17.78,25.21a1.12,1.12,0,0,0-.43,1.51l4,7.2A12,12,0,0,0,23,33.2l.39-.25-4.06-7.31A1.1,1.1,0,0,0,17.78,25.21Z" style="fill:#ffa329"/><path d="M6.67,23.42a1.09,1.09,0,0,0-.43,1.5l4.31,7.79A12.3,12.3,0,0,0,14,34.26L8.18,23.85A1.11,1.11,0,0,0,6.67,23.42Z" style="fill:#ffa329"/><path d="M12.82,26.69a1.1,1.1,0,0,0-.43,1.5L16,34.63a11.27,11.27,0,0,0,2.53,0l-4.16-7.5A1.1,1.1,0,0,0,12.82,26.69Z" style="fill:#ffa329"/><path d="M23.41,14.34A1.12,1.12,0,0,0,23,15.85l5.67,10.22a12.08,12.08,0,0,0,.47-3.74l-4.2-7.56A1.1,1.1,0,0,0,23.41,14.34Z" style="fill:#ffa329"/><path d="M23.08,22.75a1.12,1.12,0,0,0-.43,1.51l3.51,6.33a11.61,11.61,0,0,0,1.42-2l-3-5.4A1.12,1.12,0,0,0,23.08,22.75Z" style="fill:#ffa329"/><path d="M9.74,9A12.26,12.26,0,1,1,5,25.64,12.25,12.25,0,0,1,9.74,9Z" style="fill:#31394a"/><path d="M27.27,39.88,29,43a1.11,1.11,0,0,1-1.94,1.08L25.33,41a1.11,1.11,0,0,1,.43-1.51A1.12,1.12,0,0,1,27.27,39.88Z" style="fill:#ffc248"/></svg>