<svg xmlns="http://www.w3.org/2000/svg" xmlns:xlink="http://www.w3.org/1999/xlink" viewBox="0 0 60 60"><defs><style>.cls-1{fill:none;}.cls-2{fill:#55e7ff;}.cls-3{fill:#1faedb;}.cls-4{clip-path:url(#clip-path);}.cls-5{fill:#1c96d3;}.cls-6{fill:#216ead;}.cls-7{fill:#31394a;}.cls-8{fill:#ffca5f;}.cls-9{fill:#ffab31;}.cls-10{fill:#fff;}</style><clipPath id="clip-path"><path class="cls-1" d="M44.94,24.34a11.43,11.43,0,0,0-22.8-1.08,9.18,9.18,0,0,1,3.5,3.21l5.93,9.12A11.36,11.36,0,0,0,44.94,24.34Z"/></clipPath></defs><circle class="cls-2" cx="46.01" cy="32.21" r="9.91"/><path class="cls-3" d="M44.94,24.34a11.43,11.43,0,0,0-22.8-1.08,9.18,9.18,0,0,1,3.5,3.21l5.93,9.12A11.36,11.36,0,0,0,44.94,24.34Z"/><g class="cls-4"><circle class="cls-5" cx="18.48" cy="19.78" r="15.36"/></g><path class="cls-6" d="M9.82,25.56l3-1.92a9.27,9.27,0,0,1,12.8,2.83l1.68,2.58a13.43,13.43,0,1,0-23.21-9.2A13.36,13.36,0,0,0,6.6,27.63l.2-.14Z"/><path class="cls-7" d="M11.44,27.83h0c3.63-2.32,12.49-.55,14.81,3.09l4.24,6.65a10.69,10.69,0,0,1-3.27,14.78l-.2.14a10.7,10.7,0,0,1-14.78-3.27L8,42.56C5.67,38.93,7.8,30.15,11.44,27.83Z"/><path class="cls-8" d="M13.42,25.32,10.87,27l-.15,9.82,6.4,0,9.13-5.82L24.2,27.71A7.8,7.8,0,0,0,13.42,25.32Z"/><path class="cls-9" d="M10.87,27,8.33,28.57A7.8,7.8,0,0,0,5.94,39.35L8,42.56l9.13-5.82Z"/><rect class="cls-10" x="14.42" y="31.31" width="2.8" height="6.79" rx="1.4" transform="translate(-16.18 13.95) rotate(-32.53)"/></svg>