<svg xmlns="http://www.w3.org/2000/svg" viewBox="0 0 60 60"><path d="M52.81,30V11a4.25,4.25,0,0,0-4.25-4.25H10.45A4.25,4.25,0,0,0,6.2,11V49.1a4.24,4.24,0,0,0,4.25,4.24H29.5V43.88l-1.2-4.73,1.2-3.74V30h0v5.37l1.34,4.87-1.34,3.6v9.46H48.59a4.24,4.24,0,0,0,4.25-4.24V30Zm-32.54,1-4.42-1,3.27-1.46,5,1.46Zm9.23-6.35h0L27.44,21l2.06-4.59L31.77,21ZM39,31.23,34.86,30h0l4.56-1,4,1h0Z" style="fill:#fff;stroke:#fff;stroke-linecap:round;stroke-linejoin:round;stroke-width:3px"/><path d="M52.81,30H43.36l-4-1-4.56,1H29.5V24.72L31.77,21,29.5,16.37V6.74H48.56A4.25,4.25,0,0,1,52.81,11Z" style="fill:#31394a"/><path d="M34.83,30h8.53V27.81l4.3-1.49-2.34-5.93L41.23,22.3l-3.54-3.54,2-4.17L33.87,12l-1.58,4.34H29.5v8.35A5.35,5.35,0,0,1,34.83,30Z" style="fill:#ffc248"/><path d="M29.5,30H24.14l-5-1.46L15.85,30H6.2V11a4.25,4.25,0,0,1,4.25-4.25H29.5v9.63L27.44,21l2.06,3.75Z" style="fill:#1faedb"/><path d="M25.73,11.88l-5.94,2.36,2,4.26L18.24,22l-4.31-2.1-2.51,5.89,4.43,1.61V30h8.29a5.35,5.35,0,0,1,5.34-5.33h0V16.37H27.29Z" style="fill:#55e7ff"/><path d="M29.5,53.34h-19A4.24,4.24,0,0,1,6.2,49.1V30h9.65l4.42,1,3.87-1H29.5v5.37l-1.2,3.74,1.2,4.73Z" style="fill:#ffc248"/><path d="M29.48,35.41a5.35,5.35,0,0,1-5.35-5.35v0H15.85v2.4L11.35,34l2.41,5.92L18,38l3.54,3.54-2,4.2,5.88,2.47,1.56-4.28H29.5V35.41Z" style="fill:#31394a"/><path d="M48.59,53.34H29.54V43.88l1.34-3.6-1.34-4.87V30h5.32L39,31.23,43.39,30h9.45V49.1A4.24,4.24,0,0,1,48.59,53.34Z" style="fill:#1faedb"/><path d="M34.86,30.06a5.34,5.34,0,0,1-5.32,5.35v8.47H32l1.49,4.32,5.9-2.4-1.89-4L41,38.21l4.07,2,2.5-5.86-4.18-1.52V30H34.86Z" style="fill:#216ead"/></svg>