<svg xmlns="http://www.w3.org/2000/svg" viewBox="0 0 60 60"><path d="M50.29,6.42H8.75A3.52,3.52,0,0,0,5,9.62V50.46a3.52,3.52,0,0,0,3.76,3.2H50.29a3.51,3.51,0,0,0,3.76-3.2V9.62A3.51,3.51,0,0,0,50.29,6.42Z" style="fill:#fff;stroke:#fff;stroke-linecap:round;stroke-linejoin:round;stroke-width:3px"/><path d="M54.05,45.79v4.67a3.51,3.51,0,0,1-3.76,3.2H8.75A3.52,3.52,0,0,1,5,50.46V45.79l22.59-3Z" style="fill:#31394a"/><polygon points="54.05 37.92 54.05 45.79 4.99 45.79 4.99 37.92 29.52 34.61 54.05 37.92" style="fill:#2a5275"/><polygon points="54.05 30.04 54.05 37.92 4.99 37.92 4.99 30.04 29.63 27.45 54.05 30.04" style="fill:#216ead"/><polygon points="54.05 22.17 54.05 30.04 4.99 30.04 4.99 22.17 29.63 19.86 54.05 22.17" style="fill:#2f98cc"/><polygon points="54.05 14.29 54.05 22.17 4.99 22.17 4.99 14.29 30.61 11.5 54.05 14.29" style="fill:#42cbea"/><path d="M54.05,9.62v4.67H5V9.62a3.52,3.52,0,0,1,3.76-3.2H50.29A3.51,3.51,0,0,1,54.05,9.62Z" style="fill:#55e7ff"/><path d="M47.31,29,39,34.69V24.5a1.85,1.85,0,0,0-2.87-1.63L22.63,27.21l-4,7.4A2.14,2.14,0,0,0,18.71,38L36.1,49.89A1.86,1.86,0,0,0,39,48.25V37.64l8.34,5.69a1,1,0,0,0,1.52-.87V29.86A1,1,0,0,0,47.31,29ZM27.08,38a2.06,2.06,0,1,1,2.06-2A2.05,2.05,0,0,1,27.08,38Z" style="fill:#31394a;opacity:0.6000000000000001"/><path d="M44.76,23.88l-8.34,5.7V19.39a1.86,1.86,0,0,0-2.87-1.64L16.16,29.63a2,2,0,0,0,0,3.27L33.55,44.78a1.86,1.86,0,0,0,2.87-1.64V32.52l8.34,5.7a1,1,0,0,0,1.52-.87V24.75A1,1,0,0,0,44.76,23.88ZM24.68,33.27A2.32,2.32,0,1,1,27,31,2.32,2.32,0,0,1,24.68,33.27Z" style="fill:#ffc248"/><circle cx="17.84" cy="21.84" r="1.98" style="fill:#fff"/><circle cx="13.9" cy="14.76" r="3.26" style="fill:#fff"/></svg>