<?xml version="1.0" encoding="UTF-8"?>
<svg id="_レイヤー_3" data-name="レイヤー 3" xmlns="http://www.w3.org/2000/svg" xmlns:xlink="http://www.w3.org/1999/xlink" viewBox="0 0 60 60">
  <defs>
    <clipPath id="clippath">
      <path d="m52.62,55.67H18.67c-1.15,0-2.09-.94-2.09-2.09V7.76c0-1.15.94-2.09,2.09-2.09h27.86l2.56,5.39,5.63,2.8v39.71c0,1.15-.94,2.09-2.09,2.09Z" style="fill: none;"/>
    </clipPath>
  </defs>
  <path d="m54.72,13.86l-8.19-8.19h-27.86c-1.15,0-2.09.94-2.09,2.09v4.04c-7.37,3.56-12.45,11.11-12.45,19.84s5.08,16.28,12.45,19.84v2.1c0,1.15.94,2.09,2.09,2.09h33.95c1.15,0,2.09-.94,2.09-2.09V13.86Z" style="fill: #fff; stroke: #fff; stroke-linecap: round; stroke-linejoin: round; stroke-width: 3px;"/>
  <g>
    <path d="m52.62,55.67H18.67c-1.15,0-2.09-.94-2.09-2.09V7.76c0-1.15.94-2.09,2.09-2.09h27.86l2.56,5.39,5.63,2.8v39.71c0,1.15-.94,2.09-2.09,2.09Z" style="fill: #1faedb;"/>
    <path d="m46.53,5.67l8.19,8.19h-6.12c-1.14,0-2.07-.93-2.07-2.07v-6.12Z" style="fill: #31394a;"/>
  </g>
  <g style="clip-path: url(#clippath);">
    <path d="m49.84,33.85c0,11.86-9.62,21.48-21.48,21.48S6.88,45.72,6.88,33.85,16.5,12.37,28.36,12.37s21.48,9.62,21.48,21.48Z" style="fill: #216ead;"/>
    <path d="m60.28,33.57c0-1.14-.93-2.07-2.07-2.07h-15.89c-1.14,0-2.07.93-2.07,2.07s.93,2.07,2.07,2.07h1.54c1.39,0,1.54,2.22.05,2.22h-7.56c-1.14,0-2.07.93-2.07,2.07s.93,2.07,2.07,2.07h15.89c1.14,0,2.07-.93,2.07-2.07s-.93-2.07-2.07-2.07h-2.6c-1,0-1.16-2.22.08-2.22h8.49c1.14,0,2.07-.93,2.07-2.07Z" style="fill: #216ead;"/>
  </g>
  <path d="m48.17,31.64c0,12.16-9.86,22.02-22.02,22.02S4.12,43.8,4.12,31.64,13.98,9.62,26.15,9.62s22.02,9.86,22.02,22.02Z" style="fill: #ffca5f;"/>
  <path d="m58.54,31.83c0-1.14-.93-2.07-2.07-2.07h-15.89c-1.14,0-2.07.93-2.07,2.07s.93,2.07,2.07,2.07h1.54c1.39,0,1.54,2.22.05,2.22h-7.56c-1.14,0-2.07.93-2.07,2.07s.93,2.07,2.07,2.07h15.89c1.14,0,2.07-.93,2.07-2.07s-.93-2.07-2.07-2.07h-2.6c-1,0-1.16-2.22.08-2.22h8.49c1.14,0,2.07-.93,2.07-2.07Z" style="fill: #fff;"/>
  <g>
    <g>
      <path d="m18.36,17.51c0,1.69-.81,2.19-1.96,2.19-.28,0-.62-.05-.83-.12l.13-.97c.15.05.36.09.59.09.54,0,.89-.24.89-1.2v-4.03h1.18v4.04Z" style="fill: #31394a;"/>
      <path d="m22.48,14.63c-.22-.11-.59-.26-1.09-.26-.62,0-.9.33-.9.68,0,.44.3.64,1.05.98.98.44,1.42,1.01,1.42,1.81,0,1.07-.81,1.85-2.24,1.85-.61,0-1.22-.17-1.51-.34l.23-.99c.32.19.83.34,1.33.34.65,0,1-.31,1-.77s-.3-.7-.97-1c-.93-.4-1.5-.97-1.5-1.77,0-1.01.79-1.78,2.12-1.78.58,0,1.03.14,1.32.28l-.25.97Z" style="fill: #31394a;"/>
      <path d="m28.71,16.46c0,2.14-1.09,3.23-2.61,3.23-1.62,0-2.54-1.36-2.54-3.14s1.01-3.19,2.62-3.19c1.7,0,2.53,1.45,2.53,3.09Zm-3.91.07c0,1.21.47,2.2,1.34,2.2s1.33-.98,1.33-2.22c0-1.13-.42-2.17-1.33-2.17s-1.35,1.07-1.35,2.2Z" style="fill: #31394a;"/>
      <path d="m34.08,19.61h-1.18l-1.32-2.54c-.33-.63-.69-1.39-.94-2.06h-.03c.05.76.07,1.62.07,2.71v1.88h-1.07v-6.14h1.28l1.29,2.49c.33.61.67,1.37.92,2h.02c-.07-.78-.1-1.65-.1-2.65v-1.84h1.07v6.14Z" style="fill: #31394a;"/>
    </g>
    <g>
      <path d="m22.11,23.3l-1.33,6.14h-1.15l-.48-2.6c-.12-.64-.21-1.26-.29-1.96h-.01c-.1.69-.2,1.31-.34,1.96l-.55,2.6h-1.14l-1.24-6.14h1.15l.43,2.65c.12.73.23,1.49.31,2.15h.02c.08-.69.22-1.4.37-2.16l.51-2.64h1.07l.48,2.67c.12.72.23,1.4.31,2.12h.02c.09-.73.2-1.42.32-2.16l.46-2.63h1.09Z" style="fill: #31394a;"/>
      <path d="m25.9,29.44h-3.15v-6.14h3.03v.99h-1.95v1.48h1.84v.97h-1.84v1.71h2.07v.99Z" style="fill: #31394a;"/>
      <path d="m29.37,26.16c.63.18,1.1.72,1.1,1.5,0,.48-.18.94-.51,1.26-.38.38-1.01.58-2.01.58-.54,0-.94-.04-1.2-.08v-6.04c.32-.07.88-.13,1.43-.13.68,0,1.17.1,1.55.39.34.25.55.65.55,1.16,0,.56-.3,1.08-.9,1.33v.03Zm-1.16-.36c.62,0,.98-.36.98-.86,0-.61-.42-.81-.9-.81-.23,0-.38.02-.48.04v1.63h.4Zm-.4,2.78c.11.02.24.03.43.03.59,0,1.08-.29,1.08-.98s-.56-.97-1.11-.97h-.4v1.92Z" style="fill: #31394a;"/>
      <path d="m36.76,29.44h-1.03l-.1-2.39c-.03-.81-.07-1.65-.06-2.42h-.02c-.16.73-.37,1.55-.56,2.24l-.69,2.48h-.82l-.62-2.44c-.18-.69-.36-1.53-.49-2.28h-.02c-.01.77-.05,1.69-.09,2.44l-.11,2.36h-.99l.38-6.14h1.34l.61,2.31c.18.74.34,1.46.47,2.16h.02c.13-.69.3-1.43.49-2.16l.64-2.31h1.33l.32,6.14Z" style="fill: #31394a;"/>
    </g>
    <g>
      <path d="m20.36,39.06c-.36.14-1.06.31-1.76.31-.94,0-1.66-.24-2.18-.76-.53-.52-.84-1.37-.84-2.35,0-2.09,1.39-3.22,3.17-3.22.63,0,1.15.11,1.45.26l-.25.98c-.28-.13-.64-.23-1.18-.23-1.1,0-1.94.68-1.94,2.18s.77,2.16,1.79,2.16c.29,0,.51-.04.61-.09v-1.51h-.89v-.94h2.03v3.22Z" style="fill: #31394a;"/>
      <path d="m22.27,33.11h1.19v6.2h-1.19v-6.2Z" style="fill: #31394a;"/>
      <path d="m25.53,39.31v-6.2h3.32v1h-2.13v1.64h1.98v.97h-1.98v2.59h-1.19Z" style="fill: #31394a;"/>
    </g>
    <g>
      <path d="m20.6,49.17h-1.26l-.45-1.65h-1.67l-.43,1.65h-1.22l1.77-6.25h1.51l1.75,6.25Zm-1.88-2.56l-.37-1.42c-.1-.39-.2-.89-.28-1.28h-.02c-.08.39-.19.9-.28,1.27l-.37,1.43h1.33Z" style="fill: #31394a;"/>
      <path d="m21.13,43c.39-.07.93-.13,1.62-.13.79,0,1.38.15,1.78.5.37.32.6.82.6,1.4,0,1.71-1.43,2.1-2.37,2.1-.17,0-.32,0-.44-.03v2.34h-1.19v-6.17Zm1.19,2.89c.11.02.24.03.42.03.75,0,1.19-.42,1.19-1.1s-.42-1.02-1.09-1.02c-.24,0-.41.02-.52.05v2.03Z" style="fill: #31394a;"/>
      <path d="m30.19,49.17h-1.2l-1.34-2.58c-.33-.64-.7-1.41-.96-2.1h-.03c.05.77.07,1.65.07,2.76v1.92h-1.09v-6.25h1.3l1.32,2.54c.33.63.68,1.39.93,2.04h.02c-.07-.8-.11-1.68-.11-2.7v-1.88h1.09v6.25Z" style="fill: #31394a;"/>
      <path d="m35.51,48.93c-.37.14-1.07.31-1.78.31-.95,0-1.67-.24-2.2-.76-.54-.53-.85-1.38-.85-2.37,0-2.11,1.41-3.24,3.2-3.24.63,0,1.16.11,1.46.26l-.25.99c-.28-.13-.64-.23-1.19-.23-1.11,0-1.96.68-1.96,2.19s.77,2.18,1.8,2.18c.29,0,.51-.04.62-.09v-1.53h-.9v-.95h2.05v3.24Z" style="fill: #31394a;"/>
    </g>
  </g>
</svg>