<svg xmlns="http://www.w3.org/2000/svg" xmlns:xlink="http://www.w3.org/1999/xlink" xmlns:lucid="lucid" width="540" height="250.03"><g transform="translate(0 0)" lucid:page-tab-id="0_0"><path d="M20 26c0-3.3 2.7-6 6-6h228c3.3 0 6 2.7 6 6v48c0 3.3-2.7 6-6 6H26c-3.3 0-6-2.7-6-6z" stroke="#000" stroke-opacity="0" stroke-width="3" fill="#fff" fill-opacity="0"/><use xlink:href="#a" transform="matrix(1,0,0,1,25,25) translate(62.73333333333334 35.15277777777777)"/><path d="M280 26c0-3.3 2.7-6 6-6h228c3.3 0 6 2.7 6 6v48c0 3.3-2.7 6-6 6H286c-3.3 0-6-2.7-6-6z" stroke="#000" stroke-opacity="0" stroke-width="3" fill="#fff" fill-opacity="0"/><use xlink:href="#b" transform="matrix(1,0,0,1,285,25) translate(62.73333333333334 35.15277777777777)"/><path d="M163.38 179.77c-4.76-2.55-7.48-7.05-7.77-12.6 2.73 5.55 5.25 8.85 10 10.5l4.38-5.55c-4.66-1.95-8.06-5.1-10.1-9.75-3.8-8.4-2.33-20.56-.97-36.3 1.47-15.9-7.57-28.52-23.6-28.52-17.18 0-23.1 11.86-24.17 27.9-.88 13.8-1.46 27.92-6.6 39.77-4 9.15-10.4 15.9-19.53 20.1l6.4 4.65c5.25-3 9.14-6.75 12.44-11.85-2.04 5.4-4.95 9.6-9.32 13.5l8.06 3.15c4.47-5.1 7.28-10.5 9.13-17.1.5 5.4-2.8 13.35-4.65 17.7 5.53 1.2 10.5 1.2 16.02 0 2.43-6.75 3.9-12.6 5.05-19.65.68 6.9.4 12.75-.87 19.65 7.57 0 14.08-1.35 21.07-4.35-1.55-5.1-1.94-9.75-1.26-15 .3 4.95 2.14 9.15 5.54 12.75 4.66-1.8 8.15-4.65 10.78-9z" stroke="#000" stroke-opacity="0" stroke-width="3.2" fill="#2176ab"/><path d="M158.8 172.57c1.86-1.5 3.22-3 4.77-4.8-1.65-1.65-2.82-3.3-3.7-5.4-3.78-8.4-2.32-20.56-.96-36.3 1.47-15.9-7.57-28.52-23.6-28.52-17.18 0-23.1 11.86-24.17 27.9-.88 13.8-1.46 27.92-6.6 39.77-2.34 5.25-5.25 9.3-9.62 13.35 2.14 1.2 4 2.25 6.22 3.15 1.07-1.2 1.85-2.25 2.62-3.6-.48 1.35-1.06 2.55-1.74 3.9 2.42 1.05 4.46 1.65 7.1 2.25 1.05-2.25 1.83-4.2 2.4-6.75.2 2.55 0 4.8-.67 7.2 5.25.9 9.9 1.2 15.25.6.97-3.3 1.56-6.15 2.04-9.6.4 3.3.4 6.15.2 9.45 6.7-.9 12.23-2.4 18.35-5.1 0-1.5.1-2.7.4-4.05.1 1.2.28 2.4.57 3.6 3.6-1.65 6.5-3.45 9.7-5.85-1.15-2.1-1.73-4.05-1.73-6.45.98 1.95 1.95 3.45 3.2 5.25z" stroke="#000" stroke-opacity="0" stroke-width="3.2" fill="#353535"/><path d="M153.47 177.82c0 2.4-2.04 4.35-4.47 4.2h-.1c-2.42-.15-4.36-2.1-4.27-4.65.1-2.4 2.14-4.35 4.57-4.2 2.52 0 4.37 2.1 4.27 4.5v.15zM155.6 196.27c-.1 2.7-2.32 4.8-4.95 4.66-2.62-.15-4.66-2.4-4.56-4.96.1-2.7 2.32-4.8 4.94-4.65 2.72.15 4.76 2.4 4.57 4.95z" stroke="#000" stroke-opacity="0" stroke-width="3.2" fill="#efc69b"/><path d="M144.63 177.37l1.46 18.45 9.5.45-2.13-19.35-8.84.45z" stroke="#000" stroke-opacity="0" stroke-width="3.2" fill="#efc69b"/><path d="M155.6 196.27c1.08 6.46 2.63 11.86 5.15 18 .3.76.2 1.5-.3 2.1-1.93 1.8-4.26 2.4-6.88 2.26-4.57-.3-6.9-2.4-6.9-4.35l-.58-18.46z" stroke="#000" stroke-opacity="0" stroke-width="3.2" fill="#efc69b"/><path d="M155.6 196.27c-.1 2.7-2.32 4.8-4.95 4.66-2.62-.15-4.66-2.4-4.56-4.96.1-2.7 2.32-4.8 4.94-4.65 2.72.15 4.76 2.4 4.57 4.95z" stroke="#000" stroke-opacity="0" stroke-width="3.2" fill="#efc69b"/><path d="M156.2 222.23c-.8.15-1.47.15-2.34 0-5.15 0-7.77-2.25-7.67-4.35l-.2-3.3c0-.45 1.93-1.95 5.62-2.85 3.6-.6 7 .3 9.72 2.7l.58 4.05c0 .45-.2.9-.58 1.2-1.46 1.35-3.1 2.25-5.15 2.55z" stroke="#000" stroke-opacity="0" stroke-width="3.2" fill="#242c3d"/><path d="M156 218.78c-.78.15-1.46.15-2.24 0-4.76 0-7.38-2.1-7.38-4.35l-.3-6.3c0-.15.1-.3.2-.3h.3c1.94 1.2 4.07 1.65 6.4 1.2 1.85-.15 3.4-1.05 4.57-2.4h.2c.1 0 .2 0 .28.15.78 2.7 1.56 4.95 2.82 7.35.4.9.3 1.8-.3 2.55-1.35 1.2-2.8 1.95-4.55 2.1z" stroke="#000" stroke-opacity="0" stroke-width="3.2" fill="#d3e1e2"/><path d="M160.27 212.33c-1.26.6-2.04 1.65-2.53 2.85-.2.3-.2.6-.2.9-1.16-.75-2.22-1.2-3.58-1.2-1.07-.15-2.04 0-3.2.3-1.17.45-2.05 1.05-2.73 2.1-.2.3-.1.9.3 1.2.38.3.96.15 1.26-.15 2.02-1.95 5.23-1.95 7.17 0 .3.3.5.6.78 1.05.2.3.68.6 1.16.45.6-.15 1-.75.8-1.35-.7-1.8-.1-3.75 1.55-4.95.38-.15.48-.6.3-1.05-.2-.45-.7-.45-1.08-.3z" stroke="#000" stroke-opacity="0" stroke-width="3.2" fill="#6242ba"/><path d="M131.33 180.52l-2.04 19.8 10 2.26 1.45-20.86-9.42-1.2z" stroke="#000" stroke-opacity="0" stroke-width="3.2" fill="#ffe7ce"/><path d="M140.65 182.62c-.58 2.55-3.2 4.2-5.73 3.6-2.53-.6-4.18-3.15-3.6-5.7.6-2.55 3.2-4.2 5.74-3.6 2.52.6 4.17 3.15 3.6 5.7zM139.3 202.58c-.7 2.7-3.4 4.5-6.13 3.75-2.72-.6-4.47-3.3-3.88-6 .67-2.86 3.4-4.5 6.2-3.9 2.72.6 4.47 3.45 3.8 6.15z" stroke="#000" stroke-opacity="0" stroke-width="3.2" fill="#ffe7ce"/><path d="M139.3 202.58c-.2 7.05.38 13.05 1.84 19.95.3.9 0 1.65-.68 2.25-2.43 1.35-4.96 1.8-7.68 1.05-4.76-1.2-6.9-3.9-6.4-5.85l3-19.65z" stroke="#000" stroke-opacity="0" stroke-width="3.2" fill="#ffe7ce"/><path d="M139.3 202.58c-.7 2.7-3.4 4.5-6.13 3.75-2.72-.6-4.47-3.3-3.88-6 .67-2.86 3.4-4.5 6.2-3.9 2.72.6 4.47 3.45 3.8 6.15z" stroke="#000" stroke-opacity="0" stroke-width="3.2" fill="#ffe7ce"/><path d="M134.63 230.03c-.88 0-1.65-.15-2.53-.3-5.34-1.35-7.57-4.2-7.18-6.45l.48-3.15c0-.6 2.53-1.65 6.4-1.8 3.9 0 7.3 1.65 9.63 4.8l-.3 4.35c-.1.45-.38.9-.77 1.2-1.85 1.05-3.7 1.5-5.73 1.35z" stroke="#000" stroke-opacity="0" stroke-width="3.2" fill="#31394a"/><path d="M135.1 226.43c-.86 0-1.54-.15-2.32-.3-5.05-1.2-7.18-4.05-6.8-6.45l1.07-6.9c0-.15.1-.15.3-.15.1-.15.1-.15.2 0 1.83 1.8 3.97 2.55 6.6 2.55 1.94.15 3.78-.3 5.33-1.5.1-.15.2-.15.3 0 .1 0 .2.15.2.3.18 2.85.57 5.4 1.35 8.25.3 1.05 0 1.95-.78 2.55-1.75 1.2-3.4 1.65-5.44 1.65z" stroke="#000" stroke-opacity="0" stroke-width="3.2" fill="#fff"/><path d="M140.94 220.43c-1.46.45-2.43 1.2-3.2 2.55-.2.3-.3.45-.4.9-1.84-1.95-4.27-2.7-6.9-2.4-1.25.15-2.32.6-3.2 1.5-.38.45-.38 1.05 0 1.35.4.45 1.08.45 1.46 0 2.53-1.5 5.93-.75 7.48 1.8.3.3.4.6.6 1.05v.15c.08.45.57.75 1.15.75.68 0 1.17-.6 1.07-1.2-.3-2.1.78-4.05 2.62-4.8.5-.15.68-.6.58-1.05-.2-.6-.68-.75-1.16-.6z" stroke="#000" stroke-opacity="0" stroke-width="3.2" fill="#7a54ce"/><path d="M148.32 152.47c3.5 4.05 6.7 7.35 10.6 10.95l4.07-5.1c-4.1-2.85-7.4-5.4-11.08-8.7z" stroke="#000" stroke-opacity="0" stroke-width="3.2" fill="#efc69b"/><path d="M158.9 163.42c1.37 1.05 3.3.9 4.38-.45 1.16-1.35.97-3.45-.4-4.5-1.35-1.2-3.4-.9-4.46.45h-.1c-1.06 1.5-.77 3.45.6 4.5zM148.32 152.47c.78 1.05 2.24 1.2 3.2.3.78-.75.98-1.96.3-2.86-.68-1.04-2.14-1.34-3.2-.6-.98.76-1.07 2.27-.3 3.17z" stroke="#000" stroke-opacity="0" stroke-width="3.2" fill="#efc69b"/><path d="M161.43 156.22c2.43 1.8 4 3.15 3 6-.67 2.55-3.3 4.05-5.8 3.45-.98-.3-1.66-.6-2.34-1.35-3.8-3.3-6.42-6.6-8.46-11.1-2.43-4.66 2.04-5.86 4.08-4.2 2.04 1.64 7 5.4 9.5 7.2z" stroke="#000" stroke-opacity="0" stroke-width="3.2" fill="#b6d6d6"/><path d="M158.9 163.42c3.6 3.45 6.9 6 11.08 8.7 2.43 1.05 5.25.45 6.9-1.65 2.23-2.7 2.62-5.7-.98-6.9-4.66-1.5-8.44-3.15-12.9-5.25z" stroke="#000" stroke-opacity="0" stroke-width="3.2" fill="#efc69b"/><path d="M158.9 163.42c1.37 1.05 3.3.9 4.38-.45 1.16-1.35.97-3.45-.4-4.5-1.35-1.2-3.4-.9-4.46.45h-.1c-1.06 1.5-.77 3.45.6 4.5z" stroke="#000" stroke-opacity="0" stroke-width="3.2" fill="#efc69b"/><path d="M175.9 163.57c-2.42 5.7.2 13.95.68 17.4-2.33-4.05-4.75-7.2-8.06-10.5-2.52-2.85-3.4-6.3-2.42-9.9l8.64 1.2c.78.3 1.26 1.05 1.16 1.8z" stroke="#000" stroke-opacity="0" stroke-width="3.2" fill="#7a54ce"/><path d="M174.74 161.77c.3-.45.4-2.25-2.9-2.4-3.4-.15-6.33-.9-9.43-2.4-2.42-1.05-5.72.75-5.72 5.85 0 2.1 1.06 10.35 1.74 16.8l9.23 6.6 8.25-7.35c-1.94-6.45-3.1-13.95-1.16-17.1z" stroke="#000" stroke-opacity="0" stroke-width="3.2" fill="#b6d6d6"/><path d="M158.52 179.62c0 1.5.3 3.45.4 5.1l11.06 7.35 7.96-7.2c-.87-2.7-1.65-5.4-1.94-6-3.8 2.1-12.53 1.65-17.48.75z" stroke="#000" stroke-opacity="0" stroke-width="3.2" fill="#20b0d9"/><path d="M159.98 180.97h7.18c.1 0 .2.15.3.15 1.55 0 2.8-1.2 2.9-2.7-.28-1.5-1.64-2.7-3.2-2.7h-1.65c-1.15 0-2.03-.75-2.22-1.95 0-1.05 1.07-1.8 2.52-1.95h8.65v-.9l-10.2-.15c-2.14.15-3.7 1.35-3.6 2.85.3 1.65 1.76 2.85 3.4 2.7h1.17c1.26-.15 2.33.75 2.53 1.95-.1 1.2-1.07 2.1-2.33 1.95h-4z" stroke="#000" stroke-opacity="0" stroke-width="3.2" fill="#20b0d9"/><path d="M158.9 184.72v6.3l7.3 6.45 10-1.5 2.8-5.1c-.28-1.65-.67-3.9-1.15-6-6.4 2.1-12.53 2.1-18.94-.15z" stroke="#000" stroke-opacity="0" stroke-width="3.2" fill="#2783c1"/><path d="M159 191.02c-.2 2.25-.2 4.05.2 6.15 1.17 1.8 11.36 3.16 18.65.6 1.07-.45 1.75-1.2 1.55-3.15 0-.9 0-2.1-.3-3.6-6.8 2.55-13.3 2.55-20.1 0z" stroke="#000" stroke-opacity="0" stroke-width="3.2" fill="#1461a0"/><path d="M162.4 174.67l2.43 1.5c.2.15.2.45.1.6h-.1l-2.42 1.5c-.2.15-.38.15-.48-.15-.1 0-.1 0-.1-.15v-3.15c.1-.15.3-.3.5-.15h.1zM169.7 165.67l2.22 1.5c.2.15.2.3.1.6h-.1l-2.23 1.5c-.1 0-.4 0-.5-.15v-3.15c0-.15.1-.3.3-.3h.2z" stroke="#000" stroke-opacity="0" stroke-width="3.2" fill="#ea9b1c"/><path d="M137.45 149v-4.64c0-2.85 2.33-5.1 5.14-5.1 2.8 0 5.04 2.25 5.04 5.1v3.3c2.92-.15 5.54 1.5 6.4 4.2 1.28 2.86 1.86 5.56 1.66 8.7-.2 1.96-1.16 5.4-1.65 7.96-.2 1.35-.2 2.4 0 3.6.88 2.55 1.27 4.65 1.56 7.35 0 4.2-2.42 7.8-6.4 9.45-1.56.75-3 1.2-4.76 1.65-6.3 1.35-11.66-.6-13.9-4.5-1.84-3-1.84-6.6 0-9.75 1.85-3 2.15-6.45.6-9.75-1.27-2.55-1.85-5.1-1.95-7.95-.1-5.85 5.04-8.4 8.25-9.6z" stroke="#000" stroke-opacity="0" stroke-width="3.2" fill="#ffe7ce"/><path d="M147.64 147.66v-3.3-.9c-.2-2.85-2.62-4.95-5.44-4.65-2.8.16-4.95 2.7-4.75 5.56V149c-3.7 2.27.3 4.52 4.95 3.92 4.66-.6 10-3.3 5.24-5.26z" stroke="#000" stroke-opacity="0" stroke-width="3.2" fill="#fcd2ae"/><path d="M137.64 157.12c-3.5-2.7-7.28-3.75-11.66-3.6-2.42.45-4.27 2.55-4.37 5.1-.28 5.7 1 10.8 3.8 15.75.1.3.2.45.4.75.96 1.05 2.7 1.2 3.78.3l10-8.55" stroke="#000" stroke-opacity="0" stroke-width="3.2" fill="#20b0d9"/><path d="M136.1 149.3c1.44-1.34 6.78 1.06 9.8 3.32 1.06-1.66 1.65-3.3 2.13-5.1h1.17l1.55 3.14-3.7 6.16-11.74-6.76z" stroke="#000" stroke-opacity="0" stroke-width="3.2" fill="#51e4fd"/><path d="M134.63 149.6c1.65-1.2 7.57 1.2 11.46 4.22 1.35-1.95 2.22-3.9 2.7-6.3l1.47.3-3.2 10.05-12.44-6.9z" stroke="#000" stroke-opacity="0" stroke-width="3.2" fill="#7a54ce"/><path d="M140.36 191.62c-4.27.3-8.06-1.65-10.4-5.1-1.94-3.45-1.94-7.2 0-10.5 1.66-3 1.85-6.15.5-9.15-1.37-2.7-1.95-5.25-2.14-8.25.2-3.75 2.13-6.9 5.53-8.7.4-.16.78-.3 1.17-.3 4.27 1.65 7.77 3.6 11.36 6.3 1.94-2.4 3-4.96 3.2-8.1 0-.16.4-.3 1.07 0 1.75.9 3.1 2.1 4 3.9 1.35 3 1.93 5.7 1.73 8.85 0 1.35-.58 2.85-.87 4.65-.28 1.2-.57 2.4-.77 3.6-.2 1.05-.2 1.95 0 3.15.88 2.55 1.27 4.8 1.56 7.35 0 4.5-2.64 8.4-6.8 10.05-3.02 1.5-5.84 2.1-9.14 2.25z" stroke="#000" stroke-opacity="0" stroke-width="3.2" fill="#e7f1f2"/><path d="M134.43 153.07c1.56.75 2.92 1.5 4.28 2.55 2.92 1.95 5.16 3.9 7.68 6.3.4.3.87.3 1.17 0 1.74-2.25 2.9-4.5 3.88-7.35.5-1.35.78-2.55 1.07-3.9v-1.36c-.4-.3-.68-.6-1.07-.74 0 .6-.1 1.2-.2 1.8-.3 1.36-.67 2.56-1.16 3.76-.87 2.4-1.94 4.2-3.4 6.15-2.52-2.1-4.76-3.9-7.48-5.7-1.56-.9-2.92-1.65-4.57-2.25-1.07-.45-2.04-.6-3.2-.6-.4.15-.6.45-.88.75 1.36-.15 2.62.15 3.88.6z" stroke="#000" stroke-opacity="0" stroke-width="3.2" fill="#aaccce"/><path d="M154.64 168.97l7.18 10.8c.68.9.78 1.95.5 3.15-1.18 3.75-6.13 7.95-15.84 9.6-9.7 1.5-20.8-1.95-24.48-8.1-.97-1.8-.68-3.9.78-5.25l8.55-8.55z" stroke="#000" stroke-opacity="0" stroke-width="3.2" fill="#7a54ce"/><path d="M154.34 169.72c.1.45 5.64 18.9 5.64 18.9-4.76 5.7-20.4 7.8-28.07 4.05l4.28-21.6z" stroke="#000" stroke-opacity="0" stroke-width="3.2" fill="#8d6ceb"/><path d="M144.63 172.72l-1.65 12.75-.87.9s-15.05-2.85-17.77-10.5l.6-1.35 5.62-3.15z" stroke="#000" stroke-opacity="0" stroke-width="3.2" fill="#e7f1f2"/><path d="M142.98 185.62l-.2 1.65c-8.15-.6-16.7-5.1-19.42-11.7l1.56-.9c2.52 7.2 12.62 10.2 18.06 10.95z" stroke="#000" stroke-opacity="0" stroke-width="3.2" fill="#1cceed"/><path d="M148.32 171.97l3.2 11.85c2.44-.6 4.28-1.65 6.13-3.45 2.04-2.1 2.9-4.65 2.62-7.5l-4.76-4.05z" stroke="#000" stroke-opacity="0" stroke-width="3.2" fill="#e7f1f2"/><path d="M160.37 172.87c-1.36 4.95-4.28 8.55-8.65 11.1l.5 1.65c4.07-2.4 8.73-7.35 9.2-11.85z" stroke="#000" stroke-opacity="0" stroke-width="3.2" fill="#1cceed"/><path d="M152.1 182.17h-.18c-3.5-.75-6.4-2.1-9.23-4.35-.3-.3-.2-.9.1-1.05.28-.3.67-.3.96 0 2.72 1.95 5.34 3.15 8.54 3.9.4.15.6.45.5.9 0 .3-.3.6-.7.6z" stroke="#000" stroke-opacity="0" stroke-width="3.2" fill="#ea9b1c"/><path d="M142.6 183.67c-.3 0-.6-.15-.7-.45-.18-.45 0-.9.4-1.05 3.4-1.2 5.83-3.3 7.67-6.45.2-.3.68-.45 1.07-.3.4.15.58.6.4 1.05-2.05 3.45-4.77 5.7-8.46 7.05-.1 0-.2.15-.4.15z" stroke="#000" stroke-opacity="0" stroke-width="3.2" fill="#f2b326"/><path d="M152.8 157.42c-2.34.45-4.2 1.65-5.74 3.45-2.33-.9-4.47-1.35-7-1.35-5.24 0-9.6 1.65-9.6 3.75s4.17 3.6 9.6 3.6c3.2.3 6.03-.45 8.75-2.25.8.15 1.47.15 2.24 0 2.82-.75 4.76-2.7 5.64-5.55.2-1.35-.68-2.25-3.9-1.65z" stroke="#000" stroke-opacity="0" stroke-width="3.2" fill="#2787b6"/><path d="M156.68 159.07c1.35-1.2 1.55 9.15.2 12-1.47 2.85-17.5 7.8-27.2 1.8-.4-.15-.68-.6-.68-1.05l-.6-9.15c0-.45.3-.75.6-.75h.2c6.7 2.85 20.77 3.3 27.48-2.85z" stroke="#000" stroke-opacity="0" stroke-width="3.2" fill="#7bf6ff"/><path d="M129.58 170.62v-4.65l-.97-.45.3 4.95.68.15zM133.66 171.37c-1.36-.15-2.62-.45-3.98-.75v2.1c1.36.75 2.42 1.2 3.88 1.65v-3.15zM129.68 165.97c1.26.3 2.62.45 3.88.75v-3.6c-1.46-.3-2.62-.6-3.98-1.05v3.9z" stroke="#000" stroke-opacity="0" stroke-width="3.2" fill="#1cceed"/><path d="M137.54 167.02c-1.36 0-2.62-.15-3.98-.45v4.8c1.36.15 2.62.3 3.98.3v-4.65z" stroke="#000" stroke-opacity="0" stroke-width="3.2" fill="#1cceed"/><path d="M141.33 171.67h-3.8v3.6c1.37.15 2.44.3 3.8.3v-3.9zM137.54 167.02h3.8v-3.15h-3.9v3.15z" stroke="#000" stroke-opacity="0" stroke-width="3.2" fill="#1cceed"/><path d="M145.12 166.72c-1.26 0-2.43.3-3.8.3v4.65c1.37 0 2.54-.15 3.8-.3v-4.5zM148.9 170.77c-1.26.3-2.52.45-3.78.6v3.9c1.36-.15 2.52-.3 3.8-.6v-3.9zM145.12 166.87c1.26 0 2.52-.45 3.8-.6v-3.15c-1.37.3-2.44.45-3.8.6v3.3z" stroke="#000" stroke-opacity="0" stroke-width="3.2" fill="#1cceed"/><path d="M152.6 165.52l-3.7.9v4.5c1.27-.15 2.43-.6 3.7-.9v-4.5zM155.4 168.67c-.96.45-1.93.9-2.8 1.2v3.6c.97-.3 1.84-.75 2.8-1.2v-3.6zM152.6 165.37c.87-.45 1.84-.75 2.8-1.2v-4.2c-.96.6-1.83 1.2-2.8 1.65v3.75zM157.84 162.97c-.87.45-1.55.9-2.43 1.2v4.5c.7-.3 1.47-.75 2.25-1.2.1-1.5.2-2.85.2-4.5z" stroke="#000" stroke-opacity="0" stroke-width="3.2" fill="#1cceed"/><path d="M158.62 163.57c-1.46 2.55-3.6 4.35-6.4 5.25-2.63 1.05-5.06 1.65-7.88 1.95-2.82.15-5.24.15-8.06-.3-2.82-.3-5.24-1.2-7.67-2.7-.48-.3-.67-1.05-.38-1.5h.1c.3-.6.97-.75 1.55-.45 2.14 1.35 4.18 2.1 6.7 2.55 2.62.3 4.86.45 7.48.15 2.62-.15 4.86-.6 7.28-1.65 2.33-.75 4.08-2.1 5.35-4.2.2-.45.77-.75 1.35-.45.5.15.78.75.6 1.35z" stroke="#000" stroke-opacity="0" stroke-width="3.2" fill="#f2b326"/><path d="M150.17 169.12c0 1.5-1.17 2.7-2.62 2.7-1.46 0-2.72-1.2-2.72-2.7 0-1.5 1.26-2.7 2.72-2.7 1.45 0 2.62 1.2 2.62 2.7z" stroke="#000" stroke-opacity="0" stroke-width="3.2" fill="#31394a"/><path d="M148.23 168.22c0 .75-.6 1.2-1.36 1.2-.68 0-1.27-.45-1.27-1.2s.6-1.35 1.27-1.35c.77 0 1.36.6 1.36 1.35z" stroke="#000" stroke-opacity="0" stroke-width="3.2" fill="#606f89"/><path d="M135.3 157.27c-2.7 5.85-5.24 10.65-8.54 16.2l-6.4-4.5c3.78-4.65 6.7-8.7 9.8-13.8z" stroke="#000" stroke-opacity="0" stroke-width="3.2" fill="#ffe7ce"/><path d="M126.76 173.47c-1.26 1.8-3.7 2.25-5.44.9-1.75-1.2-2.13-3.6-.97-5.4 1.26-1.8 3.7-2.25 5.44-.9h.1c1.64 1.2 2.12 3.6.86 5.4zM135.3 157.27c-.57 1.5-2.23 2.1-3.58 1.5-1.46-.6-2.04-2.25-1.46-3.6.58-1.35 2.13-2.1 3.6-1.5 1.35.6 2.03 2.25 1.45 3.6z" stroke="#000" stroke-opacity="0" stroke-width="3.2" fill="#ffe7ce"/><path d="M120.45 174.67c-1.75-1.65-1.94-4.05-.58-6 2.9-3.45 5.14-6.45 7.57-10.35l2.24-3.45c.58-1.2 1.74-1.95 3.1-1.95.5 0 .88.15 1.27.3 1.74.75 2.52 2.7 1.84 4.5l-5.84 16.95c-1.45 3-7.18 2.55-9.6 0z" stroke="#000" stroke-opacity="0" stroke-width="3.2" fill="#fff"/><path d="M126.76 173.47c-3 5.1-5.92 9.15-9.8 13.65-2.44 2.1-5.83 2.25-8.46.45-3.5-2.25-4.95-5.7-1.26-8.25 4.86-3.3 8.74-6.45 13.2-10.35z" stroke="#000" stroke-opacity="0" stroke-width="3.2" fill="#ffe7ce"/><path d="M126.76 173.47c-1.26 1.8-3.7 2.25-5.44.9-1.75-1.2-2.13-3.6-.97-5.4 1.26-1.8 3.7-2.25 5.44-.9h.1c1.64 1.2 2.12 3.6.86 5.4z" stroke="#000" stroke-opacity="0" stroke-width="3.2" fill="#ffe7ce"/><path d="M116.95 187.12c-2.43 2.1-5.82 2.25-8.45.45-.4-.15-.58-.45-.87-.6-2.14 6.45-2.53 12.3-1.26 19.06l12.04-19.66-.67-.15c-.2.3-.5.6-.78.9z" stroke="#000" stroke-opacity="0" stroke-width="3.2" fill="#5b3da3"/><path d="M110.25 176.17c-.48.3-.68.75-.48 1.35.77-.45 3.2 2.1 1.94 7.2-.87 4.35-5.33 10.35-5.33 18.16 1.74-5.86 4.08-8.26 6.9-14.1 2.13-3.6 2.52-7.66 1.16-11.7-.97-3.46-4.08-.9-4.08-.9" stroke="#000" stroke-opacity="0" stroke-width="3.2" fill="#7a54ce"/><path d="M110.25 176.17c-.78-1.35.97-3 2.72-3.9 2.9-.9 5.25-2.1 7.48-4.2 2.23-2.1 5.83-1.8 7.87.45.68.9 1.06 1.65 1.26 2.7.1 5.55-.3 10.2-1.36 15.45l-1.36 7.65-2.53 5.86-15.73 6.45-2.33-4.05c.87-3.6 2.04-6.46 3.8-9.6 2.42-3.6 3.58-7.2 3.77-11.56-.3-5.25-2.23-6-3.6-5.25z" stroke="#000" stroke-opacity="0" stroke-width="3.2" fill="#fff"/><path d="M106.27 202.58c-.58 2.1-.87 3.9-.97 6.15l4.37 2.55 14.66-7.65 1.95-4.35c0-1.2.3-2.86.58-4.8-3.3 3-13.6 9-20.6 8.1z" stroke="#000" stroke-opacity="0" stroke-width="3.2" fill="#3ecced"/><path d="M126.28 199.28v4.35c0 2.55-4.67 9.3-10.6 11.4-6 2.1-10.38 1.65-10.48-.45-.1-2.1 0-3.75 0-5.85 8.84.45 17.4-5.85 21.08-9.45z" stroke="#000" stroke-opacity="0" stroke-width="3.2" fill="#369ed8"/><path d="M126.18 203.63c.3 1.95.2 3.6-.2 5.55-.97 2.7-10.3 11.4-18.55 11.85-.97.15-1.84-.6-1.94-1.65 0-1.2-.2-2.85-.3-4.8 8.45-1.05 15.25-4.65 20.98-10.95z" stroke="#000" stroke-opacity="0" stroke-width="3.2" fill="#216ead"/><path d="M124.04 197.02l-3.6 1.66c-1.45.6-2.52 0-2.52-1.36.1-1.65.98-3 2.53-3.75l1.07-.45c2.04-1.05 3.3-2.85 3.5-4.95v-.3c0-1.8-1.56-2.7-3.5-1.8l-10.7 5.4-.57 1.05 9.32-4.65c1.46-.6 2.63 0 2.63 1.5v.15c-.2 1.5-.97 2.7-2.24 3.45l-1.65.75c-1.93 1.05-3.1 2.7-3.2 4.96 0 1.8 1.37 2.7 3.2 1.95l7.3-3.46z" stroke="#000" stroke-opacity="0" stroke-width="3.2" fill="#3ecced"/><path d="M116.27 181.27l3.4 1.35c.3.3.3.75 0 1.05l-3.4 2.7c-.4.3-.77 0-.77-.3v-4.2c0-.3.3-.6.58-.6h.2zM123.36 191.02l2.33 1.05c.2 0 .2.45 0 .6l-2.34 1.95c-.1.15-.3.15-.48.15-.1-.15-.2-.3-.1-.45v-3c.1-.15.3-.3.58-.3z" stroke="#000" stroke-opacity="0" stroke-width="3.2" fill="#ffc248"/><path d="M154.34 87.5c11.66 5.1 17.3 13.95 15.16 31.2-.5 3.6-.5 6.76 0 10.36.38 2.7-.5 5.25-2.43 7.2-3.8 4.05-11.75 9.6-27 10.65-16.5 1.2-32.93-6.9-34.97-30.14-2.04-23.26 26.42-39.46 49.24-29.26z" stroke="#000" stroke-opacity="0" stroke-width="3.2" fill="#ffe7ce"/><path d="M112.3 115.26c-1.47-16.2 13.6-28.96 30.88-30.6-19.82-1.8-39.63 12.74-37.88 31.95 1.84 23.4 18.26 31.5 34.77 30.3 6.4-.3 11.85-1.64 17.77-4.2-3.7.9-6.8 1.36-10.6 1.66-16.5 1.05-32.8-6.9-34.95-29.1z" stroke="#000" stroke-opacity="0" stroke-width="3.2" fill="#fcd2ae"/><path d="M136.28 127.4c4.47 0 5.05 10.96 0 10.96s-4.37-11.25 0-10.95z" stroke="#000" stroke-opacity="0" stroke-width="3.2" fill="#20b0d9"/><path d="M136.28 127.4c-3.3-.3-4.47 6.16-2.62 9.3l6.4-2.24c.2-3.3-1.06-7.05-3.78-7.05z" stroke="#000" stroke-opacity="0" stroke-width="3.2" fill="#2787b6"/><path d="M136.28 127.4c-2.23 0-3.5 2.7-3.5 5.56l6.8-2.25c-.48-1.94-1.65-3.3-3.3-3.3z" stroke="#000" stroke-opacity="0" stroke-width="3.2" fill="#353535"/><path d="M160.95 120.8c3.98 0 4.47 11.1 0 11.1-4.57 0-3.98-11.1 0-11.1z" stroke="#000" stroke-opacity="0" stroke-width="3.2" fill="#20b0d9"/><path d="M160.95 120.8c-3 0-4.08 6.16-2.53 9.3l5.64-2.24c.38-3.15-.78-7.05-3.1-7.05z" stroke="#000" stroke-opacity="0" stroke-width="3.2" fill="#2787b6"/><path d="M160.95 120.8c-2.04 0-3.2 2.86-3.2 5.7l6.1-2.54c-.47-1.65-1.44-3.15-2.9-3.15z" stroke="#000" stroke-opacity="0" stroke-width="3.2" fill="#353535"/><path d="M149.97 140.16c-.97 0-1.74-.3-2.33-.9-.3-.3-.2-.9.1-1.05.3-.3.68-.3.97 0 .5.3.98.46 1.57.3.67 0 1.16-.44 1.45-1.04.2-.3.68-.45 1.07-.3.38.15.57.6.38 1.05h-.1c-.48 1.06-1.46 1.8-2.52 1.96z" stroke="#000" stroke-opacity="0" stroke-width="3.2" fill="#ff7c79"/><path d="M162.4 140.9c1.95 8.56 1.85 16.22-.2 24.62l5.74-3.75c1.85-6.9 1.65-13.2-.68-19.96-.58-1.64-1.07-3.14-1.55-4.34-1.16 1.05-2.13 1.8-3.4 2.7.1.3.1.6.1.75z" stroke="#000" stroke-opacity="0" stroke-width="3.2" fill="#2787b6"/><path d="M162.4 140.9c1.46 5.86 1.75 10.97.98 16.82l5.63-3.6c.1-4.36-.48-8.1-1.93-12.3-.5-1.5-.97-3.16-1.46-4.36-1.16 1.05-2.22 1.8-3.5 2.7.3.3.3.6.3.75z" stroke="#000" stroke-opacity="0" stroke-width="3.2" fill="#31394a"/><path d="M167.46 142.7c.77 2.4 1.26 4.66 1.45 7.2l-5.14 3.62c.2-2.86.1-5.26-.3-8.1z" stroke="#000" stroke-opacity="0" stroke-width="3.2" fill="#4a5272"/><path d="M125.5 123.36c-.68 15.3 2.33 19.95 6.12 30.9 3.6 10.06 2.72 15.9 1.26 19.2l-7.1-.9c2.54-7.64 2.54-15 0-22.8-3.58-10.5-5.43-20.4-3.58-27.15z" stroke="#000" stroke-opacity="0" stroke-width="3.2" fill="#2787b6"/><path d="M125.5 123.36c-.68 15.3 2.33 19.95 6.12 30.9 1.65 4.2 2.43 8.1 2.52 12.76l-6.9-.6c.78-5.85.3-10.95-1.45-16.5-3.6-10.5-5.45-20.4-3.5-27.16z" stroke="#000" stroke-opacity="0" stroke-width="3.2" fill="#31394a"/><path d="M132 155.17c.98 2.7 1.46 5.1 1.85 7.95l-6.3-.45c.18-2.85.1-5.1-.3-7.95z" stroke="#000" stroke-opacity="0" stroke-width="3.2" fill="#4a5272"/><path d="M176.2 116.46c-.3.15-.68.15-1.07 0-5.93-4.65-9.42-10.65-10.7-18-.08-.6.3-1.2.9-1.36.67-.15 1.25.3 1.35.9 1.26 6.76 4.37 12 9.6 16.36.6.3.8.9.5 1.5-.1.3-.3.45-.5.45z" stroke="#000" stroke-opacity="0" stroke-width="3.2" fill="#2abadb"/><path d="M181.15 116l-4.76-1.2h-.7c-.47.3-.67.9-.38 1.36l1.75 4.2v.15c.5.6 1.17.76 1.75.3.68-.3.87-1.2.58-1.8l-.78-1.34 1.75.6H180.67c.67.15 1.35-.3 1.45-.9.1-.6-.4-1.2-.97-1.35z" stroke="#000" stroke-opacity="0" stroke-width="3.2" fill="#2abadb"/><path d="M179.2 119.9l-3.68-3.6c-.2-.3-.2-.74 0-.9.3-.3.58-.3.87 0l4.36 2.7c.58.3.78 1.2.4 1.8-.4.46-1.18.6-1.76.3z" stroke="#000" stroke-opacity="0" stroke-width="3.2" fill="#51e4fd"/><path d="M177.75 114.36c.58 1.2.1 2.55-1.07 3.15l-.1.16c-1.06.6-2.52.15-3.1-1.05l-.1-.14c-.5-1.2 0-2.55 1.17-3.15 1.16-.6 2.62-.14 3.2 1.06z" stroke="#000" stroke-opacity="0" stroke-width="3.2" fill="#f2b326"/><path d="M177.46 97.7c-3.9-2.55-8.35-2.7-12.43-.45l-.2.15c-.2.3.78 4.2.78 4.2.8 1.65 1.76 2.7 3.22 3.76 1.84 1.35 3.98 1.8 6.2 1.05l.6-.14c1.45-.75 2.42-1.95 2.9-3.46.78-1.8.4-3.75-1.06-5.1zm-.97 4.2c-.3 1.2-.98 1.96-2.05 2.26-1.46.45-2.92.15-4.18-.76-1.55-1.2-2.62-2.55-3.2-4.5 3-1.35 6.12-1.2 8.93.45.78.75.97 1.8.5 2.55z" stroke="#000" stroke-opacity="0" stroke-width="3.2" fill="#2787b6"/><path d="M176.2 100.4c-2.92-3-6.8-4.2-10.88-3.3-.2 0-.4.15-.5.3-.18-.15-.28-.15-.47 0l1.45 5.4c.68 1.5 1.46 2.7 2.53 3.9 1.55 2.1 3.8 3 6.22 2.86l.87-.3c1.16-.6 1.94-1.5 2.33-2.85.68-2.1.2-4.5-1.55-6zm-.68 5.26c-.5 1.5-1.17 1.5-1.36 1.65-1.65 0-3.1-.74-4.08-2.1-1.65-1.8-2.62-3.6-3.2-6 2.9-.3 5.43.6 7.57 2.7 1.07 1.05 1.45 2.4 1.07 3.76z" stroke="#000" stroke-opacity="0" stroke-width="3.2" fill="#51e4fd"/><path d="M166.68 99.95c-.3.15-.58.15-.88 0-.68-.75-.87-1.8-.48-2.85.1-.45.48-.6.87-.45.38.15.67.45.48.9v.15c-.2.3-.1.75.1 1.05.3.3.3.75 0 1.05l-.1.15zM164.35 100.4c-.3.15-.5.15-.78 0-.48-.45-.78-.9-.78-1.5-.1-.6.1-1.05.38-1.35.3-.3.68-.3.97 0 .3.15.3.6 0 .9-.1.3 0 .75.3.9.3.3.3.75 0 1.05z" stroke="#000" stroke-opacity="0" stroke-width="3.2" fill="#2abadb"/><path d="M165.6 100.25c-.28.15-.57.15-.86-.15-.78-.9-.98-2.1-.6-3.15.1-.45.5-.75.9-.6.38 0 .67.45.57.9 0 0 0 .15-.1.15-.18.6-.08 1.2.3 1.65.3.3.3.75 0 1.05z" stroke="#000" stroke-opacity="0" stroke-width="3.2" fill="#44d9f2"/><path d="M176.5 119l-.6-3.74c-1.84-3.45-3.2-6.3-4.37-10.05-2.52-7.05-6.2-12.6-11.94-17.7-13.8-12.15-29.63-6.75-32.55-3.15-21.56-1.05-25.83 25.5-27.48 33.9-.68 3.6-1.85 6.46-3.9 9.6l5.26 8.86 8.64 1.2c.3-1.04.58-2.1.97-3.14-.1 1.2-.1 2.1 0 3.3l6.12 4.65 5.63-2.7c-.2-4.8.2-9 1.45-13.64-.4 2.4-.48 4.5-.4 6.9l4.58 5.25 1.26-4.94c-.5-9.75 2.03-18.15 7.66-26.1-2.52 7.8-2.8 16.05-1.65 18.9 2.83.15 5.26-.15 7.98-.9 3.6-4.05 4.95-10.2 4.95-18.3 1.46 6 1.46 11.4 0 17.4 5.15-.75 9.42-2.55 13.8-5.55.77-2.54 1.06-4.94.86-7.64-.3-2.7-.7-4.8-1.27-7.5 3.6 5.85 5.63 11.55 6.4 18.3l4.1 4.35z" stroke="#000" stroke-opacity="0" stroke-width="3.2" fill="#31394a"/><path d="M135.2 108.2c-13.6 0-24.85-5.55-27.86-12.9-2.33 3.75-3.9 7.35-5.15 11.56 5.72 6.45 16.5 10.8 29.03 11.55 1.26-3.9 2.72-6.9 4.95-10.2zM170.76 103.25c-1.85-4.2-3.9-7.65-6.9-11.25-.48 8.85-12.43 16.06-27.4 16.36-.96 3.6-1.54 6.6-1.93 10.35h.68c4.2 0 7.68-.44 11.86-1.2.78-3.6 1.07-6.6.97-10.2.97 3.3 1.26 6.16 1.07 9.6 5.05-1.04 9.23-2.84 13.6-5.54-.2-2.7-.6-4.8-1.27-7.5 1.27 2.1 2.24 3.9 3.2 6.15 2.63-1.8 4.48-3.9 6.13-6.75z" stroke="#000" stroke-opacity="0" stroke-width="3.2" fill="#4a5272"/><path d="M95.68 128c-.87 1.5-1.74 2.56-2.9 3.9 2.42 2.26 4.94 3.76 8.15 4.8l2.13-4.64c-2.7-1.05-4.95-2.25-7.38-4.05z" stroke="#000" stroke-opacity="0" stroke-width="3.2" fill="#197693"/><path d="M122.97 146.16c-.38-2.25-.58-4.2-.68-6.45-4.18 0-7.68-.6-11.66-1.8.1 1.66.4 3.3.5 4.66 3.77 2.25 7.46 3.3 11.83 3.6zM108.8 141.66c.1-1.5.38-2.55.77-3.9-2.8-.75-5.15-1.65-7.67-3.15l-.97 2.26-.97 1.95c2.72 1.8 5.53 2.56 8.83 2.86z" stroke="#000" stroke-opacity="0" stroke-width="3.2" fill="#2787b6"/><path d="M123.36 133.26c0 3.3.4 6.3 1.36 9.45 2.72 1.5 5.44 1.8 8.35 1.06-2.52-3-3.78-6.3-3.88-10.2-2.15.15-3.9 0-5.84-.3z" stroke="#000" stroke-opacity="0" stroke-width="3.2" fill="#319ec9"/><path d="M178.53 117.8c-1.07-.6-1.95-1.5-2.63-2.54-1.06 2.55-2.42 4.65-4.46 6.75l.58 4.5c2.43-1.64 6.5-6.3 6.5-8.7z" stroke="#000" stroke-opacity="0" stroke-width="3.2" fill="#1f7ea3"/><path d="M167.94 132.8c2.04-.74 3.5-2.1 4.27-4.04v-2.25l-.67-7.2c-.97 1.36-2.13 2.26-3.7 2.86.4 3.75.4 6.9.1 10.65z" stroke="#000" stroke-opacity="0" stroke-width="3.2" fill="#319ec9"/><path d="M126.28 94.25c2.52-.3 4.56-.3 7.1-.3.86 0 1.83 2.4 1.54 3.15l-2.82 6.9c-.38.76-2.13.46-2.72-.6l-3.78-7.2c-.68-1.05-.3-2.1.68-1.95z" stroke="#000" stroke-opacity="0" stroke-width="3.2" fill="#22adbc"/><path d="M125.1 93.05c2.83 0 5.26.3 8.07.75.58.15.97.75.88 1.35 0 .15-.1.15-.1.3-.97 2.4-2.04 4.8-3 7.2-.3.9-1.57.75-2.15-.3-1.55-2.4-2.9-4.95-4.37-7.2-.68-1.05-.2-2.25.68-2.1z" stroke="#000" stroke-opacity="0" stroke-width="3.2" fill="#55e7ff"/><path d="M119 97.7c3.3-.75 6.2-1.05 9.6-1.2.88 0 2.14 2.25 1.85 3.15-1.36 3.3-2.62 6.46-3.88 9.9-.5.9-2.33.9-3-.3-1.76-3.14-3.5-6-5.26-8.85-.67-1.2-.28-2.55.7-2.7z" stroke="#000" stroke-opacity="0" stroke-width="3.2" fill="#0b84a0"/><path d="M117.92 96.65c3.7-.45 6.8-.6 10.5-.3.67.15 1.16.6 1.06 1.35 0 0 0 .15-.1.15-1.36 3.45-2.72 6.9-3.98 10.36-.48 1.06-1.75.9-2.43 0-2.04-3.14-3.98-6-5.92-8.85-.58-.75-.58-1.65.1-2.25.2-.3.4-.45.77-.45z" stroke="#000" stroke-opacity="0" stroke-width="3.2" fill="#1faedb"/><path d="M110.83 101.9c4.18-1.35 7.87-2.1 12.24-2.55.88 0 2.04 1.8 1.65 2.55-1.45 4.5-3.2 9-4.56 13.5-.3.76-1.07 1.06-1.85.9-.28-.14-.47-.44-.67-.74-2.62-3.75-5.14-7.35-7.67-10.8-.58-.9-.4-1.96.5-2.56.08-.15.18-.15.37-.3z" stroke="#000" stroke-opacity="0" stroke-width="3.2" fill="#16557c"/><path d="M109.96 101.3c4.27-1.35 8.06-1.95 12.43-2.1h.96c.4.45.5 1.05.2 1.5-1.46 4.5-3.1 9-4.57 13.5-.3.76-1.08 1.2-1.76.9-.38-.14-.58-.3-.77-.6-2.53-3.74-4.37-7.34-6.8-10.64-.78-.9-.78-2.26.3-2.56z" stroke="#000" stroke-opacity="0" stroke-width="3.2" fill="#2b73aa"/><path d="M110.06 104.16c-.6-.9-.4-1.96.48-2.56.1-.15.2-.15.3-.15 4.27-1.35 7.96-1.95 12.43-2.1-.2-.15-.5-.3-.78-.3-4.58.15-8.46.75-12.83 1.95-.1.15-.2.15-.3.3-.87.6-1.06 1.8-.48 2.56 2.42 3.45 5.04 6.9 7.57 10.65.4.76 1.16.9 1.84.6-.38-.14-.67-.3-.86-.6-2.53-3.6-4.95-7.04-7.38-10.34z" stroke="#000" stroke-opacity="0" stroke-width="3.2" fill="#46aec6"/><path d="M120.84 135.5c-.4 0-.78-.14-1.07-.44-2.82-4.2-4.47-14.25-2.23-22.95.2-.74.87-1.2 1.55-.9.67.16 1.06.76.96 1.5-2.04 7.8-.68 17.1 1.85 20.86.4.6.3 1.35-.3 1.8-.28.15-.47.3-.76.15z" stroke="#000" stroke-opacity="0" stroke-width="3.2" fill="#2abadb"/><path d="M126.08 137.46l-4.17-3.15c-.2-.14-.38-.3-.67-.3-.6 0-1.17.46-1.17 1.06v5.25c.2.9.97 1.36 1.75 1.36.88-.15 1.37-.9 1.27-1.8l-.3-1.65 1.56 1.5c.6.46 1.46.3 1.95-.3.48-.6.38-1.5-.2-1.94z" stroke="#000" stroke-opacity="0" stroke-width="3.2" fill="#2abadb"/><path d="M122.3 140.6l-1.95-5.4c-.1-.44.1-.9.5-1.04.28-.15.67 0 .86.3l3.22 4.8c.4.75.2 1.5-.4 1.95-.67.46-1.55.3-1.93-.44-.2 0-.2-.15-.3-.15z" stroke="#000" stroke-opacity="0" stroke-width="3.2" fill="#51e4fd"/><path d="M123.36 134.46c0 1.35-1.16 2.55-2.52 2.55-1.46 0-2.53-1.2-2.53-2.54 0-1.5 1.08-2.55 2.54-2.55 1.36 0 2.52 1.06 2.52 2.56z" stroke="#000" stroke-opacity="0" stroke-width="3.2" fill="#ffc248"/><path d="M110.64 132.66c-.4-.15-.58-.6-.58-.9-.4-4.95 2.9-13.95 8.84-20.1.48-.45 1.26-.6 1.74 0 .5.45.5 1.2.1 1.65-5.44 5.56-8.64 13.8-8.25 18.16 0 .75-.5 1.35-1.18 1.35-.3 0-.5 0-.68-.14z" stroke="#000" stroke-opacity="0" stroke-width="3.2" fill="#2abadb"/><path d="M113.94 136.7l-1.84-4.8c-.1-.14-.3-.3-.5-.44-.47-.3-1.15-.15-1.45.45l-2.42 4.06v.15c-.3.76.1 1.66.77 1.96.78.3 1.65-.15 1.95-.9l.58-1.5.48 1.95v.16c.1 0 .1 0 .1.15.3.6 1.08.9 1.76.6.68-.3.97-1.04.68-1.8z" stroke="#000" stroke-opacity="0" stroke-width="3.2" fill="#2abadb"/><path d="M109.38 137.46l.97-5.4c0-.45.4-.6.78-.6.3 0 .58.3.58.6l.3 5.55c.1.76-.5 1.36-1.17 1.36h-.1c-.67 0-1.35-.45-1.45-1.2 0-.15 0-.3.1-.3z" stroke="#000" stroke-opacity="0" stroke-width="3.2" fill="#51e4fd"/><path d="M113.17 132.8c-.68 1.06-2.04 1.5-3.2.9-1.18-.6-1.56-2.1-.98-3.3.67-1.2 2.22-1.5 3.4-.9 1.06.76 1.44 2.26.77 3.3z" stroke="#000" stroke-opacity="0" stroke-width="3.2" fill="#f2b326"/><path d="M131.04 117.36c-2.63-4.35-7.1-6.6-12.14-6.3h-.3v-.3c-3.6-2.1-7.67-2.1-11.17 0-1.94 1.2-3 3.3-2.52 5.55.2 1.8 1.18 3.16 2.73 3.9.68.3 1.36.3 2.04.3 1.55 0 2.9-.44 4.17-1.34 1.46-.9 2.53-1.95 3.4-3.45.1 1.96.6 3.6 1.66 5.4 1.16 2.1 3.2 3.6 5.63 3.9h.78c1.75 0 3.3-.6 4.47-1.94 1.65-1.5 2.14-3.6 1.27-5.7zm-18.46-.3c-1.16.9-2.43 1.2-3.8.75-.76-.44-1.25-1.04-1.25-1.94-.3-1.2.2-2.25 1.17-2.85 1.16-.74 2.43-1.04 3.8-1.04 1.25 0 2.4.3 3.58.75-.78 1.8-1.85 3.3-3.5 4.36zm15.54 4.2c-.87.9-2.04 1.35-3.2 1.2-1.75-.3-3-1.2-3.9-2.7-1.06-1.95-1.35-3.9-1.06-6 3.6 0 6.6 1.65 8.65 4.65.5 1.06.3 2.1-.48 2.86z" stroke="#000" stroke-opacity="0" stroke-width="3.2" fill="#2787b6"/><path d="M128.6 119.46c-1.64-4.2-4.95-7.2-9.4-8.25h-.6c-.1-.14-.3-.14-.38-.3-4-.9-7.68.16-10.6 3-1.93 1.5-2.8 3.9-2.22 6.3.3 1.5 1.26 2.56 2.7 2.86.4.15.7.15 1.08.15 2.14 0 3.9-.9 5.25-2.4 1.16-1.2 1.94-2.24 2.72-3.74-.1 1.8.1 3.3.48 5.1.6 2.7 2.33 4.8 4.96 5.7.28.15.57.15.96 0 1.45 0 2.72-.45 3.7-1.5 1.74-1.95 2.22-4.5 1.35-6.9zm-16.02-.6c-.87 1.2-2.23 1.8-3.7 1.65-.47-.14-.77-.6-.86-1.04-.3-1.5.3-2.85 1.45-3.75 1.85-1.8 4-2.54 6.4-2.54h.4c-.87 2.25-2.04 4.05-3.78 5.7zm12.82 5.7c-1.16 1.05-1.94.9-2.13.9-1.75-.75-2.82-2.25-3.2-4.05-.8-2.54-.88-4.8-.3-7.5 3.1 1.2 5.24 3.3 6.4 6.46.5 1.5.2 3-.77 4.2z" stroke="#000" stroke-opacity="0" stroke-width="3.2" fill="#51e4fd"/><path d="M119.2 114.5c-.3 0-.6-.14-.8-.44-.28-1.2 0-2.25.8-3.15.28-.3.76-.3 1.15 0 .3.3.3.76 0 1.06v.15c-.3.3-.48.76-.4 1.2.2.3 0 .76-.38 1.06zM116.66 113.9c-.3 0-.58-.14-.68-.44-.3-.6-.3-1.35 0-1.95.2-.44.5-.9.97-1.2.5-.14.88 0 1.07.46.2.45 0 .9-.4 1.05-.18.3-.28.6-.08.9.1.46 0 .9-.5 1.06-.1.15-.18.15-.38.15z" stroke="#000" stroke-opacity="0" stroke-width="3.2" fill="#2abadb"/><path d="M117.92 114.36c-.38 0-.68-.15-.77-.6-.4-1.2 0-2.4.87-3.45.3-.3.78-.3 1.07 0h.1c.28.3.28.9 0 1.2-.5.6-.7 1.2-.6 1.8.2.46-.1.9-.48 1.06z" stroke="#000" stroke-opacity="0" stroke-width="3.2" fill="#44d9f2"/><g opacity=".5" stroke="#000" stroke-opacity="0" stroke-width="3.2"><path d="M423.38 179.77c-4.76-2.55-7.48-7.05-7.77-12.6 2.73 5.55 5.25 8.85 10 10.5l4.38-5.55c-4.66-1.95-8.06-5.1-10.1-9.75-3.8-8.4-2.33-20.56-.97-36.3 1.47-15.9-7.57-28.52-23.6-28.52-17.18 0-23.1 11.86-24.17 27.9-.88 13.8-1.46 27.92-6.6 39.77-4 9.15-10.4 15.9-19.53 20.1l6.4 4.65c5.25-3 9.14-6.75 12.44-11.85-2.04 5.4-4.95 9.6-9.32 13.5l8.06 3.15c4.47-5.1 7.28-10.5 9.13-17.1.5 5.4-2.8 13.35-4.65 17.7 5.53 1.2 10.5 1.2 16.02 0 2.43-6.75 3.9-12.6 5.05-19.65.68 6.9.4 12.75-.87 19.65 7.57 0 14.08-1.35 21.07-4.35-1.55-5.1-1.94-9.75-1.26-15 .3 4.95 2.14 9.15 5.54 12.75 4.66-1.8 8.15-4.65 10.78-9z" fill="#2176ab" fill-opacity=".5"/><path d="M418.8 172.57c1.86-1.5 3.22-3 4.77-4.8-1.65-1.65-2.82-3.3-3.7-5.4-3.78-8.4-2.32-20.56-.96-36.3 1.47-15.9-7.57-28.52-23.6-28.52-17.18 0-23.1 11.86-24.17 27.9-.88 13.8-1.46 27.92-6.6 39.77-2.34 5.25-5.25 9.3-9.62 13.35 2.14 1.2 4 2.25 6.22 3.15 1.07-1.2 1.85-2.25 2.62-3.6-.48 1.35-1.06 2.55-1.74 3.9 2.42 1.05 4.46 1.65 7.1 2.25 1.05-2.25 1.83-4.2 2.4-6.75.2 2.55 0 4.8-.67 7.2 5.25.9 9.9 1.2 15.25.6.97-3.3 1.56-6.15 2.04-9.6.4 3.3.4 6.15.2 9.45 6.7-.9 12.23-2.4 18.35-5.1 0-1.5.1-2.7.4-4.05.1 1.2.28 2.4.57 3.6 3.6-1.65 6.5-3.45 9.7-5.85-1.15-2.1-1.73-4.05-1.73-6.45.98 1.95 1.95 3.45 3.2 5.25z" fill="#353535"/><path d="M413.47 177.82c0 2.4-2.04 4.35-4.47 4.2h-.1c-2.42-.15-4.36-2.1-4.27-4.65.1-2.4 2.14-4.35 4.57-4.2 2.52 0 4.37 2.1 4.27 4.5v.15zM415.6 196.27c-.1 2.7-2.32 4.8-4.95 4.66-2.62-.15-4.66-2.4-4.56-4.96.1-2.7 2.32-4.8 4.94-4.65 2.72.15 4.76 2.4 4.57 4.95z" fill="#efc69b"/><path d="M404.63 177.37l1.46 18.45 9.5.45-2.13-19.35-8.84.45z" fill="#efc69b"/><path d="M415.6 196.27c1.08 6.46 2.63 11.86 5.15 18 .3.76.2 1.5-.3 2.1-1.93 1.8-4.26 2.4-6.88 2.26-4.57-.3-6.9-2.4-6.9-4.35l-.58-18.46z" fill="#efc69b"/><path d="M415.6 196.27c-.1 2.7-2.32 4.8-4.95 4.66-2.62-.15-4.66-2.4-4.56-4.96.1-2.7 2.32-4.8 4.94-4.65 2.72.15 4.76 2.4 4.57 4.95z" fill="#efc69b"/><path d="M416.2 222.23c-.8.15-1.47.15-2.34 0-5.15 0-7.77-2.25-7.67-4.35l-.2-3.3c0-.45 1.93-1.95 5.62-2.85 3.6-.6 7 .3 9.72 2.7l.58 4.05c0 .45-.2.9-.58 1.2-1.46 1.35-3.1 2.25-5.15 2.55z" fill="#242c3d"/><path d="M416 218.78c-.78.15-1.46.15-2.24 0-4.76 0-7.38-2.1-7.38-4.35l-.3-6.3c0-.15.1-.3.2-.3h.3c1.94 1.2 4.07 1.65 6.4 1.2 1.85-.15 3.4-1.05 4.57-2.4h.2c.1 0 .2 0 .28.15.78 2.7 1.56 4.95 2.82 7.35.4.9.3 1.8-.3 2.55-1.35 1.2-2.8 1.95-4.55 2.1z" fill="#d3e1e2"/><path d="M420.27 212.33c-1.26.6-2.04 1.65-2.53 2.85-.2.3-.2.6-.2.9-1.16-.75-2.22-1.2-3.58-1.2-1.07-.15-2.04 0-3.2.3-1.17.45-2.05 1.05-2.73 2.1-.2.3-.1.9.3 1.2.38.3.96.15 1.26-.15 2.02-1.95 5.23-1.95 7.17 0 .3.3.5.6.78 1.05.2.3.68.6 1.16.45.6-.15 1-.75.8-1.35-.7-1.8-.1-3.75 1.55-4.95.38-.15.48-.6.3-1.05-.2-.45-.7-.45-1.08-.3z" fill="#6242ba"/><path d="M391.33 180.52l-2.04 19.8 10 2.26 1.45-20.86-9.42-1.2z" fill="#ffe7ce"/><path d="M400.65 182.62c-.58 2.55-3.2 4.2-5.73 3.6-2.53-.6-4.18-3.15-3.6-5.7.6-2.55 3.2-4.2 5.74-3.6 2.52.6 4.17 3.15 3.6 5.7zM399.3 202.58c-.7 2.7-3.4 4.5-6.13 3.75-2.72-.6-4.47-3.3-3.88-6 .67-2.86 3.4-4.5 6.2-3.9 2.72.6 4.47 3.45 3.8 6.15z" fill="#ffe7ce"/><path d="M399.3 202.58c-.2 7.05.38 13.05 1.84 19.95.3.9 0 1.65-.68 2.25-2.43 1.35-4.96 1.8-7.68 1.05-4.76-1.2-6.9-3.9-6.4-5.85l3-19.65z" fill="#ffe7ce"/><path d="M399.3 202.58c-.7 2.7-3.4 4.5-6.13 3.75-2.72-.6-4.47-3.3-3.88-6 .67-2.86 3.4-4.5 6.2-3.9 2.72.6 4.47 3.45 3.8 6.15z" fill="#ffe7ce"/><path d="M394.63 230.03c-.88 0-1.65-.15-2.53-.3-5.34-1.35-7.57-4.2-7.18-6.45l.48-3.15c0-.6 2.53-1.65 6.4-1.8 3.9 0 7.3 1.65 9.63 4.8l-.3 4.35c-.1.45-.38.9-.77 1.2-1.85 1.05-3.7 1.5-5.73 1.35z" fill="#31394a"/><path d="M395.1 226.43c-.86 0-1.54-.15-2.32-.3-5.05-1.2-7.18-4.05-6.8-6.45l1.07-6.9c0-.15.1-.15.3-.15.1-.15.1-.15.2 0 1.83 1.8 3.97 2.55 6.6 2.55 1.94.15 3.78-.3 5.33-1.5.1-.15.2-.15.3 0 .1 0 .2.15.2.3.18 2.85.57 5.4 1.35 8.25.3 1.05 0 1.95-.78 2.55-1.75 1.2-3.4 1.65-5.44 1.65z" fill="#fff"/><path d="M400.94 220.43c-1.46.45-2.43 1.2-3.2 2.55-.2.3-.3.45-.4.9-1.84-1.95-4.27-2.7-6.9-2.4-1.25.15-2.32.6-3.2 1.5-.38.45-.38 1.05 0 1.35.4.45 1.08.45 1.46 0 2.53-1.5 5.93-.75 7.48 1.8.3.3.4.6.6 1.05v.15c.08.45.57.75 1.15.75.68 0 1.17-.6 1.07-1.2-.3-2.1.78-4.05 2.62-4.8.5-.15.68-.6.58-1.05-.2-.6-.68-.75-1.16-.6z" fill="#7a54ce"/><path d="M408.32 152.47c3.5 4.05 6.7 7.35 10.6 10.95l4.07-5.1c-4.1-2.85-7.4-5.4-11.08-8.7z" fill="#efc69b"/><path d="M418.9 163.42c1.37 1.05 3.3.9 4.38-.45 1.16-1.35.97-3.45-.4-4.5-1.35-1.2-3.4-.9-4.46.45h-.1c-1.06 1.5-.77 3.45.6 4.5zM408.32 152.47c.78 1.05 2.24 1.2 3.2.3.78-.75.98-1.96.3-2.86-.68-1.04-2.14-1.34-3.2-.6-.98.76-1.07 2.27-.3 3.17z" fill="#efc69b"/><path d="M421.43 156.22c2.43 1.8 4 3.15 3 6-.67 2.55-3.3 4.05-5.8 3.45-.98-.3-1.66-.6-2.34-1.35-3.8-3.3-6.42-6.6-8.46-11.1-2.43-4.66 2.04-5.86 4.08-4.2 2.04 1.64 7 5.4 9.5 7.2z" fill="#b6d6d6"/><path d="M418.9 163.42c3.6 3.45 6.9 6 11.08 8.7 2.43 1.05 5.25.45 6.9-1.65 2.23-2.7 2.62-5.7-.98-6.9-4.66-1.5-8.44-3.15-12.9-5.25z" fill="#efc69b"/><path d="M418.9 163.42c1.37 1.05 3.3.9 4.38-.45 1.16-1.35.97-3.45-.4-4.5-1.35-1.2-3.4-.9-4.46.45h-.1c-1.06 1.5-.77 3.45.6 4.5z" fill="#efc69b"/><path d="M435.9 163.57c-2.42 5.7.2 13.95.68 17.4-2.33-4.05-4.75-7.2-8.06-10.5-2.52-2.85-3.4-6.3-2.42-9.9l8.64 1.2c.78.3 1.26 1.05 1.16 1.8z" fill="#7a54ce"/><path d="M434.74 161.77c.3-.45.4-2.25-2.9-2.4-3.4-.15-6.33-.9-9.43-2.4-2.42-1.05-5.72.75-5.72 5.85 0 2.1 1.06 10.35 1.74 16.8l9.23 6.6 8.25-7.35c-1.94-6.45-3.1-13.95-1.16-17.1z" fill="#b6d6d6"/><path d="M418.52 179.62c0 1.5.3 3.45.4 5.1l11.06 7.35 7.96-7.2c-.87-2.7-1.65-5.4-1.94-6-3.8 2.1-12.53 1.65-17.48.75z" fill="#20b0d9"/><path d="M419.98 180.97h7.18c.1 0 .2.15.3.15 1.55 0 2.8-1.2 2.9-2.7-.28-1.5-1.64-2.7-3.2-2.7h-1.65c-1.15 0-2.03-.75-2.22-1.95 0-1.05 1.07-1.8 2.52-1.95h8.65v-.9l-10.2-.15c-2.14.15-3.7 1.35-3.6 2.85.3 1.65 1.76 2.85 3.4 2.7h1.17c1.26-.15 2.33.75 2.53 1.95-.1 1.2-1.07 2.1-2.33 1.95h-4z" fill="#20b0d9"/><path d="M418.9 184.72v6.3l7.3 6.45 10-1.5 2.8-5.1c-.28-1.65-.67-3.9-1.15-6-6.4 2.1-12.53 2.1-18.94-.15z" fill="#2783c1"/><path d="M419 191.02c-.2 2.25-.2 4.05.2 6.15 1.17 1.8 11.36 3.16 18.65.6 1.07-.45 1.75-1.2 1.55-3.15 0-.9 0-2.1-.3-3.6-6.8 2.55-13.3 2.55-20.1 0z" fill="#1461a0"/><path d="M422.4 174.67l2.43 1.5c.2.15.2.45.1.6h-.1l-2.42 1.5c-.2.15-.38.15-.48-.15-.1 0-.1 0-.1-.15v-3.15c.1-.15.3-.3.5-.15h.1zM429.7 165.67l2.22 1.5c.2.15.2.3.1.6h-.1l-2.23 1.5c-.1 0-.4 0-.5-.15v-3.15c0-.15.1-.3.3-.3h.2z" fill="#ea9b1c"/><path d="M397.45 149v-4.64c0-2.85 2.33-5.1 5.14-5.1 2.8 0 5.04 2.25 5.04 5.1v3.3c2.92-.15 5.54 1.5 6.4 4.2 1.28 2.86 1.86 5.56 1.66 8.7-.2 1.96-1.16 5.4-1.65 7.96-.2 1.35-.2 2.4 0 3.6.88 2.55 1.27 4.65 1.56 7.35 0 4.2-2.42 7.8-6.4 9.45-1.56.75-3 1.2-4.76 1.65-6.3 1.35-11.66-.6-13.9-4.5-1.84-3-1.84-6.6 0-9.75 1.85-3 2.15-6.45.6-9.75-1.27-2.55-1.85-5.1-1.95-7.95-.1-5.85 5.04-8.4 8.25-9.6z" fill="#ffe7ce"/><path d="M407.64 147.66v-3.3-.9c-.2-2.85-2.62-4.95-5.44-4.65-2.8.16-4.95 2.7-4.75 5.56V149c-3.7 2.27.3 4.52 4.95 3.92 4.66-.6 10-3.3 5.24-5.26z" fill="#fcd2ae"/><path d="M397.64 157.12c-3.5-2.7-7.28-3.75-11.66-3.6-2.42.45-4.27 2.55-4.37 5.1-.28 5.7 1 10.8 3.8 15.75.1.3.2.45.4.75.96 1.05 2.7 1.2 3.78.3l10-8.55" fill="#20b0d9"/><path d="M396.1 149.3c1.44-1.34 6.78 1.06 9.8 3.32 1.06-1.66 1.65-3.3 2.13-5.1h1.17l1.55 3.14-3.7 6.16-11.74-6.76z" fill="#51e4fd"/><path d="M394.63 149.6c1.65-1.2 7.57 1.2 11.46 4.22 1.35-1.95 2.22-3.9 2.7-6.3l1.47.3-3.2 10.05-12.44-6.9z" fill="#7a54ce"/><path d="M400.36 191.62c-4.27.3-8.06-1.65-10.4-5.1-1.94-3.45-1.94-7.2 0-10.5 1.66-3 1.85-6.15.5-9.15-1.37-2.7-1.95-5.25-2.14-8.25.2-3.75 2.13-6.9 5.53-8.7.4-.16.78-.3 1.17-.3 4.27 1.65 7.77 3.6 11.36 6.3 1.94-2.4 3-4.96 3.2-8.1 0-.16.4-.3 1.07 0 1.75.9 3.1 2.1 4 3.9 1.35 3 1.93 5.7 1.73 8.85 0 1.35-.58 2.85-.87 4.65-.28 1.2-.57 2.4-.77 3.6-.2 1.05-.2 1.95 0 3.15.88 2.55 1.27 4.8 1.56 7.35 0 4.5-2.64 8.4-6.8 10.05-3.02 1.5-5.84 2.1-9.14 2.25z" fill="#e7f1f2"/><path d="M394.43 153.07c1.56.75 2.92 1.5 4.28 2.55 2.92 1.95 5.16 3.9 7.68 6.3.4.3.87.3 1.17 0 1.74-2.25 2.9-4.5 3.88-7.35.5-1.35.78-2.55 1.07-3.9v-1.36c-.4-.3-.68-.6-1.07-.74 0 .6-.1 1.2-.2 1.8-.3 1.36-.67 2.56-1.16 3.76-.87 2.4-1.94 4.2-3.4 6.15-2.52-2.1-4.76-3.9-7.48-5.7-1.56-.9-2.92-1.65-4.57-2.25-1.07-.45-2.04-.6-3.2-.6-.4.15-.6.45-.88.75 1.36-.15 2.62.15 3.88.6z" fill="#aaccce"/><path d="M414.64 168.97l7.18 10.8c.68.9.78 1.95.5 3.15-1.18 3.75-6.13 7.95-15.84 9.6-9.7 1.5-20.8-1.95-24.48-8.1-.97-1.8-.68-3.9.78-5.25l8.55-8.55z" fill="#7a54ce"/><path d="M414.34 169.72c.1.45 5.64 18.9 5.64 18.9-4.76 5.7-20.4 7.8-28.07 4.05l4.28-21.6z" fill="#8d6ceb"/><path d="M404.63 172.72l-1.65 12.75-.87.9s-15.05-2.85-17.77-10.5l.6-1.35 5.62-3.15z" fill="#e7f1f2"/><path d="M402.98 185.62l-.2 1.65c-8.15-.6-16.7-5.1-19.42-11.7l1.56-.9c2.52 7.2 12.62 10.2 18.06 10.95z" fill="#1cceed"/><path d="M408.32 171.97l3.2 11.85c2.44-.6 4.28-1.65 6.13-3.45 2.04-2.1 2.9-4.65 2.62-7.5l-4.76-4.05z" fill="#e7f1f2"/><path d="M420.37 172.87c-1.36 4.95-4.28 8.55-8.65 11.1l.5 1.65c4.07-2.4 8.73-7.35 9.2-11.85z" fill="#1cceed"/><path d="M412.1 182.17h-.18c-3.5-.75-6.4-2.1-9.23-4.35-.3-.3-.2-.9.1-1.05.28-.3.67-.3.96 0 2.72 1.95 5.34 3.15 8.54 3.9.4.15.6.45.5.9 0 .3-.3.6-.7.6z" fill="#ea9b1c"/><path d="M402.6 183.67c-.3 0-.6-.15-.7-.45-.18-.45 0-.9.4-1.05 3.4-1.2 5.83-3.3 7.67-6.45.2-.3.68-.45 1.07-.3.4.15.58.6.4 1.05-2.05 3.45-4.77 5.7-8.46 7.05-.1 0-.2.15-.4.15z" fill="#f2b326"/><path d="M412.8 157.42c-2.34.45-4.2 1.65-5.74 3.45-2.33-.9-4.47-1.35-7-1.35-5.24 0-9.6 1.65-9.6 3.75s4.17 3.6 9.6 3.6c3.2.3 6.03-.45 8.75-2.25.8.15 1.47.15 2.24 0 2.82-.75 4.76-2.7 5.64-5.55.2-1.35-.68-2.25-3.9-1.65z" fill="#2787b6"/><path d="M416.68 159.07c1.35-1.2 1.55 9.15.2 12-1.47 2.85-17.5 7.8-27.2 1.8-.4-.15-.68-.6-.68-1.05l-.6-9.15c0-.45.3-.75.6-.75h.2c6.7 2.85 20.77 3.3 27.48-2.85z" fill="#7bf6ff"/><path d="M389.58 170.62v-4.65l-.97-.45.3 4.95.68.15zM393.66 171.37c-1.36-.15-2.62-.45-3.98-.75v2.1c1.36.75 2.42 1.2 3.88 1.65v-3.15zM389.68 165.97c1.26.3 2.62.45 3.88.75v-3.6c-1.46-.3-2.62-.6-3.98-1.05v3.9z" fill="#1cceed"/><path d="M397.54 167.02c-1.36 0-2.62-.15-3.98-.45v4.8c1.36.15 2.62.3 3.98.3v-4.65z" fill="#1cceed"/><path d="M401.33 171.67h-3.8v3.6c1.37.15 2.44.3 3.8.3v-3.9zM397.54 167.02h3.8v-3.15h-3.9v3.15z" fill="#1cceed"/><path d="M405.12 166.72c-1.26 0-2.43.3-3.8.3v4.65c1.37 0 2.54-.15 3.8-.3v-4.5zM408.9 170.77c-1.26.3-2.52.45-3.78.6v3.9c1.36-.15 2.52-.3 3.8-.6v-3.9zM405.12 166.87c1.26 0 2.52-.45 3.8-.6v-3.15c-1.37.3-2.44.45-3.8.6v3.3z" fill="#1cceed"/><path d="M412.6 165.52l-3.7.9v4.5c1.27-.15 2.43-.6 3.7-.9v-4.5z" fill="#1cceed"/><path d="M415.4 168.67c-.96.45-1.93.9-2.8 1.2v3.6c.97-.3 1.84-.75 2.8-1.2v-3.6zM412.6 165.37c.87-.45 1.84-.75 2.8-1.2v-4.2c-.96.6-1.83 1.2-2.8 1.65v3.75zM417.84 162.97c-.87.45-1.55.9-2.43 1.2v4.5c.7-.3 1.47-.75 2.25-1.2.1-1.5.2-2.85.2-4.5z" fill="#1cceed"/><path d="M418.62 163.57c-1.46 2.55-3.6 4.35-6.4 5.25-2.63 1.05-5.06 1.65-7.88 1.95-2.82.15-5.24.15-8.06-.3-2.82-.3-5.24-1.2-7.67-2.7-.48-.3-.67-1.05-.38-1.5h.1c.3-.6.97-.75 1.55-.45 2.14 1.35 4.18 2.1 6.7 2.55 2.62.3 4.86.45 7.48.15 2.62-.15 4.86-.6 7.28-1.65 2.33-.75 4.08-2.1 5.35-4.2.2-.45.77-.75 1.35-.45.5.15.78.75.6 1.35z" fill="#f2b326"/><path d="M410.17 169.12c0 1.5-1.17 2.7-2.62 2.7-1.46 0-2.72-1.2-2.72-2.7 0-1.5 1.26-2.7 2.72-2.7 1.45 0 2.62 1.2 2.62 2.7z" fill="#31394a"/><path d="M408.23 168.22c0 .75-.6 1.2-1.36 1.2-.68 0-1.27-.45-1.27-1.2s.6-1.35 1.27-1.35c.77 0 1.36.6 1.36 1.35z" fill="#606f89"/><path d="M395.3 157.27c-2.7 5.85-5.24 10.65-8.54 16.2l-6.4-4.5c3.78-4.65 6.7-8.7 9.8-13.8z" fill="#ffe7ce"/><path d="M386.76 173.47c-1.26 1.8-3.7 2.25-5.44.9-1.75-1.2-2.13-3.6-.97-5.4 1.26-1.8 3.7-2.25 5.44-.9h.1c1.64 1.2 2.12 3.6.86 5.4zM395.3 157.27c-.57 1.5-2.23 2.1-3.58 1.5-1.46-.6-2.04-2.25-1.46-3.6.58-1.35 2.13-2.1 3.6-1.5 1.35.6 2.03 2.25 1.45 3.6z" fill="#ffe7ce"/><path d="M380.45 174.67c-1.75-1.65-1.94-4.05-.58-6 2.9-3.45 5.14-6.45 7.57-10.35l2.24-3.45c.58-1.2 1.74-1.95 3.1-1.95.5 0 .88.15 1.27.3 1.74.75 2.52 2.7 1.84 4.5l-5.84 16.95c-1.45 3-7.18 2.55-9.6 0z" fill="#fff"/><path d="M386.76 173.47c-3 5.1-5.92 9.15-9.8 13.65-2.44 2.1-5.83 2.25-8.46.45-3.5-2.25-4.95-5.7-1.26-8.25 4.86-3.3 8.74-6.45 13.2-10.35z" fill="#ffe7ce"/><path d="M386.76 173.47c-1.26 1.8-3.7 2.25-5.44.9-1.75-1.2-2.13-3.6-.97-5.4 1.26-1.8 3.7-2.25 5.44-.9h.1c1.64 1.2 2.12 3.6.86 5.4z" fill="#ffe7ce"/><path d="M376.95 187.12c-2.43 2.1-5.82 2.25-8.45.45-.4-.15-.58-.45-.87-.6-2.14 6.45-2.53 12.3-1.26 19.06l12.04-19.66-.67-.15c-.2.3-.5.6-.78.9z" fill="#5b3da3"/><path d="M370.25 176.17c-.48.3-.68.75-.48 1.35.77-.45 3.2 2.1 1.94 7.2-.87 4.35-5.33 10.35-5.33 18.16 1.74-5.86 4.08-8.26 6.9-14.1 2.13-3.6 2.52-7.66 1.16-11.7-.97-3.46-4.08-.9-4.08-.9" fill="#7a54ce"/><path d="M370.25 176.17c-.78-1.35.97-3 2.72-3.9 2.9-.9 5.25-2.1 7.48-4.2 2.23-2.1 5.83-1.8 7.87.45.68.9 1.06 1.65 1.26 2.7.1 5.55-.3 10.2-1.36 15.45l-1.36 7.65-2.53 5.86-15.73 6.45-2.33-4.05c.87-3.6 2.04-6.46 3.8-9.6 2.42-3.6 3.58-7.2 3.77-11.56-.3-5.25-2.23-6-3.6-5.25z" fill="#fff"/><path d="M366.27 202.58c-.58 2.1-.87 3.9-.97 6.15l4.37 2.55 14.66-7.65 1.95-4.35c0-1.2.3-2.86.58-4.8-3.3 3-13.6 9-20.6 8.1z" fill="#3ecced"/><path d="M386.28 199.28v4.35c0 2.55-4.67 9.3-10.6 11.4-6 2.1-10.38 1.65-10.48-.45-.1-2.1 0-3.75 0-5.85 8.84.45 17.4-5.85 21.08-9.45z" fill="#369ed8"/><path d="M386.18 203.63c.3 1.95.2 3.6-.2 5.55-.97 2.7-10.3 11.4-18.55 11.85-.97.15-1.84-.6-1.94-1.65 0-1.2-.2-2.85-.3-4.8 8.45-1.05 15.25-4.65 20.98-10.95z" fill="#216ead"/><path d="M384.04 197.02l-3.6 1.66c-1.45.6-2.52 0-2.52-1.36.1-1.65.98-3 2.53-3.75l1.07-.45c2.04-1.05 3.3-2.85 3.5-4.95v-.3c0-1.8-1.56-2.7-3.5-1.8l-10.7 5.4-.57 1.05 9.32-4.65c1.46-.6 2.63 0 2.63 1.5v.15c-.2 1.5-.97 2.7-2.24 3.45l-1.65.75c-1.93 1.05-3.1 2.7-3.2 4.96 0 1.8 1.37 2.7 3.2 1.95l7.3-3.46z" fill="#3ecced"/><path d="M376.27 181.27l3.4 1.35c.3.3.3.75 0 1.05l-3.4 2.7c-.4.3-.77 0-.77-.3v-4.2c0-.3.3-.6.58-.6h.2zM383.36 191.02l2.33 1.05c.2 0 .2.45 0 .6l-2.34 1.95c-.1.15-.3.15-.48.15-.1-.15-.2-.3-.1-.45v-3c.1-.15.3-.3.58-.3z" fill="#ffc248"/><path d="M414.34 87.5c11.66 5.1 17.3 13.95 15.16 31.2-.5 3.6-.5 6.76 0 10.36.38 2.7-.5 5.25-2.43 7.2-3.8 4.05-11.75 9.6-27 10.65-16.5 1.2-32.93-6.9-34.97-30.14-2.04-23.26 26.42-39.46 49.24-29.26z" fill="#ffe7ce"/><path d="M372.3 115.26c-1.47-16.2 13.6-28.96 30.88-30.6-19.82-1.8-39.63 12.74-37.88 31.95 1.84 23.4 18.26 31.5 34.77 30.3 6.4-.3 11.85-1.64 17.77-4.2-3.7.9-6.8 1.36-10.6 1.66-16.5 1.05-32.8-6.9-34.95-29.1z" fill="#fcd2ae"/><path d="M396.28 127.4c4.47 0 5.05 10.96 0 10.96s-4.37-11.25 0-10.95z" fill="#20b0d9"/><path d="M396.28 127.4c-3.3-.3-4.47 6.16-2.62 9.3l6.4-2.24c.2-3.3-1.06-7.05-3.78-7.05z" fill="#2787b6"/><path d="M396.28 127.4c-2.23 0-3.5 2.7-3.5 5.56l6.8-2.25c-.48-1.94-1.65-3.3-3.3-3.3z" fill="#353535"/><path d="M420.95 120.8c3.98 0 4.47 11.1 0 11.1-4.57 0-3.98-11.1 0-11.1z" fill="#20b0d9"/><path d="M420.95 120.8c-3 0-4.08 6.16-2.53 9.3l5.64-2.24c.38-3.15-.78-7.05-3.1-7.05z" fill="#2787b6"/><path d="M420.95 120.8c-2.04 0-3.2 2.86-3.2 5.7l6.1-2.54c-.47-1.65-1.44-3.15-2.9-3.15z" fill="#353535"/><path d="M409.97 140.16c-.97 0-1.74-.3-2.33-.9-.3-.3-.2-.9.1-1.05.3-.3.68-.3.97 0 .5.3.98.46 1.57.3.67 0 1.16-.44 1.45-1.04.2-.3.68-.45 1.07-.3.38.15.57.6.38 1.05h-.1c-.48 1.06-1.46 1.8-2.52 1.96z" fill="#ff7c79"/><path d="M422.4 140.9c1.95 8.56 1.85 16.22-.2 24.62l5.74-3.75c1.85-6.9 1.65-13.2-.68-19.96-.58-1.64-1.07-3.14-1.55-4.34-1.16 1.05-2.13 1.8-3.4 2.7.1.3.1.6.1.75z" fill="#2787b6"/><path d="M422.4 140.9c1.46 5.86 1.75 10.97.98 16.82l5.63-3.6c.1-4.36-.48-8.1-1.93-12.3-.5-1.5-.97-3.16-1.46-4.36-1.16 1.05-2.22 1.8-3.5 2.7.3.3.3.6.3.75z" fill="#31394a"/><path d="M427.46 142.7c.77 2.4 1.26 4.66 1.45 7.2l-5.14 3.62c.2-2.86.1-5.26-.3-8.1z" fill="#4a5272"/><path d="M385.5 123.36c-.68 15.3 2.33 19.95 6.12 30.9 3.6 10.06 2.72 15.9 1.26 19.2l-7.1-.9c2.54-7.64 2.54-15 0-22.8-3.58-10.5-5.43-20.4-3.58-27.15z" fill="#2787b6"/><path d="M385.5 123.36c-.68 15.3 2.33 19.95 6.12 30.9 1.65 4.2 2.43 8.1 2.52 12.76l-6.9-.6c.78-5.85.3-10.95-1.45-16.5-3.6-10.5-5.45-20.4-3.5-27.16z" fill="#31394a"/><path d="M392 155.17c.98 2.7 1.46 5.1 1.85 7.95l-6.3-.45c.18-2.85.1-5.1-.3-7.95z" fill="#4a5272"/><path d="M436.2 116.46c-.3.15-.68.15-1.07 0-5.93-4.65-9.42-10.65-10.7-18-.08-.6.3-1.2.9-1.36.67-.15 1.25.3 1.35.9 1.26 6.76 4.37 12 9.6 16.36.6.3.8.9.5 1.5-.1.3-.3.45-.5.45z" fill="#2abadb"/><path d="M441.15 116l-4.76-1.2h-.7c-.47.3-.67.9-.38 1.36l1.75 4.2v.15c.5.6 1.17.76 1.75.3.68-.3.87-1.2.58-1.8l-.78-1.34 1.75.6H440.67c.67.15 1.35-.3 1.45-.9.1-.6-.4-1.2-.97-1.35z" fill="#2abadb"/><path d="M439.2 119.9l-3.68-3.6c-.2-.3-.2-.74 0-.9.3-.3.58-.3.87 0l4.36 2.7c.58.3.78 1.2.4 1.8-.4.46-1.18.6-1.76.3z" fill="#51e4fd"/><path d="M437.75 114.36c.58 1.2.1 2.55-1.07 3.15l-.1.16c-1.06.6-2.52.15-3.1-1.05l-.1-.14c-.5-1.2 0-2.55 1.17-3.15 1.16-.6 2.62-.14 3.2 1.06z" fill="#f2b326"/><path d="M437.46 97.7c-3.9-2.55-8.35-2.7-12.43-.45l-.2.15c-.2.3.78 4.2.78 4.2.8 1.65 1.76 2.7 3.22 3.76 1.84 1.35 3.98 1.8 6.2 1.05l.6-.14c1.45-.75 2.42-1.95 2.9-3.46.78-1.8.4-3.75-1.06-5.1zm-.97 4.2c-.3 1.2-.98 1.96-2.05 2.26-1.46.45-2.92.15-4.18-.76-1.55-1.2-2.62-2.55-3.2-4.5 3-1.35 6.12-1.2 8.93.45.78.75.97 1.8.5 2.55z" fill="#2787b6"/><path d="M436.2 100.4c-2.92-3-6.8-4.2-10.88-3.3-.2 0-.4.15-.5.3-.18-.15-.28-.15-.47 0l1.45 5.4c.68 1.5 1.46 2.7 2.53 3.9 1.55 2.1 3.8 3 6.22 2.86l.87-.3c1.16-.6 1.94-1.5 2.33-2.85.68-2.1.2-4.5-1.55-6zm-.68 5.26c-.5 1.5-1.17 1.5-1.36 1.65-1.65 0-3.1-.74-4.08-2.1-1.65-1.8-2.62-3.6-3.2-6 2.9-.3 5.43.6 7.57 2.7 1.07 1.05 1.45 2.4 1.07 3.76z" fill="#51e4fd"/><path d="M426.68 99.95c-.3.15-.58.15-.88 0-.68-.75-.87-1.8-.48-2.85.1-.45.48-.6.87-.45.38.15.67.45.48.9v.15c-.2.3-.1.75.1 1.05.3.3.3.75 0 1.05l-.1.15zM424.35 100.4c-.3.15-.5.15-.78 0-.48-.45-.78-.9-.78-1.5-.1-.6.1-1.05.38-1.35.3-.3.68-.3.97 0 .3.15.3.6 0 .9-.1.3 0 .75.3.9.3.3.3.75 0 1.05z" fill="#2abadb"/><path d="M425.6 100.25c-.28.15-.57.15-.86-.15-.78-.9-.98-2.1-.6-3.15.1-.45.5-.75.9-.6.38 0 .67.45.57.9 0 0 0 .15-.1.15-.18.6-.08 1.2.3 1.65.3.3.3.75 0 1.05z" fill="#44d9f2"/><path d="M436.5 119l-.6-3.74c-1.84-3.45-3.2-6.3-4.37-10.05-2.52-7.05-6.2-12.6-11.94-17.7-13.8-12.15-29.63-6.75-32.55-3.15-21.56-1.05-25.83 25.5-27.48 33.9-.68 3.6-1.85 6.46-3.9 9.6l5.26 8.86 8.64 1.2c.3-1.04.58-2.1.97-3.14-.1 1.2-.1 2.1 0 3.3l6.12 4.65 5.63-2.7c-.2-4.8.2-9 1.45-13.64-.4 2.4-.48 4.5-.4 6.9l4.58 5.25 1.26-4.94c-.5-9.75 2.03-18.15 7.66-26.1-2.52 7.8-2.8 16.05-1.65 18.9 2.83.15 5.26-.15 7.98-.9 3.6-4.05 4.95-10.2 4.95-18.3 1.46 6 1.46 11.4 0 17.4 5.15-.75 9.42-2.55 13.8-5.55.77-2.54 1.06-4.94.86-7.64-.3-2.7-.7-4.8-1.27-7.5 3.6 5.85 5.63 11.55 6.4 18.3l4.1 4.35z" fill="#31394a"/><path d="M395.2 108.2c-13.6 0-24.85-5.55-27.86-12.9-2.33 3.75-3.9 7.35-5.15 11.56 5.72 6.45 16.5 10.8 29.03 11.55 1.26-3.9 2.72-6.9 4.95-10.2zM430.76 103.25c-1.85-4.2-3.9-7.65-6.9-11.25-.48 8.85-12.43 16.06-27.4 16.36-.96 3.6-1.54 6.6-1.93 10.35h.68c4.2 0 7.68-.44 11.86-1.2.78-3.6 1.07-6.6.97-10.2.97 3.3 1.26 6.16 1.07 9.6 5.05-1.04 9.23-2.84 13.6-5.54-.2-2.7-.6-4.8-1.27-7.5 1.27 2.1 2.24 3.9 3.2 6.15 2.63-1.8 4.48-3.9 6.13-6.75z" fill="#4a5272"/><path d="M355.68 128c-.87 1.5-1.74 2.56-2.9 3.9 2.42 2.26 4.94 3.76 8.15 4.8l2.13-4.64c-2.7-1.05-4.95-2.25-7.38-4.05z" fill="#197693"/><path d="M382.97 146.16c-.38-2.25-.58-4.2-.68-6.45-4.18 0-7.68-.6-11.66-1.8.1 1.66.4 3.3.5 4.66 3.77 2.25 7.46 3.3 11.83 3.6zM368.8 141.66c.1-1.5.38-2.55.77-3.9-2.8-.75-5.15-1.65-7.67-3.15l-.97 2.26-.97 1.95c2.72 1.8 5.53 2.56 8.83 2.86z" fill="#2787b6"/><path d="M383.36 133.26c0 3.3.4 6.3 1.36 9.45 2.72 1.5 5.44 1.8 8.35 1.06-2.52-3-3.78-6.3-3.88-10.2-2.15.15-3.9 0-5.84-.3z" fill="#319ec9"/><path d="M438.53 117.8c-1.07-.6-1.95-1.5-2.63-2.54-1.06 2.55-2.42 4.65-4.46 6.75l.58 4.5c2.43-1.64 6.5-6.3 6.5-8.7z" fill="#1f7ea3"/><path d="M427.94 132.8c2.04-.74 3.5-2.1 4.27-4.04v-2.25l-.67-7.2c-.97 1.36-2.13 2.26-3.7 2.86.4 3.75.4 6.9.1 10.65z" fill="#319ec9"/><path d="M386.28 94.25c2.52-.3 4.56-.3 7.1-.3.86 0 1.83 2.4 1.54 3.15l-2.82 6.9c-.38.76-2.13.46-2.72-.6l-3.78-7.2c-.68-1.05-.3-2.1.68-1.95z" fill="#22adbc"/><path d="M385.1 93.05c2.83 0 5.26.3 8.07.75.58.15.97.75.88 1.35 0 .15-.1.15-.1.3-.97 2.4-2.04 4.8-3 7.2-.3.9-1.57.75-2.15-.3-1.55-2.4-2.9-4.95-4.37-7.2-.68-1.05-.2-2.25.68-2.1z" fill="#55e7ff"/><path d="M379 97.7c3.3-.75 6.2-1.05 9.6-1.2.88 0 2.14 2.25 1.85 3.15-1.36 3.3-2.62 6.46-3.88 9.9-.5.9-2.33.9-3-.3-1.76-3.14-3.5-6-5.26-8.85-.67-1.2-.28-2.55.7-2.7z" fill="#0b84a0"/><path d="M377.92 96.65c3.7-.45 6.8-.6 10.5-.3.67.15 1.16.6 1.06 1.35 0 0 0 .15-.1.15-1.36 3.45-2.72 6.9-3.98 10.36-.48 1.06-1.75.9-2.43 0-2.04-3.14-3.98-6-5.92-8.85-.58-.75-.58-1.65.1-2.25.2-.3.4-.45.77-.45z" fill="#1faedb"/><path d="M370.83 101.9c4.18-1.35 7.87-2.1 12.24-2.55.88 0 2.04 1.8 1.65 2.55-1.45 4.5-3.2 9-4.56 13.5-.3.76-1.07 1.06-1.85.9-.28-.14-.47-.44-.67-.74-2.62-3.75-5.14-7.35-7.67-10.8-.58-.9-.4-1.96.5-2.56.08-.15.18-.15.37-.3z" fill="#16557c"/><path d="M369.96 101.3c4.27-1.35 8.06-1.95 12.43-2.1h.96c.4.45.5 1.05.2 1.5-1.46 4.5-3.1 9-4.57 13.5-.3.76-1.08 1.2-1.76.9-.38-.14-.58-.3-.77-.6-2.53-3.74-4.37-7.34-6.8-10.64-.78-.9-.78-2.26.3-2.56z" fill="#2b73aa"/><path d="M370.06 104.16c-.6-.9-.4-1.96.48-2.56.1-.15.2-.15.3-.15 4.27-1.35 7.96-1.95 12.43-2.1-.2-.15-.5-.3-.78-.3-4.58.15-8.46.75-12.83 1.95-.1.15-.2.15-.3.3-.87.6-1.06 1.8-.48 2.56 2.42 3.45 5.04 6.9 7.57 10.65.4.76 1.16.9 1.84.6-.38-.14-.67-.3-.86-.6-2.53-3.6-4.95-7.04-7.38-10.34z" fill="#46aec6"/><path d="M380.84 135.5c-.4 0-.78-.14-1.07-.44-2.82-4.2-4.47-14.25-2.23-22.95.2-.74.87-1.2 1.55-.9.67.16 1.06.76.96 1.5-2.04 7.8-.68 17.1 1.85 20.86.4.6.3 1.35-.3 1.8-.28.15-.47.3-.76.15z" fill="#2abadb"/><path d="M386.08 137.46l-4.17-3.15c-.2-.14-.38-.3-.67-.3-.6 0-1.17.46-1.17 1.06v5.25c.2.9.97 1.36 1.75 1.36.88-.15 1.37-.9 1.27-1.8l-.3-1.65 1.56 1.5c.6.46 1.46.3 1.95-.3.48-.6.38-1.5-.2-1.94z" fill="#2abadb"/><path d="M382.3 140.6l-1.95-5.4c-.1-.44.1-.9.5-1.04.28-.15.67 0 .86.3l3.22 4.8c.4.75.2 1.5-.4 1.95-.67.46-1.55.3-1.93-.44-.2 0-.2-.15-.3-.15z" fill="#51e4fd"/><path d="M383.36 134.46c0 1.35-1.16 2.55-2.52 2.55-1.46 0-2.53-1.2-2.53-2.54 0-1.5 1.08-2.55 2.54-2.55 1.36 0 2.52 1.06 2.52 2.56z" fill="#ffc248"/><path d="M370.64 132.66c-.4-.15-.58-.6-.58-.9-.4-4.95 2.9-13.95 8.84-20.1.48-.45 1.26-.6 1.74 0 .5.45.5 1.2.1 1.65-5.44 5.56-8.64 13.8-8.25 18.16 0 .75-.5 1.35-1.18 1.35-.3 0-.5 0-.68-.14z" fill="#2abadb"/><path d="M373.94 136.7l-1.84-4.8c-.1-.14-.3-.3-.5-.44-.47-.3-1.15-.15-1.45.45l-2.42 4.06v.15c-.3.76.1 1.66.77 1.96.78.3 1.65-.15 1.95-.9l.58-1.5.48 1.95v.16c.1 0 .1 0 .1.15.3.6 1.08.9 1.76.6.68-.3.97-1.04.68-1.8z" fill="#2abadb"/><path d="M369.38 137.46l.97-5.4c0-.45.4-.6.78-.6.3 0 .58.3.58.6l.3 5.55c.1.76-.5 1.36-1.17 1.36h-.1c-.67 0-1.35-.45-1.45-1.2 0-.15 0-.3.1-.3z" fill="#51e4fd"/><path d="M373.17 132.8c-.68 1.06-2.04 1.5-3.2.9-1.18-.6-1.56-2.1-.98-3.3.67-1.2 2.22-1.5 3.4-.9 1.06.76 1.44 2.26.77 3.3z" fill="#f2b326"/><path d="M391.04 117.36c-2.63-4.35-7.1-6.6-12.14-6.3h-.3v-.3c-3.6-2.1-7.67-2.1-11.17 0-1.94 1.2-3 3.3-2.52 5.55.2 1.8 1.18 3.16 2.73 3.9.68.3 1.36.3 2.04.3 1.55 0 2.9-.44 4.17-1.34 1.46-.9 2.53-1.95 3.4-3.45.1 1.96.6 3.6 1.66 5.4 1.16 2.1 3.2 3.6 5.63 3.9h.78c1.75 0 3.3-.6 4.47-1.94 1.65-1.5 2.14-3.6 1.27-5.7zm-18.46-.3c-1.16.9-2.43 1.2-3.8.75-.76-.44-1.25-1.04-1.25-1.94-.3-1.2.2-2.25 1.17-2.85 1.16-.74 2.43-1.04 3.8-1.04 1.25 0 2.4.3 3.58.75-.78 1.8-1.85 3.3-3.5 4.36zm15.54 4.2c-.87.9-2.04 1.35-3.2 1.2-1.75-.3-3-1.2-3.9-2.7-1.06-1.95-1.35-3.9-1.06-6 3.6 0 6.6 1.65 8.65 4.65.5 1.06.3 2.1-.48 2.86z" fill="#2787b6"/><path d="M388.6 119.46c-1.64-4.2-4.95-7.2-9.4-8.25h-.6c-.1-.14-.3-.14-.38-.3-4-.9-7.68.16-10.6 3-1.93 1.5-2.8 3.9-2.22 6.3.3 1.5 1.26 2.56 2.7 2.86.4.15.7.15 1.08.15 2.14 0 3.9-.9 5.25-2.4 1.16-1.2 1.94-2.24 2.72-3.74-.1 1.8.1 3.3.48 5.1.6 2.7 2.33 4.8 4.96 5.7.28.15.57.15.96 0 1.45 0 2.72-.45 3.7-1.5 1.74-1.95 2.22-4.5 1.35-6.9zm-16.02-.6c-.87 1.2-2.23 1.8-3.7 1.65-.47-.14-.77-.6-.86-1.04-.3-1.5.3-2.85 1.45-3.75 1.85-1.8 4-2.54 6.4-2.54h.4c-.87 2.25-2.04 4.05-3.78 5.7zm12.82 5.7c-1.16 1.05-1.94.9-2.13.9-1.75-.75-2.82-2.25-3.2-4.05-.8-2.54-.88-4.8-.3-7.5 3.1 1.2 5.24 3.3 6.4 6.46.5 1.5.2 3-.77 4.2z" fill="#51e4fd"/><path d="M379.2 114.5c-.3 0-.6-.14-.8-.44-.28-1.2 0-2.25.8-3.15.28-.3.76-.3 1.15 0 .3.3.3.76 0 1.06v.15c-.3.3-.48.76-.4 1.2.2.3 0 .76-.38 1.06zM376.66 113.9c-.3 0-.58-.14-.68-.44-.3-.6-.3-1.35 0-1.95.2-.44.5-.9.97-1.2.5-.14.88 0 1.07.46.2.45 0 .9-.4 1.05-.18.3-.28.6-.08.9.1.46 0 .9-.5 1.06-.1.15-.18.15-.38.15z" fill="#2abadb"/><path d="M377.92 114.36c-.38 0-.68-.15-.77-.6-.4-1.2 0-2.4.87-3.45.3-.3.78-.3 1.07 0h.1c.28.3.28.9 0 1.2-.5.6-.7 1.2-.6 1.8.2.46-.1.9-.48 1.06z" fill="#44d9f2"/></g><defs><path d="M217 13C126 13 58-43 58-141c0-118 103-177 334-203 0-70-23-137-112-137-63 0-120 29-163 58l-36-63c50-32 127-71 214-71 132 0 188 89 188 223V0h-75l-8-65h-3c-52 43-113 78-180 78zm26-73c53 0 96-25 149-72v-152c-183 22-245 67-245 137 0 62 42 87 96 87" id="c"/><path d="M241 5C155 32 92-8 92-108v-688h91v694c3 37 15 43 45 37" id="d"/><path d="M92 229v-772h75l8 62h3c49-40 110-76 173-76 140 0 216 110 216 277C567-22 349 94 181-50c3 91 2 185 2 279H92zm91-349C317-1 471-73 472-279c0-120-40-201-143-201-46 0-93 26-146 75v285" id="e"/><path d="M92 0v-796h91c0 111 1 223-3 330 50-50 106-91 180-91 114 0 166 74 166 213V0h-91v-332c0-102-31-145-103-145-56 0-94 28-149 83V0H92" id="f"/><path d="M239 197C147 47 92-114 92-311c0-196 55-358 147-507l57 26c-171 284-171 678 0 962" id="g"/><path d="M88 0v-76h163v-547H121v-58c65-12 112-29 152-52h70v657h147V0H88" id="h"/><path d="M139 13c-36 0-66-28-66-69s30-71 66-71 66 30 66 71-30 69-66 69" id="i"/><path d="M278 13C138 13 49-114 49-369s89-378 229-378c139 0 228 124 228 378 0 255-89 382-228 382zm0-73c83 0 139-93 139-309 0-214-56-304-139-304-84 0-140 90-140 304 0 216 56 309 140 309" id="j"/><path d="M99 197l-56-27c171-284 171-678 0-962l56-26c93 149 148 311 148 507 0 197-55 358-148 508" id="k"/><g id="a"><use transform="matrix(0.022222222222222223,0,0,0.022222222222222223,0,0)" xlink:href="#c"/><use transform="matrix(0.022222222222222223,0,0,0.022222222222222223,12.533333333333333,0)" xlink:href="#d"/><use transform="matrix(0.022222222222222223,0,0,0.022222222222222223,18.866666666666667,0)" xlink:href="#e"/><use transform="matrix(0.022222222222222223,0,0,0.022222222222222223,32.644444444444446,0)" xlink:href="#f"/><use transform="matrix(0.022222222222222223,0,0,0.022222222222222223,46.13333333333333,0)" xlink:href="#c"/><use transform="matrix(0.022222222222222223,0,0,0.022222222222222223,58.66666666666667,0)" xlink:href="#g"/><use transform="matrix(0.022222222222222223,0,0,0.022222222222222223,66.17777777777778,0)" xlink:href="#h"/><use transform="matrix(0.022222222222222223,0,0,0.022222222222222223,78.5111111111111,0)" xlink:href="#i"/><use transform="matrix(0.022222222222222223,0,0,0.022222222222222223,84.68888888888888,0)" xlink:href="#j"/><use transform="matrix(0.022222222222222223,0,0,0.022222222222222223,97.02222222222221,0)" xlink:href="#k"/></g><path d="M261 13C147 13 77-35 28-84l45-60c42 42 95 81 180 81 86 0 156-66 156-173 0-105-60-167-152-167-49 0-80 15-122 43l-49-30 23-343h357v78H189l-18 212c32-18 65-29 109-29 122 0 221 72 221 233S385 13 261 13" id="l"/><g id="b"><use transform="matrix(0.022222222222222223,0,0,0.022222222222222223,0,0)" xlink:href="#c"/><use transform="matrix(0.022222222222222223,0,0,0.022222222222222223,12.533333333333333,0)" xlink:href="#d"/><use transform="matrix(0.022222222222222223,0,0,0.022222222222222223,18.866666666666667,0)" xlink:href="#e"/><use transform="matrix(0.022222222222222223,0,0,0.022222222222222223,32.644444444444446,0)" xlink:href="#f"/><use transform="matrix(0.022222222222222223,0,0,0.022222222222222223,46.13333333333333,0)" xlink:href="#c"/><use transform="matrix(0.022222222222222223,0,0,0.022222222222222223,58.66666666666667,0)" xlink:href="#g"/><use transform="matrix(0.022222222222222223,0,0,0.022222222222222223,66.17777777777778,0)" xlink:href="#j"/><use transform="matrix(0.022222222222222223,0,0,0.022222222222222223,78.5111111111111,0)" xlink:href="#i"/><use transform="matrix(0.022222222222222223,0,0,0.022222222222222223,84.68888888888888,0)" xlink:href="#l"/><use transform="matrix(0.022222222222222223,0,0,0.022222222222222223,97.02222222222221,0)" xlink:href="#k"/></g></defs></g></svg>