<svg xmlns="http://www.w3.org/2000/svg" viewBox="0 0 100 50"><rect x="9.13" y="5.13" width="81.75" height="39.75" style="fill:#fff"/><path d="M90.75,5.25v39.5H9.25V5.25h81.5M91,5H9V45H91V5Z" style="fill:#333"/><path d="M10.5,3.66H9.3V1.37h.25V3.45h.95Z" style="fill:#333"/><path d="M12.21,2.83a.79.79,0,0,1-.77.87.77.77,0,0,1-.75-.85A.78.78,0,0,1,11.46,2,.77.77,0,0,1,12.21,2.83Zm-.76-.65c-.35,0-.5.35-.5.66s.2.66.49.66.51-.29.51-.66S11.81,2.18,11.45,2.18Z" style="fill:#333"/><path d="M13.69,3.6a1.06,1.06,0,0,1-.45.09.76.76,0,0,1-.78-.83A.82.82,0,0,1,13.3,2a1,1,0,0,1,.4.09l-.07.2a.63.63,0,0,0-.33-.08.59.59,0,0,0-.58.65.58.58,0,0,0,.57.65.75.75,0,0,0,.35-.08Z" style="fill:#333"/><path d="M15.11,3.27a2.36,2.36,0,0,0,0,.39H14.9l0-.21h0a.58.58,0,0,1-.49.25.45.45,0,0,1-.47-.47c0-.39.34-.61.95-.6,0-.14,0-.45-.38-.45a.77.77,0,0,0-.4.11L14,2.12a1,1,0,0,1,.5-.14c.47,0,.59.33.59.66Zm-.25-.46c-.31,0-.7,0-.7.39a.28.28,0,0,0,.28.31.4.4,0,0,0,.42-.39Z" style="fill:#333"/><path d="M15.83,3.66h-.25V1.26h.25Z" style="fill:#333"/><path d="M18.13,3.6a1,1,0,0,1-.44.09.76.76,0,0,1-.78-.83A.82.82,0,0,1,17.75,2a.92.92,0,0,1,.39.09l-.06.2a.68.68,0,0,0-.34-.08.59.59,0,0,0-.58.65.58.58,0,0,0,.57.65.77.77,0,0,0,.36-.08Z" style="fill:#333"/><path d="M19.87,2.83a.78.78,0,0,1-.77.87.76.76,0,0,1-.74-.85A.78.78,0,0,1,19.12,2,.77.77,0,0,1,19.87,2.83Zm-.75-.65c-.36,0-.51.35-.51.66s.2.66.5.66.5-.29.5-.66S19.47,2.18,19.12,2.18Z" style="fill:#333"/><path d="M21.64,2.83a.79.79,0,0,1-.77.87.76.76,0,0,1-.74-.85A.77.77,0,0,1,20.89,2,.77.77,0,0,1,21.64,2.83Zm-.76-.65c-.35,0-.5.35-.5.66s.2.66.5.66.5-.29.5-.66S21.24,2.18,20.88,2.18Z" style="fill:#333"/><path d="M22.76,2.23h-.09c-.27,0-.41.27-.41.54v.89H22V2.51c0-.17,0-.33,0-.49h.22v.32h0A.48.48,0,0,1,22.69,2h.07Z" style="fill:#333"/><path d="M24.37,3.26c0,.13,0,.29,0,.4h-.23V3.38h0a.58.58,0,0,1-.53.32.74.74,0,0,1-.68-.83c0-.56.33-.88.71-.88a.53.53,0,0,1,.48.25h0v-1h.25Zm-.25-.58a.45.45,0,0,0-.44-.49c-.31,0-.49.29-.49.66s.16.64.48.64a.47.47,0,0,0,.45-.5Z" style="fill:#333"/><path d="M25,1.73a.16.16,0,0,1-.17-.17A.16.16,0,0,1,25,1.4a.15.15,0,0,1,.16.16A.16.16,0,0,1,25,1.73Zm.12,1.93h-.25V2h.25Z" style="fill:#333"/><path d="M26.92,3.66h-.25v-1c0-.26-.1-.5-.38-.5a.44.44,0,0,0-.43.47v1h-.25V2.44c0-.16,0-.29,0-.42h.23v.27h0A.58.58,0,0,1,26.36,2c.21,0,.56.13.56.68Z" style="fill:#333"/><path d="M28.47,3.27a1.58,1.58,0,0,0,0,.39h-.23l0-.21h0a.56.56,0,0,1-.48.25.46.46,0,0,1-.48-.47c0-.39.34-.61.95-.6,0-.14,0-.45-.37-.45a.77.77,0,0,0-.4.11l-.06-.17a1,1,0,0,1,.5-.14c.46,0,.58.33.58.66Zm-.25-.46c-.3,0-.69,0-.69.39a.28.28,0,0,0,.28.31.4.4,0,0,0,.41-.39Z" style="fill:#333"/><path d="M29,1.73l.25-.09V2h.43v.2h-.43v.95c0,.2.06.32.22.32a.37.37,0,0,0,.17,0l0,.2a.81.81,0,0,1-.25,0c-.39,0-.41-.36-.41-.53V2.22h-.25V2H29Z" style="fill:#333"/><path d="M31.17,3.59a1.09,1.09,0,0,1-.51.1.74.74,0,0,1-.77-.82c0-.52.29-.89.73-.89a.67.67,0,0,1,.64.75c0,.06,0,.1,0,.14H30.14c0,.46.26.63.55.63a1,1,0,0,0,.43-.09ZM31,2.68c0-.22-.09-.51-.41-.51s-.43.29-.46.51Z" style="fill:#333"/><path d="M32.39,2.27a.57.57,0,0,0-.31-.09.25.25,0,0,0-.28.24c0,.14.09.21.3.3s.42.24.42.49-.22.48-.58.48a.83.83,0,0,1-.43-.11l.07-.19A.81.81,0,0,0,32,3.5c.22,0,.33-.11.33-.26S32.19,3,32,2.91s-.41-.26-.41-.46A.48.48,0,0,1,32.09,2a.78.78,0,0,1,.38.1Z" style="fill:#333"/><path d="M35,2.83a.78.78,0,0,1-.77.87.76.76,0,0,1-.74-.85A.78.78,0,0,1,34.24,2,.77.77,0,0,1,35,2.83Zm-.75-.65c-.36,0-.51.35-.51.66s.21.66.5.66.5-.29.5-.66S34.59,2.18,34.24,2.18Z" style="fill:#333"/><path d="M35.39,2a.88.88,0,0,1,.18-.65A.53.53,0,0,1,36,1.22a.55.55,0,0,1,.25.05l-.05.19a.68.68,0,0,0-.19,0c-.25,0-.32.24-.32.5V2H36v.2h-.4V3.66h-.25V2.22h-.22V2Z" style="fill:#333"/><path d="M37.06,1.73l.25-.09V2h.42v.2h-.42v.95c0,.2.06.32.22.32a.4.4,0,0,0,.17,0v.2a.74.74,0,0,1-.24,0c-.4,0-.41-.36-.41-.53V2.22h-.25V2h.25Z" style="fill:#333"/><path d="M39.37,3.66h-.25v-1c0-.26-.1-.5-.38-.5a.45.45,0,0,0-.43.46v1h-.25V1.26h.25v1h0a.62.62,0,0,1,.51-.3c.2,0,.55.13.55.68Z" style="fill:#333"/><path d="M41,3.59a1.18,1.18,0,0,1-.52.1.74.74,0,0,1-.76-.82c0-.52.29-.89.73-.89a.67.67,0,0,1,.64.75c0,.06,0,.1,0,.14H40c0,.46.27.63.56.63A1.07,1.07,0,0,0,41,3.41Zm-.16-.91c0-.22-.09-.51-.41-.51a.51.51,0,0,0-.46.51Z" style="fill:#333"/><path d="M42.4,2.3A.6.6,0,0,1,43,2c.38,0,.66.34.66.84s-.35.88-.71.88a.57.57,0,0,1-.49-.26h0v.89h-.25V2.55c0-.21,0-.38,0-.53h.23V2.3Zm0,.71a.47.47,0,0,0,.46.49c.32,0,.5-.28.5-.67s-.17-.64-.49-.64a.5.5,0,0,0-.47.51Z" style="fill:#333"/><path d="M45.07,3.27a2.36,2.36,0,0,0,0,.39h-.22l0-.21h0a.56.56,0,0,1-.48.25.46.46,0,0,1-.48-.47c0-.39.34-.61,1-.6,0-.14,0-.45-.37-.45a.77.77,0,0,0-.4.11L44,2.12a1,1,0,0,1,.5-.14c.46,0,.58.33.58.66Zm-.25-.46c-.31,0-.69,0-.69.39a.28.28,0,0,0,.28.31.4.4,0,0,0,.41-.39Z" style="fill:#333"/><path d="M46.3,2.23h-.09c-.27,0-.41.27-.41.54v.89h-.25V2.51c0-.17,0-.33,0-.49h.21l0,.32h0A.48.48,0,0,1,46.22,2h.08Z" style="fill:#333"/><path d="M47.75,3.59a1.18,1.18,0,0,1-.52.1.74.74,0,0,1-.76-.82c0-.52.29-.89.73-.89a.67.67,0,0,1,.63.75v.14H46.71c0,.46.26.63.56.63a1.07,1.07,0,0,0,.43-.09Zm-.16-.91c0-.22-.09-.51-.42-.51s-.43.29-.45.51Z" style="fill:#333"/><path d="M49.51,3.66h-.25v-1c0-.26-.09-.5-.38-.5a.45.45,0,0,0-.43.47v1H48.2V2.44c0-.16,0-.29,0-.42h.22l0,.27h0A.6.6,0,0,1,49,2c.2,0,.55.13.55.68Z" style="fill:#333"/><path d="M50.06,1.73l.25-.09V2h.42v.2h-.42v.95c0,.2.06.32.22.32a.43.43,0,0,0,.17,0v.2a.74.74,0,0,1-.24,0c-.4,0-.41-.36-.41-.53V2.22h-.25V2h.25Z" style="fill:#333"/><path d="M11.1,9.54a2.23,2.23,0,0,1-.44-1.38,2.23,2.23,0,0,1,.44-1.4h.2a2.33,2.33,0,0,0-.42,1.4,2.31,2.31,0,0,0,.42,1.38Z" style="fill:#333"/><path d="M12.79,7.49l-.54.79.55.84h-.28l-.25-.38-.17-.29h0c-.05.1-.11.19-.17.29l-.24.38H11.4L12,8.29l-.53-.8h.28l.23.36.17.27h0l.16-.27.23-.36Z" style="fill:#333"/><path d="M13,7.74a.18.18,0,1,1,.18.19A.18.18,0,0,1,13,7.74ZM13,9a.18.18,0,1,1,.18.19A.18.18,0,0,1,13,9Z" style="fill:#333"/><path d="M13.62,8c0-.79.3-1.17.72-1.17S15,7.24,15,8s-.27,1.18-.72,1.18S13.62,8.76,13.62,8Zm1.16,0c0-.56-.14-1-.45-1s-.46.36-.46,1,.17,1,.45,1S14.78,8.52,14.78,8Z" style="fill:#333"/><path d="M15.7,8.73a4.12,4.12,0,0,1-.3.8l-.19,0a5.35,5.35,0,0,0,.2-.79Z" style="fill:#333"/><path d="M18,7.49l-.44,1.16a2.73,2.73,0,0,1-.53,1,1,1,0,0,1-.34.19l-.07-.21a1,1,0,0,0,.53-.59.11.11,0,0,0,0-.07l-.58-1.51h.28l.36,1c0,.11.07.24.1.34h0c0-.1.07-.22.1-.35l.34-1Z" style="fill:#333"/><path d="M18.2,7.74a.17.17,0,0,1,.17-.19.19.19,0,0,1,0,.38A.17.17,0,0,1,18.2,7.74ZM18.2,9a.17.17,0,0,1,.17-.19.19.19,0,0,1,0,.38A.17.17,0,0,1,18.2,9Z" style="fill:#333"/><path d="M18.79,8c0-.79.31-1.17.73-1.17s.69.4.69,1.14-.28,1.18-.73,1.18S18.79,8.76,18.79,8ZM20,8c0-.56-.13-1-.45-1s-.45.36-.45,1,.16,1,.44,1S20,8.52,20,8Z" style="fill:#333"/><path d="M20.59,6.76A2.24,2.24,0,0,1,21,8.15a2.2,2.2,0,0,1-.44,1.39h-.2a2.32,2.32,0,0,0,.43-1.39,2.32,2.32,0,0,0-.43-1.39Z" style="fill:#333"/><rect x="36" y="22.25" width="27" height="17" style="fill:#dcdcdc;stroke:#333;stroke-miterlimit:10;stroke-width:0.25px"/><path d="M37.72,26.54a2.16,2.16,0,0,1-.45-1.38,2.23,2.23,0,0,1,.45-1.4h.2a2.27,2.27,0,0,0-.43,1.4,2.31,2.31,0,0,0,.43,1.38Z" style="fill:#333"/><path d="M39.41,24.49l-.54.79.55.84h-.28l-.25-.38-.18-.29h0a2.29,2.29,0,0,1-.18.29l-.24.38H38l.56-.83-.54-.8h.28l.24.36.17.27h0c0-.09.1-.18.16-.27l.23-.36Z" style="fill:#333"/><path d="M39.64,24.74a.18.18,0,1,1,.18.19A.18.18,0,0,1,39.64,24.74Zm0,1.23a.18.18,0,1,1,.18.19A.18.18,0,0,1,39.64,26Z" style="fill:#333"/><path d="M41.4,25.06a.64.64,0,0,1-.52.25.62.62,0,0,1-.62-.68.73.73,0,0,1,.71-.79c.42,0,.69.36.69.94a1.23,1.23,0,0,1-1,1.36l-.27,0V26a.63.63,0,0,0,.23,0,.91.91,0,0,0,.74-.87Zm-.89-.45c0,.31.17.51.43.51a.45.45,0,0,0,.46-.37c0-.43-.16-.72-.45-.72S40.51,24.27,40.51,24.61Z" style="fill:#333"/><path d="M41.89,25c0-.79.31-1.17.73-1.17s.69.4.69,1.14-.28,1.18-.73,1.18S41.89,25.76,41.89,25Zm1.16,0c0-.56-.13-.95-.45-.95s-.45.36-.45.95.16,1,.44,1S43.05,25.52,43.05,25Z" style="fill:#333"/><path d="M44,25.73a4.8,4.8,0,0,1-.31.8l-.18,0a4.35,4.35,0,0,0,.19-.79Z" style="fill:#333"/><path d="M46.26,24.49l-.43,1.16a2.87,2.87,0,0,1-.54,1,1,1,0,0,1-.33.19l-.07-.21a1,1,0,0,0,.53-.59.25.25,0,0,0,0-.07l-.58-1.51h.27l.36,1a2.56,2.56,0,0,1,.1.34h0l.11-.35.33-1Z" style="fill:#333"/><path d="M46.47,24.74a.18.18,0,1,1,.18.19A.18.18,0,0,1,46.47,24.74Zm0,1.23a.18.18,0,1,1,.18.19A.18.18,0,0,1,46.47,26Z" style="fill:#333"/><path d="M48.34,23.87v.21h-.81l-.09.64.17,0a.7.7,0,0,1,.76.7.74.74,0,0,1-.77.76,1.06,1.06,0,0,1-.52-.13l.07-.2a.83.83,0,0,0,.45.13.51.51,0,0,0,.52-.53c0-.31-.2-.53-.62-.53l-.29,0,.14-1.05Z" style="fill:#333"/><path d="M48.72,25c0-.79.3-1.17.72-1.17s.69.4.69,1.14-.27,1.18-.72,1.18S48.72,25.76,48.72,25Zm1.16,0c0-.56-.13-.95-.45-.95S49,24.4,49,25s.17,1,.45,1S49.88,25.52,49.88,25Z" style="fill:#333"/><path d="M50.52,23.76A2.24,2.24,0,0,1,51,25.15a2.26,2.26,0,0,1-.44,1.39h-.21a2.46,2.46,0,0,0,0-2.78Z" style="fill:#333"/><line x1="36" y1="5.17" x2="36" y2="5.67" style="fill:none;stroke:#333;stroke-miterlimit:10;stroke-width:0.25px"/><line x1="36" y1="6.66" x2="36" y2="22.01" style="fill:none;stroke:#333;stroke-miterlimit:10;stroke-width:0.25px;stroke-dasharray:0.9898275136947632,0.9898275136947632"/><line x1="36" y1="22.5" x2="36" y2="23" style="fill:none;stroke:#333;stroke-miterlimit:10;stroke-width:0.25px"/><line x1="36" y1="22.31" x2="35.5" y2="22.31" style="fill:none;stroke:#333;stroke-miterlimit:10;stroke-width:0.25px"/><line x1="34.54" y1="22.31" x2="9.98" y2="22.31" style="fill:none;stroke:#333;stroke-miterlimit:10;stroke-width:0.25px;stroke-dasharray:0.9629631042480469,0.9629631042480469"/><line x1="9.5" y1="22.31" x2="9" y2="22.31" style="fill:none;stroke:#333;stroke-miterlimit:10;stroke-width:0.25px"/><path d="M38.82,12.49l-.54.79.56.84h-.29l-.25-.38-.17-.29h0c0,.1-.11.19-.17.29l-.24.38h-.28l.56-.83-.53-.8h.28l.24.36c.06.09.11.18.16.27h0c.05-.09.11-.18.17-.27l.23-.36Z" style="fill:#333"/><path d="M39.06,12.74a.17.17,0,0,1,.17-.19.19.19,0,0,1,0,.38A.17.17,0,0,1,39.06,12.74Zm0,1.23a.17.17,0,0,1,.17-.19.19.19,0,0,1,0,.38A.17.17,0,0,1,39.06,14Z" style="fill:#333"/><path d="M40.93,11.87v.21h-.81l-.09.64.17,0a.7.7,0,0,1,.76.7.75.75,0,0,1-.78.76,1.13,1.13,0,0,1-.52-.13l.08-.2a.79.79,0,0,0,.44.13.51.51,0,0,0,.52-.53c0-.31-.19-.53-.61-.53l-.29,0,.14-1.05Z" style="fill:#333"/><path d="M41.3,13c0-.79.31-1.17.73-1.17s.69.4.69,1.14-.28,1.18-.72,1.18S41.3,13.76,41.3,13Zm1.17,0c0-.56-.14-1-.46-1s-.45.36-.45,1,.16,1,.45,1S42.47,13.52,42.47,13Z" style="fill:#333"/><path d="M22.15,24.49l-.44,1.16a2.72,2.72,0,0,1-.54,1,1,1,0,0,1-.33.19l-.07-.21a1,1,0,0,0,.53-.59.25.25,0,0,0,0-.07l-.58-1.51H21l.36,1c0,.11.08.24.11.34h0c0-.1.06-.22.1-.35l.33-1Z" style="fill:#333"/><path d="M22.35,24.74a.18.18,0,1,1,.18.19A.18.18,0,0,1,22.35,24.74Zm0,1.23a.18.18,0,1,1,.18.19A.18.18,0,0,1,22.35,26Z" style="fill:#333"/><path d="M24.11,25.06a.64.64,0,0,1-.52.25.63.63,0,0,1-.62-.68.73.73,0,0,1,.71-.79c.42,0,.69.36.69.94a1.23,1.23,0,0,1-1,1.36l-.26,0V26a.66.66,0,0,0,.23,0,.93.93,0,0,0,.74-.87Zm-.89-.45c0,.31.17.51.43.51a.46.46,0,0,0,.47-.37c0-.43-.16-.72-.46-.72S23.22,24.27,23.22,24.61Z" style="fill:#333"/><path d="M24.6,25c0-.79.31-1.17.73-1.17s.69.4.69,1.14-.28,1.18-.72,1.18S24.6,25.76,24.6,25Zm1.17,0c0-.56-.14-.95-.46-.95s-.45.36-.45.95.16,1,.45,1S25.77,25.52,25.77,25Z" style="fill:#333"/></svg>