<svg id="レイヤー_1" data-name="レイヤー 1" xmlns="http://www.w3.org/2000/svg" viewBox="0 0 30.4 46.94">
    <defs>
        <style>.cls-1{fill:#2176ab;}.cls-2{fill:#353535;}.cls-3{fill:#efc69b;}.cls-4{fill:#242c3d;}.cls-5{fill:#d3e1e2;}.cls-6{fill:#6242ba;}.cls-7{fill:#ffe7ce;}.cls-8{fill:#31394a;}.cls-9{fill:#fff;}.cls-10{fill:#7a54ce;}.cls-11{fill:#b6d6d6;}.cls-12{fill:#20b0d9;}.cls-13{fill:#2783c1;}.cls-14{fill:#1461a0;}.cls-15{fill:#ea9b1c;}.cls-16{fill:#fcd2ae;}.cls-17{fill:#51e4fd;}.cls-18{fill:#e7f1f2;}.cls-19{fill:#aaccce;}.cls-20{fill:#8d6ceb;}.cls-21{fill:#1cceed;}.cls-22{fill:#f2b326;}.cls-23{fill:#2787b6;}.cls-24{fill:#7bf6ff;}.cls-25{fill:#606f89;}.cls-26{fill:#5b3da3;}.cls-27{fill:#3ecced;}.cls-28{fill:#369ed8;}.cls-29{fill:#216ead;}.cls-30{fill:#ffc248;}.cls-31{fill:#ff7c79;}.cls-32{fill:#4a5272;}.cls-33{fill:#2abadb;}.cls-34{fill:#44d9f2;}.cls-35{fill:#197693;}.cls-36{fill:#319ec9;}.cls-37{fill:#1f7ea3;}.cls-38{fill:#22adbc;}.cls-39{fill:#55e7ff;}.cls-40{fill:#0b84a0;}.cls-41{fill:#1faedb;}.cls-42{fill:#16557c;}.cls-43{fill:#2b73aa;}.cls-44{fill:#46aec6;}</style>
    </defs>
    <path class="cls-1" d="M26.31,33.48a4.77,4.77,0,0,1-2.43-3.95c.85,1.71,1.65,2.74,3.13,3.25l1.36-1.73A5.94,5.94,0,0,1,25.2,28c-1.17-2.62-.73-6.41-.29-11.36s-2.37-8.89-7.39-8.89c-5.38,0-7.23,3.67-7.57,8.71-.28,4.32-.45,8.75-2.06,12.42a12.28,12.28,0,0,1-6.11,6.31l2,1.46a11.6,11.6,0,0,0,3.91-3.71,10.69,10.69,0,0,1-2.92,4.23l2.5,1a14.1,14.1,0,0,0,2.87-5.36c.14,1.69-.89,4.19-1.45,5.54a12.61,12.61,0,0,0,5,0,35,35,0,0,0,1.58-6.14A21.55,21.55,0,0,1,15,38.32,16.51,16.51,0,0,0,21.6,37a11.32,11.32,0,0,1-.41-4.73,6.36,6.36,0,0,0,1.75,4A7.09,7.09,0,0,0,26.31,33.48Z" transform="translate(-1.78 -2.24)"/>
    <path class="cls-2" d="M24.87,31.2a10.59,10.59,0,0,0,1.49-1.51A5.47,5.47,0,0,1,25.2,28c-1.17-2.62-.73-6.41-.29-11.36s-2.37-8.89-7.39-8.89c-5.38,0-7.23,3.67-7.57,8.71-.28,4.32-.45,8.75-2.06,12.42a12.44,12.44,0,0,1-3,4.18,12.29,12.29,0,0,0,1.93,1,6.6,6.6,0,0,0,.82-1.14,9,9,0,0,1-.55,1.26,14.27,14.27,0,0,0,2.22.69,12.25,12.25,0,0,0,.78-2.1A7.13,7.13,0,0,1,9.86,35a17.81,17.81,0,0,0,4.78.21,21.19,21.19,0,0,0,.63-3,16.33,16.33,0,0,1,.06,2.94,20.39,20.39,0,0,0,5.75-1.61,9.34,9.34,0,0,1,.11-1.27,8.19,8.19,0,0,0,.19,1.14,16.91,16.91,0,0,0,3.05-1.84,4,4,0,0,1-.55-2A10.67,10.67,0,0,0,24.87,31.2Z" transform="translate(-1.78 -2.24)"/>
    <path class="cls-3" d="M23.22,32.84a1.37,1.37,0,0,1-1.44,1.32,1.39,1.39,0,1,1,1.44-1.32Z" transform="translate(-1.78 -2.24)"/><path class="cls-3" d="M23.89,38.63a1.5,1.5,0,1,1-1.43-1.56A1.5,1.5,0,0,1,23.89,38.63Z" transform="translate(-1.78 -2.24)"/><polygon class="cls-3" points="18.67 30.48 19.13 36.26 22.11 36.39 21.43 30.34 18.67 30.48"/><path class="cls-3" d="M23.89,38.63a24.59,24.59,0,0,0,1.59,5.62.61.61,0,0,1-.09.67,2.86,2.86,0,0,1-2.14.69c-1.45-.08-2.18-.74-2.17-1.34l-.18-5.78Z" transform="translate(-1.78 -2.24)"/><path class="cls-3" d="M23.89,38.63a1.5,1.5,0,1,1-1.43-1.56A1.5,1.5,0,0,1,23.89,38.63Z" transform="translate(-1.78 -2.24)"/><path class="cls-4" d="M24.07,46.75a4.68,4.68,0,0,1-.74,0c-1.6,0-2.42-.73-2.41-1.39l-.06-1c0-.17.62-.6,1.76-.88a3.53,3.53,0,0,1,3.05.82l.18,1.26a.63.63,0,0,1-.17.38A3.05,3.05,0,0,1,24.07,46.75Z" transform="translate(-1.78 -2.24)"/><path class="cls-5" d="M24,45.68a3.3,3.3,0,0,1-.7,0C21.8,45.67,21,45,21,44.32l-.1-2a.09.09,0,0,1,.06-.09h0a.08.08,0,0,1,.08,0,2.62,2.62,0,0,0,2,.37,2.17,2.17,0,0,0,1.45-.75s0,0,.06,0h0a.09.09,0,0,1,.08.06,13.67,13.67,0,0,0,.88,2.32.7.7,0,0,1-.09.78A2.72,2.72,0,0,1,24,45.68Z" transform="translate(-1.78 -2.24)"/><path class="cls-6" d="M25.33,43.64h0a1.71,1.71,0,0,0-.8.91,1.27,1.27,0,0,0-.06.28,2.27,2.27,0,0,0-1.1-.4,2.32,2.32,0,0,0-1,.11,1.63,1.63,0,0,0-.86.64.29.29,0,0,0,.08.39A.29.29,0,0,0,22,45.5h0a1.59,1.59,0,0,1,2.47.33h0l0,0a.34.34,0,0,0,.38.16.35.35,0,0,0,.25-.43,1.29,1.29,0,0,1,.47-1.52.25.25,0,0,0-.25-.44Z" transform="translate(-1.78 -2.24)"/><polygon class="cls-7" points="14.51 31.45 13.87 37.64 16.99 38.36 17.45 31.84 14.51 31.45"/><path class="cls-7" d="M19.19,34.36a1.49,1.49,0,1,1-1.12-1.79A1.49,1.49,0,0,1,19.19,34.36Z" transform="translate(-1.78 -2.24)"/><path class="cls-7" d="M18.77,40.59a1.6,1.6,0,1,1-1.2-1.92A1.6,1.6,0,0,1,18.77,40.59Z" transform="translate(-1.78 -2.24)"/><path class="cls-7" d="M18.77,40.59a26.69,26.69,0,0,0,.59,6.25.63.63,0,0,1-.22.69,3.07,3.07,0,0,1-2.4.32c-1.51-.36-2.16-1.2-2-1.83l.94-6.14Z" transform="translate(-1.78 -2.24)"/><path class="cls-7" d="M18.77,40.59a1.6,1.6,0,1,1-1.2-1.92A1.6,1.6,0,0,1,18.77,40.59Z" transform="translate(-1.78 -2.24)"/><path class="cls-8" d="M17.31,49.18a5.17,5.17,0,0,1-.79-.1c-1.66-.39-2.38-1.28-2.24-2l.15-1c0-.18.77-.51,2-.56a3.79,3.79,0,0,1,3,1.51l-.08,1.35a.66.66,0,0,1-.26.36A3.14,3.14,0,0,1,17.31,49.18Z" transform="translate(-1.78 -2.24)"/><path class="cls-9" d="M17.46,48.05a3.66,3.66,0,0,1-.74-.1c-1.57-.38-2.24-1.27-2.1-2l.32-2.15a.11.11,0,0,1,.08-.08h0a.12.12,0,0,1,.08,0,2.8,2.8,0,0,0,2.05.82,2.32,2.32,0,0,0,1.68-.49.11.11,0,0,1,.08,0h0a.11.11,0,0,1,.07.09,13.72,13.72,0,0,0,.43,2.61.73.73,0,0,1-.26.8A2.81,2.81,0,0,1,17.46,48.05Z" transform="translate(-1.78 -2.24)"/><path class="cls-10" d="M19.28,46.18h0a1.77,1.77,0,0,0-1,.78,1.18,1.18,0,0,0-.12.28A2.6,2.6,0,0,0,16,46.5a1.77,1.77,0,0,0-1,.49.32.32,0,0,0,0,.43.32.32,0,0,0,.45,0h0a1.71,1.71,0,0,1,2.52.86h0l0,.05a.36.36,0,0,0,.37.25.37.37,0,0,0,.35-.39,1.38,1.38,0,0,1,.81-1.5.27.27,0,0,0-.17-.52Z" transform="translate(-1.78 -2.24)"/><path class="cls-3" d="M21.6,24.92a45.75,45.75,0,0,0,3.31,3.43l1.27-1.59A34.73,34.73,0,0,1,22.71,24Z" transform="translate(-1.78 -2.24)"/><path class="cls-3" d="M24.91,28.35a1,1,0,1,0-.16-1.43A1,1,0,0,0,24.91,28.35Z" transform="translate(-1.78 -2.24)"/><path class="cls-3" d="M21.6,24.92a.71.71,0,0,0,1,.1.72.72,0,0,0-.91-1.11A.72.72,0,0,0,21.6,24.92Z" transform="translate(-1.78 -2.24)"/><path class="cls-11" d="M25.69,26.09c.77.55,1.27,1,.95,1.86a1.51,1.51,0,0,1-2.56.67,10.65,10.65,0,0,1-2.65-3.47c-.74-1.47.64-1.84,1.29-1.32S24.92,25.54,25.69,26.09Z" transform="translate(-1.78 -2.24)"/><path class="cls-3" d="M24.91,28.35a22.37,22.37,0,0,0,3.46,2.7,1.77,1.77,0,0,0,2.16-.51c.7-.82.82-1.76-.29-2.16a34.69,34.69,0,0,1-4.06-1.62Z" transform="translate(-1.78 -2.24)"/><path class="cls-3" d="M24.91,28.35a1,1,0,1,0-.16-1.43A1,1,0,0,0,24.91,28.35Z" transform="translate(-1.78 -2.24)"/><path class="cls-10" d="M30.24,28.38c-.76,1.79.05,4.38.19,5.44a14.85,14.85,0,0,0-2.52-3.28,3.37,3.37,0,0,1-.75-3.09l2.7.39A.53.53,0,0,1,30.24,28.38Z" transform="translate(-1.78 -2.24)"/><path class="cls-11" d="M29.86,27.84c.1-.16.11-.71-.9-.78A7.26,7.26,0,0,1,26,26.33c-.76-.32-1.8.23-1.8,1.8,0,.7.35,3.25.57,5.26l2.87,2.08,2.6-2.29C29.63,31.15,29.24,28.8,29.86,27.84Z" transform="translate(-1.78 -2.24)"/><path class="cls-12" d="M24.79,33.39c0,.51.09,1.09.13,1.63l3.44,2.29,2.5-2.25c-.26-.85-.51-1.69-.6-1.88C29.08,33.82,26.34,33.71,24.79,33.39Z" transform="translate(-1.78 -2.24)"/><path class="cls-12" d="M25.23,33.85h2.26a.87.87,0,0,0,1-.82,1,1,0,0,0-1-.82h-.52a.73.73,0,0,1-.69-.61v0c0-.33.34-.6.78-.62l2.72,0,0-.27-3.21-.07c-.67.07-1.13.44-1.11.9v0a1,1,0,0,0,1.07.83h.36a.74.74,0,0,1,.79.62.67.67,0,0,1-.75.61H25.7Z" transform="translate(-1.78 -2.24)"/><path class="cls-13" d="M24.92,35c0,.75,0,1.44,0,2l2.26,2,3.14-.46.88-1.6c-.08-.52-.21-1.24-.36-1.91A9,9,0,0,1,24.92,35Z" transform="translate(-1.78 -2.24)"/><path class="cls-14" d="M24.94,37a7,7,0,0,0,.06,1.9c.37.57,3.55,1,5.82.2.35-.13.55-.4.49-1,0-.26,0-.67-.09-1.12A8.82,8.82,0,0,1,24.94,37Z" transform="translate(-1.78 -2.24)"/><path class="cls-15" d="M26,31.85l.76.48a.13.13,0,0,1,0,.21L26,33a.12.12,0,0,1-.18-.1l0-1A.12.12,0,0,1,26,31.85Z" transform="translate(-1.78 -2.24)"/><path class="cls-15" d="M28.27,29.05l.71.45a.13.13,0,0,1,0,.2l-.69.46a.11.11,0,0,1-.17-.09l0-.92A.11.11,0,0,1,28.27,29.05Z" transform="translate(-1.78 -2.24)"/><path class="cls-7" d="M18.2,23.81V22.36a1.6,1.6,0,0,1,1.6-1.6h0a1.6,1.6,0,0,1,1.59,1.6v1.06a1.93,1.93,0,0,1,2,1.32,5.63,5.63,0,0,1,.51,2.69c-.07.63-.36,1.7-.51,2.52a3.06,3.06,0,0,0,0,1.13,9.9,9.9,0,0,1,.48,2.27,3.16,3.16,0,0,1-2,2.95,6.22,6.22,0,0,1-1.48.52c-2,.45-3.67-.18-4.36-1.37a3,3,0,0,1,0-3.06,3.28,3.28,0,0,0,.2-3.07,6.31,6.31,0,0,1-.63-2.48C15.58,25,17.2,24.2,18.2,23.81Z" transform="translate(-1.78 -2.24)"/><path class="cls-16" d="M21.39,23.42V22.36a1.6,1.6,0,1,0-3.19,0v1.45c-1.16.74.07,1.44,1.53,1.25S22.86,24,21.39,23.42Z" transform="translate(-1.78 -2.24)"/><path class="cls-12" d="M18.26,26.36a5.53,5.53,0,0,0-3.64-1.1,1.65,1.65,0,0,0-1.38,1.58,9.27,9.27,0,0,0,1.17,4.93.84.84,0,0,0,1.33.31l3.12-2.64" transform="translate(-1.78 -2.24)"/><path class="cls-17" d="M17.76,23.94c.46-.42,2.14.3,3.09,1a4.89,4.89,0,0,0,.64-1.59l.38,0,.5,1L21.2,26.29l-3.68-2.14Z" transform="translate(-1.78 -2.24)"/><path class="cls-10" d="M17.32,24c.52-.37,2.35.39,3.57,1.35a5.32,5.32,0,0,0,.85-2l.46.09-1,3.17-3.88-2.19Z" transform="translate(-1.78 -2.24)"/><path class="cls-18" d="M19.09,37.17a3.65,3.65,0,0,1-3.25-1.62,3.26,3.26,0,0,1,0-3.28A3.1,3.1,0,0,0,16,29.4a6.43,6.43,0,0,1-.65-2.56,3.14,3.14,0,0,1,1.72-2.72.6.6,0,0,1,.37-.09A14.43,14.43,0,0,1,21,26a4.59,4.59,0,0,0,1-2.53c0-.07.11-.13.32,0a2.73,2.73,0,0,1,1.26,1.21,5.9,5.9,0,0,1,.53,2.79c0,.38-.16.89-.28,1.44-.08.37-.17.76-.23,1.1a2.6,2.6,0,0,0,0,1,10.12,10.12,0,0,1,.48,2.32,3.35,3.35,0,0,1-2.12,3.12,6.38,6.38,0,0,1-2.85.7Z" transform="translate(-1.78 -2.24)"/><path class="cls-19" d="M17.25,25.12a8.61,8.61,0,0,1,1.35.76,20,20,0,0,1,2.4,2h0a.24.24,0,0,0,.34,0h0a8,8,0,0,0,1.22-2.3,7.41,7.41,0,0,0,.33-1.25c0-.13,0-.27,0-.4a3.19,3.19,0,0,0-.33-.25,3.93,3.93,0,0,1-.06.59,7.16,7.16,0,0,1-.36,1.17,7.64,7.64,0,0,1-1.07,1.92,20.12,20.12,0,0,0-2.33-1.77,8.46,8.46,0,0,0-1.44-.73,2.89,2.89,0,0,0-1-.2,3.31,3.31,0,0,0-.27.26A2.38,2.38,0,0,1,17.25,25.12Z" transform="translate(-1.78 -2.24)"/><path class="cls-10" d="M23.56,30.1l2.25,3.34a1.17,1.17,0,0,1,.16,1c-.37,1.16-1.9,2.5-4.95,3s-6.51-.6-7.66-2.55a1.34,1.34,0,0,1,.23-1.64l2.69-2.64Z" transform="translate(-1.78 -2.24)"/><path class="cls-20" d="M23.47,30.31c.05.15,1.76,5.92,1.76,5.92-1.47,1.77-6.36,2.45-8.76,1.27l1.32-6.75Z" transform="translate(-1.78 -2.24)"/><path class="cls-18" d="M20.45,31.24l-.53,4-.26.26s-4.71-.85-5.58-3.27l.19-.4,1.75-1Z" transform="translate(-1.78 -2.24)"/><path class="cls-21" d="M19.92,35.27l-.07.53c-2.54-.2-5.21-1.59-6.08-3.66l.5-.28C15.07,34.1,18.22,35.07,19.92,35.27Z" transform="translate(-1.78 -2.24)"/><path class="cls-18" d="M21.6,31l1,3.72a4.33,4.33,0,0,0,1.91-1.06,2.92,2.92,0,0,0,.81-2.38l-1.48-1.23Z" transform="translate(-1.78 -2.24)"/><path class="cls-21" d="M25.37,31.31a5.87,5.87,0,0,1-2.72,3.44l.15.52c1.28-.73,2.74-2.27,2.89-3.69Z" transform="translate(-1.78 -2.24)"/><path class="cls-15" d="M22.78,34.21h-.05a7.73,7.73,0,0,1-2.91-1.36.25.25,0,0,1,.35-.35,7.37,7.37,0,0,0,2.67,1.23A.25.25,0,0,1,23,34,.26.26,0,0,1,22.78,34.21Z" transform="translate(-1.78 -2.24)"/><path class="cls-22" d="M19.81,34.68a.25.25,0,0,1-.23-.15.25.25,0,0,1,.13-.33,4.7,4.7,0,0,0,2.41-2,.25.25,0,0,1,.33-.11.25.25,0,0,1,.12.34,5.14,5.14,0,0,1-2.66,2.19A.19.19,0,0,1,19.81,34.68Z" transform="translate(-1.78 -2.24)"/><path class="cls-23" d="M23,26.45a3.08,3.08,0,0,0-1.79,1.1A5.65,5.65,0,0,0,19,27.14c-1.64,0-3,.51-3,1.15s1.32,1.15,3,1.15a4.37,4.37,0,0,0,2.74-.72,2.15,2.15,0,0,0,.7,0A2.56,2.56,0,0,0,24.21,27C24.26,26.55,24,26.26,23,26.45Z" transform="translate(-1.78 -2.24)"/><path class="cls-24" d="M24.21,27c.43-.39.5,2.82.05,3.72s-5.47,2.44-8.49.59a.44.44,0,0,1-.22-.36l-.18-2.86a.2.2,0,0,1,.25-.21C17.7,28.76,22.11,28.88,24.21,27Z" transform="translate(-1.78 -2.24)"/><path class="cls-21" d="M15.74,30.61h0V29.13h0L15.43,29l.1,1.54.21.05Z" transform="translate(-1.78 -2.24)"/><path class="cls-21" d="M17,30.82q-.61-.09-1.23-.21h0v.63l0,0a5.73,5.73,0,0,0,1.21.54v-1Z" transform="translate(-1.78 -2.24)"/><path class="cls-21" d="M15.75,29.13c.41.09.82.17,1.23.22h0V28.26a8.37,8.37,0,0,1-1.24-.36v1.22Z" transform="translate(-1.78 -2.24)"/><path class="cls-21" d="M18.21,29.46c-.4,0-.81-.06-1.22-.12h0v1.47h0c.41.05.81.09,1.22.11v0h0V29.47Z" transform="translate(-1.78 -2.24)"/><path class="cls-21" d="M19.41,30.93c-.4,0-.8,0-1.2,0v0h0v1.13a9.82,9.82,0,0,0,1.21.07v-1.2Z" transform="translate(-1.78 -2.24)"/><path class="cls-21" d="M18.21,29.47c.4,0,.8,0,1.2,0v0h0v-1a9.66,9.66,0,0,1-1.21,0v1Z" transform="translate(-1.78 -2.24)"/><path class="cls-21" d="M20.6,29.39c-.39,0-.78.07-1.18.08v0h0v1.44h0a11.49,11.49,0,0,0,1.18-.09h0V29.4Z" transform="translate(-1.78 -2.24)"/><path class="cls-21" d="M21.77,30.65c-.39.08-.78.14-1.17.19h0v1.21a10.33,10.33,0,0,0,1.18-.21V30.66Z" transform="translate(-1.78 -2.24)"/><path class="cls-21" d="M20.6,29.4c.39,0,.78-.1,1.17-.17v0h0v-1a8.8,8.8,0,0,1-1.18.22v1Z" transform="translate(-1.78 -2.24)"/><path class="cls-21" d="M22.92,29v0q-.57.16-1.14.27v0h0v1.42h0c.38-.07.76-.17,1.14-.28h0V29Z" transform="translate(-1.78 -2.24)"/><path class="cls-21" d="M23.8,30c-.29.14-.58.26-.88.37h0v1.13a5,5,0,0,0,.89-.41V30Z" transform="translate(-1.78 -2.24)"/><path class="cls-21" d="M22.92,28.94v0c.3-.11.59-.23.88-.36h0V27.26a5.79,5.79,0,0,1-.88.51v1.17Z" transform="translate(-1.78 -2.24)"/><path class="cls-21" d="M24.56,28.19a7.79,7.79,0,0,1-.76.39v0h0V30h0c.23-.11.47-.24.7-.37A10,10,0,0,0,24.56,28.19Z" transform="translate(-1.78 -2.24)"/><path class="cls-22" d="M24.81,28.38a3.55,3.55,0,0,1-2,1.67,8.72,8.72,0,0,1-2.46.57,11.11,11.11,0,0,1-2.51-.06,6.25,6.25,0,0,1-2.42-.87.34.34,0,0,1-.1-.48.36.36,0,0,1,.49-.1h0a5.54,5.54,0,0,0,2.12.76,9.64,9.64,0,0,0,2.34.07,8.22,8.22,0,0,0,2.27-.5,3,3,0,0,0,1.66-1.32v0a.32.32,0,0,1,.43-.15A.31.31,0,0,1,24.81,28.38Z" transform="translate(-1.78 -2.24)"/><circle class="cls-8" cx="19.56" cy="27.88" r="0.83"/><path class="cls-25" d="M21.56,29.83a.41.41,0,1,1-.41-.41A.41.41,0,0,1,21.56,29.83Z" transform="translate(-1.78 -2.24)"/><path class="cls-7" d="M17.52,26.43a56,56,0,0,1-2.67,5.05l-2-1.4a42.56,42.56,0,0,0,3.07-4.33Z" transform="translate(-1.78 -2.24)"/><path class="cls-7" d="M14.85,31.48a1.22,1.22,0,1,1-.29-1.69A1.21,1.21,0,0,1,14.85,31.48Z" transform="translate(-1.78 -2.24)"/><path class="cls-7" d="M17.52,26.43a.86.86,0,1,1-.46-1.13A.87.87,0,0,1,17.52,26.43Z" transform="translate(-1.78 -2.24)"/><path class="cls-9" d="M12.86,31.86A1.41,1.41,0,0,1,12.7,30a26.93,26.93,0,0,0,2.35-3.24c.27-.42.51-.79.72-1.08a1,1,0,0,1,.95-.61,1.16,1.16,0,0,1,.42.08,1.07,1.07,0,0,1,.56,1.4l-1.83,5.31C15.43,32.78,13.64,32.64,12.86,31.86Z" transform="translate(-1.78 -2.24)"/><path class="cls-7" d="M14.85,31.48a27.22,27.22,0,0,1-3.07,4.27,2.13,2.13,0,0,1-2.66.14c-1.08-.71-1.53-1.76-.39-2.58a43.67,43.67,0,0,0,4.13-3.23Z" transform="translate(-1.78 -2.24)"/><path class="cls-7" d="M14.85,31.48a1.22,1.22,0,1,1-.29-1.69A1.21,1.21,0,0,1,14.85,31.48Z" transform="translate(-1.78 -2.24)"/><path class="cls-26" d="M11.78,35.75a2.13,2.13,0,0,1-2.66.14,2.61,2.61,0,0,1-.27-.19,11.68,11.68,0,0,0-.38,5.95l3.76-6.12-.2-.06A3.53,3.53,0,0,1,11.78,35.75Z" transform="translate(-1.78 -2.24)"/><path class="cls-10" d="M9.68,32.31a.4.4,0,0,0-.16.42c.26-.11,1,.7.62,2.28-.29,1.37-1.68,3.22-1.67,5.7.55-1.85,1.27-2.59,2.16-4.42A4.54,4.54,0,0,0,11,32.62c-.33-1.07-1.29-.31-1.29-.31" transform="translate(-1.78 -2.24)"/><path class="cls-9" d="M9.68,32.31c-.24-.39.32-.93.86-1.22a5.68,5.68,0,0,0,2.32-1.29,1.75,1.75,0,0,1,2.88,1,23.5,23.5,0,0,1-.44,4.83l-.43,2.39-.79,1.82-4.92,2-.72-1.26a12,12,0,0,1,1.19-3,7.12,7.12,0,0,0,1.18-3.6C10.71,32.31,10.1,32.1,9.68,32.31Z" transform="translate(-1.78 -2.24)"/><path class="cls-27" d="M8.44,40.58a8.91,8.91,0,0,0-.3,1.94l1.36.79,4.58-2.37.62-1.36c0-.38.09-.93.17-1.52C13.86,39,10.61,40.86,8.44,40.58Z" transform="translate(-1.78 -2.24)"/><path class="cls-28" d="M14.7,39.58c0,.51,0,1,0,1.36,0,.78-1.47,2.89-3.33,3.54S8.12,45,8.1,44.35s0-1.19,0-1.83C10.86,42.66,13.53,40.71,14.7,39.58Z" transform="translate(-1.78 -2.24)"/><path class="cls-29" d="M14.68,40.94a5.8,5.8,0,0,1-.08,1.73c-.29.85-3.22,3.56-5.79,3.7a.57.57,0,0,1-.62-.53c0-.35-.07-.88-.09-1.49A10.7,10.7,0,0,0,14.68,40.94Z" transform="translate(-1.78 -2.24)"/><path class="cls-27" d="M14,38.85l-1.14.52c-.44.21-.79,0-.79-.42a1.41,1.41,0,0,1,.79-1.16l.36-.16a1.91,1.91,0,0,0,1.07-1.56V36c0-.59-.48-.84-1.07-.57L9.87,37.11l-.18.32L12.6,36c.45-.18.81,0,.81.44v.05a1.49,1.49,0,0,1-.68,1.1l-.54.25a1.83,1.83,0,0,0-1,1.52c0,.58.45.85,1,.6l2.3-1.06Z" transform="translate(-1.78 -2.24)"/><path class="cls-30" d="M11.56,33.93l1.06.44c.11.05.11.2,0,.29l-1.06.88c-.11.09-.25,0-.25-.09V34.12A.2.2,0,0,1,11.56,33.93Z" transform="translate(-1.78 -2.24)"/><path class="cls-30" d="M13.77,37l.73.3c.08,0,.08.14,0,.2l-.73.6A.09.09,0,0,1,13.6,38v-.91A.14.14,0,0,1,13.77,37Z" transform="translate(-1.78 -2.24)"/><path class="cls-7" d="M23.47,4.57c3.65,1.63,5.41,4.4,4.75,9.78a12.86,12.86,0,0,0,0,3.22,2.74,2.74,0,0,1-.76,2.27c-1.19,1.26-3.67,3-8.44,3.34C13.85,23.56,8.71,21,8.07,13.72S16.35,1.4,23.47,4.57Z" transform="translate(-1.78 -2.24)"/><path class="cls-16" d="M10.32,13.29C9.85,8.18,14.58,4.2,20,3.68c-6.22-.57-12.42,4-11.88,10C8.71,21,13.85,23.56,19,23.18a16,16,0,0,0,5.58-1.34,19.28,19.28,0,0,1-3.33.52C16.1,22.72,11,20.23,10.32,13.29Z" transform="translate(-1.78 -2.24)"/><path class="cls-12" d="M17.84,17.05c1.4,0,1.58,3.47,0,3.47S16.45,17,17.84,17.05Z" transform="translate(-1.78 -2.24)"/><path class="cls-23" d="M17.84,17.05C16.8,17,16.43,19,17,20l2-.71C19.06,18.26,18.67,17.05,17.84,17.05Z" transform="translate(-1.78 -2.24)"/><path class="cls-2" d="M17.84,17.05c-.71,0-1.1.89-1.11,1.77l2.13-.72C18.7,17.51,18.35,17.05,17.84,17.05Z" transform="translate(-1.78 -2.24)"/><path class="cls-12" d="M25.54,15c1.26,0,1.42,3.47,0,3.47S24.29,15,25.54,15Z" transform="translate(-1.78 -2.24)"/><path class="cls-23" d="M25.54,15c-.93,0-1.26,1.94-.78,2.92l1.76-.71C26.65,16.21,26.29,15,25.54,15Z" transform="translate(-1.78 -2.24)"/><path class="cls-2" d="M25.54,15c-.63,0-1,.9-1,1.78L26.46,16C26.31,15.46,26,15,25.54,15Z" transform="translate(-1.78 -2.24)"/><path class="cls-31" d="M22.1,21.06a1,1,0,0,1-.73-.28.25.25,0,0,1,.35-.35.59.59,0,0,0,.48.12.6.6,0,0,0,.46-.32.25.25,0,0,1,.34-.1.24.24,0,0,1,.1.34,1.11,1.11,0,0,1-.82.58Z" transform="translate(-1.78 -2.24)"/><path class="cls-23" d="M26,21.32A16.4,16.4,0,0,1,25.93,29l1.82-1.18a10.68,10.68,0,0,0-.24-6.23c-.16-.51-.32-1-.47-1.38a9.47,9.47,0,0,1-1.08.83C26,21.14,26,21.23,26,21.32Z" transform="translate(-1.78 -2.24)"/><path class="cls-8" d="M26,21.32a13.9,13.9,0,0,1,.31,5.23l1.75-1.12a11.26,11.26,0,0,0-.59-3.83c-.16-.51-.32-1-.47-1.38a9.47,9.47,0,0,1-1.08.83C26,21.14,26,21.23,26,21.32Z" transform="translate(-1.78 -2.24)"/><path class="cls-32" d="M27.59,21.85a11.52,11.52,0,0,1,.46,2.28l-1.61,1.12a16.38,16.38,0,0,0-.1-2.55Z" transform="translate(-1.78 -2.24)"/><path class="cls-23" d="M14.44,15.82c-.2,4.79.74,6.22,1.94,9.65,1.11,3.13.85,5,.39,6l-2.23-.25a11.52,11.52,0,0,0,0-7.15c-1.13-3.29-1.71-6.4-1.11-8.51Z" transform="translate(-1.78 -2.24)"/><path class="cls-8" d="M14.44,15.82c-.2,4.79.74,6.22,1.94,9.65a11.59,11.59,0,0,1,.78,4L15,29.26a11.87,11.87,0,0,0-.45-5.15c-1.13-3.29-1.71-6.4-1.11-8.51Z" transform="translate(-1.78 -2.24)"/><path class="cls-32" d="M16.49,25.77a13.5,13.5,0,0,1,.59,2.49l-2-.15A12.36,12.36,0,0,0,15,25.62Z" transform="translate(-1.78 -2.24)"/><path class="cls-33" d="M30.33,13.63a.37.37,0,0,1-.34,0A9.2,9.2,0,0,1,26.64,8a.35.35,0,0,1,.28-.42.36.36,0,0,1,.43.29,8.53,8.53,0,0,0,3,5.11.36.36,0,0,1,0,.64Z" transform="translate(-1.78 -2.24)"/><path class="cls-33" d="M31.87,13.49l-1.49-.35a.35.35,0,0,0-.2,0,.31.31,0,0,0-.15.42h0l.57,1.29,0,.07a.43.43,0,0,0,.71-.48L31.07,14l.57.22h.05a.39.39,0,0,0,.48-.3A.4.4,0,0,0,31.87,13.49Z" transform="translate(-1.78 -2.24)"/><path class="cls-17" d="M31.26,14.74,30.12,13.6a.22.22,0,0,1,0-.3.21.21,0,0,1,.26,0l1.37.85a.4.4,0,0,1-.42.68Z" transform="translate(-1.78 -2.24)"/><path class="cls-22" d="M30.8,13a.73.73,0,0,1-.35,1,.72.72,0,0,1-1-.35A.72.72,0,0,1,30.8,13Z" transform="translate(-1.78 -2.24)"/><path class="cls-23" d="M30.71,7.76a3.79,3.79,0,0,0-3.88-.14s0,0-.06.07S27,9,27,9a3.2,3.2,0,0,0,1,1.18,2.27,2.27,0,0,0,1.94.34l.19-.07a1.75,1.75,0,0,0,.91-1.08A1.39,1.39,0,0,0,30.71,7.76Zm-.3,1.35a1,1,0,0,1-.64.7,1.58,1.58,0,0,1-1.3-.26,2.65,2.65,0,0,1-1-1.4,3,3,0,0,1,2.8.15A.68.68,0,0,1,30.41,9.11Z" transform="translate(-1.78 -2.24)"/><path class="cls-17" d="M30.33,8.6a3.71,3.71,0,0,0-3.43-1,.27.27,0,0,0-.14.07.22.22,0,0,0-.14,0l.45,1.7a4.76,4.76,0,0,0,.79,1.24,2.27,2.27,0,0,0,1.95.88l.27-.09a1.41,1.41,0,0,0,.71-.88A1.86,1.86,0,0,0,30.33,8.6Zm-.22,1.68c-.15.43-.37.47-.44.49a1.62,1.62,0,0,1-1.27-.65,4.4,4.4,0,0,1-1-1.88,3,3,0,0,1,2.36.85A1.18,1.18,0,0,1,30.11,10.28Z" transform="translate(-1.78 -2.24)"/><path class="cls-33" d="M27.33,8.47a.23.23,0,0,1-.25,0,.88.88,0,0,1-.17-.88.23.23,0,1,1,.42.18.42.42,0,0,0,.05.35.23.23,0,0,1,0,.32A.19.19,0,0,1,27.33,8.47Z" transform="translate(-1.78 -2.24)"/><path class="cls-33" d="M26.61,8.61a.24.24,0,0,1-.24,0,.68.68,0,0,1-.25-.48.58.58,0,0,1,.12-.42.23.23,0,0,1,.32,0,.22.22,0,0,1,0,.31.26.26,0,0,0,.08.27.22.22,0,0,1,0,.32Z" transform="translate(-1.78 -2.24)"/><path class="cls-34" d="M27,8.58a.23.23,0,0,1-.26-.05,1,1,0,0,1-.19-1,.23.23,0,1,1,.43.15.59.59,0,0,0,.09.54.23.23,0,0,1,0,.32Z" transform="translate(-1.78 -2.24)"/><path class="cls-8" d="M30.4,14.46l-.18-1.21a18.61,18.61,0,0,1-1.37-3.11,13.25,13.25,0,0,0-3.73-5.55c-4.32-3.82-9.26-2.1-10.19-1-6.75-.31-8.08,8-8.58,10.61a8.8,8.8,0,0,1-1.22,3L6.75,20l2.71.35c.09-.32.2-.65.32-1a6.36,6.36,0,0,0,0,1.07l1.91,1.45L13.46,21a13.58,13.58,0,0,1,.44-4.24,12.62,12.62,0,0,0-.13,2.15l1.44,1.62L15.6,19A13.16,13.16,0,0,1,18,10.85c-.77,2.42-.88,5-.52,5.88A7.19,7.19,0,0,0,20,16.45c1.12-1.26,1.52-3.18,1.52-5.7a11.3,11.3,0,0,1,0,5.41,10.09,10.09,0,0,0,4.32-1.71,6.48,6.48,0,0,0,.27-2.4,14.17,14.17,0,0,0-.39-2.33,13.52,13.52,0,0,1,2,5.73L29,16.77Z" transform="translate(-1.78 -2.24)"/><path class="cls-32" d="M17.48,11.07c-4.23,0-7.77-1.73-8.72-4.05a14.86,14.86,0,0,0-1.59,3.63c1.79,2,5.15,3.36,9.09,3.6a12,12,0,0,1,1.55-3.19Z" transform="translate(-1.78 -2.24)"/><path class="cls-32" d="M28.61,9.53A13.18,13.18,0,0,0,26.45,6c-.15,2.76-3.88,5-8.55,5.11a16.18,16.18,0,0,0-.61,3.22h.19a19.32,19.32,0,0,0,3.72-.36,14.4,14.4,0,0,0,.31-3.18,8.77,8.77,0,0,1,.32,3,13.8,13.8,0,0,0,4.27-1.74,14.17,14.17,0,0,0-.39-2.33,15.85,15.85,0,0,1,1,1.92A6.79,6.79,0,0,0,28.61,9.53Z" transform="translate(-1.78 -2.24)"/><path class="cls-35" d="M5.13,17.27a7.46,7.46,0,0,1-.91,1.19A7.13,7.13,0,0,0,6.75,20l.69-1.46A9.92,9.92,0,0,1,5.13,17.27Z" transform="translate(-1.78 -2.24)"/><path class="cls-23" d="M13.65,22.93a13.85,13.85,0,0,1-.19-2,13.52,13.52,0,0,1-3.67-.56c.05.49.12,1,.18,1.44A7.75,7.75,0,0,0,13.65,22.93Z" transform="translate(-1.78 -2.24)"/><path class="cls-23" d="M9.22,21.51a7.25,7.25,0,0,1,.24-1.2,8,8,0,0,1-2.38-1l-.33.7-.3.62A5.72,5.72,0,0,0,9.22,21.51Z" transform="translate(-1.78 -2.24)"/><path class="cls-36" d="M13.77,18.88a11,11,0,0,0,.44,3,3.69,3.69,0,0,0,2.62.3A5.07,5.07,0,0,1,15.6,19,7.78,7.78,0,0,1,13.77,18.88Z" transform="translate(-1.78 -2.24)"/><path class="cls-37" d="M31.06,14.08a2.73,2.73,0,0,1-.83-.83,6.71,6.71,0,0,1-1.41,2.13L29,16.77C29.77,16.29,31.06,14.84,31.06,14.08Z" transform="translate(-1.78 -2.24)"/><path class="cls-36" d="M27.74,18.78a2.38,2.38,0,0,0,1.34-1.28l0-.73-.21-2.24a2.71,2.71,0,0,1-1.16.92A21.22,21.22,0,0,1,27.74,18.78Z" transform="translate(-1.78 -2.24)"/><path class="cls-38" d="M14.7,6.68a20.6,20.6,0,0,1,2.22-.09c.28,0,.58.78.48,1l-.89,2.14c-.11.26-.65.16-.84-.16-.4-.77-.8-1.52-1.2-2.26C14.28,7,14.4,6.67,14.7,6.68Z" transform="translate(-1.78 -2.24)"/><path class="cls-39" d="M14.34,6.3a16.18,16.18,0,0,1,2.5.26.36.36,0,0,1,.26.49c-.31.75-.63,1.52-.94,2.29-.11.28-.48.21-.67-.11C15,8.46,14.57,7.7,14.12,7,13.92,6.66,14.05,6.29,14.34,6.3Z" transform="translate(-1.78 -2.24)"/><path class="cls-40" d="M12.42,7.78a16,16,0,0,1,3-.38c.28,0,.68.71.57,1-.4,1-.81,2-1.21,3.07-.13.31-.72.28-.94-.06-.55-1-1.1-1.9-1.65-2.81C12,8.25,12.1,7.81,12.42,7.78Z" transform="translate(-1.78 -2.24)"/><path class="cls-41" d="M12.07,7.45a15.92,15.92,0,0,1,3.31-.09.36.36,0,0,1,.3.48c-.43,1.06-.85,2.13-1.27,3.22-.13.32-.54.3-.75,0-.62-1-1.23-1.89-1.84-2.79A.49.49,0,0,1,12.07,7.45Z" transform="translate(-1.78 -2.24)"/><path class="cls-42" d="M9.85,9.11a16.24,16.24,0,0,1,3.85-.82c.27,0,.62.55.52.82-.48,1.38-1,2.78-1.45,4.22a.43.43,0,0,1-.78.05c-.81-1.19-1.61-2.31-2.39-3.39A.59.59,0,0,1,9.85,9.11Z" transform="translate(-1.78 -2.24)"/><path class="cls-43" d="M9.6,8.9a14.79,14.79,0,0,1,3.89-.64l.28,0a.4.4,0,0,1,.09.45c-.48,1.39-1,2.81-1.45,4.25a.43.43,0,0,1-.78.07c-.8-1.17-1.36-2.28-2.14-3.34C9.27,9.43,9.26,9,9.6,8.9Z" transform="translate(-1.78 -2.24)"/><path class="cls-44" d="M9.62,9.79a.58.58,0,0,1,.24-.86,16.2,16.2,0,0,1,3.9-.63h0a.36.36,0,0,0-.26-.12,15.7,15.7,0,0,0-4,.65.59.59,0,0,0-.25.88c.78,1.06,1.58,2.17,2.38,3.34a.44.44,0,0,0,.57.17.54.54,0,0,1-.27-.19C11.15,11.91,10.38,10.82,9.62,9.79Z" transform="translate(-1.78 -2.24)"/><path class="cls-33" d="M13,19.63a.4.4,0,0,1-.33-.18c-.89-1.32-1.42-4.45-.71-7.18a.4.4,0,0,1,.78.2c-.64,2.44-.2,5.35.6,6.54a.4.4,0,0,1-.11.55A.39.39,0,0,1,13,19.63Z" transform="translate(-1.78 -2.24)"/><path class="cls-33" d="M14.65,20.22l-1.33-1a.3.3,0,0,0-.2-.08.35.35,0,0,0-.36.34h0l0,1.56v.08a.47.47,0,0,0,.54.39.46.46,0,0,0,.39-.53l-.08-.55.48.48,0,0a.44.44,0,1,0,.55-.69Z" transform="translate(-1.78 -2.24)"/><path class="cls-17" d="M13.44,21.18l-.59-1.68a.24.24,0,0,1,.14-.3.23.23,0,0,1,.28.09l1,1.5a.44.44,0,1,1-.74.48A.41.41,0,0,1,13.44,21.18Z" transform="translate(-1.78 -2.24)"/><path class="cls-30" d="M13.79,19.26a.8.8,0,1,1-.8-.8A.8.8,0,0,1,13.79,19.26Z" transform="translate(-1.78 -2.24)"/><path class="cls-33" d="M9.8,18.72a.37.37,0,0,1-.19-.3c-.12-1.52.91-4.36,2.79-6.29a.38.38,0,0,1,.55.53c-1.68,1.73-2.69,4.34-2.58,5.7a.38.38,0,0,1-.36.41A.31.31,0,0,1,9.8,18.72Z" transform="translate(-1.78 -2.24)"/><path class="cls-33" d="M10.85,20l-.6-1.5a.43.43,0,0,0-.14-.16.33.33,0,0,0-.45.12h0l-.76,1.28,0,.07a.45.45,0,0,0,.25.58.45.45,0,0,0,.58-.26l.2-.49.16.62s0,0,0,.05a.42.42,0,1,0,.78-.31Z" transform="translate(-1.78 -2.24)"/><path class="cls-17" d="M9.4,20.2l.3-1.68a.23.23,0,0,1,.26-.18.23.23,0,0,1,.18.21l.09,1.7a.41.41,0,0,1-.39.44.42.42,0,0,1-.45-.4A.28.28,0,0,1,9.4,20.2Z" transform="translate(-1.78 -2.24)"/><path class="cls-22" d="M10.59,18.77a.77.77,0,0,1-1,.29.76.76,0,0,1,.75-1.33A.78.78,0,0,1,10.59,18.77Z" transform="translate(-1.78 -2.24)"/><path class="cls-23" d="M16.2,13.94a4.18,4.18,0,0,0-3.81-2s-.06,0-.1,0,0,0,0-.06a3.43,3.43,0,0,0-3.49,0A1.62,1.62,0,0,0,8,13.59a1.52,1.52,0,0,0,.87,1.22,1.61,1.61,0,0,0,.63.12,2.38,2.38,0,0,0,1.3-.42,3.65,3.65,0,0,0,1.08-1.11,3.64,3.64,0,0,0,.5,1.68,2.53,2.53,0,0,0,1.78,1.26h.22a1.92,1.92,0,0,0,1.41-.64A1.55,1.55,0,0,0,16.2,13.94Zm-5.8-.1a1.37,1.37,0,0,1-1.17.24.81.81,0,0,1-.41-.63.84.84,0,0,1,.38-.88,2,2,0,0,1,1.18-.32,3.12,3.12,0,0,1,1.14.22A3.16,3.16,0,0,1,10.4,13.84Zm4.86,1.31a1.15,1.15,0,0,1-1,.39,1.72,1.72,0,0,1-1.19-.87,3,3,0,0,1-.36-1.89,3.34,3.34,0,0,1,2.72,1.47A.77.77,0,0,1,15.26,15.15Z" transform="translate(-1.78 -2.24)"/><path class="cls-17" d="M15.42,14.6A4.12,4.12,0,0,0,12.47,12a.47.47,0,0,0-.17,0,.39.39,0,0,0-.14-.08,3.65,3.65,0,0,0-3.3.91,2,2,0,0,0-.7,2,1.16,1.16,0,0,0,.84.89,1.36,1.36,0,0,0,.36.05A2.35,2.35,0,0,0,11,15a5.43,5.43,0,0,0,.84-1.15A5.31,5.31,0,0,0,12,15.43a2.5,2.5,0,0,0,1.53,1.8,1.46,1.46,0,0,0,.31,0A1.57,1.57,0,0,0,15,16.73,2.06,2.06,0,0,0,15.42,14.6Zm-5-.2a1.38,1.38,0,0,1-1.17.51.38.38,0,0,1-.27-.32,1.25,1.25,0,0,1,.47-1.2,3.07,3.07,0,0,1,2-.8h.12A5.24,5.24,0,0,1,10.38,14.4Zm4,1.77c-.36.36-.6.3-.68.28a1.79,1.79,0,0,1-1-1.25,5,5,0,0,1-.08-2.34,3.33,3.33,0,0,1,2,2A1.28,1.28,0,0,1,14.41,16.17Z" transform="translate(-1.78 -2.24)"/><path class="cls-33" d="M12.48,13.05a.25.25,0,0,1-.23-.15,1,1,0,0,1,.24-1,.24.24,0,0,1,.35,0,.25.25,0,0,1,0,.36.5.5,0,0,0-.12.38.26.26,0,0,1-.13.33Z" transform="translate(-1.78 -2.24)"/><path class="cls-33" d="M11.7,12.84a.24.24,0,0,1-.23-.14.78.78,0,0,1,0-.6.7.7,0,0,1,.32-.37.27.27,0,0,1,.33.13.26.26,0,0,1-.12.33.25.25,0,0,0-.05.3.25.25,0,0,1-.13.33A.18.18,0,0,1,11.7,12.84Z" transform="translate(-1.78 -2.24)"/><path class="cls-34" d="M12.07,13a.24.24,0,0,1-.23-.18,1.12,1.12,0,0,1,.28-1.08.24.24,0,0,1,.35,0,.25.25,0,0,1,0,.36.66.66,0,0,0-.16.57.25.25,0,0,1-.16.31Z" transform="translate(-1.78 -2.24)"/>
</svg>
