<svg id="レイヤー_1" data-name="レイヤー 1" xmlns="http://www.w3.org/2000/svg" xmlns:xlink="http://www.w3.org/1999/xlink" viewBox="0 0 48 48"><defs><style>.cls-1{fill:none;}.cls-2{fill:#216ead;}.cls-3{fill:#ffc248;}.cls-4{fill:#369ed8;}.cls-5{fill:#fff;}.cls-6{clip-path:url(#clip-path);}.cls-7{fill:#44b8ea;}</style><clipPath id="clip-path"><path class="cls-1" d="M31.33,21.39,4.44,3A2.87,2.87,0,0,0,0,5.55V42.28a2.87,2.87,0,0,0,4.44,2.53L31.33,26.45A3.1,3.1,0,0,0,31.33,21.39Z"/></clipPath></defs><path class="cls-2" d="M43.24,21.39,16.34,3a2.86,2.86,0,0,0-4.43,2.53V42.28a2.86,2.86,0,0,0,4.43,2.53l26.9-18.36A3.1,3.1,0,0,0,43.24,21.39Z"/><path class="cls-3" d="M44.48,12.57a10,10,0,1,1-10-10A10,10,0,0,1,44.48,12.57Z"/><path class="cls-4" d="M31.33,21.39,4.44,3A2.87,2.87,0,0,0,0,5.55V42.28a2.87,2.87,0,0,0,4.44,2.53L31.33,26.45A3.1,3.1,0,0,0,31.33,21.39Z"/><path class="cls-5" d="M48,8.91a1.5,1.5,0,0,0-1.49-1.5H35a1.5,1.5,0,1,0,0,3h1.11c1,0,1.11,1.61,0,1.61H30.72a1.5,1.5,0,1,0,0,3H42.19a1.5,1.5,0,1,0,0-3H40.32c-.73,0-.84-1.61,0-1.61h6.14A1.49,1.49,0,0,0,48,8.91Z"/><g class="cls-6"><path class="cls-7" d="M-7.26-10.11c0,1,.84,32.72,1.88,32.72H9a1.88,1.88,0,0,0,0-3.75H7.63c-1.25,0-1.4-2.54,0-2.54h6.85a1.88,1.88,0,1,0,0-3.75H0a1.88,1.88,0,0,0-1.88,1.88A1.88,1.88,0,0,0,0,16.32H2.39c.91,0,1,2.54-.08,2.54H-5.38C-6.42,18.86-7.26-11.14-7.26-10.11Z"/></g><path class="cls-5" d="M39.66,37.35H29.77L31,33.26a5.18,5.18,0,0,0-.69-4.81,4.91,4.91,0,0,0-4.12-1.89h-.6L22.21,37.35H16.9l9.42-16.08a3.74,3.74,0,0,0-.15-4.21,4.78,4.78,0,0,0-4.71-2c-1.16.22-3.24,1.14-4.12,4.8L15.7,25.1l-3.16-9.69L5.85,37.35H0v1.33H6.84l5.74-18.83,3.14,9.63,2.91-9.25c.52-2.21,1.62-3.58,3.08-3.85a3.4,3.4,0,0,1,3.36,1.44,2.43,2.43,0,0,1,.1,2.77L14.57,38.68H21.8l-2.09,6.79h.91a10.18,10.18,0,0,0,8.77-6.55l.05-.23H39.66ZM21.54,44l5-16.12a3.47,3.47,0,0,1,2.66,1.33,4.63,4.63,0,0,1,.5,3.62L28.4,37.35H25.51L25,38.68h3A8.85,8.85,0,0,1,21.54,44Z"/></svg>