<svg xmlns="http://www.w3.org/2000/svg" xmlns:xlink="http://www.w3.org/1999/xlink" xmlns:lucid="lucid" width="1686.32" height="410.12"><g transform="translate(-5453.524205126321 -830.9829941001753)" lucid:page-tab-id="0_0"><path d="M5841.5 1057.5c0-3.3 2.7-6 6-6h1228c3.32 0 6 2.7 6 6v68c0 3.32-2.68 6-6 6h-1228c-3.3 0-6-2.68-6-6zM5473.52 1143.9c0-3.3 2.7-6 6-6h348c3.32 0 6 2.7 6 6v71.2c0 3.32-2.68 6-6 6h-348c-3.3 0-6-2.68-6-6z" stroke="#000" stroke-opacity="0" stroke-width="3" fill="#ced4db"/><use xlink:href="#a" transform="matrix(1,0,0,1,5485.524205126323,1149.9027802883747) translate(72.61333333333332 43.58888888888889)"/><use xlink:href="#b" transform="matrix(1,0,0,1,5485.524205126323,1149.9027802883747) translate(198.1777777777778 43.58888888888889)"/><path d="M5841.5 1145.5c0-3.3 2.7-6 6-6h1228c3.32 0 6 2.7 6 6v68c0 3.32-2.68 6-6 6h-1228c-3.3 0-6-2.68-6-6z" stroke="#000" stroke-opacity="0" stroke-width="3" fill="#ced4db"/><path d="M5866.93 1145.5c0-3.3 2.7-6 6-6h586.96c3.3 0 6 2.7 6 6v68c0 3.32-2.7 6-6 6h-586.97c-3.3 0-6-2.68-6-6z" stroke="#000" stroke-opacity="0" stroke-width="3" fill="#ff3d3d"/><use xlink:href="#c" transform="matrix(1,0,0,1,5878.9320416291175,1151.5027802883747) translate(149.30444444444444 34.62222222222222)"/><use xlink:href="#d" transform="matrix(1,0,0,1,5878.9320416291175,1151.5027802883747) translate(258.5488888888889 34.62222222222222)"/><use xlink:href="#e" transform="matrix(1,0,0,1,5878.9320416291175,1151.5027802883747) translate(280.25555555555553 34.62222222222222)"/><use xlink:href="#f" transform="matrix(1,0,0,1,5878.9320416291175,1151.5027802883747) translate(312.75333333333333 34.62222222222222)"/><use xlink:href="#g" transform="matrix(1,0,0,1,5878.9320416291175,1151.5027802883747) translate(364.8422222222222 34.62222222222222)"/><path d="M5866.93 1057.5c0-3.3 2.7-6 6-6h392.1c3.3 0 6 2.7 6 6v68c0 3.32-2.7 6-6 6h-392.1c-3.3 0-6-2.68-6-6z" stroke="#000" stroke-opacity="0" stroke-width="3" fill="#eae15f"/><use xlink:href="#h" transform="matrix(1,0,0,1,5878.9320416291175,1063.5027802883747) translate(112.83777777777779 34.62222222222222)"/><use xlink:href="#i" transform="matrix(1,0,0,1,5878.9320416291175,1063.5027802883747) translate(156.25111111111113 34.62222222222222)"/><path d="M6086.86 870.98h158M6086.9 870.98h-1.04" stroke="#333" stroke-width="2" fill="none"/><path d="M6245.86 870.98l.04 1h-1.06v-2h1.15" fill="#333"/><path d="M5811.78 903.2c0-3.32 2.7-6 6-6h96.16c3.32 0 6 2.68 6 6v44.9c0 3.3-2.68 6-6 6h-96.16c-3.3 0-6-2.7-6-6z" fill="none"/><use xlink:href="#j" transform="matrix(1,0,0,1,5823.778949975047,909.1934427498561) translate(0 25.833333333333332)"/><path d="M5885.86 870.98c0 11.05-8.95 20-20 20-11.04 0-20-8.95-20-20 0-11.04 8.96-20 20-20 11.05 0 20 8.96 20 20zM6285.86 870.98c0 11.05-8.95 20-20 20-11.04 0-20-8.95-20-20 0-11.04 8.96-20 20-20 11.05 0 20 8.96 20 20z" stroke="#000" stroke-opacity="0" fill="#333"/><path d="M6211.78 903.2c0-3.32 2.7-6 6-6h96.16c3.32 0 6 2.68 6 6v44.9c0 3.3-2.68 6-6 6h-96.16c-3.3 0-6-2.7-6-6z" fill="none"/><use xlink:href="#k" transform="matrix(1,0,0,1,6223.778949975047,909.1934427499073) translate(0 25.833333333333332)"/><path d="M5886.86 870.98h158M5886.9 870.98h-1.04" stroke="#333" stroke-width="2" fill="none"/><path d="M6045.86 870.98l.04 1h-1.06v-2h1.15" fill="#333"/><path d="M6085.86 870.98c0 11.05-8.95 20-20 20-11.04 0-20-8.95-20-20 0-11.04 8.96-20 20-20 11.05 0 20 8.96 20 20z" stroke="#000" stroke-opacity="0" fill="#333"/><path d="M6011.78 903.2c0-3.32 2.7-6 6-6h96.16c3.32 0 6 2.68 6 6v44.9c0 3.3-2.68 6-6 6h-96.16c-3.3 0-6-2.7-6-6z" fill="none"/><use xlink:href="#l" transform="matrix(1,0,0,1,6023.778949975047,909.1934427499073) translate(0 25.833333333333332)"/><path d="M6286.86 870.98h158M6286.9 870.98h-1.04" stroke="#333" stroke-width="2" fill="none"/><path d="M6445.86 870.98l.04 1h-1.06v-2h1.15" fill="#333"/><path d="M6485.86 870.98c0 11.05-8.95 20-20 20-11.04 0-20-8.95-20-20 0-11.04 8.96-20 20-20 11.05 0 20 8.96 20 20z" stroke="#000" stroke-opacity="0" fill="#333"/><path d="M6411.75 903.2c0-3.32 2.7-6 6-6h96.17c3.3 0 6 2.68 6 6v44.9c0 3.3-2.7 6-6 6h-96.17c-3.3 0-6-2.7-6-6z" fill="none"/><use xlink:href="#m" transform="matrix(1,0,0,1,6423.7541069131985,909.1934427498561) translate(0 25.833333333333332)"/><path d="M6486.86 870.98h158M6486.9 870.98h-1.04" stroke="#333" stroke-width="2" fill="none"/><path d="M6645.86 870.98l.04 1h-1.06v-2h1.15" fill="#333"/><path d="M6685.86 870.98c0 11.05-8.95 20-20 20-11.04 0-20-8.95-20-20 0-11.04 8.96-20 20-20 11.05 0 20 8.96 20 20z" stroke="#000" stroke-opacity="0" fill="#333"/><path d="M6611.73 903.2c0-3.32 2.7-6 6-6h96.16c3.3 0 6 2.68 6 6v44.9c0 3.3-2.7 6-6 6h-96.17c-3.3 0-6-2.7-6-6z" fill="none"/><use xlink:href="#n" transform="matrix(1,0,0,1,6623.72926385135,909.1934427498561) translate(0 25.833333333333332)"/><path d="M6686.86 870.98h158M6686.9 870.98h-1.04" stroke="#333" stroke-width="2" fill="none"/><path d="M6845.86 870.98l.04 1h-1.06v-2h1.15" fill="#333"/><path d="M6885.86 870.98c0 11.05-8.95 20-20 20-11.04 0-20-8.95-20-20 0-11.04 8.96-20 20-20 11.05 0 20 8.96 20 20z" stroke="#000" stroke-opacity="0" fill="#333"/><path d="M6811.7 903.2c0-3.32 2.7-6 6-6h96.17c3.3 0 6 2.68 6 6v44.9c0 3.3-2.7 6-6 6h-96.17c-3.3 0-6-2.7-6-6z" fill="none"/><use xlink:href="#o" transform="matrix(1,0,0,1,6823.7044207895015,909.1934427498561) translate(0 25.833333333333332)"/><path d="M6886.86 870.98h158M6886.9 870.98h-1.04" stroke="#333" stroke-width="2" fill="none"/><path d="M7045.86 870.98l.04 1h-1.06v-2h1.15" fill="#333"/><path d="M7085.86 870.98c0 11.05-8.95 20-20 20-11.04 0-20-8.95-20-20 0-11.04 8.96-20 20-20 11.05 0 20 8.96 20 20z" stroke="#000" stroke-opacity="0" fill="#333"/><path d="M7011.68 903.2c0-3.32 2.7-6 6-6h96.17c3.3 0 6 2.68 6 6v44.9c0 3.3-2.7 6-6 6h-96.17c-3.3 0-6-2.7-6-6z" fill="none"/><use xlink:href="#p" transform="matrix(1,0,0,1,7023.679577727653,909.1934427499073) translate(0 25.833333333333332)"/><path d="M5473.52 1057.5c0-3.3 2.7-6 6-6h348c3.32 0 6 2.7 6 6v68c0 3.32-2.68 6-6 6h-348c-3.3 0-6-2.68-6-6z" stroke="#000" stroke-opacity="0" stroke-width="3" fill="#ced4db"/><use xlink:href="#q" transform="matrix(1,0,0,1,5485.524205126323,1063.5027802883747) translate(85.05777777777776 43.21388888888889)"/><path d="M6271.03 1057.5c0-3.3 2.68-6 6-6h182.35c3.32 0 6 2.7 6 6v68c0 3.32-2.68 6-6 6h-182.35c-3.32 0-6-2.68-6-6z" stroke="#000" stroke-opacity="0" stroke-width="3" fill="#00c2a8"/><use xlink:href="#r" transform="matrix(1,0,0,1,6283.025749342512,1063.5027802883747) translate(27.740000000000002 34.62222222222222)"/><use xlink:href="#s" transform="matrix(1,0,0,1,6283.025749342512,1063.5027802883747) translate(72.38 34.62222222222222)"/><path d="M6465.9 1145.5c0-3.3 2.67-6 6-6h393.2c3.3 0 6 2.7 6 6v68c0 3.32-2.7 6-6 6h-393.2c-3.33 0-6-2.68-6-6z" stroke="#000" stroke-opacity="0" stroke-width="3" fill="#eae15f"/><use xlink:href="#h" transform="matrix(1,0,0,1,6477.886570814708,1151.5027802883747) translate(113.33777777777779 34.62222222222222)"/><use xlink:href="#i" transform="matrix(1,0,0,1,6477.886570814708,1151.5027802883747) translate(156.75111111111113 34.62222222222222)"/><path d="M6871.1 1145.5c0-3.3 2.7-6 6-6h198.4c3.32 0 6 2.7 6 6v68c0 3.32-2.68 6-6 6h-198.4c-3.3 0-6-2.68-6-6z" stroke="#000" stroke-opacity="0" stroke-width="3" fill="#00c2a8"/><use xlink:href="#r" transform="matrix(1,0,0,1,6883.100524768473,1151.5027802883747) translate(35.74 34.62222222222222)"/><use xlink:href="#s" transform="matrix(1,0,0,1,6883.100524768473,1151.5027802883747) translate(80.38 34.62222222222222)"/><path d="M5473.52 966.3c0-3.3 2.7-6 6-6h348c3.32 0 6 2.7 6 6v71.2c0 3.32-2.68 6-6 6h-348c-3.3 0-6-2.68-6-6z" stroke="#000" stroke-opacity="0" stroke-width="3" fill="#ced4db"/><g><use xlink:href="#t" transform="matrix(1,0,0,1,5485.524205126321,972.3027802883746) translate(122.20444444444445 43.58888888888889)"/></g><path d="M5841.5 967.9c0-3.3 2.7-6 6-6h1228c3.32 0 6 2.7 6 6v68c0 3.32-2.68 6-6 6h-1228c-3.3 0-6-2.68-6-6z" stroke="#000" stroke-opacity="0" stroke-width="3" fill="#ced4db"/><path d="M5866.93 967.9c0-3.3 2.7-6 6-6h586.96c3.3 0 6 2.7 6 6v68c0 3.32-2.7 6-6 6h-586.97c-3.3 0-6-2.68-6-6z" stroke="#000" stroke-opacity="0" stroke-width="3" fill="#00c2a8"/><g><use xlink:href="#u" transform="matrix(1,0,0,1,5878.932041629116,973.9027802883746) translate(99.20666666666665 34.62222222222222)"/><use xlink:href="#v" transform="matrix(1,0,0,1,5878.932041629116,973.9027802883746) translate(131.59777777777776 34.62222222222222)"/><use xlink:href="#w" transform="matrix(1,0,0,1,5878.932041629116,973.9027802883746) translate(182.05111111111108 34.62222222222222)"/><use xlink:href="#x" transform="matrix(1,0,0,1,5878.932041629116,973.9027802883746) translate(267.26 34.62222222222222)"/><use xlink:href="#y" transform="matrix(1,0,0,1,5878.932041629116,973.9027802883746) translate(304.32666666666665 34.62222222222222)"/><use xlink:href="#z" transform="matrix(1,0,0,1,5878.932041629116,973.9027802883746) translate(375.27777777777777 34.62222222222222)"/><use xlink:href="#A" transform="matrix(1,0,0,1,5878.932041629116,973.9027802883746) translate(392.52222222222224 34.62222222222222)"/></g><path d="M6465.38 1057.5c0-3.3 2.7-6 6-6h475.82c3.3 0 6 2.7 6 6v68c0 3.32-2.7 6-6 6h-475.82c-3.3 0-6-2.68-6-6z" stroke="#000" stroke-opacity="0" stroke-width="3" fill="#00c2a8"/><g><use xlink:href="#u" transform="matrix(1,0,0,1,6477.383719008077,1063.5027802883747) translate(43.70666666666665 34.62222222222222)"/><use xlink:href="#v" transform="matrix(1,0,0,1,6477.383719008077,1063.5027802883747) translate(76.09777777777776 34.62222222222222)"/><use xlink:href="#w" transform="matrix(1,0,0,1,6477.383719008077,1063.5027802883747) translate(126.55111111111108 34.62222222222222)"/><use xlink:href="#x" transform="matrix(1,0,0,1,6477.383719008077,1063.5027802883747) translate(211.76 34.62222222222222)"/><use xlink:href="#y" transform="matrix(1,0,0,1,6477.383719008077,1063.5027802883747) translate(248.82666666666665 34.62222222222222)"/><use xlink:href="#z" transform="matrix(1,0,0,1,6477.383719008077,1063.5027802883747) translate(319.77777777777777 34.62222222222222)"/><use xlink:href="#A" transform="matrix(1,0,0,1,6477.383719008077,1063.5027802883747) translate(337.02222222222224 34.62222222222222)"/></g><defs><path fill="#333" d="M100 0v-733h96c115 204 239 400 345 613h5c-18-192-10-405-12-613h88V0h-95C412-205 289-402 181-614h-4c17 193 10 407 11 614h-88" id="B"/><path fill="#333" d="M303 13C170 13 51-91 51-271c0-181 119-286 252-286s252 105 252 286C555-91 436 13 303 13zm0-76c94 0 158-83 158-208s-64-210-158-210-157 85-157 210S209-63 303-63" id="C"/><path fill="#333" d="M377 13C195 13 58-128 58-366c0-237 139-381 325-381 89 0 159 44 201 91l-50 60c-38-41-87-70-150-70-139 0-231 114-231 297 0 185 88 301 228 301 70 0 123-31 170-82l51 58C544-25 472 13 377 13" id="D"/><path fill="#333" d="M277 13C141 13 53-90 53-271c-5-249 231-368 388-222-8-95-4-201-5-303h91V0h-74c-4-21-4-46-11-64-43 42-100 77-165 77zm20-76c50 0 94-25 139-75v-285c-123-120-291-42-289 151 0 131 54 209 150 209" id="E"/><path fill="#333" d="M311 13C167 13 51-92 51-271c0-176 119-286 245-286 154-3 234 132 212 307H142c6 116 77 190 180 190 53 0 96-16 136-43l33 60c-48 31-106 56-180 56zM141-315h291c0-110-50-169-135-169-77 0-145 62-156 169" id="F"/><g id="a"><use transform="matrix(0.031111111111111114,0,0,0.031111111111111114,0,0)" xlink:href="#B"/><use transform="matrix(0.031111111111111114,0,0,0.031111111111111114,22.462222222222223,0)" xlink:href="#C"/><use transform="matrix(0.031111111111111114,0,0,0.031111111111111114,41.31555555555556,0)" xlink:href="#D"/><use transform="matrix(0.031111111111111114,0,0,0.031111111111111114,61.164444444444456,0)" xlink:href="#C"/><use transform="matrix(0.031111111111111114,0,0,0.031111111111111114,80.0177777777778,0)" xlink:href="#E"/><use transform="matrix(0.031111111111111114,0,0,0.031111111111111114,99.30666666666669,0)" xlink:href="#F"/></g><path fill="#333" d="M253 0v-655H31v-78h537v78H346V0h-93" id="G"/><path fill="#333" d="M241 5C155 32 92-8 92-108v-688h91v694c3 37 15 43 45 37" id="H"/><g id="b"><use transform="matrix(0.031111111111111114,0,0,0.031111111111111114,0,0)" xlink:href="#G"/><use transform="matrix(0.031111111111111114,0,0,0.031111111111111114,18.635555555555555,0)" xlink:href="#C"/><use transform="matrix(0.031111111111111114,0,0,0.031111111111111114,37.488888888888894,0)" xlink:href="#C"/><use transform="matrix(0.031111111111111114,0,0,0.031111111111111114,56.34222222222223,0)" xlink:href="#H"/></g><path fill="#333" d="M100 0v-733h112c65 181 131 360 193 545h5c59-186 126-364 190-545h112V0h-87c2-212-8-425 12-622h-4C570-437 502-256 436-74h-62c-66-182-134-363-197-548h-4c18 198 9 411 11 622h-84" id="I"/><path fill="#333" d="M92 0v-543h91V0H92zm46-655c-36 0-63-25-63-59 0-37 27-59 63-59s63 22 63 59c0 34-27 59-63 59" id="J"/><path fill="#333" d="M356-791l-20 69c-75-34-144-8-138 93v86h115v74H198V0h-91v-469H33v-69l74-5v-87c0-110 50-179 158-179 33 0 65 7 91 18" id="K"/><path fill="#333" d="M306 13C162 13 51-91 51-271c0-181 123-286 262-286 71 0 120 30 159 64l-47 61c-32-29-65-49-109-49-98 0-170 85-170 210S214-63 314-63c50 0 94-23 128-54l39 61c-48 44-110 69-175 69" id="L"/><path fill="#333" d="M217 13C126 13 58-43 58-141c0-118 103-177 334-203 0-70-23-137-112-137-63 0-120 29-163 58l-36-63c50-32 127-71 214-71 132 0 188 89 188 223V0h-75l-8-65h-3c-52 43-113 78-180 78zm26-73c53 0 96-25 149-72v-152c-183 22-245 67-245 137 0 62 42 87 96 87" id="M"/><path fill="#333" d="M263 13c-116 0-155-72-155-181v-301H27v-69l85-5 11-152h76v152h147v74H199v303c0 67 21 105 84 105 19 0 44-7 62-14l18 68c-31 10-67 20-100 20" id="N"/><path fill="#333" d="M92 0v-543h75l8 78h3c52-51 108-92 182-92 114 0 166 74 166 213V0h-91v-332c0-102-31-145-103-145-56 0-94 28-149 83V0H92" id="O"/><g id="c"><use transform="matrix(0.017777777777777778,0,0,0.017777777777777778,0,0)" xlink:href="#I"/><use transform="matrix(0.017777777777777778,0,0,0.017777777777777778,14.435555555555556,0)" xlink:href="#C"/><use transform="matrix(0.017777777777777778,0,0,0.017777777777777778,25.20888888888889,0)" xlink:href="#E"/><use transform="matrix(0.017777777777777778,0,0,0.017777777777777778,36.23111111111111,0)" xlink:href="#J"/><use transform="matrix(0.017777777777777778,0,0,0.017777777777777778,41.120000000000005,0)" xlink:href="#K"/><use transform="matrix(0.017777777777777778,0,0,0.017777777777777778,46.89777777777778,0)" xlink:href="#J"/><use transform="matrix(0.017777777777777778,0,0,0.017777777777777778,51.786666666666676,0)" xlink:href="#L"/><use transform="matrix(0.017777777777777778,0,0,0.017777777777777778,60.835555555555565,0)" xlink:href="#M"/><use transform="matrix(0.017777777777777778,0,0,0.017777777777777778,70.86222222222223,0)" xlink:href="#N"/><use transform="matrix(0.017777777777777778,0,0,0.017777777777777778,77.56444444444445,0)" xlink:href="#J"/><use transform="matrix(0.017777777777777778,0,0,0.017777777777777778,82.45333333333333,0)" xlink:href="#C"/><use transform="matrix(0.017777777777777778,0,0,0.017777777777777778,93.22666666666667,0)" xlink:href="#O"/></g><g id="d"><use transform="matrix(0.017777777777777778,0,0,0.017777777777777778,0,0)" xlink:href="#C"/><use transform="matrix(0.017777777777777778,0,0,0.017777777777777778,10.773333333333333,0)" xlink:href="#K"/></g><path fill="#333" d="M92 0v-796h91c0 111 1 223-3 330 50-50 106-91 180-91 114 0 166 74 166 213V0h-91v-332c0-102-31-145-103-145-56 0-94 28-149 83V0H92" id="P"/><g id="e"><use transform="matrix(0.017777777777777778,0,0,0.017777777777777778,0,0)" xlink:href="#N"/><use transform="matrix(0.017777777777777778,0,0,0.017777777777777778,6.702222222222222,0)" xlink:href="#P"/><use transform="matrix(0.017777777777777778,0,0,0.017777777777777778,17.493333333333332,0)" xlink:href="#F"/></g><path fill="#333" d="M92 229v-772h75l8 62h3c49-40 110-76 173-76 140 0 216 110 216 277C567-22 349 94 181-50c3 91 2 185 2 279H92zm91-349C317-1 471-73 472-279c0-120-40-201-143-201-46 0-93 26-146 75v285" id="Q"/><g id="f"><use transform="matrix(0.017777777777777778,0,0,0.017777777777777778,0,0)" xlink:href="#M"/><use transform="matrix(0.017777777777777778,0,0,0.017777777777777778,10.026666666666667,0)" xlink:href="#H"/><use transform="matrix(0.017777777777777778,0,0,0.017777777777777778,15.093333333333334,0)" xlink:href="#Q"/><use transform="matrix(0.017777777777777778,0,0,0.017777777777777778,26.115555555555556,0)" xlink:href="#P"/><use transform="matrix(0.017777777777777778,0,0,0.017777777777777778,36.906666666666666,0)" xlink:href="#M"/></g><path fill="#333" d="M209 0L13-543h95c51 155 104 312 153 469h4c48-158 101-314 153-469h90L315 0H209" id="R"/><path fill="#333" d="M92 0v-543h75l8 99h3c50-86 117-137 212-101l-17 80c-18-7-31-9-53-9-45 0-101 32-137 125V0H92" id="S"/><path fill="#333" d="M234 13C157 13 83-19 31-62l45-60c47 38 96 64 161 64 72 0 107-38 107-85 0-55-64-80-124-103-76-28-162-65-162-157 0-86 69-154 187-154 67 0 126 28 169 61l-44 59c-38-28-76-48-125-48-68 0-99 36-99 78 0 52 59 71 120 94 79 30 166 62 166 165 0 88-70 161-198 161" id="T"/><g id="g"><use transform="matrix(0.017777777777777778,0,0,0.017777777777777778,0,0)" xlink:href="#R"/><use transform="matrix(0.017777777777777778,0,0,0.017777777777777778,9.262222222222222,0)" xlink:href="#F"/><use transform="matrix(0.017777777777777778,0,0,0.017777777777777778,19.11111111111111,0)" xlink:href="#S"/><use transform="matrix(0.017777777777777778,0,0,0.017777777777777778,26.00888888888889,0)" xlink:href="#T"/><use transform="matrix(0.017777777777777778,0,0,0.017777777777777778,34.32888888888889,0)" xlink:href="#J"/><use transform="matrix(0.017777777777777778,0,0,0.017777777777777778,39.21777777777778,0)" xlink:href="#C"/><use transform="matrix(0.017777777777777778,0,0,0.017777777777777778,49.99111111111112,0)" xlink:href="#O"/></g><path fill="#333" d="M100 0v-733h218c149 0 252 50 252 179 0 73-39 137-108 159v5c88 17 150 75 150 175C612-71 498 0 334 0H100zm93-421h109c126 0 177-47 177-121 0-86-59-118-173-118H193v239zm0 347h128c126 0 200-45 200-144 0-91-72-132-200-132H193v276" id="U"/><g id="h"><use transform="matrix(0.017777777777777778,0,0,0.017777777777777778,0,0)" xlink:href="#U"/><use transform="matrix(0.017777777777777778,0,0,0.017777777777777778,11.68,0)" xlink:href="#F"/><use transform="matrix(0.017777777777777778,0,0,0.017777777777777778,21.528888888888886,0)" xlink:href="#N"/><use transform="matrix(0.017777777777777778,0,0,0.017777777777777778,28.231111111111108,0)" xlink:href="#M"/></g><path fill="#333" d="M100 0v-733h184c225 0 346 131 346 364C630-137 509 0 288 0H100zm93-76h83c173 0 258-108 258-293 0-186-85-289-258-289h-83v582" id="V"/><path fill="#333" d="M92 0v-543h75l8 79h3c47-52 104-93 169-93 83 0 128 40 150 104 56-61 113-104 179-104 112 0 165 74 165 213V0h-91v-332c0-102-32-145-101-145-42 0-86 27-137 83V0h-91v-332c0-102-32-145-101-145-41 0-87 27-137 83V0H92" id="W"/><g id="i"><use transform="matrix(0.017777777777777778,0,0,0.017777777777777778,0,0)" xlink:href="#V"/><use transform="matrix(0.017777777777777778,0,0,0.017777777777777778,12.213333333333333,0)" xlink:href="#F"/><use transform="matrix(0.017777777777777778,0,0,0.017777777777777778,22.06222222222222,0)" xlink:href="#R"/><use transform="matrix(0.017777777777777778,0,0,0.017777777777777778,31.324444444444445,0)" xlink:href="#F"/><use transform="matrix(0.017777777777777778,0,0,0.017777777777777778,41.17333333333333,0)" xlink:href="#H"/><use transform="matrix(0.017777777777777778,0,0,0.017777777777777778,46.239999999999995,0)" xlink:href="#C"/><use transform="matrix(0.017777777777777778,0,0,0.017777777777777778,57.01333333333333,0)" xlink:href="#Q"/><use transform="matrix(0.017777777777777778,0,0,0.017777777777777778,68.03555555555555,0)" xlink:href="#W"/><use transform="matrix(0.017777777777777778,0,0,0.017777777777777778,84.49777777777778,0)" xlink:href="#F"/><use transform="matrix(0.017777777777777778,0,0,0.017777777777777778,94.34666666666666,0)" xlink:href="#O"/><use transform="matrix(0.017777777777777778,0,0,0.017777777777777778,105.20888888888888,0)" xlink:href="#N"/></g><path fill="#333" d="M44 0v-54c230-201 336-347 336-473 0-84-44-145-135-145-60 0-112 37-152 85l-53-52c60-65 123-108 216-108 131 0 213 86 213 217 0 146-115 295-287 458 102-11 212-6 323-7V0H44" id="X"/><path fill="#333" d="M278 13C138 13 49-114 49-369s89-378 229-378c139 0 228 124 228 378 0 255-89 382-228 382zm0-73c83 0 139-93 139-309 0-214-56-304-139-304-84 0-140 90-140 304 0 216 56 309 140 309" id="Y"/><path fill="#333" d="M88 0v-76h163v-547H121v-58c65-12 112-29 152-52h70v657h147V0H88" id="Z"/><path fill="#333" d="M80-258v-64h297v64H80" id="aa"/><g id="j"><use transform="matrix(0.022222222222222223,0,0,0.022222222222222223,0,0)" xlink:href="#X"/><use transform="matrix(0.022222222222222223,0,0,0.022222222222222223,12.333333333333334,0)" xlink:href="#Y"/><use transform="matrix(0.022222222222222223,0,0,0.022222222222222223,24.666666666666668,0)" xlink:href="#X"/><use transform="matrix(0.022222222222222223,0,0,0.022222222222222223,37,0)" xlink:href="#Z"/><use transform="matrix(0.022222222222222223,0,0,0.022222222222222223,49.333333333333336,0)" xlink:href="#aa"/><use transform="matrix(0.022222222222222223,0,0,0.022222222222222223,59.488888888888894,0)" xlink:href="#Z"/><use transform="matrix(0.022222222222222223,0,0,0.022222222222222223,71.82222222222222,0)" xlink:href="#Z"/></g><g id="k"><use transform="matrix(0.022222222222222223,0,0,0.022222222222222223,0,0)" xlink:href="#X"/><use transform="matrix(0.022222222222222223,0,0,0.022222222222222223,12.333333333333334,0)" xlink:href="#Y"/><use transform="matrix(0.022222222222222223,0,0,0.022222222222222223,24.666666666666668,0)" xlink:href="#X"/><use transform="matrix(0.022222222222222223,0,0,0.022222222222222223,37,0)" xlink:href="#X"/><use transform="matrix(0.022222222222222223,0,0,0.022222222222222223,49.333333333333336,0)" xlink:href="#aa"/><use transform="matrix(0.022222222222222223,0,0,0.022222222222222223,59.488888888888894,0)" xlink:href="#Y"/><use transform="matrix(0.022222222222222223,0,0,0.022222222222222223,71.82222222222222,0)" xlink:href="#Z"/></g><g id="l"><use transform="matrix(0.022222222222222223,0,0,0.022222222222222223,0,0)" xlink:href="#X"/><use transform="matrix(0.022222222222222223,0,0,0.022222222222222223,12.333333333333334,0)" xlink:href="#Y"/><use transform="matrix(0.022222222222222223,0,0,0.022222222222222223,24.666666666666668,0)" xlink:href="#X"/><use transform="matrix(0.022222222222222223,0,0,0.022222222222222223,37,0)" xlink:href="#Z"/><use transform="matrix(0.022222222222222223,0,0,0.022222222222222223,49.333333333333336,0)" xlink:href="#aa"/><use transform="matrix(0.022222222222222223,0,0,0.022222222222222223,59.488888888888894,0)" xlink:href="#Z"/><use transform="matrix(0.022222222222222223,0,0,0.022222222222222223,71.82222222222222,0)" xlink:href="#X"/></g><g id="m"><use transform="matrix(0.022222222222222223,0,0,0.022222222222222223,0,0)" xlink:href="#X"/><use transform="matrix(0.022222222222222223,0,0,0.022222222222222223,12.333333333333334,0)" xlink:href="#Y"/><use transform="matrix(0.022222222222222223,0,0,0.022222222222222223,24.666666666666668,0)" xlink:href="#X"/><use transform="matrix(0.022222222222222223,0,0,0.022222222222222223,37,0)" xlink:href="#X"/><use transform="matrix(0.022222222222222223,0,0,0.022222222222222223,49.333333333333336,0)" xlink:href="#aa"/><use transform="matrix(0.022222222222222223,0,0,0.022222222222222223,59.488888888888894,0)" xlink:href="#Y"/><use transform="matrix(0.022222222222222223,0,0,0.022222222222222223,71.82222222222222,0)" xlink:href="#X"/></g><path fill="#333" d="M264 13C149 13 77-35 29-87l46-60c43 45 99 84 182 84 87 0 149-52 149-136 0-88-59-147-228-147v-70c151 0 203-61 203-140 0-71-48-116-124-118-59 2-111 32-152 73l-49-58c55-51 120-88 205-88 123 0 213 66 213 184 0 89-53 148-131 177v4c87 20 156 86 156 186C499-65 394 13 264 13" id="ab"/><g id="n"><use transform="matrix(0.022222222222222223,0,0,0.022222222222222223,0,0)" xlink:href="#X"/><use transform="matrix(0.022222222222222223,0,0,0.022222222222222223,12.333333333333334,0)" xlink:href="#Y"/><use transform="matrix(0.022222222222222223,0,0,0.022222222222222223,24.666666666666668,0)" xlink:href="#X"/><use transform="matrix(0.022222222222222223,0,0,0.022222222222222223,37,0)" xlink:href="#X"/><use transform="matrix(0.022222222222222223,0,0,0.022222222222222223,49.333333333333336,0)" xlink:href="#aa"/><use transform="matrix(0.022222222222222223,0,0,0.022222222222222223,59.488888888888894,0)" xlink:href="#Y"/><use transform="matrix(0.022222222222222223,0,0,0.022222222222222223,71.82222222222222,0)" xlink:href="#ab"/></g><path fill="#333" d="M115-275h224c1-122-3-242 6-358h-4c-64 130-151 240-226 358zm408 0v73h-97V0h-87v-202H20v-60l305-471h101v458h97" id="ac"/><g id="o"><use transform="matrix(0.022222222222222223,0,0,0.022222222222222223,0,0)" xlink:href="#X"/><use transform="matrix(0.022222222222222223,0,0,0.022222222222222223,12.333333333333334,0)" xlink:href="#Y"/><use transform="matrix(0.022222222222222223,0,0,0.022222222222222223,24.666666666666668,0)" xlink:href="#X"/><use transform="matrix(0.022222222222222223,0,0,0.022222222222222223,37,0)" xlink:href="#X"/><use transform="matrix(0.022222222222222223,0,0,0.022222222222222223,49.333333333333336,0)" xlink:href="#aa"/><use transform="matrix(0.022222222222222223,0,0,0.022222222222222223,59.488888888888894,0)" xlink:href="#Y"/><use transform="matrix(0.022222222222222223,0,0,0.022222222222222223,71.82222222222222,0)" xlink:href="#ac"/></g><path fill="#333" d="M261 13C147 13 77-35 28-84l45-60c42 42 95 81 180 81 86 0 156-66 156-173 0-105-60-167-152-167-49 0-80 15-122 43l-49-30 23-343h357v78H189l-18 212c32-18 65-29 109-29 122 0 221 72 221 233S385 13 261 13" id="ad"/><g id="p"><use transform="matrix(0.022222222222222223,0,0,0.022222222222222223,0,0)" xlink:href="#X"/><use transform="matrix(0.022222222222222223,0,0,0.022222222222222223,12.333333333333334,0)" xlink:href="#Y"/><use transform="matrix(0.022222222222222223,0,0,0.022222222222222223,24.666666666666668,0)" xlink:href="#X"/><use transform="matrix(0.022222222222222223,0,0,0.022222222222222223,37,0)" xlink:href="#X"/><use transform="matrix(0.022222222222222223,0,0,0.022222222222222223,49.333333333333336,0)" xlink:href="#aa"/><use transform="matrix(0.022222222222222223,0,0,0.022222222222222223,59.488888888888894,0)" xlink:href="#Y"/><use transform="matrix(0.022222222222222223,0,0,0.022222222222222223,71.82222222222222,0)" xlink:href="#ad"/></g><path fill="#333" d="M100 0v-733h423v78H193v248h280v78H193V0h-93" id="ae"/><path fill="#333" d="M178 0L27-543h93c39 154 83 304 113 466h5c36-159 81-311 121-466h89c41 154 85 308 123 466h4c34-159 75-312 114-466h86L629 0H519c-39-150-82-293-116-449h-5C365-294 323-150 285 0H178" id="af"/><path fill="#333" d="M92 0v-796h90c1 179-3 364 2 540l233-287h101L336-325 542 0h-99L284-262 182-143V0H92" id="ag"/><g id="q"><use transform="matrix(0.031111111111111114,0,0,0.031111111111111114,0,0)" xlink:href="#ae"/><use transform="matrix(0.031111111111111114,0,0,0.031111111111111114,17.173333333333336,0)" xlink:href="#S"/><use transform="matrix(0.031111111111111114,0,0,0.031111111111111114,29.244444444444447,0)" xlink:href="#M"/><use transform="matrix(0.031111111111111114,0,0,0.031111111111111114,46.791111111111114,0)" xlink:href="#W"/><use transform="matrix(0.031111111111111114,0,0,0.031111111111111114,75.60000000000001,0)" xlink:href="#F"/><use transform="matrix(0.031111111111111114,0,0,0.031111111111111114,92.83555555555557,0)" xlink:href="#af"/><use transform="matrix(0.031111111111111114,0,0,0.031111111111111114,117.78666666666669,0)" xlink:href="#C"/><use transform="matrix(0.031111111111111114,0,0,0.031111111111111114,136.64000000000001,0)" xlink:href="#S"/><use transform="matrix(0.031111111111111114,0,0,0.031111111111111114,148.71111111111114,0)" xlink:href="#ag"/></g><path fill="#333" d="M139 13c-36 0-66-28-66-69s30-71 66-71 66 30 66 71-30 69-66 69" id="ah"/><g id="r"><use transform="matrix(0.017777777777777778,0,0,0.017777777777777778,0,0)" xlink:href="#Z"/><use transform="matrix(0.017777777777777778,0,0,0.017777777777777778,9.866666666666667,0)" xlink:href="#ah"/><use transform="matrix(0.017777777777777778,0,0,0.017777777777777778,14.80888888888889,0)" xlink:href="#Y"/><use transform="matrix(0.017777777777777778,0,0,0.017777777777777778,24.675555555555555,0)" xlink:href="#ah"/><use transform="matrix(0.017777777777777778,0,0,0.017777777777777778,29.617777777777775,0)" xlink:href="#Y"/></g><g id="s"><use transform="matrix(0.017777777777777778,0,0,0.017777777777777778,0,0)" xlink:href="#S"/><use transform="matrix(0.017777777777777778,0,0,0.017777777777777778,6.897777777777778,0)" xlink:href="#F"/><use transform="matrix(0.017777777777777778,0,0,0.017777777777777778,16.746666666666666,0)" xlink:href="#H"/><use transform="matrix(0.017777777777777778,0,0,0.017777777777777778,21.813333333333333,0)" xlink:href="#F"/><use transform="matrix(0.017777777777777778,0,0,0.017777777777777778,31.66222222222222,0)" xlink:href="#M"/><use transform="matrix(0.017777777777777778,0,0,0.017777777777777778,41.68888888888888,0)" xlink:href="#T"/><use transform="matrix(0.017777777777777778,0,0,0.017777777777777778,50.00888888888888,0)" xlink:href="#F"/><use transform="matrix(0.017777777777777778,0,0,0.017777777777777778,59.85777777777777,0)" xlink:href="#E"/></g><path fill="#333" d="M100 0v-733h209c165 0 275 55 275 215 0 155-110 227-270 227H193V0h-93zm93-366h109c129 0 190-47 190-152 0-106-65-140-194-140H193v292" id="ai"/><path fill="#333" d="M303 45C261 172 181 266 37 223l18-73C155 188 210 96 231 1L13-543h95c55 152 111 298 163 454h5c45-155 95-303 143-454h89" id="aj"/><g id="t"><use transform="matrix(0.031111111111111114,0,0,0.031111111111111114,0,0)" xlink:href="#ai"/><use transform="matrix(0.031111111111111114,0,0,0.031111111111111114,19.662222222222223,0)" xlink:href="#H"/><use transform="matrix(0.031111111111111114,0,0,0.031111111111111114,28.52888888888889,0)" xlink:href="#M"/><use transform="matrix(0.031111111111111114,0,0,0.031111111111111114,46.07555555555555,0)" xlink:href="#aj"/><use transform="matrix(0.031111111111111114,0,0,0.031111111111111114,62.284444444444446,0)" xlink:href="#F"/><use transform="matrix(0.031111111111111114,0,0,0.031111111111111114,79.52000000000001,0)" xlink:href="#S"/></g><path fill="#333" d="M191-298h222c-37-120-75-237-109-360h-4c-33 124-71 241-109 360zM506 0l-70-224H168L97 0H3l249-733h103L604 0h-98" id="ak"/><path fill="#333" d="M100 0v-733h93V0h-93" id="al"/><g id="u"><use transform="matrix(0.017777777777777778,0,0,0.017777777777777778,0,0)" xlink:href="#ak"/><use transform="matrix(0.017777777777777778,0,0,0.017777777777777778,10.79111111111111,0)" xlink:href="#ai"/><use transform="matrix(0.017777777777777778,0,0,0.017777777777777778,22.026666666666664,0)" xlink:href="#al"/></g><path fill="#333" d="M75 190l-22-54c62-27 99-75 100-136-42 5-77-17-78-63 0-39 32-64 69-64 48 0 77 41 77 108 0 96-56 171-146 209" id="am"/><g id="v"><use transform="matrix(0.017777777777777778,0,0,0.017777777777777778,0,0)" xlink:href="#V"/><use transform="matrix(0.017777777777777778,0,0,0.017777777777777778,12.213333333333333,0)" xlink:href="#C"/><use transform="matrix(0.017777777777777778,0,0,0.017777777777777778,22.98666666666666,0)" xlink:href="#L"/><use transform="matrix(0.017777777777777778,0,0,0.017777777777777778,32.035555555555554,0)" xlink:href="#T"/><use transform="matrix(0.017777777777777778,0,0,0.017777777777777778,40.355555555555554,0)" xlink:href="#am"/></g><path fill="#333" d="M100 0v-733h423v78H193v230h278v79H193v267h341V0H100" id="an"/><path fill="#333" d="M15 0l179-283L29-543h98c43 70 84 140 127 210h4c39-71 77-140 116-210h95L304-274 483 0H383c-48-73-92-149-138-224h-5C197-151 154-74 111 0H15" id="ao"/><g id="w"><use transform="matrix(0.017777777777777778,0,0,0.017777777777777778,0,0)" xlink:href="#an"/><use transform="matrix(0.017777777777777778,0,0,0.017777777777777778,10.453333333333333,0)" xlink:href="#ao"/><use transform="matrix(0.017777777777777778,0,0,0.017777777777777778,19.30666666666667,0)" xlink:href="#M"/><use transform="matrix(0.017777777777777778,0,0,0.017777777777777778,29.333333333333332,0)" xlink:href="#W"/><use transform="matrix(0.017777777777777778,0,0,0.017777777777777778,45.79555555555555,0)" xlink:href="#Q"/><use transform="matrix(0.017777777777777778,0,0,0.017777777777777778,56.81777777777778,0)" xlink:href="#H"/><use transform="matrix(0.017777777777777778,0,0,0.017777777777777778,61.88444444444445,0)" xlink:href="#F"/><use transform="matrix(0.017777777777777778,0,0,0.017777777777777778,71.73333333333333,0)" xlink:href="#T"/></g><g id="x"><use transform="matrix(0.017777777777777778,0,0,0.017777777777777778,0,0)" xlink:href="#M"/><use transform="matrix(0.017777777777777778,0,0,0.017777777777777778,10.026666666666667,0)" xlink:href="#O"/><use transform="matrix(0.017777777777777778,0,0,0.017777777777777778,20.88888888888889,0)" xlink:href="#E"/></g><path fill="#333" d="M250 13C136 13 85-61 85-199v-344h91v333c0 101 30 144 102 144 56 0 95-27 147-92v-385h91V0h-76l-7-85h-3c-51 59-105 98-180 98" id="ap"/><g id="y"><use transform="matrix(0.017777777777777778,0,0,0.017777777777777778,0,0)" xlink:href="#G"/><use transform="matrix(0.017777777777777778,0,0,0.017777777777777778,10.648888888888889,0)" xlink:href="#ap"/><use transform="matrix(0.017777777777777778,0,0,0.017777777777777778,21.439999999999994,0)" xlink:href="#N"/><use transform="matrix(0.017777777777777778,0,0,0.017777777777777778,28.14222222222222,0)" xlink:href="#C"/><use transform="matrix(0.017777777777777778,0,0,0.017777777777777778,38.91555555555556,0)" xlink:href="#S"/><use transform="matrix(0.017777777777777778,0,0,0.017777777777777778,45.81333333333333,0)" xlink:href="#J"/><use transform="matrix(0.017777777777777778,0,0,0.017777777777777778,50.702222222222225,0)" xlink:href="#M"/><use transform="matrix(0.017777777777777778,0,0,0.017777777777777778,60.72888888888889,0)" xlink:href="#H"/></g><path fill="#333" d="M125-195c0 81 63 135 145 135 50 0 98-23 140-59-72-63-141-140-193-219-52 42-92 86-92 143zm176-486c-111 5-105 153-55 236 67-45 125-90 125-155 0-43-20-81-70-81zM663-63l-25 76C587-1 530-29 471-71c-56 51-125 84-212 84C126 13 36-72 36-190c0-98 69-160 144-212-30-59-48-118-48-171 0-98 68-174 169-174 91 0 144 60 144 145 0 96-84 158-165 217 48 76 116 150 186 207 46-60 81-133 104-217h84c-28 97-70 186-128 262 49 35 96 59 137 70" id="aq"/><use transform="matrix(0.017777777777777778,0,0,0.017777777777777778,0,0)" xlink:href="#aq" id="z"/><path fill="#333" d="M193-658v272h123c115 0 178-46 178-141 0-97-63-131-178-131H193zM608 0H503L325-311H193V0h-93v-733h230c149 0 256 53 256 206 0 114-66 182-166 206" id="ar"/><g id="A"><use transform="matrix(0.017777777777777778,0,0,0.017777777777777778,0,0)" xlink:href="#ar"/><use transform="matrix(0.017777777777777778,0,0,0.017777777777777778,11.28888888888889,0)" xlink:href="#F"/><use transform="matrix(0.017777777777777778,0,0,0.017777777777777778,21.137777777777778,0)" xlink:href="#K"/><use transform="matrix(0.017777777777777778,0,0,0.017777777777777778,26.915555555555557,0)" xlink:href="#F"/><use transform="matrix(0.017777777777777778,0,0,0.017777777777777778,36.76444444444444,0)" xlink:href="#S"/><use transform="matrix(0.017777777777777778,0,0,0.017777777777777778,43.66222222222222,0)" xlink:href="#F"/><use transform="matrix(0.017777777777777778,0,0,0.017777777777777778,53.511111111111106,0)" xlink:href="#O"/><use transform="matrix(0.017777777777777778,0,0,0.017777777777777778,64.37333333333333,0)" xlink:href="#L"/><use transform="matrix(0.017777777777777778,0,0,0.017777777777777778,73.42222222222222,0)" xlink:href="#F"/></g></defs></g></svg>