<svg xmlns="http://www.w3.org/2000/svg" viewBox="0 0 130 70"><defs><style>.cls-1{opacity:0.2;}.cls-2{fill:#2176ab;}.cls-3{fill:#353535;}.cls-4{fill:#efc69b;}.cls-5{fill:#242c3d;}.cls-6{fill:#d3e1e2;}.cls-7{fill:#6242ba;}.cls-8{fill:#ffe7ce;}.cls-9{fill:#31394a;}.cls-10{fill:#fff;}.cls-11{fill:#7a54ce;}.cls-12{fill:#b6d6d6;}.cls-13{fill:#20b0d9;}.cls-14{fill:#2783c1;}.cls-15{fill:#1461a0;}.cls-16{fill:#ea9b1c;}.cls-17{fill:#fcd2ae;}.cls-18{fill:#51e4fd;}.cls-19{fill:#e7f1f2;}.cls-20{fill:#aaccce;}.cls-21{fill:#8d6ceb;}.cls-22{fill:#1cceed;}.cls-23{fill:#f2b326;}.cls-24{fill:#2787b6;}.cls-25{fill:#7bf6ff;}.cls-26{fill:#606f89;}.cls-27{fill:#5b3da3;}.cls-28{fill:#3ecced;}.cls-29{fill:#369ed8;}.cls-30{fill:#216ead;}.cls-31{fill:#ffc248;}.cls-32{fill:#ff7c79;}.cls-33{fill:#4a5272;}.cls-34{fill:#2abadb;}.cls-35{fill:#44d9f2;}.cls-36{fill:#197693;}.cls-37{fill:#319ec9;}.cls-38{fill:#1f7ea3;}.cls-39{fill:#22adbc;}.cls-40{fill:#55e7ff;}.cls-41{fill:#0b84a0;}.cls-42{fill:#1faedb;}.cls-43{fill:#16557c;}.cls-44{fill:#2b73aa;}.cls-45{fill:#46aec6;}.cls-46{fill:none;stroke:#333;stroke-miterlimit:10;stroke-width:0.25px;}.cls-47,.cls-48{fill:#333;}.cls-48{font-size:3px;font-family:KozGoPr6N-Regular-83pv-RKSJ-H, Kozuka Gothic Pr6N;}</style></defs><path class="cls-1" d="M39.75,48c0,2.45-3.33,4.44-7.43,4.44s-7.43-2-7.43-4.44,3.33-4.43,7.43-4.43S39.75,45.51,39.75,48Z"/><path class="cls-2" d="M38.37,37.5A4.16,4.16,0,0,1,36.24,34,4.82,4.82,0,0,0,39,36.89l1.19-1.52a5.27,5.27,0,0,1-2.79-2.7c-1-2.31-.63-5.64-.25-10s-2.09-7.82-6.51-7.82c-4.73,0-6.36,3.23-6.66,7.66-.25,3.8-.4,7.7-1.82,10.93A10.79,10.79,0,0,1,16.78,39l1.75,1.29A10.32,10.32,0,0,0,22,37a9.68,9.68,0,0,1-2.57,3.73l2.19.86a12.57,12.57,0,0,0,2.53-4.72c.12,1.49-.78,3.68-1.28,4.87a11.1,11.1,0,0,0,4.41,0,30.15,30.15,0,0,0,1.39-5.4,18.64,18.64,0,0,1-.28,5.4,14.35,14.35,0,0,0,5.86-1.19,10,10,0,0,1-.36-4.16A5.62,5.62,0,0,0,35.41,40,6.24,6.24,0,0,0,38.37,37.5Z"/><path class="cls-3" d="M37.11,35.49a9.59,9.59,0,0,0,1.31-1.32,5,5,0,0,1-1-1.5c-1-2.31-.63-5.64-.25-10s-2.09-7.82-6.51-7.82c-4.73,0-6.36,3.23-6.66,7.66-.25,3.8-.4,7.7-1.82,10.93a10.73,10.73,0,0,1-2.59,3.68,10.21,10.21,0,0,0,1.69.91A6.22,6.22,0,0,0,22,37a9.5,9.5,0,0,1-.49,1.11,13.35,13.35,0,0,0,2,.61,10.5,10.5,0,0,0,.69-1.85,6,6,0,0,1-.24,1.94A15.25,15.25,0,0,0,28.1,39a17.91,17.91,0,0,0,.55-2.65A13.44,13.44,0,0,1,28.71,39a18.13,18.13,0,0,0,5.06-1.42,8.78,8.78,0,0,1,.1-1.12,8.07,8.07,0,0,0,.16,1,14.73,14.73,0,0,0,2.69-1.61A3.56,3.56,0,0,1,36.24,34,8.65,8.65,0,0,0,37.11,35.49Z"/><path class="cls-4" d="M35.66,36.94a1.22,1.22,0,1,1-1.17-1.27A1.23,1.23,0,0,1,35.66,36.94Z"/><path class="cls-4" d="M36.24,42A1.31,1.31,0,1,1,35,40.66,1.31,1.31,0,0,1,36.24,42Z"/><polygon class="cls-4" points="33.22 36.83 33.62 41.92 36.24 42.03 35.65 36.71 33.22 36.83"/><path class="cls-4" d="M36.24,42A21.93,21.93,0,0,0,37.64,47a.53.53,0,0,1-.07.59,2.55,2.55,0,0,1-1.89.62c-1.27-.07-1.92-.66-1.91-1.18l-.15-5.09Z"/><path class="cls-4" d="M36.24,42A1.31,1.31,0,1,1,35,40.66,1.31,1.31,0,0,1,36.24,42Z"/><path class="cls-5" d="M36.4,49.18a3.49,3.49,0,0,1-.65,0c-1.4,0-2.13-.64-2.12-1.22l-.05-.86c0-.15.54-.54,1.55-.78a3.11,3.11,0,0,1,2.68.72L38,48.2a.53.53,0,0,1-.15.33A2.57,2.57,0,0,1,36.4,49.18Z"/><path class="cls-6" d="M36.35,48.25a4.3,4.3,0,0,1-.62,0c-1.33-.06-2-.66-2-1.24l-.09-1.79a.08.08,0,0,1,0-.07h0a.1.1,0,0,1,.07,0,2.31,2.31,0,0,0,1.79.33,1.94,1.94,0,0,0,1.28-.67.05.05,0,0,1,0,0h0s0,0,.06.06a12.08,12.08,0,0,0,.78,2,.63.63,0,0,1-.08.68A2.42,2.42,0,0,1,36.35,48.25Z"/><path class="cls-7" d="M37.51,46.45h0a1.49,1.49,0,0,0-.7.8,2.1,2.1,0,0,0-.06.24,2,2,0,0,0-1-.35,2.08,2.08,0,0,0-.89.1,1.48,1.48,0,0,0-.76.56.26.26,0,0,0,.43.29h0a1.23,1.23,0,0,1,1.15-.38,1.27,1.27,0,0,1,1,.66h0l0,0a.3.3,0,0,0,.34.14.31.31,0,0,0,.22-.37,1.17,1.17,0,0,1,.41-1.35.22.22,0,0,0,.08-.29A.22.22,0,0,0,37.51,46.45Z"/><polygon class="cls-8" points="29.55 37.69 28.99 43.14 31.74 43.77 32.14 38.03 29.55 37.69"/><path class="cls-8" d="M32.11,38.28a1.31,1.31,0,1,1-1-1.58A1.31,1.31,0,0,1,32.11,38.28Z"/><path class="cls-8" d="M31.74,43.77a1.41,1.41,0,1,1-1.06-1.69A1.42,1.42,0,0,1,31.74,43.77Z"/><path class="cls-8" d="M31.74,43.77a23.18,23.18,0,0,0,.52,5.5.56.56,0,0,1-.2.61,2.75,2.75,0,0,1-2.11.28c-1.33-.32-1.9-1.06-1.78-1.62l.82-5.4Z"/><path class="cls-8" d="M31.74,43.77a1.41,1.41,0,1,1-1.06-1.69A1.42,1.42,0,0,1,31.74,43.77Z"/><path class="cls-9" d="M30.45,51.32a2.8,2.8,0,0,1-.7-.09c-1.46-.33-2.09-1.12-2-1.72l.12-.92c0-.15.69-.44,1.79-.48a3.31,3.31,0,0,1,2.67,1.32l-.07,1.19a.62.62,0,0,1-.23.32A2.73,2.73,0,0,1,30.45,51.32Z"/><path class="cls-10" d="M30.59,50.33a3.74,3.74,0,0,1-.66-.09c-1.38-.33-2-1.11-1.85-1.72l.29-1.89a.09.09,0,0,1,.06-.07h0a.07.07,0,0,1,.06,0,2.5,2.5,0,0,0,1.81.72,2,2,0,0,0,1.48-.43l.07,0h0a.08.08,0,0,1,.06.08,13.91,13.91,0,0,0,.38,2.3.64.64,0,0,1-.22.7A2.54,2.54,0,0,1,30.59,50.33Z"/><path class="cls-11" d="M32.19,48.69h0a1.56,1.56,0,0,0-.91.69,1.75,1.75,0,0,0-.11.24,2.16,2.16,0,0,0-.93-.57,2.38,2.38,0,0,0-1-.08,1.46,1.46,0,0,0-.91.43.28.28,0,0,0,.39.39h0A1.3,1.3,0,0,1,30,49.63a1.36,1.36,0,0,1,.93.9h0l0,.05a.32.32,0,0,0,.63-.13,1.23,1.23,0,0,1,.72-1.32.24.24,0,0,0,.14-.29A.23.23,0,0,0,32.19,48.69Z"/><path class="cls-4" d="M34.23,30a40.5,40.5,0,0,0,2.91,3l1.12-1.4a33.13,33.13,0,0,1-3.06-2.42Z"/><path class="cls-4" d="M37.14,33A.9.9,0,1,0,37,31.73.9.9,0,0,0,37.14,33Z"/><path class="cls-4" d="M34.23,30a.63.63,0,0,0,.89.09.62.62,0,0,0,.08-.89.63.63,0,0,0-.89-.09A.62.62,0,0,0,34.23,30Z"/><path class="cls-12" d="M37.83,31c.67.48,1.12.89.83,1.64a1.32,1.32,0,0,1-2.25.58,9.25,9.25,0,0,1-2.33-3c-.66-1.29.57-1.62,1.13-1.16S37.15,30.52,37.83,31Z"/><path class="cls-4" d="M37.14,33a21,21,0,0,0,3,2.38,1.57,1.57,0,0,0,1.91-.45c.61-.73.72-1.56-.26-1.9a34.05,34.05,0,0,1-3.57-1.43Z"/><path class="cls-4" d="M37.14,33A.9.9,0,1,0,37,31.73.9.9,0,0,0,37.14,33Z"/><path class="cls-11" d="M41.83,33c-.67,1.57.05,3.85.17,4.78a12.88,12.88,0,0,0-2.22-2.88,3,3,0,0,1-.65-2.73l2.37.35A.47.47,0,0,1,41.83,33Z"/><path class="cls-12" d="M41.5,32.54c.09-.15.09-.62-.79-.69a6.29,6.29,0,0,1-2.59-.64c-.67-.28-1.59.21-1.59,1.59,0,.61.31,2.86.5,4.62l2.53,1.83,2.29-2C41.29,35.45,41,33.38,41.5,32.54Z"/><path class="cls-13" d="M37,37.42c0,.46.09,1,.12,1.44l3,2,2.2-2c-.23-.75-.45-1.5-.53-1.66C40.81,37.8,38.4,37.7,37,37.42Z"/><path class="cls-13" d="M37.43,37.83h2a.77.77,0,0,0,.84-.72.84.84,0,0,0-.89-.73H38.9c-.33-.06-.6-.27-.61-.54v0c0-.3.3-.54.69-.55l2.39,0,0-.23L38.51,35c-.59,0-1,.38-1,.78v0a.88.88,0,0,0,.95.73h.3a.66.66,0,0,1,.71.55c0,.29-.29.53-.67.53h-1Z"/><path class="cls-14" d="M37.15,38.86c0,.66,0,1.27,0,1.78l2,1.75L41.92,42l.77-1.4c-.07-.46-.18-1.09-.31-1.68A8,8,0,0,1,37.15,38.86Z"/><path class="cls-15" d="M37.17,40.64a6.37,6.37,0,0,0,0,1.67c.33.5,3.13.88,5.12.17.32-.11.49-.35.44-.91,0-.24,0-.6-.09-1A7.78,7.78,0,0,1,37.17,40.64Z"/><path class="cls-16" d="M38.12,36.07l.66.42a.12.12,0,0,1,0,.19l-.65.43A.1.1,0,0,1,38,37l0-.86A.1.1,0,0,1,38.12,36.07Z"/><path class="cls-16" d="M40.1,33.61l.62.39a.1.1,0,0,1,0,.17l-.6.41A.1.1,0,0,1,40,34.5l0-.81A.09.09,0,0,1,40.1,33.61Z"/><path class="cls-8" d="M31.23,29V27.72a1.41,1.41,0,0,1,1.41-1.41h0a1.41,1.41,0,0,1,1.41,1.41v.93a1.7,1.7,0,0,1,1.72,1.16,4.93,4.93,0,0,1,.45,2.37c-.06.55-.32,1.49-.45,2.22a2.36,2.36,0,0,0,0,1,8.67,8.67,0,0,1,.42,2A2.77,2.77,0,0,1,34.45,40a5.38,5.38,0,0,1-1.31.47c-1.78.39-3.22-.16-3.83-1.21a2.66,2.66,0,0,1,0-2.7,2.87,2.87,0,0,0,.17-2.7,5.57,5.57,0,0,1-.55-2.18C28.93,30,30.36,29.34,31.23,29Z"/><path class="cls-17" d="M34.05,28.65v-.93a1.41,1.41,0,1,0-2.82,0V29c-1,.65.07,1.27,1.35,1.1S35.34,29.14,34.05,28.65Z"/><path class="cls-13" d="M31.29,31.24a4.91,4.91,0,0,0-3.2-1,1.45,1.45,0,0,0-1.22,1.39,8.17,8.17,0,0,0,1,4.34.76.76,0,0,0,1.18.28l2.74-2.34"/><path class="cls-18" d="M30.85,29.11c.4-.38,1.88.26,2.72.91a4.34,4.34,0,0,0,.56-1.41l.34,0,.44.92-1,1.6-3.24-1.88Z"/><path class="cls-11" d="M30.46,29.19c.46-.33,2.07.34,3.14,1.18a4.5,4.5,0,0,0,.75-1.76l.41.08-.88,2.79-3.42-1.92Z"/><path class="cls-19" d="M32,40.75a3.21,3.21,0,0,1-2.86-1.42,2.87,2.87,0,0,1,0-2.89,2.7,2.7,0,0,0,.16-2.53,5.57,5.57,0,0,1-.56-2.25,2.76,2.76,0,0,1,1.51-2.4.53.53,0,0,1,.33-.08,12.64,12.64,0,0,1,3.09,1.73,4.09,4.09,0,0,0,.86-2.22c0-.07.09-.12.27,0a2.39,2.39,0,0,1,1.12,1.07,5.18,5.18,0,0,1,.47,2.46c0,.33-.14.78-.25,1.26-.07.33-.15.67-.2,1a2.19,2.19,0,0,0,0,.92,8.73,8.73,0,0,1,.43,2,3,3,0,0,1-1.87,2.75,5.38,5.38,0,0,1-1.35.48A5.16,5.16,0,0,1,32,40.75Z"/><path class="cls-20" d="M30.4,30.15a6.61,6.61,0,0,1,1.18.67,17,17,0,0,1,2.12,1.75h0a.21.21,0,0,0,.3,0h0a7.07,7.07,0,0,0,1.07-2,6.58,6.58,0,0,0,.29-1.1c0-.12,0-.23,0-.35l-.29-.22a3.07,3.07,0,0,1-.06.52,6.4,6.4,0,0,1-.31,1,7.12,7.12,0,0,1-.94,1.69,17.41,17.41,0,0,0-2.06-1.56,8.8,8.8,0,0,0-1.26-.65,2.74,2.74,0,0,0-.86-.17L29.4,30A2.21,2.21,0,0,1,30.4,30.15Z"/><path class="cls-11" d="M36,34.53l2,2.94a1,1,0,0,1,.15.84c-.33,1-1.68,2.21-4.36,2.66S28,40.44,27,38.73a1.2,1.2,0,0,1,.2-1.44L29.54,35Z"/><path class="cls-21" d="M35.87,34.72l1.55,5.21c-1.29,1.55-5.6,2.15-7.71,1.12l1.17-5.95Z"/><path class="cls-19" d="M33.22,35.53l-.47,3.55-.23.23s-4.15-.75-4.91-2.88l.16-.36,1.54-.89Z"/><path class="cls-22" d="M32.75,39.08l-.06.46c-2.24-.17-4.59-1.39-5.35-3.21l.43-.26C28.48,38.05,31.26,38.91,32.75,39.08Z"/><path class="cls-19" d="M34.23,35.35l.92,3.27a3.77,3.77,0,0,0,1.69-.93,2.6,2.6,0,0,0,.71-2.1l-1.31-1.08Z"/><path class="cls-22" d="M37.55,35.59a5.15,5.15,0,0,1-2.4,3l.13.46a5.11,5.11,0,0,0,2.55-3.25Z"/><path class="cls-16" d="M35.27,38.15h-.05a6.81,6.81,0,0,1-2.56-1.2.22.22,0,1,1,.31-.31,6.51,6.51,0,0,0,2.35,1.08.22.22,0,0,1,.16.27A.21.21,0,0,1,35.27,38.15Z"/><path class="cls-23" d="M32.65,38.56a.23.23,0,0,1-.2-.13.21.21,0,0,1,.11-.29,4.07,4.07,0,0,0,2.12-1.73.22.22,0,0,1,.3-.1.22.22,0,0,1,.1.29,4.5,4.5,0,0,1-2.34,1.94Z"/><path class="cls-24" d="M35.5,31.32a2.69,2.69,0,0,0-1.58,1,5,5,0,0,0-2-.36c-1.44,0-2.61.45-2.61,1s1.17,1,2.61,1a3.85,3.85,0,0,0,2.41-.63,1.67,1.67,0,0,0,.62,0,2.26,2.26,0,0,0,1.56-1.5C36.57,31.41,36.32,31.15,35.5,31.32Z"/><path class="cls-25" d="M36.53,31.78c.37-.35.43,2.48,0,3.27s-4.82,2.14-7.48.51a.35.35,0,0,1-.18-.31l-.17-2.52a.18.18,0,0,1,.22-.18C30.79,33.35,34.68,33.46,36.53,31.78Z"/><path class="cls-22" d="M29.07,35h0V33.66l-.28-.07.09,1.35.18.05Z"/><path class="cls-22" d="M30.16,35.16q-.54-.07-1.08-.18h0v.55s0,0,0,0a4.87,4.87,0,0,0,1.07.48v-.87Z"/><path class="cls-22" d="M29.08,33.68c.36.08.72.14,1.08.19h0v-1a6.12,6.12,0,0,1-1.09-.31v1.09Z"/><path class="cls-22" d="M31.24,34c-.35,0-.71-.05-1.07-.1h0v1.29h0c.36,0,.72.08,1.07.1v0h0V34Z"/><path class="cls-22" d="M32.3,35.26c-.35,0-.7,0-1.06,0v0h0v1a6.4,6.4,0,0,0,1.07.06v-1Z"/><path class="cls-22" d="M31.24,34c.36,0,.71,0,1.06,0h0V33.1c-.36,0-.72,0-1.07,0V34Z"/><path class="cls-22" d="M33.35,33.9c-.34,0-.69.07-1,.08h0v1.27h0c.35,0,.7,0,1-.08h0V33.9Z"/><path class="cls-22" d="M34.38,35c-.34.07-.69.13-1,.17h0v1.06a8.35,8.35,0,0,0,1-.18V35Z"/><path class="cls-22" d="M33.35,33.92c.34,0,.69-.09,1-.16h0v-.92a8.52,8.52,0,0,1-1,.19v.9Z"/><path class="cls-22" d="M35.39,33.52h0c-.33.09-.67.17-1,.24h0V35h0c.33-.06.67-.15,1-.24h0V33.52Z"/><path class="cls-22" d="M36.16,34.44a7.35,7.35,0,0,1-.77.32v0h0v1a4.12,4.12,0,0,0,.78-.36v-1Z"/><path class="cls-22" d="M35.39,33.51h0c.26-.09.52-.2.77-.31h0V32a5,5,0,0,1-.78.45v1Z"/><path class="cls-22" d="M36.83,32.85c-.22.12-.44.24-.66.34h0v1.23h0l.62-.32A9.13,9.13,0,0,0,36.83,32.85Z"/><path class="cls-23" d="M37.06,33a3.21,3.21,0,0,1-1.76,1.48,7.76,7.76,0,0,1-2.17.49,9.09,9.09,0,0,1-2.21,0,5.46,5.46,0,0,1-2.13-.76.3.3,0,0,1-.09-.43.32.32,0,0,1,.44-.08h0a4.94,4.94,0,0,0,1.87.68,9,9,0,0,0,2.07.06,7.17,7.17,0,0,0,2-.45,2.58,2.58,0,0,0,1.45-1.15v0a.3.3,0,0,1,.38-.14A.28.28,0,0,1,37.06,33Z"/><circle class="cls-9" cx="34" cy="34.55" r="0.73"/><path class="cls-26" d="M34.2,34.29a.37.37,0,0,1-.37.36.36.36,0,0,1,0-.72A.37.37,0,0,1,34.2,34.29Z"/><path class="cls-8" d="M30.63,31.3a49.43,49.43,0,0,1-2.34,4.45l-1.75-1.24a37.63,37.63,0,0,0,2.7-3.81Z"/><path class="cls-8" d="M28.29,35.75a1.07,1.07,0,1,1-.26-1.5A1.08,1.08,0,0,1,28.29,35.75Z"/><path class="cls-8" d="M30.63,31.3a.76.76,0,1,1-.4-1A.76.76,0,0,1,30.63,31.3Z"/><path class="cls-10" d="M26.54,36.07a1.22,1.22,0,0,1-.15-1.66,23,23,0,0,0,2.07-2.85c.24-.37.45-.7.64-1a.9.9,0,0,1,1.2-.46.93.93,0,0,1,.5,1.22L29.19,36C28.8,36.89,27.22,36.77,26.54,36.07Z"/><path class="cls-8" d="M28.29,35.75a24.11,24.11,0,0,1-2.71,3.76,1.89,1.89,0,0,1-2.34.12c-.95-.63-1.35-1.55-.34-2.28a39.93,39.93,0,0,0,3.64-2.84Z"/><path class="cls-8" d="M28.29,35.75a1.07,1.07,0,1,1-.26-1.5A1.08,1.08,0,0,1,28.29,35.75Z"/><path class="cls-27" d="M25.58,39.51a1.89,1.89,0,0,1-2.34.12L23,39.46a10.18,10.18,0,0,0-.34,5.23L26,39.31l-.17-.06Z"/><path class="cls-11" d="M23.74,36.48a.35.35,0,0,0-.15.37c.23-.1.85.61.55,2-.25,1.21-1.48,2.84-1.47,5A22.49,22.49,0,0,1,24.57,40a4,4,0,0,0,.3-3.23c-.29-.94-1.13-.27-1.13-.27"/><path class="cls-10" d="M23.74,36.48c-.22-.35.28-.82.75-1.08a5.2,5.2,0,0,0,2.05-1.13,1.53,1.53,0,0,1,2.53.91,20.43,20.43,0,0,1-.39,4.25l-.38,2.11-.7,1.6-4.32,1.72-.64-1.11a10.57,10.57,0,0,1,1.05-2.67,6.28,6.28,0,0,0,1-3.17C24.64,36.48,24.11,36.29,23.74,36.48Z"/><path class="cls-28" d="M22.64,43.75a7.41,7.41,0,0,0-.26,1.72l1.19.69,4-2.09.55-1.2c0-.33.08-.82.15-1.33C27.41,42.39,24.55,44,22.64,43.75Z"/><path class="cls-29" d="M28.15,42.87c0,.45,0,.85,0,1.2,0,.69-1.3,2.54-2.93,3.12s-2.85.42-2.86-.11,0-1,0-1.61C24.77,45.58,27.12,43.87,28.15,42.87Z"/><path class="cls-30" d="M28.14,44.07a5.16,5.16,0,0,1-.08,1.53A7.65,7.65,0,0,1,23,48.85a.51.51,0,0,1-.55-.46c0-.32-.06-.78-.07-1.31A9.53,9.53,0,0,0,28.14,44.07Z"/><path class="cls-28" d="M27.54,42.23l-1,.46c-.38.18-.7,0-.7-.37a1.26,1.26,0,0,1,.7-1l.32-.14a1.69,1.69,0,0,0,.94-1.38v-.05c0-.51-.42-.74-.94-.5l-3,1.47-.15.29,2.55-1.26c.4-.17.72,0,.72.38v0a1.28,1.28,0,0,1-.6,1l-.47.22a1.6,1.6,0,0,0-.88,1.34c0,.51.39.75.88.53l2-.93Z"/><path class="cls-31" d="M25.39,37.9l.93.39c.1,0,.1.17,0,.25l-.93.77c-.1.09-.22,0-.22-.07V38.07A.18.18,0,0,1,25.39,37.9Z"/><path class="cls-31" d="M27.34,40.58l.64.27c.07,0,.07.12,0,.17l-.64.54c-.07,0-.15,0-.15-.06v-.8A.12.12,0,0,1,27.34,40.58Z"/><path class="cls-8" d="M35.88,12.06c3.21,1.43,4.76,3.87,4.18,8.61a11.17,11.17,0,0,0,0,2.83,2.44,2.44,0,0,1-.67,2c-1.05,1.11-3.23,2.62-7.43,2.93-4.52.34-9-1.95-9.6-8.32S29.61,9.26,35.88,12.06Z"/><path class="cls-17" d="M24.3,19.73c-.42-4.5,3.75-8,8.48-8.46-5.48-.5-10.93,3.49-10.46,8.84.57,6.37,5.08,8.66,9.6,8.32a13.74,13.74,0,0,0,4.92-1.18,16.37,16.37,0,0,1-2.94.46C29.38,28,24.87,25.84,24.3,19.73Z"/><path class="cls-13" d="M30.92,23c1.23,0,1.39,3.05,0,3.05S29.69,23,30.92,23Z"/><path class="cls-24" d="M30.92,23c-.92,0-1.24,1.7-.76,2.56L31.87,25C32,24.11,31.65,23,30.92,23Z"/><path class="cls-3" d="M30.92,23c-.63,0-1,.79-1,1.56L31.81,24C31.67,23.45,31.37,23,30.92,23Z"/><path class="cls-13" d="M37.7,21.23c1.11,0,1.25,3.05,0,3.05S36.6,21.23,37.7,21.23Z"/><path class="cls-24" d="M37.7,21.23c-.82,0-1.11,1.7-.69,2.57l1.55-.63C38.67,22.3,38.36,21.23,37.7,21.23Z"/><path class="cls-3" d="M37.7,21.23c-.56,0-.87.79-.88,1.56l1.68-.64C38.38,21.64,38.1,21.23,37.7,21.23Z"/><path class="cls-32" d="M34.67,26.57a.92.92,0,0,1-.64-.24.22.22,0,1,1,.31-.31.48.48,0,0,0,.42.1.52.52,0,0,0,.4-.28.22.22,0,0,1,.3-.09.22.22,0,0,1,.09.3,1,1,0,0,1-.73.51Z"/><path class="cls-24" d="M38.14,26.8a14.36,14.36,0,0,1-.1,6.77l1.6-1A9.41,9.41,0,0,0,39.43,27c-.14-.44-.28-.84-.41-1.21a7.13,7.13,0,0,1-1,.73A2.17,2.17,0,0,0,38.14,26.8Z"/><path class="cls-9" d="M38.14,26.8a12.54,12.54,0,0,1,.27,4.61l1.54-1A9.94,9.94,0,0,0,39.43,27c-.14-.44-.28-.84-.41-1.21a7.13,7.13,0,0,1-1,.73A2.17,2.17,0,0,0,38.14,26.8Z"/><path class="cls-33" d="M39.51,27.27a10.72,10.72,0,0,1,.4,2l-1.42,1A13.84,13.84,0,0,0,38.4,28Z"/><path class="cls-24" d="M27.93,22c-.18,4.22.64,5.47,1.71,8.49,1,2.76.74,4.4.33,5.32L28,35.55a10.14,10.14,0,0,0,0-6.29c-1-2.9-1.51-5.64-1-7.49Z"/><path class="cls-9" d="M27.93,22c-.18,4.22.64,5.47,1.71,8.49a10.37,10.37,0,0,1,.68,3.49l-1.88-.15a10.56,10.56,0,0,0-.4-4.53c-1-2.9-1.51-5.64-1-7.49Z"/><path class="cls-33" d="M29.73,30.72a11.94,11.94,0,0,1,.52,2.19l-1.73-.14a10.81,10.81,0,0,0-.15-2.18Z"/><path class="cls-34" d="M41.92,20a.35.35,0,0,1-.3,0,8.09,8.09,0,0,1-3-4.94.32.32,0,0,1,.25-.37.33.33,0,0,1,.38.26,7.5,7.5,0,0,0,2.65,4.5.32.32,0,0,1,.11.44A.37.37,0,0,1,41.92,20Z"/><path class="cls-34" d="M43.27,19.91,42,19.6a.25.25,0,0,0-.17,0,.26.26,0,0,0-.14.36h0l.5,1.13,0,.06a.38.38,0,0,0,.63-.42l-.25-.37.51.19h0a.35.35,0,0,0,.16-.68Z"/><path class="cls-18" d="M42.73,21l-1-1a.19.19,0,0,1,0-.26.2.2,0,0,1,.23,0l1.21.75a.36.36,0,1,1-.38.6Z"/><path class="cls-23" d="M42.33,19.51a.64.64,0,0,1-.31.85.64.64,0,0,1-.54-1.15A.64.64,0,0,1,42.33,19.51Z"/><path class="cls-24" d="M42.25,14.86a3.35,3.35,0,0,0-3.42-.12s0,0,0,.06.21,1.13.21,1.13a2.94,2.94,0,0,0,.92,1,2,2,0,0,0,1.72.3l.16-.07a1.52,1.52,0,0,0,.8-.94A1.25,1.25,0,0,0,42.25,14.86ZM42,16.05a.88.88,0,0,1-.57.61,1.35,1.35,0,0,1-1.15-.22,2.43,2.43,0,0,1-.91-1.24,2.66,2.66,0,0,1,2.46.14A.6.6,0,0,1,42,16.05Z"/><path class="cls-18" d="M41.91,15.6a3.28,3.28,0,0,0-3-.88.31.31,0,0,0-.13.06h-.12l.39,1.5a4.17,4.17,0,0,0,.7,1.09,2,2,0,0,0,1.72.78,1.27,1.27,0,0,0,.23-.08,1.24,1.24,0,0,0,.63-.77A1.63,1.63,0,0,0,41.91,15.6Zm-.19,1.48c-.13.38-.33.42-.39.43a1.42,1.42,0,0,1-1.12-.57,3.87,3.87,0,0,1-.85-1.66,2.65,2.65,0,0,1,2.08.75A1,1,0,0,1,41.72,17.08Z"/><path class="cls-34" d="M39.27,15.49a.22.22,0,0,1-.22,0,.77.77,0,0,1-.15-.77.21.21,0,0,1,.26-.11.19.19,0,0,1,.11.26.4.4,0,0,0,0,.32.2.2,0,0,1,0,.28Z"/><path class="cls-34" d="M38.64,15.61a.22.22,0,0,1-.22,0,.58.58,0,0,1-.21-.43.56.56,0,0,1,.1-.37.2.2,0,0,1,.28,0,.21.21,0,0,1,0,.28.2.2,0,0,0,.06.23.2.2,0,0,1,0,.29S38.66,15.59,38.64,15.61Z"/><path class="cls-35" d="M39,15.58a.2.2,0,0,1-.23,0,.91.91,0,0,1-.17-.88.21.21,0,0,1,.26-.12.2.2,0,0,1,.12.26.48.48,0,0,0,.08.46.22.22,0,0,1,0,.29Z"/><path class="cls-9" d="M42,20.76l-.15-1.06A16.36,16.36,0,0,1,40.61,17a11.63,11.63,0,0,0-3.29-4.89c-3.79-3.36-8.14-1.85-9-.86-5.95-.27-7.12,7.06-7.55,9.34a8,8,0,0,1-1.08,2.69l1.42,2.36,2.39.31c.08-.28.18-.57.28-.86a7.51,7.51,0,0,0,0,.95l1.68,1.28,1.55-.79a12.07,12.07,0,0,1,.39-3.73,11.62,11.62,0,0,0-.12,1.89l1.27,1.43.34-1.32A11.66,11.66,0,0,1,31,17.58c-.67,2.13-.77,4.43-.45,5.18a6.35,6.35,0,0,0,2.24-.25c1-1.11,1.34-2.8,1.34-5a10,10,0,0,1,0,4.77A9,9,0,0,0,38,20.75a5.77,5.77,0,0,0,.24-2.11,12,12,0,0,0-.34-2.05,11.88,11.88,0,0,1,1.72,5l1.2,1.16Z"/><path class="cls-33" d="M30.61,17.78c-3.73,0-6.85-1.52-7.68-3.57a13,13,0,0,0-1.4,3.2c1.57,1.73,4.53,2.95,8,3.17a10.66,10.66,0,0,1,1.37-2.81Z"/><path class="cls-33" d="M40.4,16.42a11.83,11.83,0,0,0-1.9-3.16c-.13,2.44-3.42,4.4-7.53,4.51a14.13,14.13,0,0,0-.54,2.84h.18a16.24,16.24,0,0,0,3.26-.32,12.33,12.33,0,0,0,.28-2.8,7.64,7.64,0,0,1,.28,2.68,12.34,12.34,0,0,0,3.76-1.53,12,12,0,0,0-.34-2.05,14.18,14.18,0,0,1,.86,1.69A6.13,6.13,0,0,0,40.4,16.42Z"/><path class="cls-36" d="M19.73,23.24a6.76,6.76,0,0,1-.8,1,6.23,6.23,0,0,0,2.22,1.32l.61-1.28A8.63,8.63,0,0,1,19.73,23.24Z"/><path class="cls-24" d="M27.23,28.22a12.22,12.22,0,0,1-.17-1.73,11.45,11.45,0,0,1-3.22-.5c0,.44.1.87.15,1.28A6.9,6.9,0,0,0,27.23,28.22Z"/><path class="cls-24" d="M23.33,27a7.76,7.76,0,0,1,.21-1.05A7.12,7.12,0,0,1,21.45,25l-.3.61-.26.55A5.06,5.06,0,0,0,23.33,27Z"/><path class="cls-37" d="M27.34,24.65a9.67,9.67,0,0,0,.38,2.62,3.29,3.29,0,0,0,2.31.26A4.45,4.45,0,0,1,29,24.76,7.06,7.06,0,0,1,27.34,24.65Z"/><path class="cls-38" d="M42.56,20.42a2.12,2.12,0,0,1-.73-.73,6.15,6.15,0,0,1-1.24,1.88l.18,1.22C41.42,22.37,42.56,21.09,42.56,20.42Z"/><path class="cls-37" d="M39.64,24.56a2.08,2.08,0,0,0,1.17-1.12l0-.65-.18-2a2.42,2.42,0,0,1-1,.81A18.59,18.59,0,0,1,39.64,24.56Z"/><path class="cls-39" d="M28.15,13.91a18.46,18.46,0,0,1,2-.08c.24,0,.51.69.42.91q-.39.93-.78,1.89c-.1.23-.57.14-.74-.14-.35-.68-.7-1.34-1.05-2C27.79,14.23,27.89,13.9,28.15,13.91Z"/><path class="cls-40" d="M27.84,13.57a13.71,13.71,0,0,1,2.2.24.31.31,0,0,1,.23.42c-.28.67-.55,1.34-.83,2-.1.24-.42.18-.59-.1-.4-.68-.81-1.35-1.21-2C27.47,13.89,27.58,13.57,27.84,13.57Z"/><path class="cls-41" d="M26.15,14.88a13.83,13.83,0,0,1,2.63-.34.9.9,0,0,1,.5.86c-.35.88-.71,1.78-1.07,2.7-.11.28-.63.25-.82-.05-.49-.85-1-1.67-1.46-2.48A.43.43,0,0,1,26.15,14.88Z"/><path class="cls-42" d="M25.84,14.59a14.15,14.15,0,0,1,2.91-.08.31.31,0,0,1,.26.43c-.37.92-.74,1.87-1.11,2.83-.11.28-.47.26-.66,0-.54-.85-1.08-1.66-1.62-2.45C25.43,15,25.55,14.62,25.84,14.59Z"/><path class="cls-43" d="M23.88,16.05a14.32,14.32,0,0,1,3.4-.72c.23,0,.54.48.45.72-.42,1.21-.85,2.45-1.27,3.71a.38.38,0,0,1-.69,0c-.71-1-1.42-2-2.11-3A.52.52,0,0,1,23.88,16.05Z"/><path class="cls-44" d="M23.66,15.87a13.38,13.38,0,0,1,3.43-.57l.24,0a.37.37,0,0,1,.09.39c-.43,1.23-.86,2.47-1.28,3.75a.38.38,0,0,1-.69.06c-.7-1-1.19-2-1.88-2.94C23.38,16.33,23.37,16,23.66,15.87Z"/><path class="cls-45" d="M23.68,16.65a.51.51,0,0,1,.21-.76,14,14,0,0,1,3.44-.55h0a.33.33,0,0,0-.23-.1,14.14,14.14,0,0,0-3.53.57.52.52,0,0,0-.22.78c.69.93,1.39,1.91,2.09,2.94a.38.38,0,0,0,.5.14.39.39,0,0,1-.23-.16C25,18.51,24.35,17.56,23.68,16.65Z"/><path class="cls-34" d="M26.7,25.31a.36.36,0,0,1-.3-.15,9,9,0,0,1-.62-6.33.35.35,0,0,1,.43-.25.34.34,0,0,1,.25.43A8.26,8.26,0,0,0,27,24.76a.36.36,0,0,1-.29.55Z"/><path class="cls-34" d="M28.11,25.83l-1.17-.93a.28.28,0,0,0-.18-.06.3.3,0,0,0-.31.3h0l0,1.38v.07a.42.42,0,0,0,.47.35.42.42,0,0,0,.35-.48L27.17,26l.42.43,0,0a.4.4,0,0,0,.55-.06A.39.39,0,0,0,28.11,25.83Z"/><path class="cls-18" d="M27.05,26.67l-.53-1.48a.21.21,0,0,1,.13-.26.21.21,0,0,1,.24.09l.85,1.31a.39.39,0,0,1-.12.54.37.37,0,0,1-.53-.11A.36.36,0,0,1,27.05,26.67Z"/><path class="cls-31" d="M27.35,25a.71.71,0,0,1-1.41,0,.71.71,0,1,1,1.41,0Z"/><path class="cls-34" d="M23.84,24.51a.32.32,0,0,1-.17-.26,8.57,8.57,0,0,1,2.46-5.54.33.33,0,1,1,.48.46,8,8,0,0,0-2.27,5,.35.35,0,0,1-.31.36A.3.3,0,0,1,23.84,24.51Z"/><path class="cls-34" d="M24.77,25.61l-.54-1.32a.31.31,0,0,0-.12-.14.3.3,0,0,0-.4.1h0L23,25.38l0,.06a.38.38,0,0,0,.23.51.39.39,0,0,0,.51-.22l.17-.44.14.55,0,.05a.36.36,0,0,0,.48.2A.38.38,0,0,0,24.77,25.61Z"/><path class="cls-18" d="M23.49,25.81l.26-1.47a.2.2,0,0,1,.23-.16.19.19,0,0,1,.16.18l.08,1.49a.37.37,0,1,1-.74,0A.28.28,0,0,1,23.49,25.81Z"/><path class="cls-23" d="M24.53,24.55a.66.66,0,0,1-.91.26.67.67,0,1,1,.66-1.17A.67.67,0,0,1,24.53,24.55Z"/><path class="cls-24" d="M29.47,20.3a3.68,3.68,0,0,0-3.35-1.74l-.09,0a.21.21,0,0,0,0-.06,3,3,0,0,0-3.07,0A1.42,1.42,0,0,0,22.29,20a1.31,1.31,0,0,0,.77,1.08,1.42,1.42,0,0,0,.55.11,2,2,0,0,0,1.14-.38,3.18,3.18,0,0,0,1-1,3.14,3.14,0,0,0,.43,1.48,2.21,2.21,0,0,0,1.57,1.11h.2a1.69,1.69,0,0,0,1.24-.56A1.36,1.36,0,0,0,29.47,20.3Zm-5.1-.08a1.21,1.21,0,0,1-1,.2.66.66,0,0,1-.36-.55.74.74,0,0,1,.33-.78,1.93,1.93,0,0,1,1.05-.27,2.69,2.69,0,0,1,1,.19A2.85,2.85,0,0,1,24.37,20.22Zm4.28,1.15a1,1,0,0,1-.85.34A1.5,1.5,0,0,1,26.75,21a2.58,2.58,0,0,1-.32-1.67,2.91,2.91,0,0,1,2.39,1.3A.66.66,0,0,1,28.65,21.37Z"/><path class="cls-18" d="M28.78,20.88a3.62,3.62,0,0,0-2.59-2.31.24.24,0,0,0-.15,0,.37.37,0,0,0-.12-.07,3.23,3.23,0,0,0-2.91.8,1.76,1.76,0,0,0-.61,1.74,1,1,0,0,0,.73.78,1.12,1.12,0,0,0,.32,0,2.05,2.05,0,0,0,1.41-.67,4.73,4.73,0,0,0,.74-1,4.54,4.54,0,0,0,.18,1.42,2.23,2.23,0,0,0,1.35,1.59,1.2,1.2,0,0,0,.28,0,1.36,1.36,0,0,0,1-.47A1.81,1.81,0,0,0,28.78,20.88Zm-4.43-.17a1.2,1.2,0,0,1-1,.44.32.32,0,0,1-.24-.27,1.11,1.11,0,0,1,.41-1.06,2.68,2.68,0,0,1,1.75-.7h.1A4.5,4.5,0,0,1,24.35,20.71Zm3.55,1.56c-.32.31-.53.26-.6.25a1.57,1.57,0,0,1-.84-1.11,4.25,4.25,0,0,1-.07-2.05,2.88,2.88,0,0,1,1.72,1.73A1.16,1.16,0,0,1,27.9,22.27Z"/><path class="cls-34" d="M26.2,19.52a.22.22,0,0,1-.2-.13.83.83,0,0,1,.21-.84.22.22,0,1,1,.29.32.49.49,0,0,0-.1.34.22.22,0,0,1-.11.29Z"/><path class="cls-34" d="M25.51,19.34a.23.23,0,0,1-.2-.13.7.7,0,0,1,0-.53.6.6,0,0,1,.28-.32.22.22,0,0,1,.29.11.22.22,0,0,1-.1.29.22.22,0,0,0-.05.27.22.22,0,0,1-.11.29Z"/><path class="cls-35" d="M25.84,19.46a.23.23,0,0,1-.21-.15,1,1,0,0,1,.25-.95.22.22,0,0,1,.31.31.55.55,0,0,0-.14.5.22.22,0,0,1-.14.28Z"/><rect class="cls-46" x="16.5" y="10" width="27" height="42.5"/><path class="cls-1" d="M89.91,49.86c-1.73,1.73-5.49.79-8.39-2.11s-3.85-6.66-2.12-8.39,5.49-.79,8.39,2.11S91.64,48.13,89.91,49.86Z"/><path class="cls-2" d="M96.33,41.5a4.2,4.2,0,0,1,1-4c-.54,1.6-.68,2.74-.08,4l1.92-.22a5.24,5.24,0,0,1-.06-3.89C100,35,102.6,33,106,30.14s4.06-7,.93-10.14c-3.35-3.34-6.79-2.22-10.13.71-2.86,2.51-5.73,5.16-9,6.44a10.71,10.71,0,0,1-7.73.13l.33,2.15a10.25,10.25,0,0,0,4.75.13,9.49,9.49,0,0,1-4.46.82l.95,2.16A12.46,12.46,0,0,0,86.69,31c-1,1.14-3.15,2.05-4.35,2.54a11.17,11.17,0,0,0,3.12,3.12,30.39,30.39,0,0,0,4.81-2.84,18.93,18.93,0,0,1-4,3.62,14.37,14.37,0,0,0,5,3.3,10,10,0,0,1,2.68-3.19,5.59,5.59,0,0,0-1.42,3.61A6.3,6.3,0,0,0,96.33,41.5Z"/><path class="cls-3" d="M96.86,39.18a9.6,9.6,0,0,0,1.86,0,5,5,0,0,1,.34-1.79C100,35,102.6,33,106,30.14s4.06-7,.93-10.14c-3.35-3.34-6.79-2.22-10.13.71-2.86,2.51-5.73,5.16-9,6.44a10.64,10.64,0,0,1-4.44.77,12.63,12.63,0,0,0,.56,1.84,7,7,0,0,0,1.23-.2A10.08,10.08,0,0,1,84,30a13.55,13.55,0,0,0,1,1.81A11.51,11.51,0,0,0,86.69,31a6.05,6.05,0,0,1-1.54,1.2A15.33,15.33,0,0,0,88,35.3a19,19,0,0,0,2.27-1.49,14.47,14.47,0,0,1-1.79,1.87,17.71,17.71,0,0,0,4.58,2.58,7.5,7.5,0,0,1,.85-.72c-.23.29-.42.56-.59.82a15,15,0,0,0,3,.76,3.76,3.76,0,0,1,.92-1.6A9.62,9.62,0,0,0,96.86,39.18Z"/><path class="cls-4" d="M94.81,39.18a1.22,1.22,0,0,1-1.65-1.81,1.22,1.22,0,0,1,1.65,1.81Z"/><path class="cls-4" d="M91.62,43.19a1.31,1.31,0,1,1,.08-1.86A1.32,1.32,0,0,1,91.62,43.19Z"/><polygon class="cls-4" points="93.16 37.37 89.84 41.25 91.62 43.19 94.97 39 93.16 37.37"/><path class="cls-4" d="M91.62,43.19a21.71,21.71,0,0,0-2.51,4.49.51.51,0,0,1-.47.36,2.51,2.51,0,0,1-1.77-.9c-.85-1-.89-1.81-.51-2.18l3.49-3.71Z"/><path class="cls-4" d="M91.62,43.19a1.31,1.31,0,1,1,.08-1.86A1.32,1.32,0,0,1,91.62,43.19Z"/><path class="cls-5" d="M86.68,48.36a2.9,2.9,0,0,1-.49-.43c-1-1-1.06-2-.64-2.36l.57-.65c.1-.11.76,0,1.65.55a3.1,3.1,0,0,1,1.38,2.41l-.67.9a.63.63,0,0,1-.34.12A2.53,2.53,0,0,1,86.68,48.36Z"/><path class="cls-6" d="M87.3,47.66a3,3,0,0,1-.46-.41c-.9-1-1-1.89-.55-2.3l1.2-1.32a.1.1,0,0,1,.09,0h0a.06.06,0,0,1,0,.06,2.34,2.34,0,0,0,1,1.5,1.91,1.91,0,0,0,1.37.43s0,0,.06,0h0a.1.1,0,0,1,0,.09,12.56,12.56,0,0,0-.9,2,.6.6,0,0,1-.54.43A2.42,2.42,0,0,1,87.3,47.66Z"/><path class="cls-7" d="M89.39,47.21h0a1.44,1.44,0,0,0-1.06.06,1.35,1.35,0,0,0-.22.14,2,2,0,0,0-.43-.94,2.18,2.18,0,0,0-.69-.55,1.37,1.37,0,0,0-.94-.14.26.26,0,0,0-.2.29.26.26,0,0,0,.3.21h0a1.23,1.23,0,0,1,1.08.55A1.24,1.24,0,0,1,87.49,48h0v0a.3.3,0,0,0,.56.22,1.15,1.15,0,0,1,1.24-.65.23.23,0,0,0,.26-.15A.22.22,0,0,0,89.39,47.21Z"/><polygon class="cls-8" points="89.96 35.39 85.71 38.84 87.21 41.23 91.55 37.46 89.96 35.39"/><path class="cls-8" d="M91.35,37.61a1.31,1.31,0,1,1,.42-1.81A1.3,1.3,0,0,1,91.35,37.61Z"/><path class="cls-8" d="M87.21,41.23a1.41,1.41,0,1,1,.45-1.94A1.41,1.41,0,0,1,87.21,41.23Z"/><path class="cls-8" d="M87.21,41.23a23.44,23.44,0,0,0-3.52,4.26.57.57,0,0,1-.57.29,2.71,2.71,0,0,1-1.69-1.29c-.71-1.17-.59-2.1-.12-2.41l4.4-3.24Z"/><path class="cls-8" d="M87.21,41.23a1.41,1.41,0,1,1,.45-1.94A1.41,1.41,0,0,1,87.21,41.23Z"/><path class="cls-9" d="M81,45.66a3.26,3.26,0,0,1-.43-.55c-.8-1.27-.69-2.28-.18-2.61l.74-.56c.13-.09.8.17,1.61.92a3.33,3.33,0,0,1,1,2.82l-.89.8a.64.64,0,0,1-.39.06A2.72,2.72,0,0,1,81,45.66Z"/><path class="cls-10" d="M81.76,45.06a3,3,0,0,1-.4-.53c-.75-1.21-.61-2.18-.1-2.52l1.54-1.14a.09.09,0,0,1,.1,0h0a.19.19,0,0,1,0,.07,2.49,2.49,0,0,0,.77,1.79,2.05,2.05,0,0,0,1.35.75.07.07,0,0,1,.06,0l0,0a.1.1,0,0,1,0,.09,12.51,12.51,0,0,0-1.36,1.9.66.66,0,0,1-.66.34A2.52,2.52,0,0,1,81.76,45.06Z"/><path class="cls-11" d="M84.05,45h0a1.57,1.57,0,0,0-1.13-.16,1.3,1.3,0,0,0-.25.1,2,2,0,0,0-.26-1.07,2.25,2.25,0,0,0-.61-.73,1.56,1.56,0,0,0-1-.35.28.28,0,0,0-.27.27.27.27,0,0,0,.27.28h0a1.5,1.5,0,0,1,1,2.1h0l0,0a.32.32,0,0,0,.53.36,1.24,1.24,0,0,1,1.44-.43.24.24,0,0,0,.22-.42Z"/><path class="cls-4" d="M98.72,33.24a39.89,39.89,0,0,0-.07,4.19l1.78-.2a32.74,32.74,0,0,1-.45-3.87Z"/><path class="cls-4" d="M98.65,37.43a.9.9,0,1,0,.79-1A.9.9,0,0,0,98.65,37.43Z"/><path class="cls-4" d="M98.72,33.24a.64.64,0,0,0,.57.69.63.63,0,0,0,.69-.57.62.62,0,0,0-.56-.69A.65.65,0,0,0,98.72,33.24Z"/><path class="cls-12" d="M100.54,36.51c.14.82.17,1.42-.56,1.75a1.33,1.33,0,0,1-2-1.18,9.28,9.28,0,0,1,.51-3.81c.45-1.37,1.55-.74,1.62,0S100.41,35.69,100.54,36.51Z"/><path class="cls-4" d="M98.65,37.43a20.47,20.47,0,0,0,.47,3.84,1.58,1.58,0,0,0,1.67,1c.94-.08,1.61-.6,1.16-1.53a33.84,33.84,0,0,1-1.52-3.54Z"/><path class="cls-4" d="M98.65,37.43a.9.9,0,1,0,.79-1A.9.9,0,0,0,98.65,37.43Z"/><path class="cls-11" d="M102,40.77c-1.59.63-2.69,2.75-3.27,3.5a12.93,12.93,0,0,0,.48-3.61,3,3,0,0,1,1.46-2.39l1.43,1.92A.47.47,0,0,1,102,40.77Z"/><path class="cls-12" d="M102.05,40.19c.17,0,.51-.37-.07-1a6.22,6.22,0,0,1-1.38-2.29c-.27-.67-1.27-1-2.24,0-.44.43-1.81,2.24-2.92,3.62l.49,3.08,3,.2C99.85,42.11,101.07,40.4,102.05,40.19Z"/><path class="cls-13" d="M95.44,40.49l-.93,1.1.71,3.56,3,.16c.37-.69.74-1.37.79-1.54C97.84,43.43,96.21,41.65,95.44,40.49Z"/><path class="cls-13" d="M95.43,41.06l1.4,1.41a.77.77,0,0,0,1.1.08.85.85,0,0,0-.11-1.14l-.33-.33a.65.65,0,0,1,0-.81l0,0a.63.63,0,0,1,.87.1L100,42.06l.14-.19-2-2c-.46-.38-1-.43-1.25-.14l0,0a.89.89,0,0,0,.15,1.19l.22.22a.65.65,0,0,1,.11.88.61.61,0,0,1-.85-.09l-.69-.7Z"/><path class="cls-14" d="M94.51,41.59c-.45.48-.88.91-1.25,1.27l.17,2.64,2.24,1.67,1.54-.45c.28-.37.64-.9,1-1.41A7.91,7.91,0,0,1,94.51,41.59Z"/><path class="cls-15" d="M93.26,42.86a5.82,5.82,0,0,0-1.14,1.22c-.13.59,1.58,2.83,3.5,3.74.3.15.59.1.95-.34.16-.18.39-.45.64-.76A7.78,7.78,0,0,1,93.26,42.86Z"/><path class="cls-16" d="M97.16,40.3l.18.77a.11.11,0,0,1-.13.13l-.77-.15a.1.1,0,0,1,0-.17l.6-.62A.09.09,0,0,1,97.16,40.3Z"/><path class="cls-16" d="M100.31,40l.16.72a.1.1,0,0,1-.12.12l-.72-.14a.09.09,0,0,1,0-.16l.55-.58A.1.1,0,0,1,100.31,40Z"/><path class="cls-8" d="M97.3,30.43l.9-.91a1.42,1.42,0,0,1,2,0h0a1.41,1.41,0,0,1,0,2l-.66.66a1.71,1.71,0,0,1,.4,2,5.06,5.06,0,0,1-1.36,2c-.43.34-1.28.83-1.88,1.25a2.37,2.37,0,0,0-.69.72,8.64,8.64,0,0,1-1.11,1.71,2.78,2.78,0,0,1-3.09.58,5.35,5.35,0,0,1-1.25-.59c-1.54-1-2.17-2.4-1.86-3.57a2.66,2.66,0,0,1,1.9-1.91,2.9,2.9,0,0,0,2-1.79,5.45,5.45,0,0,1,1.15-1.93C94.94,29.53,96.44,30.05,97.3,30.43Z"/><path class="cls-17" d="M99.53,32.17l.66-.66a1.41,1.41,0,0,0,0-2,1.42,1.42,0,0,0-2,0l-.9.91c-1.18-.27-.85.94.17,1.73S100.1,33.43,99.53,32.17Z"/><path class="cls-13" d="M95.75,32.05a4.89,4.89,0,0,0-1.58-2.95,1.46,1.46,0,0,0-1.84.12A8.07,8.07,0,0,0,90,33a.75.75,0,0,0,.63,1l3.59.29"/><path class="cls-18" d="M97,30.24c.55,0,1.14,1.51,1.28,2.56a4.18,4.18,0,0,0,1.39-.59l.21.26-.34,1-1.86.41-1-3.63Z"/><path class="cls-11" d="M96.62,30c.55.09,1.22,1.7,1.38,3.06a4.64,4.64,0,0,0,1.77-.72l.24.35-2.6,1.35-1-3.78Z"/><path class="cls-19" d="M89.54,39.3a3.21,3.21,0,0,1-1-3,2.88,2.88,0,0,1,2-2.05,2.71,2.71,0,0,0,1.9-1.67,5.67,5.67,0,0,1,1.19-2,2.76,2.76,0,0,1,2.77-.63.66.66,0,0,1,.29.17,13.26,13.26,0,0,1,1,3.41,4.05,4.05,0,0,0,2.17-1c.05,0,.15,0,.21.18a2.46,2.46,0,0,1,0,1.55,5.19,5.19,0,0,1-1.41,2.06,12.66,12.66,0,0,1-1.06.72c-.29.19-.58.37-.83.55a2.24,2.24,0,0,0-.64.66A8.4,8.4,0,0,1,95,40a3,3,0,0,1-3.26.62A5.38,5.38,0,0,1,90.46,40,6.15,6.15,0,0,1,89.54,39.3Z"/><path class="cls-20" d="M95.89,30.65A7.37,7.37,0,0,1,96.26,32a16.7,16.7,0,0,1,.25,2.73h0v0a.22.22,0,0,0,.24.19h0a6.82,6.82,0,0,0,2.19-.68,6.41,6.41,0,0,0,1-.57l.28-.22a3.13,3.13,0,0,0,0-.36,2.51,2.51,0,0,1-.41.32,5.41,5.41,0,0,1-.95.51,6.66,6.66,0,0,1-1.86.53,16.82,16.82,0,0,0-.35-2.55,7.44,7.44,0,0,0-.44-1.36,2.79,2.79,0,0,0-.48-.73h-.33A2.22,2.22,0,0,1,95.89,30.65Z"/><path class="cls-11" d="M96.73,37.68,96,41.16a1,1,0,0,1-.49.7c-1,.49-2.74.37-5-1.21s-3.68-4.42-3.19-6.35a1.2,1.2,0,0,1,1.17-.88l3.32,0Z"/><path class="cls-21" d="M96.53,37.76l-2.59,4.78c-2,.18-5.48-2.44-6.24-4.66l5-3.38Z"/><path class="cls-19" d="M94.08,36.45l-2.84,2.18h-.32s-2.41-3.46-1.44-5.51l.36-.13,1.72.46Z"/><path class="cls-22" d="M91.24,38.63l-.37.29c-1.46-1.71-2.26-4.23-1.51-6.06l.48.13C89,34.88,90.31,37.46,91.24,38.63Z"/><path class="cls-19" d="M94.92,37l-1.66,3a3.85,3.85,0,0,0,1.85.53,2.57,2.57,0,0,0,2-1l-.16-1.69Z"/><path class="cls-22" d="M97.1,39.56a5.22,5.22,0,0,1-3.84.45l-.23.41a5.06,5.06,0,0,0,4.1-.5Z"/><path class="cls-16" d="M93.68,39.75l0,0a6.9,6.9,0,0,1-1-2.66.22.22,0,0,1,.44,0A6.66,6.66,0,0,0,94,39.48a.21.21,0,0,1-.07.3A.2.2,0,0,1,93.68,39.75Z"/><path class="cls-23" d="M91.54,38.19a.21.21,0,0,1-.05-.23.23.23,0,0,1,.29-.13,4,4,0,0,0,2.72.28.23.23,0,0,1,.28.14.23.23,0,0,1-.14.28,4.45,4.45,0,0,1-3-.29A.14.14,0,0,1,91.54,38.19Z"/><path class="cls-24" d="M98.67,35.09a2.69,2.69,0,0,0-1.8-.44A4.91,4.91,0,0,0,95.73,33c-1-1-2.17-1.53-2.56-1.13s.11,1.54,1.13,2.56a3.89,3.89,0,0,0,2.15,1.26,1.88,1.88,0,0,0,.46.41,2.24,2.24,0,0,0,2.16,0C99.37,35.91,99.37,35.54,98.67,35.09Z"/><path class="cls-25" d="M99.07,36.14c.51,0-1.44,2.06-2.28,2.35s-4.92-1.9-5.65-4.93a.35.35,0,0,1,.09-.35l1.66-1.9a.2.2,0,0,1,.29,0C93.91,33.2,96.58,36,99.07,36.14Z"/><path class="cls-22" d="M91.54,33.13h0c.3-.31.61-.62.92-.92h0L92.33,32l-.89,1,.09.17Z"/><path class="cls-22" d="M92.18,34c-.22-.29-.43-.58-.63-.89h0l-.39.39v0a4.64,4.64,0,0,0,.42,1.09l.61-.61Z"/><path class="cls-22" d="M92.47,32.22c.2.31.4.61.62.9h0l.67-.68a7.72,7.72,0,0,1-.55-1c-.25.25-.5.51-.76.76Z"/><path class="cls-22" d="M93.79,34c-.23-.27-.46-.54-.68-.83h0l-.91.91h0c.22.29.46.56.7.82h0l.91-.9Z"/><path class="cls-22" d="M93.62,35.61c-.25-.24-.5-.49-.74-.75h0l-.71.71a7.68,7.68,0,0,0,.71.79l.75-.74Z"/><path class="cls-22" d="M93.79,34c.23.26.48.51.73.75h0l.62-.62c-.26-.25-.5-.51-.73-.78l-.64.64Z"/><path class="cls-22" d="M95.32,35.4q-.41-.33-.78-.69h0l-.9.9h0a10.13,10.13,0,0,0,.79.68h0l.9-.89Z"/><path class="cls-22" d="M95.27,36.91l-.85-.61h0l-.75.75a8,8,0,0,0,.86.61l.74-.75Z"/><path class="cls-22" d="M95.32,35.41c.27.21.54.42.83.61h0c.21-.22.43-.44.65-.65a10.22,10.22,0,0,1-.87-.59l-.63.62Z"/><path class="cls-22" d="M97,36.57h0q-.45-.26-.87-.54h0l-.88.89h0a9.87,9.87,0,0,0,.88.54h0l.88-.88Z"/><path class="cls-22" d="M96.93,37.77c-.26-.1-.52-.2-.77-.32h0l-.7.71a4,4,0,0,0,.81.29l.67-.68Z"/><path class="cls-22" d="M97.05,36.56h0a6.56,6.56,0,0,0,.77.32h0l.83-.83a3.86,3.86,0,0,1-.87-.23l-.74.73Z"/><path class="cls-22" d="M98.53,37.11c-.24-.06-.48-.14-.71-.22h0c-.3.29-.59.58-.88.88h0c.22.08.45.15.68.21A8.48,8.48,0,0,0,98.53,37.11Z"/><path class="cls-23" d="M98.58,37.39a3.15,3.15,0,0,1-2.29-.21A7.6,7.6,0,0,1,94.41,36a9.33,9.33,0,0,1-1.53-1.61,5.43,5.43,0,0,1-1-2,.29.29,0,0,1,.24-.36.31.31,0,0,1,.37.24h0a4.65,4.65,0,0,0,.85,1.8,8,8,0,0,0,1.41,1.5,7,7,0,0,0,1.73,1.1,2.65,2.65,0,0,0,1.85.22h0a.28.28,0,0,1,.36.17A.27.27,0,0,1,98.58,37.39Z"/><circle class="cls-9" cx="95.33" cy="36.31" r="0.73"/><path class="cls-26" d="M95.65,36.27a.36.36,0,0,1-.51,0,.36.36,0,0,1,0-.52.36.36,0,0,1,.51,0A.37.37,0,0,1,95.65,36.27Z"/><path class="cls-8" d="M95.25,31.63a48.81,48.81,0,0,1-4.81,1.49L90.08,31a39.94,39.94,0,0,0,4.6-.78Z"/><path class="cls-8" d="M90.44,33.12a1.07,1.07,0,1,1,.88-1.24A1.07,1.07,0,0,1,90.44,33.12Z"/><path class="cls-8" d="M95.25,31.63a.76.76,0,1,1,.42-1A.76.76,0,0,1,95.25,31.63Z"/><path class="cls-10" d="M89,32.11a1.24,1.24,0,0,1,1.08-1.28,23.53,23.53,0,0,0,3.48-.55c.43-.09.81-.18,1.12-.23a.92.92,0,0,1,1.18.53.94.94,0,0,1-.52,1.22L90.87,34C90,34.29,89,33.08,89,32.11Z"/><path class="cls-8" d="M90.44,33.12a23.82,23.82,0,0,1-4.57.75,1.88,1.88,0,0,1-1.74-1.57c-.23-1.12.14-2,1.36-1.86a38.37,38.37,0,0,0,4.59.57Z"/><path class="cls-8" d="M90.44,33.12a1.07,1.07,0,1,1,.88-1.24A1.07,1.07,0,0,1,90.44,33.12Z"/><path class="cls-27" d="M85.87,33.87a1.88,1.88,0,0,1-1.74-1.57,2.93,2.93,0,0,1,0-.29,10.21,10.21,0,0,0-3.94,3.46L86.3,34l-.09-.16Z"/><path class="cls-11" d="M86.71,30.42a.35.35,0,0,0-.37.16c.24.09.17,1-1,1.8-1,.68-3,1-4.6,2.51a23.25,23.25,0,0,1,4.1-1.4,4,4,0,0,0,2.5-2.07c.45-.88-.61-1-.61-1"/><path class="cls-10" d="M86.71,30.42c.09-.4.77-.38,1.29-.23a5.21,5.21,0,0,0,2.25.65,1.53,1.53,0,0,1,1.14,2.43A20.34,20.34,0,0,1,88.11,36l-1.76,1.22-1.62.63L80.45,36l.34-1.23a10.47,10.47,0,0,1,2.63-1.15,6.27,6.27,0,0,0,3-1.51C87.35,31.06,87.1,30.55,86.71,30.42Z"/><path class="cls-28" d="M80.79,34.79a7.47,7.47,0,0,0-1.4,1l.35,1.33,4.33,1.37,1.24-.46c.25-.22.63-.52,1-.83C85.13,37.2,82,36.31,80.79,34.79Z"/><path class="cls-29" d="M85.31,38.06c-.33.3-.61.59-.86.84-.48.49-2.72.88-4.28.13s-2.31-1.71-1.94-2.1.74-.74,1.16-1.11C81,37.59,83.88,38,85.31,38.06Z"/><path class="cls-30" d="M84.45,38.9a5.59,5.59,0,0,1-1.13,1,7.7,7.7,0,0,1-5.91-1.3.52.52,0,0,1-.06-.72c.21-.24.51-.59.88-1A9.46,9.46,0,0,0,84.45,38.9Z"/><path class="cls-28" d="M85.33,37.18l-1-.38c-.39-.15-.49-.49-.22-.76a1.26,1.26,0,0,1,1.21-.23l.32.12a1.7,1.7,0,0,0,1.64-.3l0,0c.36-.36.22-.82-.31-1l-3.13-1-.31.09,2.69.92c.4.17.51.51.24.78l0,0a1.32,1.32,0,0,1-1.11.26l-.49-.18a1.62,1.62,0,0,0-1.57.32.57.57,0,0,0,.25,1l2.09.77Z"/><path class="cls-31" d="M86.87,32.59l.38.94c0,.09,0,.19-.17.18l-1.21-.12c-.13,0-.18-.13-.1-.21l.82-.82A.18.18,0,0,1,86.87,32.59Z"/><path class="cls-31" d="M86.35,35.87l.26.65c0,.06,0,.12-.12.12l-.83-.08a.09.09,0,0,1-.07-.15l.57-.57A.12.12,0,0,1,86.35,35.87Z"/><path class="cls-8" d="M112.56,21.74c1.26,3.28.63,6.1-3.13,9a11.15,11.15,0,0,0-2,2,2.44,2.44,0,0,1-1.89,1c-1.52,0-4.14-.43-7.33-3.18-3.43-3-5-7.77-.9-12.68S110.1,15.33,112.56,21.74Z"/><path class="cls-17" d="M99,19c2.88-3.48,8.31-3,12,0-3.51-4.23-10.19-5.27-13.64-1.15-4.1,4.91-2.53,9.72.9,12.68a14,14,0,0,0,4.31,2.64,16.73,16.73,0,0,1-2.4-1.75C96.67,28.44,95,23.7,99,19Z"/><path class="cls-13" d="M101.29,26c.87.87-1.18,3.15-2.16,2.17S100.42,25.13,101.29,26Z"/><path class="cls-24" d="M101.29,26c-.65-.65-2.08.33-2.36,1.28l1.66.77C101.29,27.51,101.81,26.51,101.29,26Z"/><path class="cls-3" d="M101.29,26c-.44-.44-1.24-.12-1.8.42l1.78.87A1.06,1.06,0,0,0,101.29,26Z"/><path class="cls-13" d="M107.36,29.51c.79.78-1.28,3-2.16,2.16S106.58,28.73,107.36,29.51Z"/><path class="cls-24" d="M107.36,29.51c-.58-.58-2,.42-2.3,1.33l1.54.65C107.29,31,107.83,30,107.36,29.51Z"/><path class="cls-3" d="M107.36,29.51c-.39-.4-1.17-.06-1.73.48l1.65.74C107.55,30.28,107.65,29.8,107.36,29.51Z"/><path class="cls-32" d="M101.44,31.14a.87.87,0,0,1-.28-.62.22.22,0,0,1,.44,0,.53.53,0,0,0,.22.37.55.55,0,0,0,.49.09.21.21,0,0,1,.27.15.22.22,0,0,1-.14.27,1,1,0,0,1-.88-.15Z"/><path class="cls-24" d="M103.73,33.76a14.41,14.41,0,0,1-4.85,4.72l1.87.39a9.43,9.43,0,0,0,3.73-4c.21-.42.39-.8.56-1.16a7,7,0,0,1-1.19-.15Z"/><path class="cls-9" d="M103.73,33.76a12.47,12.47,0,0,1-3.06,3.45l1.79.39a10.11,10.11,0,0,0,2-2.75c.21-.42.39-.8.56-1.16a7,7,0,0,1-1.19-.15Z"/><path class="cls-33" d="M104.37,35.06a10.9,10.9,0,0,1-1.13,1.7l-1.71-.3a13.8,13.8,0,0,0,1.53-1.66Z"/><path class="cls-24" d="M99.94,23.11c-3.11,2.86-3.42,4.33-4.8,7.22-1.27,2.64-2.58,3.63-3.52,4l-1.23-1.54a10.09,10.09,0,0,0,4.46-4.44c1.35-2.75,2.92-5,4.61-6Z"/><path class="cls-9" d="M99.94,23.11c-3.11,2.86-3.42,4.33-4.8,7.22a10.28,10.28,0,0,1-2,3l-1.22-1.43a10.46,10.46,0,0,0,2.92-3.5c1.35-2.75,2.92-5,4.61-6Z"/><path class="cls-33" d="M95,30.58a11.12,11.12,0,0,1-1.17,1.92l-1.13-1.32a11,11,0,0,0,1.44-1.65Z"/><path class="cls-34" d="M111.19,31.64a.32.32,0,0,1-.2-.22,8.11,8.11,0,0,1,1.4-5.57.31.31,0,0,1,.44-.09.32.32,0,0,1,.08.44,7.56,7.56,0,0,0-1.3,5.07.31.31,0,0,1-.23.38A.25.25,0,0,1,111.19,31.64Z"/><path class="cls-34" d="M112.24,32.52l-.71-1.15a.3.3,0,0,0-.14-.11.29.29,0,0,0-.36.16h0l-.44,1.16a.11.11,0,0,0,0,.06.38.38,0,0,0,.29.44.38.38,0,0,0,.45-.3l.08-.43.23.49a.08.08,0,0,0,0,0,.35.35,0,0,0,.48.11A.35.35,0,0,0,112.24,32.52Z"/><path class="cls-18" d="M111.07,32.91V31.49a.19.19,0,0,1,.19-.18.18.18,0,0,1,.18.14l.32,1.38a.35.35,0,1,1-.69.16S111.07,32.94,111.07,32.91Z"/><path class="cls-23" d="M111.85,31.57A.64.64,0,0,1,111,32a.63.63,0,0,1,.43-1.19A.64.64,0,0,1,111.85,31.57Z"/><path class="cls-24" d="M115.08,28.22a3.33,3.33,0,0,0-2.33-2.5s0,0-.08,0-.65.94-.65.94a2.88,2.88,0,0,0-.08,1.39,2,2,0,0,0,1,1.43l.16.07a1.6,1.6,0,0,0,1.24-.11A1.24,1.24,0,0,0,115.08,28.22Zm-1,.66a.93.93,0,0,1-.84,0,1.39,1.39,0,0,1-.65-1,2.35,2.35,0,0,1,.23-1.51,2.64,2.64,0,0,1,1.64,1.83A.61.61,0,0,1,114.06,28.88Z"/><path class="cls-18" d="M114.32,28.51a3.29,3.29,0,0,0-1.51-2.76.28.28,0,0,0-.13,0,.24.24,0,0,0-.08-.09L111.82,27a4.31,4.31,0,0,0-.28,1.27,2,2,0,0,0,.67,1.76.9.9,0,0,0,.22.11,1.24,1.24,0,0,0,1-.1A1.63,1.63,0,0,0,114.32,28.51Zm-1.18.91c-.36.17-.53.06-.58,0a1.4,1.4,0,0,1-.38-1.2,3.82,3.82,0,0,1,.56-1.77,2.66,2.66,0,0,1,.94,2A1,1,0,0,1,113.14,29.42Z"/><path class="cls-34" d="M112.53,26.56a.21.21,0,0,1-.13-.17.77.77,0,0,1,.44-.65.19.19,0,0,1,.26.11.21.21,0,0,1-.11.26c-.07,0-.2.18-.19.25a.2.2,0,0,1-.19.21Z"/><path class="cls-34" d="M112,26.2a.21.21,0,0,1-.13-.17.59.59,0,0,1,.15-.46.52.52,0,0,1,.33-.19.22.22,0,0,1,.22.19.21.21,0,0,1-.18.21.21.21,0,0,0-.12.22.21.21,0,0,1-.19.21Z"/><path class="cls-35" d="M112.25,26.4a.2.2,0,0,1-.14-.19.89.89,0,0,1,.51-.73.19.19,0,0,1,.26.09.2.2,0,0,1-.09.27.51.51,0,0,0-.28.38.2.2,0,0,1-.2.2Z"/><path class="cls-9" d="M110.72,32.2l.64-.86a15.85,15.85,0,0,1,1.08-2.79,11.61,11.61,0,0,0,1.13-5.78c-.31-5.06-4.45-7.07-5.73-6.95-4-4.4-10,0-12,1.27a7.81,7.81,0,0,1-2.65,1.13l-.67,2.69L94,22.81c.26-.14.53-.28.81-.41a6,6,0,0,0-.66.67l.28,2.1,1.64.54A12,12,0,0,1,99,23.35a11.41,11.41,0,0,0-1.43,1.25l-.11,1.91,1.18-.7a11.65,11.65,0,0,1,6.54-3.6c-2,1-3.68,2.59-4,3.34A6.28,6.28,0,0,0,103,27c1.48-.09,2.93-1,4.49-2.6a10,10,0,0,1-3.37,3.37,9,9,0,0,0,3.76,1.62A5.87,5.87,0,0,0,109.54,28a12.15,12.15,0,0,0,1.21-1.7,11.89,11.89,0,0,1-2.35,4.79l0,1.67Z"/><path class="cls-33" d="M104.79,22.05c-2.64-2.63-3.77-5.91-2.91-8a13.09,13.09,0,0,0-3.25,1.27c-.11,2.34,1.11,5.3,3.41,7.9a10.59,10.59,0,0,1,2.95-1C104.92,22.18,104.85,22.12,104.79,22.05Z"/><path class="cls-33" d="M112.67,28a11.73,11.73,0,0,0,.89-3.58c-1.81,1.63-5.52.69-8.51-2.14a14.46,14.46,0,0,0-2.39,1.63,1.42,1.42,0,0,1,.12.13,16.67,16.67,0,0,0,2.54,2.08,12.33,12.33,0,0,0,2.17-1.78,7.71,7.71,0,0,1-1.69,2.09A12.08,12.08,0,0,0,109.54,28a12,12,0,0,0,1.21-1.69,13.24,13.24,0,0,1-.59,1.81A6.12,6.12,0,0,0,112.67,28Z"/><path class="cls-36" d="M93.24,18.22a6.45,6.45,0,0,1-1.31.18,6.41,6.41,0,0,0,.64,2.51l1.34-.48A8.78,8.78,0,0,1,93.24,18.22Z"/><path class="cls-24" d="M95,27a13.36,13.36,0,0,1,1.1-1.33,11.62,11.62,0,0,1-1.93-2.63c-.29.33-.54.68-.79,1A6.81,6.81,0,0,0,95,27Z"/><path class="cls-24" d="M93.15,23.41a5.27,5.27,0,0,1,.89-.6,7.34,7.34,0,0,1-.83-2.13l-.64.23L92,21.1A5,5,0,0,0,93.15,23.41Z"/><path class="cls-37" d="M97.62,24.6A10,10,0,0,0,96,26.73a3.34,3.34,0,0,0,1.45,1.81,4.48,4.48,0,0,1,1.2-2.72A6.42,6.42,0,0,1,97.62,24.6Z"/><path class="cls-38" d="M111.37,32.38a2.15,2.15,0,0,1,0-1,6.08,6.08,0,0,1-2.21.46l-.73,1A4.55,4.55,0,0,0,111.37,32.38Z"/><path class="cls-37" d="M106.37,33.24a2.15,2.15,0,0,0,1.63,0l.43-.49,1.26-1.52a2.57,2.57,0,0,1-1.3-.15A18.76,18.76,0,0,1,106.37,33.24Z"/><path class="cls-39" d="M105.78,17.58a16.67,16.67,0,0,1,1.44,1.33c.15.21-.12.85-.34.94l-1.88.79c-.24.09-.51-.31-.43-.63.23-.72.45-1.44.66-2.15C105.3,17.55,105.61,17.39,105.78,17.58Z"/><path class="cls-40" d="M105.8,17.12a13.41,13.41,0,0,1,1.39,1.72.31.31,0,0,1-.14.47l-2,.84c-.24.1-.43-.17-.35-.48.2-.77.38-1.52.55-2.27C105.32,17.09,105.62,16.94,105.8,17.12Z"/><path class="cls-41" d="M103.69,16.85a14.4,14.4,0,0,1,2.09,1.62.91.91,0,0,1-.25,1l-2.66,1.15c-.28.12-.63-.28-.55-.62.25-.94.49-1.87.72-2.78C103.1,16.86,103.46,16.67,103.69,16.85Z"/><path class="cls-42" d="M103.67,16.42a14.34,14.34,0,0,1,2.11,2,.31.31,0,0,1-.11.49c-.92.39-1.85.79-2.79,1.21-.28.12-.52-.14-.45-.49.22-1,.41-1.93.59-2.87A.44.44,0,0,1,103.67,16.42Z"/><path class="cls-43" d="M101.25,16.08A14.33,14.33,0,0,1,104.17,18c.17.16,0,.73-.19.83-1.16.55-2.34,1.13-3.53,1.72a.38.38,0,0,1-.52-.45c.23-1.24.44-2.44.62-3.6A.51.51,0,0,1,101.25,16.08Z"/><path class="cls-44" d="M101.23,15.79a13.54,13.54,0,0,1,2.83,2l.15.19a.36.36,0,0,1-.23.33c-1.16.57-2.35,1.15-3.54,1.75a.37.37,0,0,1-.53-.44c.22-1.23.57-2.27.74-3.41C100.7,15.92,101,15.65,101.23,15.79Z"/><path class="cls-45" d="M100.69,16.36a.5.5,0,0,1,.68-.38,13.58,13.58,0,0,1,2.82,2h0a.29.29,0,0,0-.09-.23,14.3,14.3,0,0,0-2.9-2.1.53.53,0,0,0-.71.4c-.17,1.14-.37,2.33-.59,3.56a.36.36,0,0,0,.25.45.38.38,0,0,1,0-.28C100.33,18.63,100.52,17.48,100.69,16.36Z"/><path class="cls-34" d="M96.69,24.62a.4.4,0,0,1-.09-.32,9,9,0,0,1,4-4.92A.35.35,0,0,1,101,20a8.34,8.34,0,0,0-3.7,4.44.34.34,0,0,1-.41.28A.42.42,0,0,1,96.69,24.62Z"/><path class="cls-34" d="M97.33,26l-.17-1.48a.32.32,0,0,0-.09-.17.29.29,0,0,0-.43,0h0l-1,.95-.05.05a.41.41,0,0,0,.09.58.41.41,0,0,0,.58-.08l.29-.4V26a.09.09,0,0,0,0,.05.38.38,0,0,0,.43.34A.39.39,0,0,0,97.33,26Z"/><path class="cls-18" d="M96,25.83l.68-1.42a.2.2,0,0,1,.27-.09.19.19,0,0,1,.11.22l-.33,1.54a.39.39,0,1,1-.76-.17Z"/><path class="cls-31" d="M97.39,24.85a.71.71,0,0,1-1,0,.7.7,0,0,1,0-1,.71.71,0,0,1,1,1Z"/><path class="cls-34" d="M95.24,22a.33.33,0,0,1,.07-.31A8.55,8.55,0,0,1,101,19.55a.33.33,0,0,1,.34.33.34.34,0,0,1-.33.34,7.94,7.94,0,0,0-5.16,1.94.35.35,0,0,1-.48,0A.33.33,0,0,1,95.24,22Z"/><path class="cls-34" d="M95.12,23.46l.55-1.3a.25.25,0,0,0,0-.19.29.29,0,0,0-.35-.21h0l-1.27.32-.06,0a.4.4,0,0,0-.21.52.42.42,0,0,0,.53.21l.42-.19-.28.49a.08.08,0,0,0,0,0,.37.37,0,0,0,.19.49A.37.37,0,0,0,95.12,23.46Z"/><path class="cls-18" d="M94.07,22.7l1.23-.86a.19.19,0,0,1,.27.05.2.2,0,0,1,0,.25l-1,1.11a.37.37,0,0,1-.52,0,.36.36,0,0,1,0-.52A.17.17,0,0,1,94.07,22.7Z"/><path class="cls-23" d="M95.7,22.55a.67.67,0,1,1,.47-.82A.67.67,0,0,1,95.7,22.55Z"/><path class="cls-24" d="M102.2,23a3.66,3.66,0,0,0-1.14-3.59.2.2,0,0,0-.08,0,.16.16,0,0,0,0-.07,3,3,0,0,0-2.15-2.19,1.44,1.44,0,0,0-1.49.6,1.33,1.33,0,0,0-.22,1.3,1.46,1.46,0,0,0,.32.47,2.15,2.15,0,0,0,1.07.55,3.47,3.47,0,0,0,1.37,0,3.13,3.13,0,0,0-.74,1.35,2.19,2.19,0,0,0,.32,1.89l.13.15a1.69,1.69,0,0,0,1.28.48A1.36,1.36,0,0,0,102.2,23Zm-3.55-3.66a1.17,1.17,0,0,1-.87-.59.67.67,0,0,1,.13-.64.74.74,0,0,1,.79-.31,1.87,1.87,0,0,1,.93.54,2.59,2.59,0,0,1,.57.85A2.88,2.88,0,0,1,98.65,19.37Zm2.22,3.84a1,1,0,0,1-.85-.36,1.5,1.5,0,0,1-.2-1.28,2.62,2.62,0,0,1,1-1.41,3,3,0,0,1,.78,2.61A.68.68,0,0,1,100.87,23.21Z"/><path class="cls-18" d="M101.3,23a3.6,3.6,0,0,0-.2-3.47.35.35,0,0,0-.11-.1.37.37,0,0,0,0-.14,3.22,3.22,0,0,0-2.62-1.49,1.78,1.78,0,0,0-1.66.8,1,1,0,0,0,0,1.08,1.1,1.1,0,0,0,.19.25,2,2,0,0,0,1.47.52,5.12,5.12,0,0,0,1.24-.19,5,5,0,0,0-.88,1.14,2.21,2.21,0,0,0-.16,2.07,1.09,1.09,0,0,0,.17.22,1.39,1.39,0,0,0,1,.37A1.81,1.81,0,0,0,101.3,23Zm-3-3.25a1.24,1.24,0,0,1-1-.42.31.31,0,0,1,0-.36,1.11,1.11,0,0,1,1-.46,2.71,2.71,0,0,1,1.74.74l.06.07A4.64,4.64,0,0,1,98.29,19.71Zm1.41,3.6c-.45,0-.56-.18-.6-.24a1.59,1.59,0,0,1,.18-1.38,4.19,4.19,0,0,1,1.41-1.5,3,3,0,0,1,0,2.44A1.13,1.13,0,0,1,99.7,23.31Z"/><path class="cls-34" d="M100.44,20.17a.23.23,0,0,1,0-.24.84.84,0,0,1,.74-.44.22.22,0,0,1,0,.44.49.49,0,0,0-.31.16.21.21,0,0,1-.28.13Z"/><path class="cls-34" d="M100.08,19.56a.23.23,0,0,1,0-.24.67.67,0,0,1,.36-.38.55.55,0,0,1,.43,0,.21.21,0,0,1,.12.28.22.22,0,0,1-.28.13.24.24,0,0,0-.22.16.21.21,0,0,1-.28.12A.2.2,0,0,1,100.08,19.56Z"/><path class="cls-35" d="M100.23,19.88a.21.21,0,0,1,0-.26,1,1,0,0,1,.85-.5.23.23,0,0,1,.22.23.21.21,0,0,1-.22.21.57.57,0,0,0-.46.26.23.23,0,0,1-.3.1Z"/><rect class="cls-46" x="77" y="14" width="38" height="37"/><line class="cls-46" x1="17.29" y1="57" x2="43.71" y2="57"/><polygon class="cls-47" points="17.78 57.42 17.36 57 17.78 56.58 17.42 56.58 17 57 17.42 57.42 17.78 57.42"/><polygon class="cls-47" points="43.22 57.42 43.64 57 43.22 56.58 43.58 56.58 44 57 43.58 57.42 43.22 57.42"/><line class="cls-46" x1="77.29" y1="57" x2="113.71" y2="57"/><polygon class="cls-47" points="77.78 57.42 77.36 57 77.78 56.58 77.42 56.58 77 57 77.42 57.42 77.78 57.42"/><polygon class="cls-47" points="113.22 57.42 113.64 57 113.22 56.58 113.58 56.58 114 57 113.58 57.42 113.22 57.42"/><text class="cls-48" transform="translate(25.82 61.01)">width</text><text class="cls-48" transform="translate(91.4 61.4)">width</text><line class="cls-46" x1="73" y1="14.29" x2="73" y2="50.71"/><polygon class="cls-47" points="72.58 14.78 73 14.36 73.42 14.78 73.42 14.42 73 14 72.58 14.42 72.58 14.78"/><polygon class="cls-47" points="72.58 50.22 73 50.64 73.42 50.22 73.42 50.58 73 51 72.58 50.58 72.58 50.22"/><line class="cls-46" x1="47" y1="10.29" x2="47" y2="51.71"/><polygon class="cls-47" points="46.58 10.78 47 10.36 47.42 10.78 47.42 10.42 47 10 46.58 10.42 46.58 10.78"/><polygon class="cls-47" points="46.58 51.22 47 51.64 47.42 51.22 47.42 51.58 47 52 46.58 51.58 46.58 51.22"/><text class="cls-48" transform="translate(55.4 33.4)">height</text><text class="cls-48" transform="translate(75.4 12.4)">x,y</text><text class="cls-48" transform="translate(14.5 8.57)">x,y</text></svg>