<svg xmlns="http://www.w3.org/2000/svg" viewBox="0 0 89 38"><rect x="13" y="16" width="27" height="12" style="fill:#dcdcdc;stroke:#333;stroke-miterlimit:10;stroke-width:0.25px"/><rect x="58" y="15" width="27" height="12" transform="translate(35.79 -44.41) rotate(45)" style="fill:#dcdcdc;stroke:#333;stroke-miterlimit:10;stroke-width:0.25px"/><path d="M25.22,11.92l-.52,1.64h-.23l-.26-.82a5.36,5.36,0,0,1-.14-.54h0a4.26,4.26,0,0,1-.15.54l-.27.82h-.23l-.48-1.64h.26l.23.86c0,.19.08.35.12.52h0c0-.16.09-.34.14-.51l.27-.87h.22l.26.85c.06.19.11.37.15.53h0a5,5,0,0,1,.13-.53l.24-.85Z" style="fill:#333"/><path d="M25.63,11.64a.17.17,0,0,1-.16-.17.16.16,0,0,1,.17-.17.16.16,0,0,1,.16.17A.16.16,0,0,1,25.63,11.64Zm.13,1.92h-.25V11.93h.25Z" style="fill:#333"/><path d="M27.58,13.16c0,.13,0,.29,0,.4h-.22v-.28h0a.58.58,0,0,1-.54.32c-.38,0-.67-.33-.67-.83s.32-.88.7-.88a.53.53,0,0,1,.48.25h0v-1h.25Zm-.25-.58a.45.45,0,0,0-.44-.49c-.31,0-.5.29-.5.67s.17.64.49.64a.47.47,0,0,0,.45-.5Z" style="fill:#333"/><path d="M28.13,11.63l.25-.09v.39h.42v.19h-.42v1c0,.21.06.32.22.32l.17,0,0,.19a.76.76,0,0,1-.25,0c-.39,0-.41-.36-.41-.54v-.94h-.25v-.19h.25Z" style="fill:#333"/><path d="M30.44,13.56h-.25v-1c0-.27-.1-.5-.38-.5a.45.45,0,0,0-.43.46v1h-.25v-2.4h.25v1h0a.61.61,0,0,1,.51-.29c.2,0,.55.12.55.68Z" style="fill:#333"/><path d="M4,23.12H3.72v-1c0-.27-.1-.5-.38-.5a.45.45,0,0,0-.43.46v1H2.66v-2.4h.25v1h0a.61.61,0,0,1,.51-.29c.2,0,.55.12.55.68Z" style="fill:#333"/><path d="M5.61,23.05a1.1,1.1,0,0,1-.51.11.75.75,0,0,1-.77-.83c0-.51.29-.88.73-.88a.66.66,0,0,1,.64.74c0,.06,0,.1,0,.14H4.58c0,.46.26.63.55.63a.89.89,0,0,0,.43-.09Zm-.16-.9c0-.23-.09-.51-.41-.51s-.43.28-.46.51Z" style="fill:#333"/><path d="M6.19,21.2a.17.17,0,0,1,0-.34.17.17,0,0,1,0,.34Zm.13,1.92H6.07V21.49h.25Z" style="fill:#333"/><path d="M8.14,21.48c0,.12,0,.25,0,.45v1c0,.28,0,.94-.78.94a1,1,0,0,1-.52-.13l.07-.19a.91.91,0,0,0,.46.12c.3,0,.52-.16.52-.59v-.2h0a.56.56,0,0,1-.51.28.73.73,0,0,1-.67-.81.77.77,0,0,1,.71-.86.54.54,0,0,1,.5.28h0l0-.25Zm-.27.63a.43.43,0,0,0-.43-.46c-.29,0-.49.25-.49.65s.17.62.49.62a.44.44,0,0,0,.43-.48Z" style="fill:#333"/><path d="M9.93,23.12H9.68v-1c0-.27-.1-.5-.38-.5a.45.45,0,0,0-.43.46v1H8.62v-2.4h.25v1h0a.61.61,0,0,1,.51-.29c.2,0,.55.12.55.68Z" style="fill:#333"/><path d="M10.47,21.19l.25-.09v.39h.42v.19h-.42v.95c0,.2.06.32.22.32l.17,0,0,.19a.76.76,0,0,1-.25,0c-.39,0-.41-.36-.41-.54v-.94h-.25v-.19h.25Z" style="fill:#333"/><polyline points="85.5 34.4 85.5 34.9 85 34.9" style="fill:none;stroke:#333;stroke-miterlimit:10;stroke-width:0.5px"/><line x1="84.01" y1="34.9" x2="58.75" y2="34.9" style="fill:none;stroke:#333;stroke-miterlimit:10;stroke-width:0.5px;stroke-dasharray:0.9904623031616211,0.9904623031616211"/><polyline points="58.26 34.9 57.76 34.9 57.76 34.4" style="fill:none;stroke:#333;stroke-miterlimit:10;stroke-width:0.5px"/><line x1="57.76" y1="33.41" x2="57.76" y2="8.1" style="fill:none;stroke:#333;stroke-miterlimit:10;stroke-width:0.5px;stroke-dasharray:0.9925925731658936,0.9925925731658936"/><polyline points="57.76 7.6 57.76 7.1 58.26 7.1" style="fill:none;stroke:#333;stroke-miterlimit:10;stroke-width:0.5px"/><line x1="59.25" y1="7.1" x2="84.5" y2="7.1" style="fill:none;stroke:#333;stroke-miterlimit:10;stroke-width:0.5px;stroke-dasharray:0.9904623031616211,0.9904623031616211"/><polyline points="85 7.1 85.5 7.1 85.5 7.6" style="fill:none;stroke:#333;stroke-miterlimit:10;stroke-width:0.5px"/><line x1="85.5" y1="8.59" x2="85.5" y2="33.9" style="fill:none;stroke:#333;stroke-miterlimit:10;stroke-width:0.5px;stroke-dasharray:0.9925925731658936,0.9925925731658936"/><path d="M69.76,3.48l-.52,1.64H69l-.26-.82a5.36,5.36,0,0,1-.14-.54h0a4.26,4.26,0,0,1-.15.54l-.28.82H68l-.49-1.64h.26l.23.86c.05.19.09.35.12.52h0c0-.16.09-.34.15-.51l.27-.87h.22l.26.85c.06.19.1.37.14.53h0c0-.16.08-.33.13-.53l.24-.85Z" style="fill:#333"/><path d="M70.18,3.2a.17.17,0,0,1,0-.34.17.17,0,0,1,0,.34Zm.13,1.92h-.25V3.49h.25Z" style="fill:#333"/><path d="M72.12,4.72c0,.13,0,.29,0,.4h-.23V4.84h0a.56.56,0,0,1-.53.32.74.74,0,0,1-.68-.83c0-.56.33-.88.71-.88a.55.55,0,0,1,.48.25h0v-1h.24Zm-.24-.58a.46.46,0,0,0-.45-.49c-.31,0-.49.29-.49.66s.16.65.48.65a.48.48,0,0,0,.46-.5Z" style="fill:#333"/><path d="M72.68,3.19l.25-.09v.39h.42v.19h-.42v.95c0,.2.06.32.22.32l.17,0v.19a.7.7,0,0,1-.24,0c-.4,0-.41-.36-.41-.54V3.68h-.25V3.49h.25Z" style="fill:#333"/><path d="M75,5.12h-.25v-1c0-.27-.1-.5-.38-.5a.45.45,0,0,0-.43.46v1h-.25V2.72h.25v1h0a.61.61,0,0,1,.51-.29c.2,0,.55.12.55.68Z" style="fill:#333"/><path d="M48.47,23.12h-.25v-1c0-.27-.1-.5-.38-.5a.45.45,0,0,0-.43.46v1h-.25v-2.4h.25v1h0a.61.61,0,0,1,.51-.29c.2,0,.55.12.55.68Z" style="fill:#333"/><path d="M50.11,23.05a1.15,1.15,0,0,1-.52.11.75.75,0,0,1-.76-.83c0-.51.29-.88.73-.88a.66.66,0,0,1,.64.74c0,.06,0,.1,0,.14H49.07c0,.46.27.63.56.63a.92.92,0,0,0,.43-.09Zm-.16-.9c0-.23-.09-.51-.41-.51a.5.5,0,0,0-.46.51Z" style="fill:#333"/><path d="M50.69,21.2a.16.16,0,0,1-.16-.17.16.16,0,1,1,.32,0A.16.16,0,0,1,50.69,21.2Zm.12,1.92h-.24V21.49h.24Z" style="fill:#333"/><path d="M52.64,21.48c0,.12,0,.25,0,.45v1c0,.28,0,.94-.79.94a1,1,0,0,1-.51-.13l.07-.19a.91.91,0,0,0,.46.12c.3,0,.52-.16.52-.59v-.2h0a.56.56,0,0,1-.51.28.73.73,0,0,1-.67-.81.77.77,0,0,1,.71-.86.54.54,0,0,1,.5.28h0l0-.25Zm-.27.63a.43.43,0,0,0-.43-.46c-.29,0-.49.25-.49.65s.17.62.48.62a.45.45,0,0,0,.44-.48Z" style="fill:#333"/><path d="M54.43,23.12h-.25v-1c0-.27-.1-.5-.38-.5a.45.45,0,0,0-.43.46v1h-.25v-2.4h.25v1h0a.61.61,0,0,1,.51-.29c.2,0,.55.12.55.68Z" style="fill:#333"/><path d="M55,21.19l.25-.09v.39h.42v.19h-.42v.95c0,.2.06.32.22.32l.17,0v.19a.65.65,0,0,1-.24,0c-.4,0-.41-.36-.41-.54v-.94h-.25v-.19H55Z" style="fill:#333"/></svg>