<?xml version="1.0" encoding="UTF-8"?>
<svg id="_レイヤー_3" data-name="レイヤー 3" xmlns="http://www.w3.org/2000/svg" xmlns:xlink="http://www.w3.org/1999/xlink" viewBox="0 0 60 60">
  <defs>
    <clipPath id="clippath">
      <path d="m52.62,55.67H18.67c-1.15,0-2.09-.94-2.09-2.09V7.76c0-1.15.94-2.09,2.09-2.09h27.86l2.56,5.39,5.63,2.8v39.71c0,1.15-.94,2.09-2.09,2.09Z" style="fill: none;"/>
    </clipPath>
  </defs>
  <path d="m54.72,13.86l-8.19-8.19h-27.86c-1.15,0-2.09.94-2.09,2.09v4.04c-7.37,3.56-12.45,11.11-12.45,19.84s5.08,16.28,12.45,19.84v2.1c0,1.15.94,2.09,2.09,2.09h33.95c1.15,0,2.09-.94,2.09-2.09V13.86Z" style="fill: #fff; stroke: #fff; stroke-linecap: round; stroke-linejoin: round; stroke-width: 3px;"/>
  <g>
    <path d="m52.62,55.67H18.67c-1.15,0-2.09-.94-2.09-2.09V7.76c0-1.15.94-2.09,2.09-2.09h27.86l2.56,5.39,5.63,2.8v39.71c0,1.15-.94,2.09-2.09,2.09Z" style="fill: #31394a;"/>
    <path d="m46.53,5.67l8.19,8.19h-6.12c-1.14,0-2.07-.93-2.07-2.07v-6.12Z" style="fill: #1faedb;"/>
  </g>
  <g style="clip-path: url(#clippath);">
    <path d="m49.84,33.85c0,11.86-9.62,21.48-21.48,21.48S6.88,45.72,6.88,33.85,16.5,12.37,28.36,12.37s21.48,9.62,21.48,21.48Z" style="fill: #1f2530;"/>
    <path d="m60.28,29.24c0-1.14-.93-2.07-2.07-2.07h-15.89c-1.14,0-2.07.93-2.07,2.07s.93,2.07,2.07,2.07h1.54c1.39,0,1.54,2.22.05,2.22h-7.56c-1.14,0-2.07.93-2.07,2.07s.93,2.07,2.07,2.07h15.89c1.14,0,2.07-.93,2.07-2.07s-.93-2.07-2.07-2.07h-2.6c-1,0-1.16-2.22.08-2.22h8.49c1.14,0,2.07-.93,2.07-2.07Z" style="fill: #1f2530;"/>
  </g>
  <path d="m48.17,31.64c0,12.16-9.86,22.02-22.02,22.02S4.12,43.8,4.12,31.64,13.98,9.62,26.15,9.62s22.02,9.86,22.02,22.02Z" style="fill: #ffca5f;"/>
  <path d="m58.54,27.5c0-1.14-.93-2.07-2.07-2.07h-15.89c-1.14,0-2.07.93-2.07,2.07s.93,2.07,2.07,2.07h1.54c1.39,0,1.54,2.22.05,2.22h-7.56c-1.14,0-2.07.93-2.07,2.07s.93,2.07,2.07,2.07h15.89c1.14,0,2.07-.93,2.07-2.07s-.93-2.07-2.07-2.07h-2.6c-1,0-1.16-2.22.08-2.22h8.49c1.14,0,2.07-.93,2.07-2.07Z" style="fill: #fff;"/>
  <g>
    <path d="m20.14,35.21h-1.21l-.12-2.57c-.03-.88-.08-1.77-.07-2.6h-.03c-.19.79-.43,1.67-.65,2.41l-.81,2.67h-.96l-.73-2.63c-.22-.75-.42-1.64-.58-2.45h-.03c-.02.83-.06,1.81-.1,2.63l-.13,2.54h-1.16l.45-6.61h1.57l.71,2.48c.22.8.4,1.57.55,2.33h.03c.15-.74.35-1.54.58-2.33l.75-2.48h1.56l.38,6.61Z" style="fill: #31394a;"/>
    <path d="m21.26,28.69c.41-.08.98-.14,1.71-.14.83,0,1.46.16,1.88.52.4.33.64.87.64,1.48,0,1.81-1.51,2.22-2.5,2.22-.18,0-.33,0-.46-.03v2.47h-1.26v-6.52Zm1.26,3.05c.12.03.26.03.45.03.79,0,1.25-.45,1.25-1.16s-.45-1.07-1.15-1.07c-.26,0-.44.03-.55.05v2.15Z" style="fill: #31394a;"/>
    <path d="m29.29,35.21h-1.18v-1.61h-2.62v-.82l2.36-4.07h1.44v3.93h.75v.96h-.75v1.61Zm-2.66-2.57h1.49v-1.62c0-.38.03-.79.05-1.18h-.03c-.2.41-.35.77-.55,1.14l-.95,1.63v.02Z" style="fill: #31394a;"/>
  </g>
  <g>
    <path d="m20.14,24.19h-1.21l-.12-2.57c-.03-.88-.08-1.77-.07-2.6h-.03c-.19.79-.43,1.67-.65,2.41l-.81,2.67h-.96l-.73-2.63c-.22-.75-.42-1.64-.58-2.45h-.03c-.02.83-.06,1.81-.1,2.63l-.13,2.54h-1.16l.45-6.61h1.57l.71,2.48c.22.8.4,1.57.55,2.33h.03c.15-.74.35-1.54.58-2.33l.75-2.48h1.56l.38,6.61Z" style="fill: #31394a;"/>
    <path d="m21.26,17.66c.41-.08.98-.14,1.71-.14.83,0,1.46.16,1.88.52.4.33.64.87.64,1.48,0,1.81-1.51,2.22-2.5,2.22-.18,0-.33,0-.46-.03v2.47h-1.26v-6.52Zm1.26,3.05c.12.03.26.03.45.03.79,0,1.25-.45,1.25-1.16s-.45-1.07-1.15-1.07c-.26,0-.44.03-.55.05v2.15Z" style="fill: #31394a;"/>
    <path d="m28.62,20.69c.72.16,1.32.75,1.32,1.63,0,1.08-.87,1.96-2.38,1.96-.69,0-1.31-.18-1.63-.4l.28-.96c.24.15.76.35,1.26.35.78,0,1.17-.48,1.17-1.01,0-.73-.64-1.07-1.33-1.07h-.44v-.89h.41c.51,0,1.16-.28,1.16-.91,0-.46-.3-.79-.9-.79-.45,0-.89.2-1.13.35l-.27-.91c.34-.22,1-.45,1.69-.45,1.25,0,1.9.73,1.9,1.59,0,.67-.4,1.23-1.12,1.5v.02Z" style="fill: #31394a;"/>
  </g>
  <g>
    <path d="m13.57,39.53h1.28v6.64h-1.28v-6.64Z" style="fill: #31394a;"/>
    <path d="m22.57,46.17h-1.22l-.12-2.58c-.03-.88-.08-1.78-.07-2.62h-.03c-.19.79-.43,1.68-.66,2.42l-.81,2.69h-.97l-.73-2.64c-.22-.75-.42-1.65-.58-2.46h-.03c-.02.84-.06,1.82-.1,2.64l-.13,2.56h-1.17l.45-6.64h1.58l.72,2.5c.22.8.41,1.58.55,2.34h.03c.16-.74.35-1.55.58-2.34l.75-2.5h1.57l.38,6.64Z" style="fill: #31394a;"/>
    <path d="m28.56,46.17h-1.34l-.48-1.75h-1.78l-.46,1.75h-1.3l1.88-6.64h1.61l1.86,6.64Zm-2-2.72l-.4-1.51c-.1-.41-.22-.95-.3-1.36h-.03c-.09.41-.2.96-.29,1.35l-.4,1.52h1.42Z" style="fill: #31394a;"/>
    <path d="m34.23,45.92c-.39.15-1.14.33-1.89.33-1.01,0-1.78-.26-2.34-.81-.57-.56-.9-1.47-.9-2.52,0-2.25,1.49-3.45,3.4-3.45.67,0,1.24.12,1.56.28l-.27,1.05c-.3-.14-.68-.24-1.27-.24-1.18,0-2.08.73-2.08,2.33s.82,2.32,1.92,2.32c.31,0,.54-.04.66-.1v-1.62h-.96v-1.01h2.18v3.45Z" style="fill: #31394a;"/>
    <path d="m39.09,46.17h-3.72v-6.64h3.58v1.07h-2.3v1.61h2.17v1.05h-2.17v1.85h2.44v1.07Z" style="fill: #31394a;"/>
  </g>
</svg>