<svg xmlns="http://www.w3.org/2000/svg" viewBox="0 0 60 60"><defs><style>.cls-1{fill:#216ead;}.cls-2{fill:#31394a;}.cls-3{fill:#1faedb;}.cls-4{fill:#55e7ff;}.cls-5{fill:#546277;}.cls-6{fill:#ffc248;}</style></defs><rect class="cls-1" x="22.23" y="44.18" width="14.53" height="3.72"/><path class="cls-1" d="M20.9,47.37H38.1a3,3,0,0,1,3,3v0a0,0,0,0,1,0,0H17.85a0,0,0,0,1,0,0v0A3,3,0,0,1,20.9,47.37Z"/><path class="cls-2" d="M49.66,43.35l-40.12.07c-2.2,0-4.46-.6-5-2.57V13.67a4,4,0,0,1,4-4H50.44a4,4,0,0,1,4,4V40.85C53.39,42.68,51.86,43.35,49.66,43.35Z"/><path class="cls-3" d="M54.44,40.85a4,4,0,0,1-4,4H8.56a4,4,0,0,1-4-4"/><circle class="cls-4" cx="49.81" cy="42.82" r="1.36"/><path class="cls-5" d="M33.92,30.3a1.78,1.78,0,0,1,1.78-1.78H49.35a1.78,1.78,0,0,1,0,3.56H48c-1.2,0-1.33,1.91,0,1.91h6.5v3.55H40.83a1.78,1.78,0,1,1,0-3.55h2.23c.87,0,1-1.91-.07-1.91H35.7A1.78,1.78,0,0,1,33.92,30.3Z"/><path class="cls-5" d="M22.76,20.79a1.58,1.58,0,0,1-1.57,1.58H9.1a1.58,1.58,0,1,1,0-3.15h1.17c1.05,0,1.17-1.69,0-1.69H4.56V14.38H16.64a1.58,1.58,0,1,1,0,3.15h-2c-.77,0-.88,1.69.06,1.69h6.46A1.58,1.58,0,0,1,22.76,20.79Z"/><path class="cls-6" d="M25.25,21.73l-1.86,7.89H21.78l-.68-3.35a23.93,23.93,0,0,1-.4-2.51h0c-.14.89-.28,1.68-.47,2.51l-.77,3.35h-1.6L16.1,21.73h1.61l.61,3.4c.16.95.32,1.92.43,2.76h0c.11-.88.31-1.79.51-2.78L20,21.73h1.5l.67,3.42c.17.93.32,1.8.43,2.72h0c.12-.93.27-1.82.44-2.77l.64-3.37Z"/><path class="cls-6" d="M29.53,29.39a4.92,4.92,0,0,1-1.84.33,2.6,2.6,0,0,1-2.77-2.88c0-1.64.94-3.06,2.61-3.06,1.39,0,2.29,1,2.29,2.83a3.67,3.67,0,0,1,0,.61H26.36a1.38,1.38,0,0,0,1.56,1.36,4,4,0,0,0,1.4-.24Zm-1.11-3.23c0-.6-.23-1.32-1-1.32s-1,.76-1.08,1.32Z"/><path class="cls-6" d="M32.14,24.59a1.81,1.81,0,0,1,1.59-.81c1.26,0,2.1,1.17,2.1,2.87,0,2.07-1.16,3.08-2.34,3.08a1.64,1.64,0,0,1-1.53-.9h0l-.07.79H30.56c0-.41,0-1.06,0-1.65v-6.6h1.52v3.22Zm0,2.75a1.09,1.09,0,0,0,1,1.18c.74,0,1.16-.69,1.16-1.8S33.92,25,33.14,25a1.13,1.13,0,0,0-1,1.23Z"/><path class="cls-6" d="M44,29.31a7.2,7.2,0,0,1-2.25.39,3.75,3.75,0,0,1-2.78-1,4.14,4.14,0,0,1-1.07-3,3.81,3.81,0,0,1,4-4.09,4.66,4.66,0,0,1,1.85.32l-.32,1.26a3.36,3.36,0,0,0-1.5-.29c-1.41,0-2.48.86-2.48,2.77s1,2.75,2.28,2.75a1.9,1.9,0,0,0,.78-.12V26.42H41.38v-1.2H44Z"/><path class="cls-6" d="M49.66,29.62H45.32V21.73h1.52v6.6h2.82Z"/><path class="cls-6" d="M15,25.5c0-4.83,7-8.75,15.68-8.75,5.56,0,10.43,1.62,13.21,4.05-2.72-3.79-8.6-6.42-15.45-6.42-9.42,0-17,5-17,11.12S19,36.61,28.39,36.61c6.85,0,12.73-2.63,15.45-6.42-2.78,2.44-7.65,4.06-13.21,4.06C22,34.25,15,30.33,15,25.5Z"/></svg>