<svg xmlns="http://www.w3.org/2000/svg" viewBox="0 0 60 60"><defs><style>.cls-1{fill:#31394a;}.cls-2{fill:#576f82;}.cls-3{fill:#1f2530;}.cls-4{fill:#55e7ff;}.cls-5{fill:#1faedb;}.cls-6{fill:#216ead;}.cls-7{fill:#ffca5f;}</style></defs><rect class="cls-1" x="2.46" y="8.65" width="54.13" height="42.78" rx="4.73"/><path class="cls-2" d="M2.46,46.7a4.74,4.74,0,0,0,4.73,4.73H51.85a4.75,4.75,0,0,0,4.74-4.73V41.35H2.46Z"/><path class="cls-3" d="M48.53,26.49,35.15,17.36A1.42,1.42,0,0,0,33,18.62V36.88a1.42,1.42,0,0,0,2.2,1.26L48.53,29A1.55,1.55,0,0,0,48.53,26.49Z"/><path class="cls-3" d="M40.93,26.49,27.56,17.36a1.42,1.42,0,0,0-2.2,1.26V36.88a1.42,1.42,0,0,0,2.2,1.26L40.93,29A1.54,1.54,0,0,0,40.93,26.49Z"/><path class="cls-3" d="M33.34,26.49,20,17.36a1.42,1.42,0,0,0-2.2,1.26V36.88A1.42,1.42,0,0,0,20,38.14L33.34,29A1.54,1.54,0,0,0,33.34,26.49Z"/><path class="cls-4" d="M46.5,24.47,33.13,15.34a1.42,1.42,0,0,0-2.2,1.25V34.86a1.43,1.43,0,0,0,2.2,1.26L46.5,27A1.53,1.53,0,0,0,46.5,24.47Z"/><path class="cls-5" d="M38.91,24.47,25.54,15.34a1.43,1.43,0,0,0-2.21,1.25V34.86a1.43,1.43,0,0,0,2.21,1.26L38.91,27A1.53,1.53,0,0,0,38.91,24.47Z"/><path class="cls-6" d="M31.32,24.47,18,15.34a1.43,1.43,0,0,0-2.21,1.25V34.86A1.43,1.43,0,0,0,18,36.12L31.32,27A1.53,1.53,0,0,0,31.32,24.47Z"/><path class="cls-5" d="M50.82,47.91H18.15a1.5,1.5,0,0,1,0-3H50.82a1.5,1.5,0,0,1,0,3Z"/><circle class="cls-7" cx="18.15" cy="46.41" r="2.63"/><rect class="cls-5" x="9.67" y="43.78" width="1.99" height="5.25"/><rect class="cls-5" x="6.45" y="43.78" width="1.99" height="5.25"/></svg>